<svg version="1.1" xmlns="http://www.w3.org/2000/svg" xmlns:xlink="http://www.w3.org/1999/xlink" x="0px" y="0px" viewBox="0 0 0 0" width="0" height="0">
<pattern  id="butterfinger" patternUnits="userSpaceOnUse" width="190" height="140" patternTransform="scale(0.3),rotate(-50)">
<path fill="#FFE52D" opacity="1.000000" stroke="none" 
	d="
M205.000000,91.000000 
	C205.000000,128.960190 205.000000,166.920380 205.000000,204.940277 
	C137.111099,204.940277 69.222115,204.940277 1.000000,204.940277 
	C1.000000,171.979858 1.000000,138.958588 1.218412,105.711975 
	C1.887471,106.435707 2.338117,107.384781 3.147038,109.088379 
	C4.277351,105.845947 5.113004,103.448784 6.080496,100.673431 
	C4.084516,100.015984 2.542259,99.507996 1.000000,99.000000 
	C1.000000,95.969406 1.000000,92.938812 1.392582,89.450905 
	C4.098002,87.676712 7.312357,86.916138 8.538721,84.928810 
	C11.211024,80.598312 13.882205,79.587120 18.795799,82.640892 
	C18.111927,83.188553 17.637417,83.619019 16.760048,84.018860 
	C15.156787,84.624725 13.134414,85.045097 12.900241,85.935661 
	C11.956128,89.526154 11.564032,93.261810 10.672766,97.174210 
	C8.118199,106.517982 5.858924,115.631401 3.465947,125.284142 
	C15.080820,124.939453 25.824728,126.383438 34.935020,119.223930 
	C42.088329,124.344307 47.702366,123.892456 55.221397,118.003433 
	C57.048958,118.350739 58.434311,118.671692 59.812164,119.208847 
	C65.130875,118.588234 70.911514,121.201927 75.872482,117.309776 
	C76.137840,117.101593 77.023811,117.863602 77.628273,117.878746 
	C80.961716,117.962288 84.297447,117.954018 88.110886,118.057587 
	C91.089119,118.149979 93.588875,118.162018 96.268776,118.303017 
	C97.117584,118.308685 97.786232,118.185394 98.794106,118.097839 
	C102.344620,117.888092 105.555916,117.642601 109.201447,117.474487 
	C110.499229,117.438660 111.362785,117.325455 112.586639,117.300674 
	C114.639626,117.286209 116.332314,117.183319 118.489639,117.126526 
	C122.901878,117.004822 126.902023,117.180756 130.784546,116.587219 
	C136.362381,115.734520 141.153244,116.577980 145.065979,121.373833 
	C152.418091,126.748360 161.601761,124.010277 164.752594,115.721680 
	C164.889938,115.541588 165.057541,115.120766 165.276642,114.999718 
	C165.612839,114.576523 165.729965,114.274368 166.020767,113.692650 
	C167.278824,113.395782 168.364044,113.342834 169.447403,113.368370 
	C171.948639,113.427299 174.448990,113.524277 177.419052,113.641983 
	C183.904831,113.678146 189.921249,113.678146 196.286285,113.678146 
	C194.443207,110.137573 194.075684,98.613800 195.799698,97.207947 
	C196.672592,96.496132 198.494019,96.947510 199.835907,96.875710 
	C200.556503,95.581108 201.268921,94.301178 201.993881,93.055237 
	C202.006409,93.089226 202.077057,93.073204 202.241760,92.917107 
	C202.622192,92.541153 202.775330,92.284019 203.014893,91.839668 
	C203.163940,91.689720 203.369827,91.320419 203.639725,91.240967 
	C204.273087,91.107674 204.636536,91.053833 205.000000,91.000000 
z"/>
<path fill="#FFE52D" opacity="1.000000" stroke="none" 
	d="
M19.005161,82.523705 
	C13.882205,79.587120 11.211024,80.598312 8.538721,84.928810 
	C7.312357,86.916138 4.098002,87.676712 1.392582,88.996796 
	C1.000000,59.701191 1.000000,30.402384 1.000000,1.051789 
	C68.885406,1.051789 136.770859,1.051789 205.000000,1.051789 
	C205.000000,27.353231 205.000000,53.707958 204.640594,80.532936 
	C203.186783,81.335800 202.092392,81.668404 200.610138,81.983452 
	C189.200424,81.695099 178.136215,79.846039 167.204468,83.022385 
	C165.992157,83.374641 164.538086,82.866119 163.194016,82.799416 
	C160.132339,82.647469 156.831192,81.743256 154.068741,82.588020 
	C150.807205,83.585411 148.010910,86.104210 144.585602,88.035095 
	C143.831787,88.121384 143.504822,88.155716 143.178894,88.147690 
	C138.288742,88.027199 132.921402,89.812195 130.169739,83.159798 
	C129.326614,81.121475 126.138969,78.964691 123.421417,82.895523 
	C121.999718,82.850151 120.967873,82.751747 119.773514,82.415680 
	C117.187256,83.347862 114.578995,84.251038 112.392632,85.763924 
	C110.282394,87.224152 108.607361,89.313316 106.404350,91.327911 
	C103.105331,91.681221 100.143112,91.832802 96.894348,91.720932 
	C94.371841,91.102859 92.135895,90.748230 89.921463,89.964523 
	C90.221031,85.223373 89.016891,81.687553 84.178062,81.178902 
	C80.940453,80.838554 76.793579,79.612976 75.550201,85.114075 
	C74.503868,85.438942 73.907127,85.631836 73.455521,85.610611 
	C73.726181,85.278244 73.851700,85.159988 73.923019,84.674179 
	C72.789543,80.224449 69.401329,80.172966 66.329582,80.483849 
	C56.032578,81.526016 45.764172,82.050606 35.418365,81.106308 
	C32.951061,80.881111 30.373363,81.865456 27.555008,82.379562 
	C26.871399,82.385986 26.479223,82.306320 25.908081,82.008453 
	C25.118868,81.954803 24.508623,82.119370 23.497631,82.371979 
	C21.732979,82.481247 20.369070,82.502480 19.005161,82.523705 
z"/>
<path fill="#FFE52D" opacity="1.000000" stroke="none" 
	d="
M1.000000,99.428467 
	C2.542259,99.507996 4.084516,100.015984 6.080496,100.673431 
	C5.113004,103.448784 4.277351,105.845947 3.147038,109.088379 
	C2.338117,107.384781 1.887471,106.435707 1.218412,105.243317 
	C1.000000,103.285645 1.000000,101.571281 1.000000,99.428467 
z"/>
<path fill="#FAF3AA" opacity="1.000000" stroke="none" 
	d="
M205.000000,90.600052 
	C204.636536,91.053833 204.273087,91.107674 203.532394,90.843613 
	C201.959824,89.140564 201.018478,87.185356 199.506210,86.511536 
	C197.521820,85.627373 195.087357,85.753326 193.294342,85.308121 
	C196.495743,85.171844 199.249252,85.172287 202.227402,85.368896 
	C203.301361,86.043365 204.150681,86.521683 205.000000,87.000000 
	C205.000000,88.066704 205.000000,89.133400 205.000000,90.600052 
z"/>
<path fill="#FFE52D" opacity="1.000000" stroke="none" 
	d="
M205.000000,86.571533 
	C204.150681,86.521683 203.301361,86.043365 202.188690,85.032303 
	C201.616211,83.666702 201.307114,82.833855 200.998001,82.001007 
	C202.092392,81.668404 203.186783,81.335800 204.640594,81.001595 
	C205.000000,82.714355 205.000000,84.428719 205.000000,86.571533 
z"/>
<path fill="#0E5CB8" opacity="1.000000" stroke="none" 
	d="
M59.819664,118.992645 
	C58.434311,118.671692 57.048958,118.350739 55.292984,117.933746 
	C54.922356,117.837700 54.964828,117.644325 54.940704,117.401344 
	C54.282524,116.722794 53.648464,116.287216 52.666260,115.828644 
	C52.154087,115.221466 51.990055,114.637276 52.089119,113.793549 
	C52.535759,112.586716 52.719303,111.639420 53.063316,110.361313 
	C54.101425,104.990913 54.979069,99.951340 55.917110,94.538483 
	C56.395390,92.749336 56.813274,91.333458 57.515934,89.815018 
	C58.533012,89.410217 59.265316,89.107971 60.414589,88.844048 
	C61.947025,88.898727 63.062496,88.915085 64.160561,89.297401 
	C63.597904,91.161125 63.052654,92.658875 62.426468,94.378952 
	C64.099991,94.378952 65.644272,94.378952 67.188553,94.378952 
	C66.887283,93.991249 66.586006,93.603554 66.284737,93.215851 
	C67.709190,91.604263 68.857063,89.478783 70.634132,88.522392 
	C72.494263,87.521317 75.031624,87.525688 74.684021,91.300575 
	C74.464020,91.987152 74.401405,92.400101 74.111046,92.941498 
	C73.746361,93.388893 73.609406,93.707855 73.277908,93.911163 
	C73.075035,95.213280 73.066704,96.631042 72.898880,98.367020 
	C72.192184,103.852150 67.040680,108.966042 74.073524,115.408463 
	C70.354126,115.993179 67.595764,117.206467 65.569115,116.452614 
	C64.356102,116.001411 63.660992,112.418007 63.840752,110.338203 
	C64.176201,106.457130 65.319122,102.645851 66.126022,98.805527 
	C65.661026,98.470001 65.196022,98.134483 64.731026,97.798965 
	C63.565353,98.753685 61.409992,99.697067 61.398903,100.665016 
	C61.338882,105.903572 57.014839,111.023247 60.841209,116.429199 
	C61.130489,116.837906 60.189022,118.117744 59.819664,118.992645 
z"/>
<path fill="#CCDEE4" opacity="1.000000" stroke="none" 
	d="
M59.812164,119.208847 
	C60.189022,118.117744 61.130489,116.837906 60.841209,116.429199 
	C57.014839,111.023247 61.338882,105.903572 61.398903,100.665016 
	C61.409992,99.697067 63.565353,98.753685 64.731026,97.798965 
	C65.196022,98.134483 65.661026,98.470001 66.126022,98.805527 
	C65.319122,102.645851 64.176201,106.457130 63.840752,110.338203 
	C63.660992,112.418007 64.356102,116.001411 65.569115,116.452614 
	C67.595764,117.206467 70.354126,115.993179 74.073524,115.408463 
	C67.040680,108.966042 72.192184,103.852150 73.261230,98.346085 
	C76.912842,98.212471 76.573219,99.588364 75.670937,102.050140 
	C74.108490,106.313118 73.567963,110.732422 78.178902,114.356216 
	C80.265831,114.869820 82.149269,115.034355 84.248962,115.403580 
	C85.520943,116.397934 86.576675,117.187584 87.632401,117.977234 
	C84.297447,117.954018 80.961716,117.962288 77.628273,117.878746 
	C77.023811,117.863602 76.137840,117.101593 75.872482,117.309776 
	C70.911514,121.201927 65.130875,118.588234 59.812164,119.208847 
z"/>
<path fill="#EAF2F0" opacity="1.000000" stroke="none" 
	d="
M88.110886,118.057587 
	C86.576675,117.187584 85.520943,116.397934 84.568436,115.303207 
	C85.775459,114.259979 86.879265,113.521820 88.238884,112.820862 
	C88.665840,112.837898 88.836983,112.817741 89.254486,112.903145 
	C89.677391,113.036194 89.853951,113.063675 90.117683,113.381226 
	C90.773193,114.106003 91.341537,114.540718 91.915199,115.023148 
	C91.920525,115.070869 92.015594,115.084419 92.264496,115.374008 
	C94.303352,115.663605 96.093307,115.663605 97.999146,115.663605 
	C98.671463,112.817886 99.324188,110.414818 99.783562,107.975349 
	C100.057480,106.520706 100.017975,105.008110 100.136459,103.522934 
	C100.605270,97.646355 102.742767,95.837944 108.097870,97.157715 
	C108.759171,98.257423 109.293839,99.083694 109.901184,100.297928 
	C108.995514,105.765839 108.017174,110.845802 107.156784,116.125183 
	C107.772224,116.682106 108.269722,117.039612 108.767212,117.397118 
	C105.555916,117.642601 102.344620,117.888092 98.505959,118.093361 
	C97.281937,118.093445 96.685280,118.133751 96.088623,118.174057 
	C93.588875,118.162018 91.089119,118.149979 88.110886,118.057587 
z"/>
<path fill="#EBF0EB" opacity="1.000000" stroke="none" 
	d="
M144.924423,121.059555 
	C141.153244,116.577980 136.362381,115.734520 130.784546,116.587219 
	C126.902023,117.180756 122.901878,117.004822 118.488312,116.760803 
	C118.028732,115.861412 118.035126,115.373848 118.376358,114.937744 
	C120.845215,114.341476 122.979248,113.693733 125.335861,113.026657 
	C125.558456,113.007324 126.004829,112.986366 126.004639,112.992279 
	C126.004448,112.998199 126.017830,112.992287 126.083588,113.368439 
	C128.610916,115.778419 130.943222,115.797562 133.226303,112.967278 
	C133.425705,112.421005 133.512711,112.205185 133.735901,111.810226 
	C133.987701,111.322762 133.950058,111.034378 133.760300,110.385056 
	C134.016403,109.022751 134.271408,108.041321 134.738678,106.907227 
	C135.038498,105.848389 135.126038,104.942215 135.216858,103.715057 
	C135.294128,102.972900 135.368118,102.551720 135.682816,102.067902 
	C135.998734,101.348114 136.073944,100.690948 136.156265,99.712135 
	C136.207153,98.963783 136.250931,98.537071 136.556381,98.072876 
	C137.803177,98.376495 138.788300,98.717598 139.703613,99.437103 
	C138.664627,103.553833 137.619904,107.275299 136.778946,111.042236 
	C136.566513,111.993767 136.822998,113.179817 137.257477,114.064949 
	C137.383942,114.322609 139.185104,114.232597 139.682053,113.749725 
	C141.563049,111.922035 143.223663,109.867554 145.113037,108.014282 
	C145.517548,107.749969 145.775772,107.369286 146.220963,106.879990 
	C146.662552,106.617607 146.852478,106.405792 147.153839,106.391022 
	C147.567749,107.440453 147.805481,108.234810 147.996643,109.408981 
	C150.130188,111.360390 152.310303,112.932007 155.057663,114.912544 
	C154.710693,117.171623 153.090652,118.430382 149.745483,118.128517 
	C148.572144,118.022644 147.274124,119.298347 145.883759,120.162033 
	C145.464447,120.607124 145.194427,120.833336 144.924423,121.059555 
z"/>
<path fill="#F9F9DD" opacity="1.000000" stroke="none" 
	d="
M57.231163,89.917580 
	C56.813274,91.333458 56.395390,92.749336 55.538979,94.575409 
	C54.348457,95.044785 53.596470,95.103951 52.439411,95.167282 
	C47.519539,94.584404 45.440781,96.441780 45.853775,100.803497 
	C44.512306,95.693985 44.512306,95.693985 41.636570,95.880638 
	C39.836414,95.997826 38.443558,96.020546 36.908211,95.738678 
	C36.142216,94.286087 35.518715,93.138092 34.925404,91.635925 
	C33.296410,89.361053 31.637226,87.440353 29.741180,85.165329 
	C25.390516,84.557167 21.276712,84.303329 17.162907,84.049492 
	C17.637417,83.619019 18.111927,83.188553 18.795799,82.640892 
	C20.369070,82.502480 21.732979,82.481247 23.862099,82.430374 
	C25.113888,82.342712 25.600466,82.284683 26.087046,82.226662 
	C26.479223,82.306320 26.871399,82.385986 27.904957,82.485352 
	C31.580509,85.015800 34.572342,87.580414 37.667404,90.013725 
	C39.129517,91.163223 40.677551,92.560066 42.388687,92.943687 
	C44.415134,93.397995 46.670589,92.985535 48.806820,92.759789 
	C52.150097,92.406471 55.884647,92.769142 56.637543,87.850464 
	C56.758305,87.061531 59.222355,86.281960 60.675114,86.111526 
	C65.090218,85.593575 69.540588,85.376183 73.977219,85.041740 
	C73.851700,85.159988 73.726181,85.278244 73.186668,85.687759 
	C69.907776,86.963165 67.042870,87.947296 64.177971,88.931435 
	C63.062496,88.915085 61.947025,88.898727 60.176056,88.672836 
	C58.757431,88.948059 57.994297,89.432823 57.231163,89.917580 
z"/>
<path fill="#F9F9DD" opacity="1.000000" stroke="none" 
	d="
M34.762508,118.887489 
	C25.824728,126.383438 15.080820,124.939453 3.465947,125.284142 
	C5.858924,115.631401 8.118199,106.517982 10.697783,97.538986 
	C11.295587,98.822433 11.573081,99.971466 11.908636,101.511337 
	C10.415929,107.599838 8.802663,113.281494 7.337257,119.001038 
	C6.422227,122.572449 8.077279,124.181305 11.410591,123.507339 
	C14.754504,122.831230 18.193167,122.625435 21.539276,121.957764 
	C23.146921,121.636986 24.637020,120.727089 26.390625,120.059692 
	C26.600899,120.035400 26.994427,119.879349 27.298904,119.876755 
	C28.371326,119.219902 29.139273,118.565628 30.260406,117.902786 
	C31.416948,117.216560 32.220303,116.538918 33.303596,116.011581 
	C34.086239,117.069908 34.588936,117.977921 35.009171,118.847534 
	C34.926704,118.809128 34.762508,118.887489 34.762508,118.887489 
z"/>
<path fill="#EDF1E1" opacity="1.000000" stroke="none" 
	d="
M201.981354,93.021240 
	C201.268921,94.301178 200.556503,95.581108 199.835907,96.875710 
	C198.494019,96.947510 196.672592,96.496132 195.799698,97.207947 
	C194.075684,98.613800 194.443207,110.137573 196.286285,113.678146 
	C189.921249,113.678146 183.904831,113.678146 177.425873,113.352135 
	C176.958511,112.639130 176.953659,112.252144 177.063766,111.598251 
	C177.731461,111.200706 178.284210,111.070068 179.268112,110.954407 
	C180.844208,110.942909 181.989151,110.916435 183.489655,110.858360 
	C184.553986,110.894363 185.262756,110.961975 186.240967,111.240784 
	C187.605591,111.079422 188.700775,110.706848 189.858459,109.967453 
	C191.398666,104.092102 192.876389,98.583572 194.709000,93.069199 
	C195.767914,92.976799 196.471909,92.890251 197.186279,92.811569 
	C197.196625,92.819435 197.214478,92.796188 197.227158,93.098473 
	C198.820343,93.274254 200.400833,93.147743 201.981354,93.021240 
z"/>
<path fill="#D0DFD8" opacity="1.000000" stroke="none" 
	d="
M51.826027,114.053085 
	C51.990055,114.637276 52.154087,115.221466 52.821724,116.052795 
	C53.871830,116.748062 54.418327,117.196190 54.964828,117.644325 
	C54.964828,117.644325 54.922356,117.837700 54.850769,117.907387 
	C47.702366,123.892456 42.088329,124.344307 34.935020,119.223930 
	C34.762508,118.887489 34.926704,118.809128 35.438103,118.848450 
	C39.596420,118.414108 43.241119,117.600739 46.890987,117.576851 
	C49.689507,117.558540 50.985348,116.354294 51.826027,114.053085 
z"/>
<path fill="#E3EADF" opacity="1.000000" stroke="none" 
	d="
M176.948822,111.865150 
	C176.953659,112.252144 176.958511,112.639130 176.956512,113.315971 
	C174.448990,113.524277 171.948639,113.427299 169.447403,113.368370 
	C168.364044,113.342834 167.278824,113.395782 165.835220,113.842941 
	C165.248352,114.511948 165.108871,114.794609 165.057541,115.120766 
	C165.057541,115.120766 164.889938,115.541588 164.433380,115.731262 
	C163.120651,115.978943 162.264481,116.036942 161.316559,115.742294 
	C162.474289,111.899979 163.723801,108.410301 165.083801,105.096405 
	C165.719406,105.233513 166.244507,105.194839 166.831055,105.531258 
	C168.059097,107.516991 168.902542,109.702721 170.477036,110.587502 
	C172.298462,111.611023 174.763321,111.489525 176.948822,111.865150 
z"/>
<path fill="#ECEEC1" opacity="1.000000" stroke="none" 
	d="
M161.408310,116.094940 
	C162.264481,116.036942 163.120651,115.978943 164.296051,115.911362 
	C161.601761,124.010277 152.418091,126.748360 145.065979,121.373825 
	C145.194427,120.833336 145.464447,120.607124 146.227600,120.337372 
	C147.819046,120.866531 148.868271,121.789650 150.024094,121.951477 
	C155.124695,122.665627 158.627029,120.024033 161.408310,116.094940 
z"/>
<path fill="#E0EDF2" opacity="1.000000" stroke="none" 
	d="
M11.850574,101.120499 
	C11.573081,99.971466 11.295587,98.822433 10.993074,97.308624 
	C11.564032,93.261810 11.956128,89.526154 12.900241,85.935661 
	C13.134414,85.045097 15.156787,84.624725 16.760048,84.018860 
	C21.276712,84.303329 25.390516,84.557167 29.295769,85.009377 
	C26.955635,85.160004 24.777296,84.814957 22.704498,85.140961 
	C20.202698,85.534431 17.790401,86.496994 15.214790,87.396729 
	C14.951929,87.933228 15.060345,88.176720 15.148718,88.582855 
	C14.487691,90.935265 14.093410,93.015503 13.673883,95.167358 
	C13.648638,95.238968 13.783712,95.308357 13.537502,95.573273 
	C13.239887,96.549149 13.188483,97.260109 12.982268,98.273041 
	C12.501829,99.423508 12.176201,100.272003 11.850574,101.120499 
z"/>
<path fill="#DBEAEC" opacity="1.000000" stroke="none" 
	d="
M201.993866,93.055237 
	C200.400833,93.147743 198.820343,93.274254 197.549835,93.082657 
	C198.839020,91.546410 199.818176,90.328255 201.803604,87.858238 
	C198.297333,87.703400 196.450851,87.513405 194.611435,87.566895 
	C192.072418,87.640717 189.538757,87.898209 186.802490,87.799377 
	C186.641617,87.296921 186.681015,87.072113 187.024384,86.809311 
	C188.236893,86.357544 189.145447,85.943764 190.401917,85.483124 
	C191.448715,85.439125 192.147583,85.441986 192.846466,85.444847 
	C195.087357,85.753326 197.521820,85.627373 199.506210,86.511536 
	C201.018478,87.185356 201.959824,89.140564 203.262497,90.923065 
	C203.369827,91.320419 203.163940,91.689720 202.793427,91.939758 
	C202.157120,92.425262 202.041824,92.719734 202.077057,93.073204 
	C202.077057,93.073204 202.006409,93.089226 201.993866,93.055237 
z"/>
<path fill="#E0EDF2" opacity="1.000000" stroke="none" 
	d="
M109.201447,117.474487 
	C108.269722,117.039612 107.772224,116.682106 107.465530,115.972656 
	C109.728455,114.711037 111.800591,113.801361 113.906166,113.207550 
	C113.368515,114.753029 112.797432,115.982635 112.226349,117.212250 
	C111.362785,117.325455 110.499229,117.438660 109.201447,117.474487 
z"/>
<path fill="#EAF2F0" opacity="1.000000" stroke="none" 
	d="
M112.586639,117.300674 
	C112.797432,115.982635 113.368515,114.753029 113.912399,113.216827 
	C113.885201,112.910240 113.880646,112.880951 114.128517,113.025787 
	C115.530792,113.456261 116.685196,113.741898 117.905823,114.238518 
	C117.972046,114.449501 118.041519,114.886284 118.041519,114.886284 
	C118.035126,115.373848 118.028732,115.861412 118.023682,116.714699 
	C116.332314,117.183319 114.639626,117.286209 112.586639,117.300674 
z"/>
<path fill="#CCDEE4" opacity="1.000000" stroke="none" 
	d="
M96.268776,118.303017 
	C96.685280,118.133751 97.281937,118.093445 98.166740,118.057617 
	C97.786232,118.185394 97.117584,118.308685 96.268776,118.303017 
z"/>
<path fill="#ECEEC1" opacity="1.000000" stroke="none" 
	d="
M165.276642,114.999718 
	C165.108871,114.794609 165.248352,114.511948 165.661530,114.122513 
	C165.729965,114.274368 165.612839,114.576523 165.276642,114.999718 
z"/>
<path fill="#FAF3AA" opacity="1.000000" stroke="none" 
	d="
M202.241760,92.917107 
	C202.041824,92.719734 202.157120,92.425262 202.644379,92.089706 
	C202.775330,92.284019 202.622192,92.541153 202.241760,92.917107 
z"/>
<path fill="#FFE52D" opacity="1.000000" stroke="none" 
	d="
M73.923019,84.674179 
	C69.540588,85.376183 65.090218,85.593575 60.675114,86.111526 
	C59.222355,86.281960 56.758305,87.061531 56.637543,87.850464 
	C55.884647,92.769142 52.150097,92.406471 48.806820,92.759789 
	C46.670589,92.985535 44.415134,93.397995 42.388687,92.943687 
	C40.677551,92.560066 39.129517,91.163223 37.667404,90.013725 
	C34.572342,87.580414 31.580509,85.015800 28.196388,82.399261 
	C30.373363,81.865456 32.951061,80.881111 35.418365,81.106308 
	C45.764172,82.050606 56.032578,81.526016 66.329582,80.483849 
	C69.401329,80.172966 72.789543,80.224449 73.923019,84.674179 
z"/>
<path fill="#F9E62D" opacity="1.000000" stroke="none" 
	d="
M186.720428,86.847305 
	C186.681015,87.072113 186.641617,87.296921 186.795441,87.770905 
	C186.988663,88.020073 187.038528,88.048264 186.825516,87.805664 
	C186.187286,87.602982 185.762085,87.642891 185.166702,87.390778 
	C183.950043,86.824501 182.903564,86.550247 181.492279,86.240562 
	C178.729156,87.023567 176.330841,87.841995 173.603073,88.664169 
	C167.105072,84.877998 160.452499,86.621628 154.953979,89.068878 
	C150.600098,91.006676 148.089432,90.620842 145.012924,87.963440 
	C148.010910,86.104210 150.807205,83.585411 154.068741,82.588020 
	C156.831192,81.743256 160.132339,82.647469 163.194016,82.799416 
	C164.538086,82.866119 165.992157,83.374641 167.204468,83.022385 
	C178.136215,79.846039 189.200424,81.695099 200.610138,81.983459 
	C201.307114,82.833855 201.616211,83.666702 201.964050,84.836136 
	C199.249252,85.172287 196.495743,85.171844 193.294342,85.308121 
	C192.147583,85.441986 191.448715,85.439125 190.074615,85.358498 
	C188.506393,85.802917 187.613419,86.325111 186.720428,86.847305 
M172.224411,83.589851 
	C172.054062,83.831772 171.883713,84.073692 171.713379,84.315620 
	C171.965500,84.160973 172.217606,84.006325 172.224411,83.589851 
z"/>
<path fill="#E4EFE4" opacity="1.000000" stroke="none" 
	d="
M144.585602,88.035095 
	C148.089432,90.620842 150.600098,91.006676 154.953979,89.068878 
	C160.452499,86.621628 167.105072,84.877998 173.515823,88.950211 
	C173.487579,89.761765 173.217133,90.291008 172.935425,91.055695 
	C172.924149,91.291138 172.884140,91.760948 172.549133,91.796349 
	C171.193665,92.878555 170.173203,93.925362 169.018494,95.284798 
	C168.553879,96.620811 168.223511,97.644203 167.660217,98.736038 
	C167.427292,98.804489 167.014313,99.058792 166.813614,98.890549 
	C166.391190,98.452721 166.169464,98.183136 165.963577,97.496475 
	C166.627716,93.194878 165.820969,90.505852 160.780365,90.994392 
	C160.333801,90.960419 160.154022,91.008209 159.662811,90.919044 
	C157.695999,91.146973 156.040619,91.511856 154.056274,91.905396 
	C152.507233,93.093079 151.287170,94.252098 149.712952,95.347839 
	C148.420670,95.120468 147.482544,94.956383 146.510315,94.761086 
	C146.476212,94.729881 146.457382,94.639397 146.353607,94.282669 
	C141.760101,88.791702 136.106445,91.876999 130.650543,91.553894 
	C129.589447,91.448036 128.784973,91.541687 127.944473,91.726822 
	C127.908432,91.818291 127.987572,91.998299 127.618202,92.000854 
	C126.514297,91.952942 125.779755,91.902481 124.986771,91.578903 
	C124.620369,90.853630 124.312416,90.401459 123.771820,89.746025 
	C120.112297,88.163963 119.972313,91.159798 118.648041,92.765198 
	C117.472778,88.987076 119.120361,87.860565 122.468002,87.993179 
	C124.529472,88.074837 126.608292,87.718338 128.679321,87.558571 
	C128.720322,87.138199 128.761322,86.717834 128.802322,86.297462 
	C127.138641,85.145805 125.474960,83.994148 123.811279,82.842484 
	C126.138969,78.964691 129.326614,81.121475 130.169739,83.159798 
	C132.921402,89.812195 138.288742,88.027199 143.178894,88.147690 
	C143.504822,88.155716 143.831787,88.121384 144.585602,88.035095 
z"/>
<path fill="#0D59B0" opacity="1.000000" stroke="none" 
	d="
M123.421417,82.895523 
	C125.474960,83.994148 127.138641,85.145805 128.802322,86.297462 
	C128.761322,86.717834 128.720322,87.138199 128.679321,87.558571 
	C126.608292,87.718338 124.529472,88.074837 122.468002,87.993179 
	C119.120361,87.860565 117.472778,88.987076 118.666092,93.022369 
	C119.042969,93.665154 119.095261,93.828545 119.080025,94.239548 
	C118.956802,94.648964 118.901108,94.810753 118.512154,95.122208 
	C116.746140,101.141556 115.313393,107.011253 113.880646,112.880951 
	C113.880646,112.880951 113.885201,112.910240 113.878967,112.900970 
	C111.800591,113.801361 109.728455,114.711037 107.347572,115.773239 
	C108.017174,110.845802 108.995514,105.765839 110.194824,100.143456 
	C111.172913,95.213577 110.187958,90.276535 114.061920,86.852837 
	C115.855896,85.267365 117.968094,84.041977 119.936035,82.653351 
	C120.967873,82.751747 121.999718,82.850151 123.421417,82.895523 
z"/>
<path fill="#1662B7" opacity="1.000000" stroke="none" 
	d="
M107.971252,96.884270 
	C102.742767,95.837944 100.605270,97.646355 100.136459,103.522934 
	C100.017975,105.008110 100.057480,106.520706 99.783562,107.975349 
	C99.324188,110.414818 98.671463,112.817886 97.999146,115.663605 
	C96.093307,115.663605 94.303352,115.663605 92.516640,115.280746 
	C91.696701,113.625343 90.873520,112.352798 90.438507,111.059723 
	C92.261116,106.047623 93.695549,101.056046 95.282166,95.770493 
	C96.016525,94.312462 96.598709,93.148430 97.180893,91.984390 
	C100.143112,91.832802 103.105331,91.681221 106.559784,91.678177 
	C107.358437,93.512573 107.664848,95.198425 107.971252,96.884270 
z"/>
<path fill="#FFE52D" opacity="1.000000" stroke="none" 
	d="
M75.999794,84.982086 
	C76.793579,79.612976 80.940453,80.838554 84.178062,81.178902 
	C89.016891,81.687553 90.221031,85.223373 89.563431,90.031174 
	C87.108994,91.353523 85.034096,92.180130 82.963486,92.979919 
	C82.967781,92.953102 83.022247,92.957527 82.668381,92.819031 
	C81.431664,90.962418 80.693497,89.144798 79.608017,87.565979 
	C79.020081,86.710861 77.839912,86.262917 76.688965,85.477791 
	C76.300613,85.210213 76.150208,85.096146 75.999794,84.982086 
z"/>
<path fill="#E3EADF" opacity="1.000000" stroke="none" 
	d="
M108.097870,97.157715 
	C107.664848,95.198425 107.358437,93.512573 106.896591,91.476456 
	C108.607361,89.313316 110.282394,87.224152 112.392632,85.763924 
	C114.578995,84.251038 117.187256,83.347862 119.773514,82.415680 
	C117.968094,84.041977 115.855896,85.267365 114.061920,86.852837 
	C110.187958,90.276535 111.172913,95.213577 110.122147,99.755493 
	C109.293839,99.083694 108.759171,98.257423 108.097870,97.157715 
z"/>
<path fill="#E2ECE3" opacity="1.000000" stroke="none" 
	d="
M75.550201,85.114075 
	C76.150208,85.096146 76.300613,85.210213 76.703476,85.818878 
	C76.251091,87.884628 75.546249,89.455788 74.841408,91.026955 
	C75.031624,87.525688 72.494263,87.521317 70.634132,88.522392 
	C68.857063,89.478783 67.709190,91.604263 66.284737,93.215851 
	C66.586006,93.603554 66.887283,93.991249 67.188553,94.378952 
	C65.644272,94.378952 64.099991,94.378952 62.426468,94.378952 
	C63.052654,92.658875 63.597904,91.161125 64.160561,89.297401 
	C67.042870,87.947296 69.907776,86.963165 73.041527,85.901878 
	C73.907127,85.631836 74.503868,85.438942 75.550201,85.114075 
z"/>
<path fill="#DDE8DF" opacity="1.000000" stroke="none" 
	d="
M82.959198,93.006729 
	C85.034096,92.180130 87.108994,91.353523 89.541916,90.460266 
	C92.135895,90.748230 94.371841,91.102859 96.894348,91.720932 
	C96.598709,93.148430 96.016525,94.312462 94.938194,95.769981 
	C93.755142,96.017632 93.068237,95.971802 92.182671,95.606544 
	C89.843117,91.094276 85.969322,93.759521 82.959198,93.006729 
z"/>
<path fill="#FFE52D" opacity="1.000000" stroke="none" 
	d="
M25.908081,82.008453 
	C25.600466,82.284683 25.113888,82.342712 24.262842,82.342331 
	C24.508623,82.119370 25.118868,81.954803 25.908081,82.008453 
z"/>
<path fill="#135EB3" opacity="1.000000" stroke="none" 
	d="
M52.089119,113.793549 
	C50.985348,116.354294 49.689507,117.558540 46.890987,117.576851 
	C43.241119,117.600739 39.596420,118.414108 35.520565,118.886856 
	C34.588936,117.977921 34.086239,117.069908 33.302887,115.624771 
	C34.365051,108.739517 35.707874,102.391396 37.050701,96.043266 
	C38.443558,96.020546 39.836414,95.997826 41.966503,96.119476 
	C42.019592,102.073174 41.335449,107.882515 40.546417,114.582489 
	C46.323154,111.109253 45.139175,105.625648 46.119453,101.066071 
	C45.440781,96.441780 47.519539,94.584404 52.469917,95.600006 
	C52.606834,99.309517 52.169090,102.586258 52.069351,105.873253 
	C52.020912,107.469643 52.605072,109.085236 52.902847,110.692131 
	C52.719303,111.639420 52.535759,112.586716 52.089119,113.793549 
z"/>
<path fill="#155FB6" opacity="1.000000" stroke="none" 
	d="
M82.963486,92.979919 
	C85.969322,93.759521 89.843117,91.094276 92.192459,95.962677 
	C93.166222,102.028786 90.415283,104.217552 85.394211,104.818771 
	C83.937485,104.993202 82.628082,106.398018 81.251144,107.238808 
	C82.170158,108.592216 83.089180,109.945625 84.049332,111.604965 
	C83.205780,115.975075 79.926895,113.055008 77.975410,114.007149 
	C73.567963,110.732422 74.108490,106.313118 75.670937,102.050140 
	C76.573219,99.588364 76.912842,98.212471 73.420731,98.027863 
	C73.066704,96.631042 73.075035,95.213280 73.661179,93.945557 
	C74.494713,94.078011 74.750435,94.060432 75.243149,94.136429 
	C75.642708,94.180771 75.805283,94.131546 75.936981,94.067566 
	C75.906090,94.052803 75.884422,94.117760 76.041290,94.302155 
	C76.457535,94.683098 76.739449,94.838875 76.930527,95.248901 
	C76.695236,95.945808 76.573326,96.347679 76.451424,96.749557 
	C77.278267,96.494637 78.105118,96.239716 79.098885,95.900322 
	C79.265800,95.815849 79.373924,95.457657 79.350555,95.369041 
	C79.327194,95.280426 79.308098,95.462715 79.606339,95.390244 
	C80.357986,94.919495 80.811386,94.521217 81.564255,94.119034 
	C82.249901,93.729256 82.636078,93.343391 83.022247,92.957535 
	C83.022247,92.957527 82.967781,92.953102 82.963486,92.979919 
z"/>
<path fill="#9FC1DB" opacity="1.000000" stroke="none" 
	d="
M53.063316,110.361313 
	C52.605072,109.085236 52.020912,107.469643 52.069351,105.873253 
	C52.169090,102.586258 52.606834,99.309517 52.874985,95.595840 
	C53.596470,95.103951 54.348457,95.044785 55.478584,94.948685 
	C54.979069,99.951340 54.101425,104.990913 53.063316,110.361313 
z"/>
<path fill="#F9F9DD" opacity="1.000000" stroke="none" 
	d="
M82.668388,92.819038 
	C82.636078,93.343391 82.249901,93.729256 81.234268,94.131119 
	C80.172569,94.585655 79.740334,95.024185 79.308098,95.462715 
	C79.308098,95.462715 79.327194,95.280426 79.037094,95.227028 
	C78.528969,95.103088 78.310951,95.032539 78.078728,94.939835 
	C78.064529,94.917694 78.017960,94.893227 77.906052,94.721062 
	C77.622490,94.328468 77.408882,94.161819 76.833717,94.022400 
	C76.304222,94.036484 76.094322,94.077118 75.884422,94.117760 
	C75.884422,94.117760 75.906090,94.052803 75.847244,93.859360 
	C75.624329,93.408318 75.416115,93.193512 74.967171,92.931190 
	C74.770584,92.840866 74.338791,92.813057 74.338791,92.813057 
	C74.401405,92.400101 74.464020,91.987152 74.684021,91.300575 
	C75.546249,89.455788 76.251091,87.884628 76.941422,85.972382 
	C77.839912,86.262917 79.020081,86.710861 79.608017,87.565979 
	C80.693497,89.144798 81.431664,90.962418 82.668388,92.819038 
z"/>
<path fill="#1B61B1" opacity="1.000000" stroke="none" 
	d="
M54.940704,117.401344 
	C54.418327,117.196190 53.871830,116.748062 53.169868,116.075783 
	C53.648464,116.287216 54.282524,116.722794 54.940704,117.401344 
z"/>
<path fill="#E2ECE3" opacity="1.000000" stroke="none" 
	d="
M57.515938,89.815018 
	C57.994297,89.432823 58.757431,88.948059 59.759094,88.634506 
	C59.265316,89.107971 58.533012,89.410217 57.515938,89.815018 
z"/>
<path fill="#CCDEE4" opacity="1.000000" stroke="none" 
	d="
M75.006149,94.042854 
	C74.750435,94.060432 74.494713,94.078011 73.855721,94.061203 
	C73.609406,93.707855 73.746361,93.388893 74.111053,92.941498 
	C74.338791,92.813057 74.770584,92.840866 74.920509,93.185211 
	C75.049004,93.700661 75.027580,93.871758 75.006149,94.042854 
z"/>
<path fill="#0B56AC" opacity="1.000000" stroke="none" 
	d="
M78.178902,114.356216 
	C79.926895,113.055008 83.205780,115.975075 84.388657,111.449768 
	C85.811493,110.566040 86.936134,110.143440 88.043037,110.104271 
	C88.011223,111.253021 87.997147,112.018341 87.983070,112.783661 
	C86.879265,113.521820 85.775459,114.259979 84.352180,115.098511 
	C82.149269,115.034355 80.265831,114.869820 78.178902,114.356216 
z"/>
<path fill="#0B56AC" opacity="1.000000" stroke="none" 
	d="
M90.050339,111.080254 
	C90.873520,112.352798 91.696701,113.625343 92.267738,114.991150 
	C92.015594,115.084419 91.920525,115.070869 91.884499,114.719971 
	C91.242485,113.943092 90.636497,113.517128 90.030510,113.091156 
	C89.853951,113.063675 89.677391,113.036194 89.253181,112.544586 
	C88.989914,111.361298 88.974304,110.642120 89.261162,109.952126 
	C89.725868,110.347618 89.888107,110.713936 90.050339,111.080254 
z"/>
<path fill="#1662B7" opacity="1.000000" stroke="none" 
	d="
M90.117683,113.381226 
	C90.636497,113.517128 91.242485,113.943092 91.879173,114.672249 
	C91.341537,114.540718 90.773193,114.106003 90.117683,113.381226 
z"/>
<path fill="#1662B7" opacity="1.000000" stroke="none" 
	d="
M88.958694,109.922951 
	C88.974304,110.642120 88.989914,111.361298 89.006828,112.439026 
	C88.836983,112.817741 88.665840,112.837898 88.238884,112.820862 
	C87.997147,112.018341 88.011223,111.253021 88.278114,110.107086 
	C88.530930,109.726486 88.958687,109.922951 88.958694,109.922951 
z"/>
<path fill="#1162BB" opacity="1.000000" stroke="none" 
	d="
M146.544403,94.792282 
	C147.482544,94.956383 148.420670,95.120468 149.754868,95.653374 
	C150.557663,98.625679 150.514359,100.937943 146.958466,100.633362 
	C146.909332,99.677956 146.850372,99.059998 146.791412,98.442047 
	C146.516388,98.533783 146.241379,98.625519 145.966354,98.717255 
	C146.299896,99.456818 146.633438,100.196373 146.855301,101.135666 
	C146.568771,101.590652 146.351974,101.803139 145.728546,102.088654 
	C145.299026,103.454613 145.234207,104.704765 145.106659,106.275162 
	C145.018188,107.029572 144.992462,107.463745 144.966736,107.897919 
	C143.223663,109.867554 141.563049,111.922035 139.682053,113.749725 
	C139.185104,114.232597 137.383942,114.322609 137.257477,114.064949 
	C136.822998,113.179817 136.566513,111.993767 136.778946,111.042236 
	C137.619904,107.275299 138.664627,103.553833 139.755127,99.096222 
	C139.785782,97.418915 139.901199,95.730713 139.566772,95.636330 
	C138.450897,95.321396 137.173813,95.577591 135.958511,95.614960 
	C136.070572,96.446762 136.182632,97.278564 136.294708,98.110367 
	C136.250931,98.537071 136.207153,98.963783 135.884094,99.864799 
	C135.550583,100.936249 135.496338,101.533394 135.442108,102.130531 
	C135.368118,102.551720 135.294128,102.972900 134.962280,103.936195 
	C134.645081,105.338837 134.585739,106.199364 134.526398,107.059891 
	C134.271408,108.041321 134.016403,109.022751 133.599609,110.557320 
	C133.296722,111.439354 133.350677,111.732323 133.599701,111.989372 
	C133.512711,112.205185 133.425705,112.421005 132.871872,113.012589 
	C130.275970,113.256325 128.146896,113.124306 126.017830,112.992294 
	C126.017830,112.992287 126.004448,112.998199 126.125626,112.630356 
	C127.455055,106.489998 128.663300,100.717484 130.010040,94.633583 
	C130.401428,93.465927 130.654312,92.609665 130.907196,91.753403 
	C136.106445,91.876999 141.760101,88.791702 146.131866,94.383591 
	C145.742279,94.956467 145.470673,95.071693 145.199051,95.186905 
	C145.647507,95.055367 146.095947,94.923820 146.544403,94.792282 
z"/>
<path fill="#0D5CB5" opacity="1.000000" stroke="none" 
	d="
M161.316559,115.742294 
	C158.627029,120.024033 155.124695,122.665627 150.024094,121.951477 
	C148.868271,121.789650 147.819046,120.866531 146.376892,120.118500 
	C147.274124,119.298347 148.572144,118.022644 149.745483,118.128517 
	C153.090652,118.430382 154.710693,117.171623 155.057663,114.912544 
	C152.310303,112.932007 150.130188,111.360390 148.345306,109.377090 
	C149.362137,108.085922 150.040909,107.240807 150.594208,106.320274 
	C152.050415,103.897575 153.452057,101.442093 154.921021,99.415054 
	C154.576431,102.461128 154.186264,105.091820 153.796082,107.722504 
	C154.281631,107.863098 154.767181,108.003693 155.252731,108.144295 
	C158.600815,104.906013 158.324509,100.160561 159.669617,95.990112 
	C160.280869,95.993652 160.630249,95.987526 161.266968,96.167686 
	C162.641525,97.893906 163.728760,99.433838 164.881210,101.214584 
	C164.946426,101.455391 164.954575,101.953804 164.733063,102.141510 
	C164.665466,103.193024 164.819382,104.056831 164.973297,104.920631 
	C163.723801,108.410301 162.474289,111.899979 161.316559,115.742294 
z"/>
<path fill="#0F5DBD" opacity="1.000000" stroke="none" 
	d="
M125.045219,91.852020 
	C125.779755,91.902481 126.514297,91.952942 127.744507,92.406380 
	C127.271950,97.270821 126.174583,101.709747 125.390213,106.203308 
	C125.001114,108.432396 125.187332,110.761909 125.113274,113.045990 
	C122.979248,113.693733 120.845215,114.341476 118.376358,114.937744 
	C118.041519,114.886284 117.972046,114.449501 117.977524,113.822617 
	C118.809387,109.147209 119.556473,105.080330 120.487808,101.056091 
	C121.203163,97.965073 122.150650,94.927773 123.329559,91.968544 
	C124.124542,91.997673 124.584885,91.924843 125.045219,91.852020 
z"/>
<path fill="#1461BE" opacity="1.000000" stroke="none" 
	d="
M154.875427,98.999664 
	C153.452057,101.442093 152.050415,103.897575 150.594208,106.320274 
	C150.040909,107.240807 149.362137,108.085922 148.391876,108.997292 
	C147.805481,108.234810 147.567749,107.440453 147.151428,106.023193 
	C146.679657,104.257812 146.386459,103.115326 146.093262,101.972847 
	C146.351974,101.803139 146.568771,101.590652 146.876175,101.157959 
	C147.008728,100.980507 146.948624,100.970810 146.948624,100.970810 
	C150.514359,100.937943 150.557663,98.625679 150.109009,95.716652 
	C151.287170,94.252098 152.507233,93.093079 154.446381,91.933479 
	C156.768387,91.640602 158.371323,91.348305 159.974243,91.056007 
	C160.154022,91.008209 160.333801,90.960419 160.760269,91.403023 
	C160.997849,93.256088 160.988724,94.618744 160.979614,95.981407 
	C160.630249,95.987526 160.280869,95.993652 159.567230,95.635864 
	C158.413300,95.108253 157.089600,94.590370 156.923752,94.840424 
	C156.076553,96.117798 155.528275,97.593399 154.875427,98.999664 
z"/>
<path fill="#A8D2E7" opacity="1.000000" stroke="none" 
	d="
M125.335861,113.026657 
	C125.187332,110.761909 125.001114,108.432396 125.390213,106.203308 
	C126.174583,101.709747 127.271950,97.270821 128.113876,92.403824 
	C127.987572,91.998299 127.908432,91.818291 128.190765,91.945885 
	C128.939255,93.030647 129.405396,93.987816 129.871552,94.944977 
	C128.663300,100.717484 127.455055,106.489998 126.125824,112.624435 
	C126.004829,112.986366 125.558456,113.007324 125.335861,113.026657 
z"/>
<path fill="#A9C8E4" opacity="1.000000" stroke="none" 
	d="
M136.556366,98.072876 
	C136.182632,97.278564 136.070572,96.446762 135.958511,95.614960 
	C137.173813,95.577591 138.450897,95.321396 139.566772,95.636330 
	C139.901199,95.730713 139.785782,97.418915 139.824951,98.717819 
	C138.788300,98.717598 137.803177,98.376495 136.556366,98.072876 
z"/>
<path fill="#A9C8E4" opacity="1.000000" stroke="none" 
	d="
M126.083588,113.368439 
	C128.146896,113.124306 130.275970,113.256325 132.759476,113.343033 
	C130.943222,115.797562 128.610916,115.778419 126.083588,113.368439 
z"/>
<path fill="#D0E5EF" opacity="1.000000" stroke="none" 
	d="
M145.728546,102.088654 
	C146.386459,103.115326 146.679657,104.257812 146.975266,105.768120 
	C146.852478,106.405792 146.662552,106.617607 146.110443,106.680557 
	C145.656693,106.319092 145.442154,106.107491 145.169388,105.954926 
	C145.234207,104.704765 145.299026,103.454613 145.728546,102.088654 
z"/>
<path fill="#A9C8E4" opacity="1.000000" stroke="none" 
	d="
M134.738678,106.907227 
	C134.585739,106.199364 134.645081,105.338837 134.959000,104.257172 
	C135.126038,104.942215 135.038498,105.848389 134.738678,106.907227 
z"/>
<path fill="#A9C8E4" opacity="1.000000" stroke="none" 
	d="
M135.682800,102.067902 
	C135.496338,101.533394 135.550583,100.936249 135.876984,100.186447 
	C136.073944,100.690948 135.998734,101.348114 135.682800,102.067902 
z"/>
<path fill="#9FC1DB" opacity="1.000000" stroke="none" 
	d="
M145.106659,106.275162 
	C145.442154,106.107491 145.656693,106.319092 145.923492,106.789169 
	C145.775772,107.369286 145.517548,107.749969 145.113037,108.014282 
	C144.992462,107.463745 145.018188,107.029572 145.106659,106.275162 
z"/>
<path fill="#A9C8E4" opacity="1.000000" stroke="none" 
	d="
M133.735901,111.810226 
	C133.350677,111.732323 133.296722,111.439354 133.598511,110.938202 
	C133.950058,111.034378 133.987701,111.322762 133.735901,111.810226 
z"/>
<path fill="#1B61B1" opacity="1.000000" stroke="none" 
	d="
M15.339363,87.213226 
	C17.790401,86.496994 20.202698,85.534431 22.704498,85.140961 
	C24.777296,84.814957 26.955635,85.160004 29.532627,85.363708 
	C31.637226,87.440353 33.296410,89.361053 34.603981,91.828415 
	C33.466320,94.689796 32.846821,97.080208 31.840286,99.294693 
	C31.068157,100.993446 29.807859,102.470322 28.520851,104.169220 
	C27.795755,103.789810 27.192894,103.356361 26.858580,102.769829 
	C26.167957,101.558182 25.620430,100.264969 25.115040,98.642120 
	C25.838955,96.786423 26.772470,95.337372 26.989235,93.788040 
	C27.171749,92.483513 26.871294,90.162453 26.163483,89.886887 
	C24.835588,89.369919 23.058657,90.006348 21.162489,90.039230 
	C19.994804,89.520645 19.133108,89.125923 18.045809,88.627853 
	C20.105307,87.951950 21.857491,87.376900 23.609674,86.801857 
	C23.498728,86.418205 23.387781,86.034546 23.276836,85.650894 
	C20.631012,86.171669 17.985186,86.692444 15.339363,87.213226 
z"/>
<path fill="#D9E8E9" opacity="1.000000" stroke="none" 
	d="
M28.764671,104.045868 
	C29.807859,102.470322 31.068157,100.993446 31.840286,99.294693 
	C32.846821,97.080208 33.466320,94.689796 34.573788,92.182594 
	C35.518715,93.138092 36.142216,94.286087 36.908211,95.738678 
	C35.707874,102.391396 34.365051,108.739517 33.022942,115.474457 
	C32.220303,116.538918 31.416948,117.216560 30.296562,117.689041 
	C29.979527,117.483871 30.090960,117.063950 30.408970,116.907516 
	C31.427420,112.306808 31.817266,107.910500 28.764671,104.045868 
z"/>
<path fill="#C3D7E6" opacity="1.000000" stroke="none" 
	d="
M45.853775,100.803497 
	C45.139175,105.625648 46.323154,111.109253 40.546417,114.582489 
	C41.335449,107.882515 42.019592,102.073174 42.373802,96.024994 
	C44.512306,95.693985 44.512306,95.693985 45.853775,100.803497 
z"/>
<path fill="#135EB6" opacity="1.000000" stroke="none" 
	d="
M15.214790,87.396721 
	C17.985186,86.692444 20.631012,86.171669 23.276836,85.650894 
	C23.387781,86.034546 23.498728,86.418205 23.609674,86.801857 
	C21.857491,87.376900 20.105307,87.951950 18.045809,88.627853 
	C19.133108,89.125923 19.994804,89.520645 21.123791,90.447266 
	C20.965847,93.658104 20.540609,96.337044 19.849325,99.291245 
	C18.810213,104.058403 18.037148,108.550316 17.089073,113.349411 
	C16.849760,114.352592 16.785454,115.048576 16.536350,115.955093 
	C16.346668,116.850319 16.341782,117.535019 16.348412,118.340111 
	C16.359928,118.460510 16.544441,118.616920 16.618263,118.890961 
	C17.143322,119.396439 17.594561,119.627884 18.331757,119.858414 
	C19.283407,119.519493 19.949099,119.181496 21.026051,118.881271 
	C23.018326,119.307365 24.599339,119.695679 26.180353,120.083984 
	C24.637020,120.727089 23.146921,121.636986 21.539276,121.957764 
	C18.193167,122.625435 14.754504,122.831230 11.410591,123.507339 
	C8.077279,124.181305 6.422227,122.572449 7.337257,119.001038 
	C8.802663,113.281494 10.415929,107.599838 11.908634,101.511337 
	C12.176201,100.272003 12.501829,99.423508 13.185053,97.984619 
	C13.623004,96.698929 13.703358,96.003647 13.783712,95.308357 
	C13.783712,95.308357 13.648638,95.238968 13.991961,94.914261 
	C14.695344,92.496605 15.055404,90.403656 15.415464,88.310699 
	C15.060345,88.176720 14.951929,87.933228 15.214790,87.396721 
z"/>
<path fill="#0D5CB5" opacity="1.000000" stroke="none" 
	d="
M26.390625,120.059692 
	C24.599339,119.695679 23.018326,119.307365 21.089375,118.510254 
	C22.113928,114.873520 23.486420,111.645592 24.894634,108.043518 
	C24.237675,106.877655 23.544991,106.085930 22.539139,105.264694 
	C21.825089,105.116753 21.424212,104.998314 20.962107,104.516373 
	C20.851921,103.912086 20.802963,103.671318 20.676903,103.365677 
	C20.599800,103.300819 20.703167,103.127831 20.960642,102.909241 
	C21.439405,102.303772 21.660694,101.916901 21.923689,101.394806 
	C21.965393,101.259590 21.966257,100.976578 22.181919,100.914223 
	C22.397581,100.851868 22.828482,100.725243 22.828482,100.725243 
	C22.828482,100.725243 23.273169,100.788223 23.597610,100.697380 
	C24.283617,100.076759 24.645185,99.546974 25.002222,99.009499 
	C24.997690,99.001801 25.014044,99.005310 25.014042,99.005310 
	C25.620430,100.264969 26.167957,101.558182 26.858580,102.769829 
	C27.192894,103.356361 27.795755,103.789810 28.520851,104.169220 
	C31.817266,107.910500 31.427420,112.306808 30.156551,116.771736 
	C28.753738,116.588058 27.921356,116.383728 27.088974,116.179405 
	C27.057459,117.412720 27.025942,118.646034 26.994427,119.879349 
	C26.994427,119.879349 26.600899,120.035400 26.390625,120.059692 
z"/>
<path fill="#135EB6" opacity="1.000000" stroke="none" 
	d="
M27.298904,119.876755 
	C27.025942,118.646034 27.057459,117.412720 27.088974,116.179405 
	C27.921356,116.383728 28.753738,116.588058 29.838539,116.928162 
	C30.090960,117.063950 29.979527,117.483871 29.943371,117.697617 
	C29.139273,118.565628 28.371326,119.219902 27.298904,119.876755 
z"/>
<path fill="#1962B5" opacity="1.000000" stroke="none" 
	d="
M186.995728,88.048546 
	C189.538757,87.898209 192.072418,87.640717 194.611435,87.566895 
	C196.450851,87.513405 198.297333,87.703400 201.803604,87.858238 
	C199.818176,90.328255 198.839020,91.546410 197.537170,92.780380 
	C197.214478,92.796188 197.196625,92.819435 197.009155,92.581047 
	C195.999161,92.586784 195.176620,92.830917 194.354095,93.075043 
	C192.876389,98.583572 191.398666,104.092102 189.476135,110.046463 
	C188.011383,110.671387 186.991455,110.850487 185.971527,111.029587 
	C185.262756,110.961975 184.553986,110.894363 183.414429,110.455643 
	C183.396225,107.387474 183.808823,104.690407 184.508423,101.901276 
	C184.889099,100.474594 184.982773,99.139969 185.409851,97.625740 
	C186.175018,94.313507 186.606766,91.180885 187.038513,88.048264 
	C187.038528,88.048264 186.988663,88.020073 186.995728,88.048546 
z"/>
<path fill="#0B5DBF" opacity="1.000000" stroke="none" 
	d="
M167.893143,98.667595 
	C168.223511,97.644203 168.553879,96.620811 169.294083,95.301086 
	C171.142410,96.965691 172.580902,98.926636 173.689758,101.109383 
	C172.647690,108.144936 173.632950,108.896278 181.581024,106.144394 
	C180.326920,108.335846 179.581940,109.637634 178.836945,110.939430 
	C178.284210,111.070068 177.731461,111.200706 177.063782,111.598251 
	C174.763321,111.489525 172.298462,111.611023 170.477036,110.587502 
	C168.902542,109.702721 168.059097,107.516991 166.899445,105.141235 
	C166.959656,103.588112 167.012924,102.800079 167.287079,101.732407 
	C167.636353,100.524368 167.764740,99.595978 167.893143,98.667595 
z"/>
<path fill="#D0E5EF" opacity="1.000000" stroke="none" 
	d="
M179.268127,110.954407 
	C179.581940,109.637634 180.326920,108.335846 181.581024,106.144394 
	C173.632950,108.896278 172.647690,108.144936 174.075653,101.187180 
	C177.934601,101.359886 181.078018,101.676613 184.221420,101.993340 
	C183.808823,104.690407 183.396225,107.387474 183.058853,110.487259 
	C181.989151,110.916435 180.844208,110.942909 179.268127,110.954407 
z"/>
<path fill="#D0E5EF" opacity="1.000000" stroke="none" 
	d="
M186.240967,111.240784 
	C186.991455,110.850487 188.011383,110.671387 189.413635,110.413284 
	C188.700775,110.706848 187.605591,111.079422 186.240967,111.240784 
z"/>
<path fill="#DBEAEC" opacity="1.000000" stroke="none" 
	d="
M194.709000,93.069199 
	C195.176620,92.830917 195.999161,92.586784 196.998810,92.573181 
	C196.471909,92.890251 195.767914,92.976799 194.709000,93.069199 
z"/>
<path fill="#9FC1DB" opacity="1.000000" stroke="none" 
	d="
M167.066193,102.012054 
	C167.012924,102.800079 166.959656,103.588112 166.837997,104.766159 
	C166.244507,105.194839 165.719406,105.233513 165.083801,105.096405 
	C164.819382,104.056831 164.665466,103.193024 164.940430,102.200043 
	C165.578354,101.394012 165.787399,100.717163 166.206360,100.020004 
	C166.416275,99.999687 166.835602,99.954010 166.862762,100.298714 
	C166.948700,101.099632 167.007446,101.555840 167.066193,102.012054 
z"/>
<path fill="#1B61B1" opacity="1.000000" stroke="none" 
	d="
M15.148718,88.582855 
	C15.055404,90.403656 14.695344,92.496605 14.017207,94.842651 
	C14.093410,93.015503 14.487691,90.935265 15.148718,88.582855 
z"/>
<path fill="#1B61B1" opacity="1.000000" stroke="none" 
	d="
M13.537502,95.573273 
	C13.703358,96.003647 13.623004,96.698929 13.339865,97.682640 
	C13.188483,97.260109 13.239887,96.549149 13.537502,95.573273 
z"/>
<path fill="#FAF3AA" opacity="1.000000" stroke="none" 
	d="
M187.024384,86.809311 
	C187.613419,86.325111 188.506393,85.802917 189.726700,85.405357 
	C189.145447,85.943764 188.236893,86.357544 187.024384,86.809311 
z"/>
<path fill="#E0EDF2" opacity="1.000000" stroke="none" 
	d="
M122.994911,91.866585 
	C122.150650,94.927773 121.203163,97.965073 120.487808,101.056091 
	C119.556473,105.080330 118.809387,109.147209 117.911301,113.611633 
	C116.685196,113.741898 115.530792,113.456261 114.128517,113.025787 
	C115.313393,107.011253 116.746140,101.141556 118.723381,95.117226 
	C119.491722,94.794891 119.715569,94.627182 119.939423,94.459473 
	C119.675461,94.303627 119.411514,94.147781 119.147560,93.991936 
	C119.095261,93.828545 119.042969,93.665154 118.972626,93.244583 
	C119.972313,91.159798 120.112297,88.163963 123.569504,89.939590 
	C123.398186,90.846481 123.196548,91.356537 122.994911,91.866585 
z"/>
<path fill="#DBEAEC" opacity="1.000000" stroke="none" 
	d="
M186.825500,87.805664 
	C186.606766,91.180885 186.175018,94.313507 185.259720,97.318268 
	C184.722366,96.343086 184.845963,95.434669 184.579361,94.660652 
	C183.943909,92.815834 183.578461,90.238777 182.238342,89.473709 
	C181.121765,88.836250 178.774185,90.355026 176.566040,90.934753 
	C175.089066,90.907234 174.017868,90.863747 172.946686,90.820267 
	C173.217133,90.291008 173.487579,89.761765 173.845276,88.946472 
	C176.330841,87.841995 178.729156,87.023567 181.712082,86.488289 
	C183.310089,87.075233 184.323471,87.379013 185.336868,87.682800 
	C185.762085,87.642891 186.187286,87.602982 186.825500,87.805664 
z"/>
<path fill="#FAF3AA" opacity="1.000000" stroke="none" 
	d="
M185.166702,87.390778 
	C184.323471,87.379013 183.310089,87.075233 182.076874,86.523720 
	C182.903564,86.550247 183.950043,86.824501 185.166702,87.390778 
z"/>
<path fill="#FFE52D" opacity="1.000000" stroke="none" 
	d="
M172.347076,83.720764 
	C172.217606,84.006325 171.965500,84.160973 171.713379,84.315613 
	C171.883713,84.073692 172.054062,83.831772 172.347076,83.720764 
z"/>
<path fill="#0B56AC" opacity="1.000000" stroke="none" 
	d="
M176.971832,90.918785 
	C178.774185,90.355026 181.121765,88.836250 182.238342,89.473709 
	C183.578461,90.238777 183.943909,92.815834 184.579361,94.660652 
	C184.845963,95.434669 184.722366,96.343086 184.926300,97.497864 
	C184.982773,99.139969 184.889099,100.474594 184.508423,101.901276 
	C181.078018,101.676613 177.934601,101.359886 174.405304,100.965378 
	C172.580902,98.926636 171.142410,96.965691 169.428329,94.988457 
	C170.173203,93.925362 171.193665,92.878555 172.631531,92.119972 
	C174.019470,93.263161 174.990021,94.118126 175.929382,95.299561 
	C176.693100,96.049103 177.487976,96.472183 178.282852,96.895264 
	C178.194016,95.555450 178.105194,94.215645 177.884369,92.631699 
	C177.492203,91.897980 177.232010,91.408379 176.971832,90.918785 
z"/>
<path fill="#0B56AC" opacity="1.000000" stroke="none" 
	d="
M161.266968,96.167686 
	C160.988724,94.618744 160.997849,93.256088 161.027054,91.484795 
	C165.820969,90.505852 166.627716,93.194878 165.740143,97.709587 
	C165.373993,98.918159 165.247101,99.496536 165.051636,100.302170 
	C164.983078,100.529419 164.815979,100.973778 164.815979,100.973770 
	C163.728760,99.433838 162.641525,97.893906 161.266968,96.167686 
z"/>
<path fill="#0B5DBF" opacity="1.000000" stroke="none" 
	d="
M176.566040,90.934753 
	C177.232010,91.408379 177.492203,91.897980 177.621155,92.774414 
	C176.980133,93.765198 176.470352,94.369148 175.960556,94.973091 
	C174.990021,94.118126 174.019470,93.263161 172.966537,92.084572 
	C172.884140,91.760948 172.924149,91.291138 172.935425,91.055702 
	C174.017868,90.863747 175.089066,90.907234 176.566040,90.934753 
z"/>
<path fill="#0B56AC" opacity="1.000000" stroke="none" 
	d="
M159.662811,90.919044 
	C158.371323,91.348305 156.768387,91.640602 154.775360,91.904816 
	C156.040619,91.511856 157.695999,91.146973 159.662811,90.919044 
z"/>
<path fill="#D0E5EF" opacity="1.000000" stroke="none" 
	d="
M130.010040,94.633583 
	C129.405396,93.987816 128.939255,93.030647 128.226807,91.854416 
	C128.784973,91.541687 129.589447,91.448036 130.650543,91.553894 
	C130.654312,92.609665 130.401428,93.465927 130.010040,94.633583 
z"/>
<path fill="#D0E5EF" opacity="1.000000" stroke="none" 
	d="
M123.329559,91.968544 
	C123.196548,91.356537 123.398186,90.846481 123.802139,90.142868 
	C124.312416,90.401459 124.620369,90.853630 124.986771,91.578903 
	C124.584885,91.924843 124.124542,91.997673 123.329559,91.968544 
z"/>
<path fill="#1B61B1" opacity="1.000000" stroke="none" 
	d="
M167.287079,101.732407 
	C167.007446,101.555840 166.948700,101.099632 166.952972,100.084167 
	C167.016006,99.524925 167.014313,99.058792 167.014313,99.058792 
	C167.014313,99.058792 167.427292,98.804489 167.660217,98.736038 
	C167.764740,99.595978 167.636353,100.524368 167.287079,101.732407 
z"/>
<path fill="#A8D2E7" opacity="1.000000" stroke="none" 
	d="
M166.813614,98.890549 
	C167.014313,99.058792 167.016006,99.524925 166.925812,99.739471 
	C166.835602,99.954010 166.416275,99.999687 165.986771,100.014984 
	C165.557266,100.030281 165.120209,100.074913 165.120209,100.074913 
	C165.247101,99.496536 165.373993,98.918159 165.724304,98.126663 
	C166.169464,98.183136 166.391190,98.452721 166.813614,98.890549 
z"/>
<path fill="#D0E5EF" opacity="1.000000" stroke="none" 
	d="
M119.080025,94.239548 
	C119.411514,94.147781 119.675461,94.303627 119.939423,94.459473 
	C119.715569,94.627182 119.491722,94.794891 119.056648,94.967575 
	C118.901108,94.810753 118.956802,94.648964 119.080025,94.239548 
z"/>
<path fill="#C9DCE9" opacity="1.000000" stroke="none" 
	d="
M89.261154,109.952126 
	C88.958687,109.922951 88.530930,109.726486 88.295853,109.723663 
	C86.936134,110.143440 85.811493,110.566040 84.347519,111.143829 
	C83.089180,109.945625 82.170158,108.592216 81.251144,107.238808 
	C82.628082,106.398018 83.937485,104.993202 85.394211,104.818771 
	C90.415283,104.217552 93.166222,102.028786 92.391121,96.282104 
	C93.068237,95.971802 93.755142,96.017632 94.786011,96.063965 
	C93.695549,101.056046 92.261116,106.047623 90.438507,111.059723 
	C89.888107,110.713936 89.725868,110.347618 89.261154,109.952126 
z"/>
<path fill="#CCDEE4" opacity="1.000000" stroke="none" 
	d="
M78.931969,95.984802 
	C78.105118,96.239716 77.278267,96.494637 76.451424,96.749557 
	C76.573326,96.347679 76.695236,95.945808 76.996307,95.186172 
	C77.175461,94.828423 77.305939,94.701622 77.479431,94.766273 
	C77.652931,94.830925 78.017960,94.893227 78.017960,94.893227 
	C78.017960,94.893227 78.064529,94.917694 78.178619,95.139854 
	C78.471588,95.604713 78.684677,95.812309 78.931969,95.984802 
z"/>
<path fill="#E2ECE3" opacity="1.000000" stroke="none" 
	d="
M79.606339,95.390244 
	C79.740334,95.024185 80.172569,94.585655 80.934792,94.135025 
	C80.811386,94.521217 80.357986,94.919495 79.606339,95.390244 
z"/>
<path fill="#E2ECE3" opacity="1.000000" stroke="none" 
	d="
M79.098885,95.900330 
	C78.684677,95.812309 78.471588,95.604713 78.192825,95.162003 
	C78.310951,95.032539 78.528969,95.103088 79.060455,95.315643 
	C79.373924,95.457657 79.265800,95.815849 79.098885,95.900330 
z"/>
<path fill="#CCDEE4" opacity="1.000000" stroke="none" 
	d="
M76.041290,94.302155 
	C76.094322,94.077118 76.304222,94.036484 76.857635,94.188187 
	C77.201141,94.380539 77.305939,94.701622 77.305939,94.701622 
	C77.305939,94.701622 77.175461,94.828423 77.109680,94.891144 
	C76.739449,94.838875 76.457535,94.683098 76.041290,94.302155 
z"/>
<path fill="#E2ECE3" opacity="1.000000" stroke="none" 
	d="
M75.243149,94.136429 
	C75.027580,93.871758 75.049004,93.700661 75.117096,93.275543 
	C75.416115,93.193512 75.624329,93.408318 75.878128,93.874115 
	C75.805283,94.131546 75.642708,94.180771 75.243149,94.136429 
z"/>
<path fill="#E2ECE3" opacity="1.000000" stroke="none" 
	d="
M77.479431,94.766273 
	C77.305939,94.701622 77.201141,94.380539 77.177231,94.214752 
	C77.408882,94.161819 77.622490,94.328468 77.906052,94.721062 
	C78.017960,94.893227 77.652931,94.830925 77.479431,94.766273 
z"/>
<path fill="#EAF2F0" opacity="1.000000" stroke="none" 
	d="
M146.987854,100.958221 
	C146.633438,100.196373 146.299896,99.456818 145.966354,98.717255 
	C146.241379,98.625519 146.516388,98.533783 146.791412,98.442047 
	C146.850372,99.059998 146.909332,99.677956 146.958466,100.633362 
	C146.948624,100.970810 147.008728,100.980507 146.987854,100.958221 
z"/>
<path fill="#1461BE" opacity="1.000000" stroke="none" 
	d="
M146.510315,94.761078 
	C146.095947,94.923820 145.647507,95.055367 145.199051,95.186905 
	C145.470673,95.071693 145.742279,94.956467 146.235641,94.740318 
	C146.457382,94.639397 146.476212,94.729881 146.510315,94.761078 
z"/>
<path fill="#E3EEF1" opacity="1.000000" stroke="none" 
	d="
M154.921021,99.415054 
	C155.528275,97.593399 156.076553,96.117798 156.923752,94.840424 
	C157.089600,94.590370 158.413300,95.108253 159.305344,95.626198 
	C158.324509,100.160561 158.600815,104.906013 155.252731,108.144295 
	C154.767181,108.003693 154.281631,107.863098 153.796082,107.722504 
	C154.186264,105.091820 154.576431,102.461128 154.921021,99.415054 
z"/>
<path fill="#E0EDF2" opacity="1.000000" stroke="none" 
	d="
M165.051636,100.302170 
	C165.120209,100.074913 165.557266,100.030281 165.776855,100.035294 
	C165.787399,100.717163 165.578354,101.394012 165.161942,102.012329 
	C164.954575,101.953804 164.946426,101.455391 164.881195,101.214584 
	C164.815979,100.973778 164.983078,100.529419 165.051636,100.302170 
z"/>
<path fill="#DBEAEC" opacity="1.000000" stroke="none" 
	d="
M23.273167,100.788223 
	C23.273169,100.788223 22.828482,100.725243 22.828482,100.725243 
	C22.828482,100.725243 22.397581,100.851868 21.948364,100.770050 
	C21.037891,100.130821 20.576632,99.573410 20.115372,99.015991 
	C20.540609,96.337044 20.965847,93.658104 21.429781,90.571121 
	C23.058657,90.006348 24.835588,89.369919 26.163483,89.886887 
	C26.871294,90.162453 27.171749,92.483513 26.989235,93.788040 
	C26.772470,95.337372 25.838955,96.786423 25.115040,98.642120 
	C25.014044,99.005310 24.997690,99.001801 24.733494,99.171043 
	C24.070587,99.822929 23.671877,100.305573 23.273167,100.788223 
z"/>
<path fill="#E3EEF1" opacity="1.000000" stroke="none" 
	d="
M24.858912,108.417664 
	C23.486420,111.645592 22.113928,114.873520 20.678112,118.472473 
	C19.949099,119.181496 19.283407,119.519493 18.220451,119.608765 
	C17.396938,119.112335 16.970692,118.864624 16.544441,118.616913 
	C16.544441,118.616920 16.359928,118.460510 16.519653,117.946548 
	C16.693302,116.869911 16.707226,116.307243 16.721149,115.744568 
	C16.785454,115.048576 16.849760,114.352592 17.346615,113.110641 
	C18.544699,110.025528 19.310236,107.486382 20.314974,104.962906 
	C20.554174,104.978584 21.023335,104.879875 21.023335,104.879875 
	C21.424212,104.998314 21.825089,105.116753 22.644192,105.557358 
	C23.661247,106.725571 24.260078,107.571617 24.858912,108.417664 
z"/>
<path fill="#9FC1DB" opacity="1.000000" stroke="none" 
	d="
M20.075771,104.947227 
	C19.310236,107.486382 18.544699,110.025528 17.521622,112.803452 
	C18.037148,108.550316 18.810213,104.058403 19.849327,99.291245 
	C20.576632,99.573410 21.037891,100.130821 21.732704,100.832413 
	C21.966257,100.976578 21.965393,101.259590 21.611008,101.563316 
	C21.072138,102.287308 20.887653,102.707565 20.703167,103.127831 
	C20.703167,103.127831 20.599800,103.300819 20.465237,103.563622 
	C20.245705,104.200027 20.160738,104.573624 20.075771,104.947227 
z"/>
<path fill="#9FC1DB" opacity="1.000000" stroke="none" 
	d="
M16.536350,115.955093 
	C16.707226,116.307243 16.693302,116.869911 16.508137,117.826149 
	C16.341782,117.535019 16.346668,116.850319 16.536350,115.955093 
z"/>
<path fill="#9FC1DB" opacity="1.000000" stroke="none" 
	d="
M16.618263,118.890961 
	C16.970692,118.864624 17.396938,119.112335 17.934490,119.609680 
	C17.594561,119.627884 17.143322,119.396439 16.618263,118.890961 
z"/>
<path fill="#1B61B1" opacity="1.000000" stroke="none" 
	d="
M24.894634,108.043518 
	C24.260078,107.571617 23.661247,106.725571 22.957363,105.586868 
	C23.544991,106.085930 24.237675,106.877655 24.894634,108.043518 
z"/>
<path fill="#1B61B1" opacity="1.000000" stroke="none" 
	d="
M23.597607,100.697380 
	C23.671877,100.305573 24.070587,99.822929 24.738026,99.178741 
	C24.645185,99.546974 24.283617,100.076759 23.597607,100.697380 
z"/>
<path fill="#1B61B1" opacity="1.000000" stroke="none" 
	d="
M20.314972,104.962906 
	C20.160738,104.573624 20.245705,104.200027 20.542339,103.628479 
	C20.802963,103.671318 20.851921,103.912086 20.962107,104.516373 
	C21.023335,104.879875 20.554174,104.978584 20.314972,104.962906 
z"/>
<path fill="#1B61B1" opacity="1.000000" stroke="none" 
	d="
M20.960644,102.909241 
	C20.887653,102.707565 21.072138,102.287308 21.569305,101.698532 
	C21.660694,101.916901 21.439405,102.303772 20.960644,102.909241 
z"/>
<path fill="#C3D7E6" opacity="1.000000" stroke="none" 
	d="
M175.929382,95.299561 
	C176.470352,94.369148 176.980133,93.765198 177.753143,93.018539 
	C178.105194,94.215645 178.194016,95.555450 178.282852,96.895264 
	C177.487976,96.472183 176.693100,96.049103 175.929382,95.299561 
z"/>
</pattern>
</svg>