<svg version="1.1" xmlns="http://www.w3.org/2000/svg" xmlns:xlink="http://www.w3.org/1999/xlink" x="0px" y="0px" viewBox="0 0 0 0" width="0" height="0">
<pattern  id="hersheys-bar" patternUnits="userSpaceOnUse" width="900" height="400" patternTransform="scale(0.08),rotate(-35),translate(-280)">
<path fill="#44151B" opacity="1.000000" stroke="none" 
	d="
M831.000000,405.000000 
	C554.000061,405.000000 277.500061,405.000000 1.000074,405.000000 
	C1.000049,270.333374 1.000049,135.666763 1.000025,1.000110 
	C427.666595,1.000074 854.333191,1.000074 1280.999756,1.000037 
	C1280.999878,135.666550 1280.999878,270.333099 1281.000000,404.999817 
	C1131.166626,405.000000 981.333313,405.000000 831.000000,405.000000 
M468.517242,130.614944 
	C467.681702,118.500481 467.462738,106.304138 465.867401,94.290558 
	C463.417542,75.841927 454.577972,66.390030 437.570740,62.458363 
	C434.342346,61.712036 431.009735,61.062336 427.715302,61.011402 
	C399.076904,60.568611 370.436310,60.270351 341.796112,59.947926 
	C341.167389,59.940845 340.536163,60.156445 339.814301,60.284447 
	C339.814301,159.435104 339.814301,258.437836 339.814301,357.333130 
	C356.469116,357.333130 372.687775,357.333130 389.394348,357.333130 
	C389.394348,308.839447 389.394348,260.766785 389.394348,212.255524 
	C393.167786,212.255524 396.466827,212.113358 399.749908,212.281723 
	C410.272461,212.821320 414.401611,216.926514 414.933899,227.445618 
	C415.169495,232.100861 415.118591,236.771423 415.163574,241.435364 
	C415.431885,269.250702 415.363617,297.075134 416.131378,324.876556 
	C416.395386,334.438232 418.585358,343.969788 420.278931,353.446625 
	C420.566864,355.057770 422.775909,357.534454 424.136200,357.560211 
	C439.580994,357.852600 455.033325,357.745789 469.758026,357.745789 
	C468.747528,348.399475 467.150818,339.387146 466.920258,330.340057 
	C466.385590,309.361786 466.523468,288.366638 466.364563,267.378510 
	C466.259888,253.552795 466.395691,239.717499 465.911865,225.904419 
	C465.342072,209.636856 459.665253,196.614258 442.107635,192.139771 
	C441.939453,192.096893 441.873627,191.652374 441.665161,191.180862 
	C456.655396,189.044937 464.085938,179.407471 465.945435,165.351105 
	C467.425537,154.162659 467.710510,142.816086 468.517242,130.614944 
M141.511169,149.499573 
	C141.511169,156.601044 141.511169,163.702515 141.511169,170.926392 
	C131.963577,170.926392 123.094940,170.926392 113.756569,170.926392 
	C113.756569,133.811661 113.756569,97.073586 113.756569,60.320240 
	C97.571419,60.320240 81.865341,60.320240 66.304268,60.320240 
	C66.304268,159.594635 66.304268,258.478119 66.304268,357.465942 
	C82.227524,357.465942 97.803596,357.465942 114.005836,357.465942 
	C114.005836,308.972351 114.005836,260.778259 114.005836,212.500107 
	C123.390846,212.500107 132.144577,212.500107 141.583679,212.500107 
	C141.583679,261.005585 141.583679,309.218811 141.583679,357.441528 
	C157.853165,357.441528 173.430466,357.441528 189.284485,357.441528 
	C189.284485,258.223450 189.284485,159.333740 189.284485,60.265991 
	C173.326462,60.265991 157.624130,60.265991 141.511246,60.265991 
	C141.511246,89.900116 141.511246,119.199860 141.511169,149.499573 
M694.682983,254.500229 
	C694.682983,240.564957 694.682983,226.629669 694.682983,212.475830 
	C704.118286,212.475830 712.863342,212.475830 722.270874,212.475830 
	C722.270874,260.942810 722.270874,309.144073 722.270874,357.481018 
	C738.518860,357.481018 754.102173,357.481018 769.815491,357.481018 
	C769.815491,258.180328 769.815491,159.172165 769.815491,60.245754 
	C753.811584,60.245754 738.225586,60.245754 722.135864,60.245754 
	C722.135864,97.299812 722.135864,134.039658 722.135864,170.909882 
	C712.755737,170.909882 703.888733,170.909882 694.516357,170.909882 
	C694.516357,133.769409 694.516357,97.018532 694.516357,60.293171 
	C678.273926,60.293171 662.546814,60.293171 646.794312,60.293171 
	C646.794312,159.555618 646.794312,258.451752 646.794312,357.342896 
	C662.878418,357.342896 678.584717,357.342896 694.682983,357.342896 
	C694.682983,323.109650 694.682983,289.304962 694.682983,254.500229 
M1225.003784,298.499817 
	C1225.003784,288.337555 1225.061279,278.174835 1224.985107,268.013153 
	C1224.927734,260.358185 1225.377930,252.616867 1224.403687,245.068665 
	C1222.408447,229.611618 1212.400635,218.738785 1201.731567,208.469345 
	C1187.212891,194.494324 1172.416504,180.798813 1158.168945,166.553787 
	C1146.882446,155.269470 1140.562988,141.718292 1141.717896,125.202919 
	C1142.216431,118.072899 1141.752563,110.879700 1141.896729,103.718636 
	C1141.949951,101.078384 1142.230713,98.382584 1142.865112,95.825600 
	C1144.669800,88.551552 1147.620972,86.784561 1157.156250,86.832626 
	C1168.655518,86.890610 1172.256348,88.793777 1173.939209,96.202225 
	C1174.633301,99.257515 1174.908813,102.459419 1174.955566,105.600883 
	C1175.116821,116.428032 1175.093872,127.257950 1175.139038,138.086807 
	C1175.145630,139.672943 1175.140015,141.259140 1175.140015,142.816803 
	C1190.519165,142.816803 1205.102417,142.816803 1220.612915,142.816803 
	C1220.031128,123.387245 1220.395752,104.202789 1218.621582,85.218193 
	C1216.880737,66.587265 1207.198853,57.293037 1188.440308,55.999340 
	C1170.380981,54.753876 1152.178345,55.553497 1134.038696,55.546089 
	C1131.557983,55.545074 1129.043335,55.903214 1126.601318,56.383930 
	C1106.921387,60.258060 1096.086426,72.644180 1095.107300,93.797310 
	C1094.345215,110.258522 1094.851440,126.774567 1094.481689,143.259232 
	C1094.252686,153.467346 1096.991699,162.679031 1102.541748,171.088638 
	C1112.431763,186.074081 1124.766479,198.783737 1138.472290,210.357468 
	C1147.214478,217.739777 1155.649292,225.615005 1163.353760,234.061020 
	C1171.065308,242.514832 1176.886230,252.605225 1177.462036,264.309235 
	C1178.148438,278.258820 1178.136108,292.303650 1177.345459,306.245911 
	C1176.702881,317.576599 1173.019653,320.107117 1161.593140,320.019714 
	C1160.260376,320.009521 1158.926758,320.026825 1157.595093,319.981232 
	C1150.073608,319.723572 1146.287720,316.491028 1145.148071,308.998199 
	C1144.674316,305.882965 1144.587280,302.691284 1144.543945,299.531342 
	C1144.362915,286.371399 1144.273560,273.210175 1144.127686,260.049713 
	C1144.108154,258.296875 1143.956665,256.545502 1143.870605,254.874207 
	C1128.792236,254.874207 1114.241333,254.874207 1100.144043,254.874207 
	C1100.144043,278.280823 1099.164795,301.301025 1100.438965,324.195801 
	C1101.555908,344.266632 1111.134644,355.173248 1128.852539,356.408051 
	C1149.219116,357.827393 1169.858765,357.919708 1190.202881,356.327881 
	C1209.913330,354.785614 1220.343384,343.926208 1223.547852,324.880371 
	C1224.945312,316.573608 1224.572632,307.968994 1225.003784,298.499817 
M619.267029,106.500595 
	C618.512878,97.731949 618.493164,88.821495 616.833923,80.227585 
	C614.288452,67.043434 606.117004,58.080414 592.469849,56.571377 
	C569.265137,54.005512 545.893311,53.411327 522.766724,57.201942 
	C509.104553,59.441277 500.276306,68.281174 496.481781,81.641235 
	C495.173462,86.247780 494.176086,91.096481 494.060150,95.859467 
	C493.687164,111.183464 494.133514,126.530914 493.603058,141.846436 
	C493.184784,153.923218 496.730103,164.493530 503.609589,174.104156 
	C513.451233,187.852844 525.127380,199.831833 538.113220,210.704376 
	C546.757874,217.942307 555.030334,225.779327 562.534973,234.182663 
	C570.747803,243.378937 576.413757,254.276550 576.786316,266.993713 
	C577.137512,278.982330 577.076843,290.995453 576.778320,302.987366 
	C576.432129,316.893280 572.816406,320.132172 558.917786,320.000854 
	C558.251221,319.994568 557.583984,320.011932 556.917908,319.991150 
	C549.157837,319.749054 545.247620,316.427094 544.135803,308.739655 
	C543.660889,305.455780 543.598267,302.095093 543.567383,298.767242 
	C543.451355,286.268524 543.424255,273.768951 543.367371,261.269714 
	C543.357727,259.161133 543.366028,257.052460 543.366028,254.831833 
	C528.130615,254.831833 513.577881,254.831833 498.868011,254.831833 
	C498.750214,256.355347 498.585236,257.498901 498.584869,258.642548 
	C498.579071,276.308289 498.483917,293.975189 498.669708,311.639099 
	C498.729034,317.280365 499.187225,322.971497 500.084045,328.539764 
	C502.797302,345.386261 511.428375,355.348785 527.884216,356.402649 
	C548.436340,357.718781 569.237915,357.878326 589.751587,356.257050 
	C608.903381,354.743408 619.073669,344.043823 622.662231,326.026550 
	C623.663757,320.998047 624.039185,315.776001 624.082397,310.637543 
	C624.247803,290.973236 624.196899,271.306671 624.129761,251.641266 
	C624.119568,248.664276 623.864563,245.633286 623.262634,242.722443 
	C620.311829,228.453522 611.049683,218.204025 601.011841,208.539185 
	C586.609802,194.672333 571.911682,181.107635 557.704773,167.045380 
	C546.209900,155.667511 539.824280,141.994202 540.902954,125.312546 
	C541.353760,118.341591 540.887268,111.315659 541.048035,104.319557 
	C541.116394,101.344437 541.453308,98.317047 542.143555,95.426918 
	C543.546570,89.551437 546.763489,87.108215 552.797485,86.886581 
	C554.628052,86.819336 556.463379,86.847260 558.295898,86.873466 
	C569.931763,87.039856 573.748291,90.683456 574.043762,102.517143 
	C574.334961,114.178001 574.292358,125.847069 574.419189,137.512283 
	C574.438538,139.282394 574.582397,141.051132 574.666687,142.779480 
	C589.775024,142.779480 604.354675,142.779480 619.267151,142.779480 
	C619.267151,130.789062 619.267151,119.144707 619.267029,106.500595 
M849.885864,99.313004 
	C867.809509,99.313004 885.733093,99.313004 903.791626,99.313004 
	C903.791626,85.896858 903.791626,73.150078 903.791626,60.206120 
	C868.314941,60.206120 833.091064,60.206120 797.812988,60.206120 
	C797.812988,159.485199 797.812988,258.486481 797.812988,357.433960 
	C834.196350,357.433960 870.105957,357.433960 906.274536,357.433960 
	C906.274536,343.180115 906.274536,329.263336 906.274536,314.747803 
	C885.950806,314.747803 865.901428,314.747803 845.799316,314.747803 
	C845.799316,280.263092 845.799316,246.379059 845.799316,212.018921 
	C862.969910,212.018921 879.725342,212.018921 896.606079,212.018921 
	C896.606079,198.471832 896.606079,185.405273 896.606079,171.903351 
	C879.551270,171.903351 862.790283,171.903351 846.269775,171.903351 
	C845.872986,171.181366 845.577698,170.894562 845.576721,170.606781 
	C845.500671,147.783691 845.404724,124.960274 845.544556,102.138313 
	C845.550354,101.190361 847.778198,100.256027 849.885864,99.313004 
M210.874222,226.499954 
	C210.874222,270.096039 210.874222,313.692108 210.874222,357.388977 
	C247.564087,357.388977 283.613342,357.388977 319.646667,357.388977 
	C319.646667,343.087585 319.646667,329.166077 319.646667,314.661987 
	C299.288513,314.661987 279.234161,314.661987 259.215759,314.661987 
	C259.215759,280.299103 259.215759,246.524246 259.215759,212.051498 
	C276.321442,212.051498 293.189026,212.051498 309.839050,212.051498 
	C309.839050,198.284271 309.839050,185.219376 309.839050,171.668365 
	C292.690216,171.668365 275.948303,171.668365 259.218384,171.668365 
	C259.218384,147.398300 259.218384,123.627708 259.218384,99.302322 
	C278.711426,99.302322 297.956787,99.302322 317.362976,99.302322 
	C317.362976,85.891151 317.362976,73.040314 317.362976,60.266380 
	C281.692871,60.266380 246.445374,60.266380 210.874222,60.266380 
	C210.874222,115.566521 210.874222,170.533234 210.874222,226.499954 
M1011.879517,59.921844 
	C1008.617188,59.385300 1008.556152,61.879925 1008.166443,63.938980 
	C1001.082520,101.371422 994.023499,138.808578 986.944702,176.241989 
	C986.483765,178.679169 985.905579,181.094177 985.382019,183.519516 
	C985.036499,183.455582 984.690979,183.391663 984.345459,183.327728 
	C977.225464,142.253448 970.105408,101.179184 962.998596,60.180878 
	C946.313110,60.180878 930.210693,60.180878 913.956848,60.180878 
	C914.078003,61.438091 914.071594,62.444004 914.282043,63.402252 
	C924.665710,110.676582 934.767883,158.015778 945.606506,205.185730 
	C950.365540,225.897385 953.351318,246.533401 952.779968,267.884674 
	C952.036072,295.687012 952.598022,323.524353 952.598022,351.346619 
	C952.598022,353.294922 952.598083,355.243195 952.598083,357.310303 
	C968.916321,357.310303 984.597900,357.310303 1000.650085,357.310303 
	C1000.650085,354.887512 1000.650085,352.908691 1000.650085,350.929840 
	C1000.650208,314.610931 1000.637207,278.292023 1000.677368,241.973160 
	C1000.680298,239.323273 1000.757690,236.605576 1001.322937,234.034256 
	C1012.429199,183.513077 1023.620911,133.010666 1034.772339,82.499405 
	C1036.397339,75.138634 1037.905762,67.752144 1039.565186,59.920074 
	C1030.104004,59.920074 1021.458008,59.920074 1011.879517,59.921844 
M1074.483887,59.916492 
	C1068.713989,59.916492 1062.944214,59.916492 1057.097656,59.916492 
	C1051.550171,82.287453 1046.129517,104.146820 1040.607178,126.416206 
	C1051.400391,126.416206 1061.470825,126.416206 1071.771729,126.416206 
	C1077.113037,104.304588 1082.408691,82.382385 1087.835571,59.916492 
	C1083.410645,59.916492 1079.442383,59.916492 1074.483887,59.916492 
M1020.020874,328.791260 
	C1020.005005,329.789673 1019.961731,330.788544 1019.977295,331.786469 
	C1020.171936,344.271759 1028.080566,355.419983 1039.794556,359.735291 
	C1051.356323,363.994507 1065.067749,360.439301 1072.983643,351.129761 
	C1081.273315,341.380646 1082.727051,327.647949 1076.635376,316.633667 
	C1070.601685,305.724396 1057.876587,299.368256 1045.970703,301.316925 
	C1031.976440,303.607361 1023.021423,312.802917 1020.020874,328.791260 
z"/>
<path fill="#C0C0C0" opacity="1.000000" stroke="none" 
	d="
M468.521637,131.077332 
	C467.710510,142.816086 467.425537,154.162659 465.945435,165.351105 
	C464.085938,179.407471 456.655396,189.044937 441.665161,191.180862 
	C441.873627,191.652374 441.939453,192.096893 442.107635,192.139771 
	C459.665253,196.614258 465.342072,209.636856 465.911865,225.904419 
	C466.395691,239.717499 466.259888,253.552795 466.364563,267.378510 
	C466.523468,288.366638 466.385590,309.361786 466.920258,330.340057 
	C467.150818,339.387146 468.747528,348.399475 469.758026,357.745789 
	C455.033325,357.745789 439.580994,357.852600 424.136200,357.560211 
	C422.775909,357.534454 420.566864,355.057770 420.278931,353.446625 
	C418.585358,343.969788 416.395386,334.438232 416.131378,324.876556 
	C415.363617,297.075134 415.431885,269.250702 415.163574,241.435364 
	C415.118591,236.771423 415.169495,232.100861 414.933899,227.445618 
	C414.401611,216.926514 410.272461,212.821320 399.749908,212.281723 
	C396.466827,212.113358 393.167786,212.255524 389.394348,212.255524 
	C389.394348,260.766785 389.394348,308.839447 389.394348,357.333130 
	C372.687775,357.333130 356.469116,357.333130 339.814301,357.333130 
	C339.814301,258.437836 339.814301,159.435104 339.814301,60.284447 
	C340.536163,60.156445 341.167389,59.940845 341.796112,59.947926 
	C370.436310,60.270351 399.076904,60.568611 427.715302,61.011402 
	C431.009735,61.062336 434.342346,61.712036 437.570740,62.458363 
	C454.577972,66.390030 463.417542,75.841927 465.867401,94.290558 
	C467.462738,106.304138 467.681702,118.500481 468.521637,131.077332 
M391.742371,172.319565 
	C406.798279,172.423569 410.589172,169.491531 413.613281,154.574036 
	C414.599243,149.710495 415.189545,144.666107 415.138519,139.712891 
	C415.011841,127.422340 414.738983,115.112823 413.848175,102.860123 
	C413.462341,97.553307 410.499664,92.674934 404.826752,91.428726 
	C399.926544,90.352257 394.739746,90.580231 389.973846,90.251823 
	C389.520966,91.493752 389.312408,91.799080 389.311981,92.104706 
	C389.275635,117.746269 389.236450,143.387909 389.300568,169.029282 
	C389.303253,170.101425 390.279907,171.171143 391.742371,172.319565 
z"/>
<path fill="#C0C0C0" opacity="1.000000" stroke="none" 
	d="
M141.511200,148.999588 
	C141.511246,119.199860 141.511246,89.900116 141.511246,60.265991 
	C157.624130,60.265991 173.326462,60.265991 189.284485,60.265991 
	C189.284485,159.333740 189.284485,258.223450 189.284485,357.441528 
	C173.430466,357.441528 157.853165,357.441528 141.583679,357.441528 
	C141.583679,309.218811 141.583679,261.005585 141.583679,212.500107 
	C132.144577,212.500107 123.390846,212.500107 114.005836,212.500107 
	C114.005836,260.778259 114.005836,308.972351 114.005836,357.465942 
	C97.803596,357.465942 82.227524,357.465942 66.304268,357.465942 
	C66.304268,258.478119 66.304268,159.594635 66.304268,60.320240 
	C81.865341,60.320240 97.571419,60.320240 113.756569,60.320240 
	C113.756569,97.073586 113.756569,133.811661 113.756569,170.926392 
	C123.094940,170.926392 131.963577,170.926392 141.511169,170.926392 
	C141.511169,163.702515 141.511169,156.601044 141.511200,148.999588 
z"/>
<path fill="#C0BFBF" opacity="1.000000" stroke="none" 
	d="
M694.682983,255.000244 
	C694.682983,289.304962 694.682983,323.109650 694.682983,357.342896 
	C678.584717,357.342896 662.878418,357.342896 646.794312,357.342896 
	C646.794312,258.451752 646.794312,159.555618 646.794312,60.293171 
	C662.546814,60.293171 678.273926,60.293171 694.516357,60.293171 
	C694.516357,97.018532 694.516357,133.769409 694.516357,170.909882 
	C703.888733,170.909882 712.755737,170.909882 722.135864,170.909882 
	C722.135864,134.039658 722.135864,97.299812 722.135864,60.245754 
	C738.225586,60.245754 753.811584,60.245754 769.815491,60.245754 
	C769.815491,159.172165 769.815491,258.180328 769.815491,357.481018 
	C754.102173,357.481018 738.518860,357.481018 722.270874,357.481018 
	C722.270874,309.144073 722.270874,260.942810 722.270874,212.475830 
	C712.863342,212.475830 704.118286,212.475830 694.682983,212.475830 
	C694.682983,226.629669 694.682983,240.564957 694.682983,255.000244 
z"/>
<path fill="#C0C0C0" opacity="1.000000" stroke="none" 
	d="
M1225.003784,298.999756 
	C1224.572632,307.968994 1224.945312,316.573608 1223.547852,324.880371 
	C1220.343384,343.926208 1209.913330,354.785614 1190.202881,356.327881 
	C1169.858765,357.919708 1149.219116,357.827393 1128.852539,356.408051 
	C1111.134644,355.173248 1101.555908,344.266632 1100.438965,324.195801 
	C1099.164795,301.301025 1100.144043,278.280823 1100.144043,254.874207 
	C1114.241333,254.874207 1128.792236,254.874207 1143.870605,254.874207 
	C1143.956665,256.545502 1144.108154,258.296875 1144.127686,260.049713 
	C1144.273560,273.210175 1144.362915,286.371399 1144.543945,299.531342 
	C1144.587280,302.691284 1144.674316,305.882965 1145.148071,308.998199 
	C1146.287720,316.491028 1150.073608,319.723572 1157.595093,319.981232 
	C1158.926758,320.026825 1160.260376,320.009521 1161.593140,320.019714 
	C1173.019653,320.107117 1176.702881,317.576599 1177.345459,306.245911 
	C1178.136108,292.303650 1178.148438,278.258820 1177.462036,264.309235 
	C1176.886230,252.605225 1171.065308,242.514832 1163.353760,234.061020 
	C1155.649292,225.615005 1147.214478,217.739777 1138.472290,210.357468 
	C1124.766479,198.783737 1112.431763,186.074081 1102.541748,171.088638 
	C1096.991699,162.679031 1094.252686,153.467346 1094.481689,143.259232 
	C1094.851440,126.774567 1094.345215,110.258522 1095.107300,93.797310 
	C1096.086426,72.644180 1106.921387,60.258060 1126.601318,56.383930 
	C1129.043335,55.903214 1131.557983,55.545074 1134.038696,55.546089 
	C1152.178345,55.553497 1170.380981,54.753876 1188.440308,55.999340 
	C1207.198853,57.293037 1216.880737,66.587265 1218.621582,85.218193 
	C1220.395752,104.202789 1220.031128,123.387245 1220.612915,142.816803 
	C1205.102417,142.816803 1190.519165,142.816803 1175.140015,142.816803 
	C1175.140015,141.259140 1175.145630,139.672943 1175.139038,138.086807 
	C1175.093872,127.257950 1175.116821,116.428032 1174.955566,105.600883 
	C1174.908813,102.459419 1174.633301,99.257515 1173.939209,96.202225 
	C1172.256348,88.793777 1168.655518,86.890610 1157.156250,86.832626 
	C1147.620972,86.784561 1144.669800,88.551552 1142.865112,95.825600 
	C1142.230713,98.382584 1141.949951,101.078384 1141.896729,103.718636 
	C1141.752563,110.879700 1142.216431,118.072899 1141.717896,125.202919 
	C1140.562988,141.718292 1146.882446,155.269470 1158.168945,166.553787 
	C1172.416504,180.798813 1187.212891,194.494324 1201.731567,208.469345 
	C1212.400635,218.738785 1222.408447,229.611618 1224.403687,245.068665 
	C1225.377930,252.616867 1224.927734,260.358185 1224.985107,268.013153 
	C1225.061279,278.174835 1225.003784,288.337555 1225.003784,298.999756 
z"/>
<path fill="#C0C0C0" opacity="1.000000" stroke="none" 
	d="
M619.267090,107.000473 
	C619.267151,119.144707 619.267151,130.789062 619.267151,142.779480 
	C604.354675,142.779480 589.775024,142.779480 574.666687,142.779480 
	C574.582397,141.051132 574.438538,139.282394 574.419189,137.512283 
	C574.292358,125.847069 574.334961,114.178001 574.043762,102.517143 
	C573.748291,90.683456 569.931763,87.039856 558.295898,86.873466 
	C556.463379,86.847260 554.628052,86.819336 552.797485,86.886581 
	C546.763489,87.108215 543.546570,89.551437 542.143555,95.426918 
	C541.453308,98.317047 541.116394,101.344437 541.048035,104.319557 
	C540.887268,111.315659 541.353760,118.341591 540.902954,125.312546 
	C539.824280,141.994202 546.209900,155.667511 557.704773,167.045380 
	C571.911682,181.107635 586.609802,194.672333 601.011841,208.539185 
	C611.049683,218.204025 620.311829,228.453522 623.262634,242.722443 
	C623.864563,245.633286 624.119568,248.664276 624.129761,251.641266 
	C624.196899,271.306671 624.247803,290.973236 624.082397,310.637543 
	C624.039185,315.776001 623.663757,320.998047 622.662231,326.026550 
	C619.073669,344.043823 608.903381,354.743408 589.751587,356.257050 
	C569.237915,357.878326 548.436340,357.718781 527.884216,356.402649 
	C511.428375,355.348785 502.797302,345.386261 500.084045,328.539764 
	C499.187225,322.971497 498.729034,317.280365 498.669708,311.639099 
	C498.483917,293.975189 498.579071,276.308289 498.584869,258.642548 
	C498.585236,257.498901 498.750214,256.355347 498.868011,254.831833 
	C513.577881,254.831833 528.130615,254.831833 543.366028,254.831833 
	C543.366028,257.052460 543.357727,259.161133 543.367371,261.269714 
	C543.424255,273.768951 543.451355,286.268524 543.567383,298.767242 
	C543.598267,302.095093 543.660889,305.455780 544.135803,308.739655 
	C545.247620,316.427094 549.157837,319.749054 556.917908,319.991150 
	C557.583984,320.011932 558.251221,319.994568 558.917786,320.000854 
	C572.816406,320.132172 576.432129,316.893280 576.778320,302.987366 
	C577.076843,290.995453 577.137512,278.982330 576.786316,266.993713 
	C576.413757,254.276550 570.747803,243.378937 562.534973,234.182663 
	C555.030334,225.779327 546.757874,217.942307 538.113220,210.704376 
	C525.127380,199.831833 513.451233,187.852844 503.609589,174.104156 
	C496.730103,164.493530 493.184784,153.923218 493.603058,141.846436 
	C494.133514,126.530914 493.687164,111.183464 494.060150,95.859467 
	C494.176086,91.096481 495.173462,86.247780 496.481781,81.641235 
	C500.276306,68.281174 509.104553,59.441277 522.766724,57.201942 
	C545.893311,53.411327 569.265137,54.005512 592.469849,56.571377 
	C606.117004,58.080414 614.288452,67.043434 616.833923,80.227585 
	C618.493164,88.821495 618.512878,97.731949 619.267090,107.000473 
z"/>
<path fill="#C0C0C0" opacity="1.000000" stroke="none" 
	d="
M849.428345,99.314178 
	C847.778198,100.256027 845.550354,101.190361 845.544556,102.138313 
	C845.404724,124.960274 845.500671,147.783691 845.576721,170.606781 
	C845.577698,170.894562 845.872986,171.181366 846.269775,171.903351 
	C862.790283,171.903351 879.551270,171.903351 896.606079,171.903351 
	C896.606079,185.405273 896.606079,198.471832 896.606079,212.018921 
	C879.725342,212.018921 862.969910,212.018921 845.799316,212.018921 
	C845.799316,246.379059 845.799316,280.263092 845.799316,314.747803 
	C865.901428,314.747803 885.950806,314.747803 906.274536,314.747803 
	C906.274536,329.263336 906.274536,343.180115 906.274536,357.433960 
	C870.105957,357.433960 834.196350,357.433960 797.812988,357.433960 
	C797.812988,258.486481 797.812988,159.485199 797.812988,60.206120 
	C833.091064,60.206120 868.314941,60.206120 903.791626,60.206120 
	C903.791626,73.150078 903.791626,85.896858 903.791626,99.313004 
	C885.733093,99.313004 867.809509,99.313004 849.428345,99.314178 
z"/>
<path fill="#C1C0C1" opacity="1.000000" stroke="none" 
	d="
M210.874222,225.999939 
	C210.874222,170.533234 210.874222,115.566521 210.874222,60.266380 
	C246.445374,60.266380 281.692871,60.266380 317.362976,60.266380 
	C317.362976,73.040314 317.362976,85.891151 317.362976,99.302322 
	C297.956787,99.302322 278.711426,99.302322 259.218384,99.302322 
	C259.218384,123.627708 259.218384,147.398300 259.218384,171.668365 
	C275.948303,171.668365 292.690216,171.668365 309.839050,171.668365 
	C309.839050,185.219376 309.839050,198.284271 309.839050,212.051498 
	C293.189026,212.051498 276.321442,212.051498 259.215759,212.051498 
	C259.215759,246.524246 259.215759,280.299103 259.215759,314.661987 
	C279.234161,314.661987 299.288513,314.661987 319.646667,314.661987 
	C319.646667,329.166077 319.646667,343.087585 319.646667,357.388977 
	C283.613342,357.388977 247.564087,357.388977 210.874222,357.388977 
	C210.874222,313.692108 210.874222,270.096039 210.874222,225.999939 
z"/>
<path fill="#C0C0C0" opacity="1.000000" stroke="none" 
	d="
M1012.345825,59.920959 
	C1021.458008,59.920074 1030.104004,59.920074 1039.565186,59.920074 
	C1037.905762,67.752144 1036.397339,75.138634 1034.772339,82.499405 
	C1023.620911,133.010666 1012.429199,183.513077 1001.322937,234.034256 
	C1000.757690,236.605576 1000.680298,239.323273 1000.677368,241.973160 
	C1000.637207,278.292023 1000.650208,314.610931 1000.650085,350.929840 
	C1000.650085,352.908691 1000.650085,354.887512 1000.650085,357.310303 
	C984.597900,357.310303 968.916321,357.310303 952.598083,357.310303 
	C952.598083,355.243195 952.598022,353.294922 952.598022,351.346619 
	C952.598022,323.524353 952.036072,295.687012 952.779968,267.884674 
	C953.351318,246.533401 950.365540,225.897385 945.606506,205.185730 
	C934.767883,158.015778 924.665710,110.676582 914.282043,63.402252 
	C914.071594,62.444004 914.078003,61.438091 913.956848,60.180878 
	C930.210693,60.180878 946.313110,60.180878 962.998596,60.180878 
	C970.105408,101.179184 977.225464,142.253448 984.345459,183.327728 
	C984.690979,183.391663 985.036499,183.455582 985.382019,183.519516 
	C985.905579,181.094177 986.483765,178.679169 986.944702,176.241989 
	C994.023499,138.808578 1001.082520,101.371422 1008.166443,63.938980 
	C1008.556152,61.879925 1008.617188,59.385300 1012.345825,59.920959 
z"/>
<path fill="#BFBFBF" opacity="1.000000" stroke="none" 
	d="
M1074.979004,59.916492 
	C1079.442383,59.916492 1083.410645,59.916492 1087.835571,59.916492 
	C1082.408691,82.382385 1077.113037,104.304588 1071.771729,126.416206 
	C1061.470825,126.416206 1051.400391,126.416206 1040.607178,126.416206 
	C1046.129517,104.146820 1051.550171,82.287453 1057.097656,59.916492 
	C1062.944214,59.916492 1068.713989,59.916492 1074.979004,59.916492 
z"/>
<path fill="#B9B6B6" opacity="1.000000" stroke="none" 
	d="
M1020.050537,328.347107 
	C1023.021423,312.802917 1031.976440,303.607361 1045.970703,301.316925 
	C1057.876587,299.368256 1070.601685,305.724396 1076.635376,316.633667 
	C1082.727051,327.647949 1081.273315,341.380646 1072.983643,351.129761 
	C1065.067749,360.439301 1051.356323,363.994507 1039.794556,359.735291 
	C1028.080566,355.419983 1020.171936,344.271759 1019.977295,331.786469 
	C1019.961731,330.788544 1020.005005,329.789673 1020.050537,328.347107 
M1024.033325,327.955780 
	C1023.995850,329.286133 1023.879333,330.619690 1023.933289,331.946320 
	C1024.391846,343.220551 1029.995605,351.142517 1040.144653,355.648132 
	C1049.811279,359.939636 1061.142578,357.471405 1068.737549,349.941711 
	C1076.201050,342.542603 1078.538818,331.055847 1074.561157,321.328247 
	C1070.210449,310.688354 1059.656128,304.234436 1047.907104,305.029541 
	C1036.221313,305.820374 1027.371460,314.026672 1024.033325,327.955780 
z"/>
<path fill="#45171D" opacity="1.000000" stroke="none" 
	d="
M391.272583,172.280777 
	C390.279907,171.171143 389.303253,170.101425 389.300568,169.029282 
	C389.236450,143.387909 389.275635,117.746269 389.311981,92.104706 
	C389.312408,91.799080 389.520966,91.493752 389.973846,90.251823 
	C394.739746,90.580231 399.926544,90.352257 404.826752,91.428726 
	C410.499664,92.674934 413.462341,97.553307 413.848175,102.860123 
	C414.738983,115.112823 415.011841,127.422340 415.138519,139.712891 
	C415.189545,144.666107 414.599243,149.710495 413.613281,154.574036 
	C410.589172,169.491531 406.798279,172.423569 391.272583,172.280777 
z"/>
<path fill="#46181E" opacity="1.000000" stroke="none" 
	d="
M1024.074463,327.523346 
	C1027.371460,314.026672 1036.221313,305.820374 1047.907104,305.029541 
	C1059.656128,304.234436 1070.210449,310.688354 1074.561157,321.328247 
	C1078.538818,331.055847 1076.201050,342.542603 1068.737549,349.941711 
	C1061.142578,357.471405 1049.811279,359.939636 1040.144653,355.648132 
	C1029.995605,351.142517 1024.391846,343.220551 1023.933289,331.946320 
	C1023.879333,330.619690 1023.995850,329.286133 1024.074463,327.523346 
M1058.447021,345.225861 
	C1060.124512,346.481598 1061.801880,347.737366 1063.479370,348.993134 
	C1063.906494,348.515656 1064.333618,348.038177 1064.760742,347.560699 
	C1061.738770,342.895508 1058.716675,338.230316 1055.505371,333.272919 
	C1057.221191,332.753326 1058.476074,332.399231 1059.714233,331.993561 
	C1063.901855,330.621429 1065.878296,327.578125 1065.780640,323.316010 
	C1065.686279,319.192444 1063.488159,315.846069 1059.458374,315.499329 
	C1052.804321,314.926758 1046.065063,315.343842 1039.054321,315.343842 
	C1039.054321,325.499054 1038.971436,335.448303 1039.173218,345.391785 
	C1039.195190,346.476776 1040.858521,347.528503 1041.760620,348.595642 
	C1042.220947,348.279388 1042.681274,347.963135 1043.141602,347.646881 
	C1043.141602,342.883881 1043.141602,338.120850 1043.141602,333.402344 
	C1048.246460,331.963776 1051.862183,332.746704 1053.962280,337.760010 
	C1054.976807,340.182037 1056.662109,342.323120 1058.447021,345.225861 
z"/>
<path fill="#B7B4B4" opacity="1.000000" stroke="none" 
	d="
M1058.245361,344.908630 
	C1056.662109,342.323120 1054.976807,340.182037 1053.962280,337.760010 
	C1051.862183,332.746704 1048.246460,331.963776 1043.141602,333.402344 
	C1043.141602,338.120850 1043.141602,342.883881 1043.141602,347.646881 
	C1042.681274,347.963135 1042.220947,348.279388 1041.760620,348.595642 
	C1040.858521,347.528503 1039.195190,346.476776 1039.173218,345.391785 
	C1038.971436,335.448303 1039.054321,325.499054 1039.054321,315.343842 
	C1046.065063,315.343842 1052.804321,314.926758 1059.458374,315.499329 
	C1063.488159,315.846069 1065.686279,319.192444 1065.780640,323.316010 
	C1065.878296,327.578125 1063.901855,330.621429 1059.714233,331.993561 
	C1058.476074,332.399231 1057.221191,332.753326 1055.505371,333.272919 
	C1058.716675,338.230316 1061.738770,342.895508 1064.760742,347.560699 
	C1064.333618,348.038177 1063.906494,348.515656 1063.479370,348.993134 
	C1061.801880,347.737366 1060.124512,346.481598 1058.245361,344.908630 
M1043.122681,327.294647 
	C1043.378418,327.873505 1043.636475,328.957520 1043.889648,328.956421 
	C1048.677979,328.935669 1053.532349,329.187408 1058.210938,328.408508 
	C1059.532227,328.188538 1061.289795,324.779236 1061.111572,323.007294 
	C1060.935791,321.260803 1058.728516,318.568298 1057.118164,318.336487 
	C1052.646729,317.692841 1048.022217,318.113220 1043.102295,318.113220 
	C1043.102295,321.068909 1043.102295,323.706665 1043.122681,327.294647 
z"/>
<path fill="#45171D" opacity="1.000000" stroke="none" 
	d="
M1043.112549,326.819550 
	C1043.102295,323.706665 1043.102295,321.068909 1043.102295,318.113220 
	C1048.022217,318.113220 1052.646729,317.692841 1057.118164,318.336487 
	C1058.728516,318.568298 1060.935791,321.260803 1061.111572,323.007294 
	C1061.289795,324.779236 1059.532227,328.188538 1058.210938,328.408508 
	C1053.532349,329.187408 1048.677979,328.935669 1043.889648,328.956421 
	C1043.636475,328.957520 1043.378418,327.873505 1043.112549,326.819550 
z"/>
</pattern>
</svg>