<svg version="1.1" xmlns="http://www.w3.org/2000/svg" x="0px" y="0px" viewBox="0 0 0 0" width="0" height="0">
<pattern  id="jolly-ranchers" patternUnits="userSpaceOnUse" width="200" height="170" patternTransform="scale(0.3),translate(-30,0)">
<path fill="#01B6F0" opacity="1.000000" stroke="none" 
	d="
M136.000000,193.000000 
	C90.666672,193.000000 45.833340,193.000000 1.000006,193.000000 
	C1.000004,129.000000 1.000004,65.000015 1.000002,1.000015 
	C77.999992,1.000010 154.999985,1.000010 231.999969,1.000005 
	C231.999985,64.999985 231.999985,128.999969 232.000000,192.999969 
	C200.166672,193.000000 168.333328,193.000000 136.000000,193.000000 
M147.116684,42.741764 
	C142.504501,44.445099 137.909790,46.198544 133.267670,47.815952 
	C132.130814,48.212063 130.809677,48.415619 129.623001,48.278168 
	C121.542511,47.342216 114.089020,48.384335 107.762253,54.152386 
	C106.810020,55.020519 104.813301,55.370708 103.479813,55.093678 
	C92.734535,52.861370 83.006401,54.889763 74.133797,61.372162 
	C73.113327,62.117718 71.244431,62.802139 70.295906,62.366768 
	C64.321587,59.624546 58.488987,60.962532 52.720272,62.685295 
	C44.716507,65.075523 40.137650,72.730270 41.545097,80.957558 
	C42.018421,83.724396 42.636616,86.466438 43.227924,89.415985 
	C40.222134,90.020012 37.454071,90.444855 34.756226,91.141579 
	C24.131971,93.885315 18.848576,104.385956 23.803713,114.158501 
	C26.068125,118.624397 29.237339,123.671265 33.373631,125.912308 
	C40.111675,129.562988 41.819752,135.004700 42.830658,141.488907 
	C43.086941,143.132782 43.487377,144.755051 43.844376,146.382233 
	C46.321201,157.671387 52.984932,162.057632 64.232651,159.732178 
	C76.792511,157.135437 89.346405,154.509247 101.893265,151.850388 
	C133.485153,145.155624 165.075638,138.454041 196.658081,131.714828 
	C207.539124,129.392990 212.047714,122.537987 209.548355,111.545517 
	C208.234329,105.766273 206.132660,100.167511 204.442429,94.470703 
	C204.221069,93.724594 204.314117,92.880219 204.293076,92.080536 
	C204.206772,88.799683 204.013947,85.515297 204.102539,82.238770 
	C204.148987,80.520317 204.208710,78.489723 205.097885,77.157829 
	C210.426804,69.175545 211.153290,60.649368 209.801529,51.326271 
	C207.797546,37.504570 199.576614,30.035454 183.284088,34.964458 
	C181.100845,35.624958 179.177216,37.101711 177.046661,37.993271 
	C175.659256,38.573845 174.134567,38.944206 172.637253,39.123150 
	C167.258820,39.765930 161.853195,40.190548 156.483505,40.893555 
	C153.619049,41.268574 150.807175,42.045208 147.116684,42.741764 
z"/>
<path fill="#E8D61F" opacity="1.000000" stroke="none" 
	d="
M147.544128,42.691170 
	C150.807175,42.045208 153.619049,41.268574 156.483505,40.893555 
	C161.853195,40.190548 167.258820,39.765930 172.637253,39.123150 
	C174.134567,38.944206 175.659256,38.573845 177.046661,37.993271 
	C179.177216,37.101711 181.100845,35.624958 183.284088,34.964458 
	C199.576614,30.035454 207.797546,37.504570 209.801529,51.326271 
	C211.153290,60.649368 210.426804,69.175545 205.097885,77.157829 
	C204.208710,78.489723 204.148987,80.520317 204.102539,82.238770 
	C204.013947,85.515297 204.206772,88.799683 204.293076,92.080536 
	C204.314117,92.880219 204.221069,93.724594 204.442429,94.470703 
	C206.132660,100.167511 208.234329,105.766273 209.548355,111.545517 
	C212.047714,122.537987 207.539124,129.392990 196.658081,131.714828 
	C165.075638,138.454041 133.485153,145.155624 101.893265,151.850388 
	C89.346405,154.509247 76.792511,157.135437 64.232651,159.732178 
	C52.984932,162.057632 46.321201,157.671387 43.844376,146.382233 
	C43.487377,144.755051 43.086941,143.132782 42.830658,141.488907 
	C41.819752,135.004700 40.111675,129.562988 33.373631,125.912308 
	C29.237339,123.671265 26.068125,118.624397 23.803713,114.158501 
	C18.848576,104.385956 24.131971,93.885315 34.756226,91.141579 
	C37.454071,90.444855 40.222134,90.020012 43.227924,89.415985 
	C42.636616,86.466438 42.018421,83.724396 41.545097,80.957558 
	C40.137650,72.730270 44.716507,65.075523 52.720272,62.685295 
	C58.488987,60.962532 64.321587,59.624546 70.295906,62.366768 
	C71.244431,62.802139 73.113327,62.117718 74.133797,61.372162 
	C83.006401,54.889763 92.734535,52.861370 103.479813,55.093678 
	C104.813301,55.370708 106.810020,55.020519 107.762253,54.152386 
	C114.089020,48.384335 121.542511,47.342216 129.623001,48.278168 
	C130.809677,48.415619 132.130814,48.212063 133.267670,47.815952 
	C137.909790,46.198544 142.504501,44.445099 147.544128,42.691170 
M161.348602,135.912659 
	C173.212326,133.333923 185.082565,130.784714 196.937454,128.165939 
	C204.697845,126.451630 208.418335,121.204865 206.562943,113.480904 
	C205.075150,107.287247 202.594574,101.333694 200.608627,95.255920 
	C200.377106,94.547386 200.450089,93.726212 200.450394,92.957283 
	C200.451965,89.054733 200.388748,85.149010 200.530090,81.250992 
	C200.598465,79.365349 200.407227,76.928406 201.457108,75.706223 
	C209.645737,66.173584 207.825317,55.632259 204.750961,45.066090 
	C203.166550,39.620712 197.956497,36.334667 192.414688,36.920692 
	C186.133301,37.584923 179.567474,37.876717 176.896072,42.648266 
	C171.223694,42.648266 166.975586,42.178844 162.893967,42.801277 
	C159.797272,43.273510 157.011292,45.771343 153.913818,46.252480 
	C146.709610,47.371506 138.822632,45.848331 133.289291,52.508808 
	C133.026077,52.825638 132.032822,52.754520 131.473114,52.574005 
	C121.661186,49.409492 113.543854,51.638359 107.323334,60.163155 
	C93.940643,54.716881 82.300560,58.116661 72.114983,67.419937 
	C71.335907,66.995392 70.893181,66.783447 70.479858,66.524551 
	C63.241951,61.990738 56.155663,64.019585 49.796661,67.971718 
	C43.814838,71.689438 43.992973,77.895897 45.578327,84.110779 
	C46.297672,86.930748 46.708771,89.829346 47.187508,92.317131 
	C43.855488,93.134613 41.077126,94.486320 38.363865,94.366302 
	C26.421410,93.838081 22.626856,107.149803 27.791832,114.591461 
	C30.990770,119.200462 35.994263,122.538589 40.067394,126.568794 
	C41.578785,128.064255 43.394520,129.719757 43.945156,131.627396 
	C45.370319,136.564774 46.103752,141.697632 47.232319,146.725769 
	C48.997173,154.588699 54.637470,158.352692 62.333534,156.736053 
	C95.066322,149.860123 127.789238,142.937180 161.348602,135.912659 
z"/>
<path fill="#284389" opacity="1.000000" stroke="none" 
	d="
M160.932190,135.972031 
	C127.789238,142.937180 95.066322,149.860123 62.333534,156.736053 
	C54.637470,158.352692 48.997173,154.588699 47.232319,146.725769 
	C46.103752,141.697632 45.370319,136.564774 43.945156,131.627396 
	C43.394520,129.719757 41.578785,128.064255 40.067394,126.568794 
	C35.994263,122.538589 30.990770,119.200462 27.791832,114.591461 
	C22.626856,107.149803 26.421410,93.838081 38.363865,94.366302 
	C41.077126,94.486320 43.855488,93.134613 47.187508,92.317131 
	C46.708771,89.829346 46.297672,86.930748 45.578327,84.110779 
	C43.992973,77.895897 43.814838,71.689438 49.796661,67.971718 
	C56.155663,64.019585 63.241951,61.990738 70.479858,66.524551 
	C70.893181,66.783447 71.335907,66.995392 72.114983,67.419937 
	C82.300560,58.116661 93.940643,54.716881 107.323334,60.163155 
	C113.543854,51.638359 121.661186,49.409492 131.473114,52.574005 
	C132.032822,52.754520 133.026077,52.825638 133.289291,52.508808 
	C138.822632,45.848331 146.709610,47.371506 153.913818,46.252480 
	C157.011292,45.771343 159.797272,43.273510 162.893967,42.801277 
	C166.975586,42.178844 171.223694,42.648266 176.896072,42.648266 
	C179.567474,37.876717 186.133301,37.584923 192.414688,36.920692 
	C197.956497,36.334667 203.166550,39.620712 204.750961,45.066090 
	C207.825317,55.632259 209.645737,66.173584 201.457108,75.706223 
	C200.407227,76.928406 200.598465,79.365349 200.530090,81.250992 
	C200.388748,85.149010 200.451965,89.054733 200.450394,92.957283 
	C200.450089,93.726212 200.377106,94.547386 200.608627,95.255920 
	C202.594574,101.333694 205.075150,107.287247 206.562943,113.480904 
	C208.418335,121.204865 204.697845,126.451630 196.937454,128.165939 
	C185.082565,130.784714 173.212326,133.333923 160.932190,135.972031 
M93.704140,67.898766 
	C83.881134,69.092323 77.390701,74.281853 74.680656,83.898613 
	C72.180305,92.771263 76.677254,103.101616 85.254814,107.506966 
	C94.494217,112.252235 103.512459,110.808800 110.334328,103.686157 
	C116.690613,97.049629 118.337456,89.136826 114.685677,80.686089 
	C110.962914,72.071068 103.995537,67.884468 93.704140,67.898766 
M168.294006,52.165100 
	C159.421021,53.379726 159.438675,53.445843 161.279999,62.052105 
	C163.239700,71.211685 169.280960,75.848915 178.081604,77.403023 
	C178.848785,81.029800 179.825668,84.414375 180.230453,87.866051 
	C180.766754,92.439034 184.634659,91.731857 186.910645,91.469498 
	C188.875595,91.242989 192.087128,89.744095 191.043686,86.003288 
	C190.286804,83.289917 189.629959,80.515656 189.317245,77.724983 
	C189.155853,76.284531 189.315186,74.125168 190.227814,73.355057 
	C197.721283,67.031754 197.847412,59.189144 195.677765,50.581280 
	C194.881348,47.421589 193.378494,46.600594 190.331238,47.236507 
	C184.713470,48.408844 184.201614,49.037460 185.436234,54.489185 
	C185.691696,55.617191 185.985321,56.753723 186.069244,57.900387 
	C186.405289,62.491428 184.109985,65.676674 180.145233,66.243561 
	C176.161026,66.813225 173.207184,64.476936 171.915573,60.051773 
	C171.150238,57.429592 170.026062,54.912151 168.294006,52.165100 
M53.333328,108.394196 
	C50.929111,107.229630 48.012024,106.575317 46.233784,104.787964 
	C43.104729,101.642876 40.331638,104.249840 37.505493,104.677147 
	C36.831516,104.779060 35.860287,107.138161 36.082287,108.247688 
	C37.387226,114.769646 50.669285,122.158722 56.613285,119.385910 
	C67.277695,114.411072 72.106941,107.750298 69.662308,95.632004 
	C68.511185,89.925781 66.957596,84.289467 66.055824,78.547745 
	C65.320839,73.868004 62.805752,74.215950 59.259174,74.910851 
	C55.664707,75.615143 54.454250,77.096504 55.326023,80.720490 
	C56.764042,86.698387 57.971100,92.734894 59.148010,98.771553 
	C60.009251,103.189079 58.885124,106.703568 53.333328,108.394196 
M163.366211,96.770874 
	C165.156723,95.275169 168.608154,93.497688 168.411575,92.339096 
	C167.915726,89.416443 169.303589,84.490623 163.141312,84.752342 
	C159.170258,84.920998 157.055222,81.895370 156.250885,78.084946 
	C154.950958,71.926758 153.516174,65.795647 152.310776,59.619446 
	C151.672867,56.350830 149.969757,55.627815 146.952225,56.464924 
	C144.052261,57.269413 140.820312,57.381020 141.895844,61.944122 
	C143.189972,67.434601 144.415405,72.956009 145.314972,78.521515 
	C146.945068,88.606743 152.829529,94.469681 163.366211,96.770874 
M139.459732,100.822075 
	C141.202103,99.794006 144.557053,98.155930 144.434937,97.833145 
	C143.333267,94.920830 145.508209,89.739899 139.329712,89.948097 
	C135.201996,90.087204 133.079330,87.354240 132.258499,83.536819 
	C130.964005,77.516602 129.553940,71.515808 128.474167,65.456650 
	C127.670151,60.944935 125.181351,61.042133 121.573479,61.927059 
	C118.160942,62.764072 116.699821,63.986099 117.704231,67.764214 
	C119.197594,73.381554 120.153481,79.139526 121.442017,84.814064 
	C123.721405,94.852165 128.407730,99.164871 139.459732,100.822075 
M88.623001,135.708267 
	C88.957428,136.057083 89.277222,136.421494 89.629013,136.751816 
	C90.741028,137.795990 91.864998,138.827423 92.984360,139.863770 
	C93.526817,138.257248 94.614372,136.606812 94.489273,135.054077 
	C94.279839,132.454834 93.479965,129.853073 92.600174,127.368660 
	C90.887474,122.532143 86.547668,120.158783 82.020973,121.335800 
	C77.439194,122.527161 74.568375,126.679947 75.241592,131.539917 
	C75.649849,134.487030 76.292557,137.428223 77.163475,140.269852 
	C77.457527,141.229294 78.808342,142.525101 79.619377,142.486069 
	C80.485596,142.444412 82.065262,140.923752 81.987091,140.192673 
	C81.457962,135.244156 84.466156,135.362183 88.623001,135.708267 
M68.135452,127.251556 
	C67.271202,126.762383 66.360748,125.789894 65.550674,125.867340 
	C61.966034,126.210037 58.231373,126.410233 54.977142,127.720413 
	C54.219028,128.025650 55.032848,132.486130 55.305126,135.015167 
	C55.500080,136.825974 55.643379,138.785950 56.446480,140.353058 
	C57.570019,142.545425 55.591572,146.992279 60.110508,146.504730 
	C60.998894,146.408890 61.463249,142.382812 62.390213,139.273636 
	C63.375576,139.778137 64.901215,140.616867 66.475723,141.350723 
	C68.427284,142.260315 69.779541,146.193039 72.414963,142.971893 
	C72.846603,142.444305 70.497391,139.642532 69.435295,137.890717 
	C69.267250,137.613541 69.109039,137.330414 68.946289,137.050049 
	C69.329201,136.969421 69.712112,136.888809 70.095024,136.808182 
	C69.617897,133.793381 69.140770,130.778580 68.135452,127.251556 
M151.964630,110.939095 
	C152.941376,116.274048 148.646210,114.837753 145.764374,116.103729 
	C145.296249,114.065056 145.236908,112.311127 144.468964,110.959938 
	C143.907272,109.971710 142.413864,109.513023 141.335770,108.818298 
	C140.816711,109.927406 139.746445,111.107910 139.879181,112.132584 
	C140.324844,115.573326 140.961273,119.032707 141.991592,122.339485 
	C142.706848,124.635124 141.223907,128.929138 145.599777,128.352020 
	C146.677536,128.209885 147.234375,124.117889 148.365250,120.885376 
	C152.397842,119.116783 153.286102,119.585289 155.762253,126.180603 
	C160.320892,126.971207 160.171646,123.784073 159.676971,121.023659 
	C158.932999,116.872185 157.827072,112.765907 156.552963,108.742416 
	C156.218887,107.687408 154.697006,107.008537 153.720642,106.156937 
	C153.080139,107.494247 152.439636,108.831558 151.964630,110.939095 
M185.927765,119.002380 
	C185.662354,117.134590 185.396957,115.266800 184.950195,112.122574 
	C187.487274,113.521751 188.911255,114.450432 190.448578,115.118187 
	C192.325897,115.933624 195.541000,117.603561 196.024460,117.043922 
	C198.800415,113.830627 194.353149,113.406448 193.346725,111.533554 
	C193.193008,111.247528 193.061035,110.949814 192.783676,110.378990 
	C194.721985,107.055397 195.116592,103.535774 191.635880,100.739906 
	C187.577896,97.480347 183.361053,99.995193 179.265457,100.887474 
	C178.706543,101.009239 177.951935,102.494377 178.088318,103.191742 
	C179.284897,109.310287 180.663223,115.393288 182.025192,121.659409 
	C183.660156,120.791214 184.684494,120.247269 185.927765,119.002380 
M107.307014,121.239395 
	C111.909157,123.644806 110.965645,128.538696 112.442368,132.369797 
	C112.870621,133.480789 114.523811,134.119614 115.615479,134.974884 
	C116.174530,133.854401 117.331581,132.646118 117.182327,131.629623 
	C116.703323,128.367203 116.046898,125.061050 114.892464,121.984314 
	C113.255905,117.622681 109.027054,115.398346 104.984962,116.386192 
	C100.369507,117.514168 97.692184,120.529648 97.938438,125.296387 
	C98.124931,128.906433 98.960938,132.513992 99.860542,136.032486 
	C100.064499,136.830185 101.837967,137.839432 102.686607,137.679230 
	C103.464157,137.532440 104.557571,135.887772 104.481758,134.990128 
	C104.260017,132.364731 103.486900,129.789703 102.999542,127.181908 
	C102.439575,124.185555 103.190147,121.900169 107.307014,121.239395 
M175.133453,112.506874 
	C174.556442,109.514587 172.833023,110.219162 170.650818,110.718956 
	C169.204437,111.050209 167.465912,110.105858 165.858170,109.732552 
	C165.981659,109.289291 166.105148,108.846031 166.228638,108.402771 
	C174.336349,106.999344 174.336349,106.999344 172.232193,102.264450 
	C168.672424,103.065735 165.042145,103.882896 161.230560,104.740860 
	C161.407242,106.327827 161.453568,107.472343 161.672562,108.582809 
	C162.542313,112.992615 163.183945,117.481239 164.535522,121.742287 
	C164.960175,123.081024 167.314026,124.545502 168.842010,124.610565 
	C170.768311,124.692589 172.898468,123.644943 174.655518,122.603539 
	C175.633438,122.023941 176.031891,120.466675 176.691498,119.350014 
	C175.564926,118.943527 174.463867,118.363342 173.302643,118.192726 
	C172.551376,118.082359 171.673798,118.834152 170.921921,118.724747 
	C169.985748,118.588531 169.120758,117.963120 168.225037,117.548981 
	C168.886322,116.811523 169.418411,115.841637 170.236771,115.386810 
	C171.763214,114.538429 173.456070,113.989487 175.133453,112.506874 
M135.428528,130.071686 
	C136.169815,128.624359 136.911102,127.177025 137.652374,125.729698 
	C136.047470,125.737610 134.434677,125.849930 132.839508,125.729187 
	C130.394440,125.544113 127.706856,125.711754 125.640030,124.686157 
	C124.724075,124.231644 124.221344,120.446449 125.039070,119.552261 
	C126.441284,118.018913 129.020157,117.549919 131.127289,116.688622 
	C131.372787,116.588280 131.855270,117.005371 132.064423,116.888939 
	C133.127960,116.296936 134.137634,115.608192 135.166168,114.953323 
	C134.520554,113.996719 133.880203,112.226791 133.228409,112.222572 
	C130.207916,112.202980 126.809944,111.897598 124.242607,113.136131 
	C119.461166,115.442787 118.027603,121.424576 120.316467,126.060417 
	C122.924690,131.343079 128.208801,132.963745 135.428528,130.071686 
z"/>
<path fill="#F6F7FA" opacity="1.000000" stroke="none" 
	d="
M94.145065,67.869598 
	C103.995537,67.884468 110.962914,72.071068 114.685677,80.686089 
	C118.337456,89.136826 116.690613,97.049629 110.334328,103.686157 
	C103.512459,110.808800 94.494217,112.252235 85.254814,107.506966 
	C76.677254,103.101616 72.180305,92.771263 74.680656,83.898613 
	C77.390701,74.281853 83.881134,69.092323 94.145065,67.869598 
M96.934990,100.422691 
	C102.315010,99.572952 105.673637,96.423737 106.772682,91.172241 
	C107.789238,86.314964 105.984192,82.298409 102.045952,79.367859 
	C97.785637,76.197662 93.234970,77.058838 88.915268,79.128555 
	C84.928375,81.038803 82.788582,86.851135 83.862839,91.732018 
	C85.047165,97.112999 89.322556,100.169289 96.934990,100.422691 
z"/>
<path fill="#F8F9FA" opacity="1.000000" stroke="none" 
	d="
M168.678619,52.256359 
	C170.026062,54.912151 171.150238,57.429592 171.915573,60.051773 
	C173.207184,64.476936 176.161026,66.813225 180.145233,66.243561 
	C184.109985,65.676674 186.405289,62.491428 186.069244,57.900387 
	C185.985321,56.753723 185.691696,55.617191 185.436234,54.489185 
	C184.201614,49.037460 184.713470,48.408844 190.331238,47.236507 
	C193.378494,46.600594 194.881348,47.421589 195.677765,50.581280 
	C197.847412,59.189144 197.721283,67.031754 190.227814,73.355057 
	C189.315186,74.125168 189.155853,76.284531 189.317245,77.724983 
	C189.629959,80.515656 190.286804,83.289917 191.043686,86.003288 
	C192.087128,89.744095 188.875595,91.242989 186.910645,91.469498 
	C184.634659,91.731857 180.766754,92.439034 180.230453,87.866051 
	C179.825668,84.414375 178.848785,81.029800 178.081604,77.403023 
	C169.280960,75.848915 163.239700,71.211685 161.279999,62.052105 
	C159.438675,53.445843 159.421021,53.379726 168.678619,52.256359 
z"/>
<path fill="#F7F8FA" opacity="1.000000" stroke="none" 
	d="
M53.743477,108.318130 
	C58.885124,106.703568 60.009251,103.189079 59.148010,98.771553 
	C57.971100,92.734894 56.764042,86.698387 55.326023,80.720490 
	C54.454250,77.096504 55.664707,75.615143 59.259174,74.910851 
	C62.805752,74.215950 65.320839,73.868004 66.055824,78.547745 
	C66.957596,84.289467 68.511185,89.925781 69.662308,95.632004 
	C72.106941,107.750298 67.277695,114.411072 56.613285,119.385910 
	C50.669285,122.158722 37.387226,114.769646 36.082287,108.247688 
	C35.860287,107.138161 36.831516,104.779060 37.505493,104.677147 
	C40.331638,104.249840 43.104729,101.642876 46.233784,104.787964 
	C48.012024,106.575317 50.929111,107.229630 53.743477,108.318130 
z"/>
<path fill="#F6F7F9" opacity="1.000000" stroke="none" 
	d="
M162.976105,96.767075 
	C152.829529,94.469681 146.945068,88.606743 145.314972,78.521515 
	C144.415405,72.956009 143.189972,67.434601 141.895844,61.944122 
	C140.820312,57.381020 144.052261,57.269413 146.952225,56.464924 
	C149.969757,55.627815 151.672867,56.350830 152.310776,59.619446 
	C153.516174,65.795647 154.950958,71.926758 156.250885,78.084946 
	C157.055222,81.895370 159.170258,84.920998 163.141312,84.752342 
	C169.303589,84.490623 167.915726,89.416443 168.411575,92.339096 
	C168.608154,93.497688 165.156723,95.275169 162.976105,96.767075 
z"/>
<path fill="#F7F8FA" opacity="1.000000" stroke="none" 
	d="
M139.049393,100.807823 
	C128.407730,99.164871 123.721405,94.852165 121.442017,84.814064 
	C120.153481,79.139526 119.197594,73.381554 117.704231,67.764214 
	C116.699821,63.986099 118.160942,62.764072 121.573479,61.927059 
	C125.181351,61.042133 127.670151,60.944935 128.474167,65.456650 
	C129.553940,71.515808 130.964005,77.516602 132.258499,83.536819 
	C133.079330,87.354240 135.201996,90.087204 139.329712,89.948097 
	C145.508209,89.739899 143.333267,94.920830 144.434937,97.833145 
	C144.557053,98.155930 141.202103,99.794006 139.049393,100.807823 
z"/>
<path fill="#F0F2F5" opacity="1.000000" stroke="none" 
	d="
M88.220169,135.735077 
	C84.466156,135.362183 81.457962,135.244156 81.987091,140.192673 
	C82.065262,140.923752 80.485596,142.444412 79.619377,142.486069 
	C78.808342,142.525101 77.457527,141.229294 77.163475,140.269852 
	C76.292557,137.428223 75.649849,134.487030 75.241592,131.539917 
	C74.568375,126.679947 77.439194,122.527161 82.020973,121.335800 
	C86.547668,120.158783 90.887474,122.532143 92.600174,127.368660 
	C93.479965,129.853073 94.279839,132.454834 94.489273,135.054077 
	C94.614372,136.606812 93.526817,138.257248 92.984360,139.863770 
	C91.864998,138.827423 90.741028,137.795990 89.629013,136.751816 
	C89.277222,136.421494 88.957428,136.057083 88.220169,135.735077 
M84.606575,130.266739 
	C85.623299,129.938156 86.640022,129.609558 87.656746,129.280960 
	C87.743095,128.807571 87.829445,128.334183 87.915794,127.860794 
	C86.319008,127.301437 84.528091,126.020660 83.179474,126.383568 
	C81.803108,126.753944 80.861229,128.738907 79.729126,130.017014 
	C80.019028,130.333847 80.308922,130.650681 80.598816,130.967514 
	C81.686829,130.774155 82.774849,130.580795 84.606575,130.266739 
z"/>
<path fill="#EEF0F5" opacity="1.000000" stroke="none" 
	d="
M68.399551,127.507668 
	C69.140770,130.778580 69.617897,133.793381 70.095024,136.808182 
	C69.712112,136.888809 69.329201,136.969421 68.946289,137.050049 
	C69.109039,137.330414 69.267250,137.613541 69.435295,137.890717 
	C70.497391,139.642532 72.846603,142.444305 72.414963,142.971893 
	C69.779541,146.193039 68.427284,142.260315 66.475723,141.350723 
	C64.901215,140.616867 63.375576,139.778137 62.390213,139.273636 
	C61.463249,142.382812 60.998894,146.408890 60.110508,146.504730 
	C55.591572,146.992279 57.570019,142.545425 56.446480,140.353058 
	C55.643379,138.785950 55.500080,136.825974 55.305126,135.015167 
	C55.032848,132.486130 54.219028,128.025650 54.977142,127.720413 
	C58.231373,126.410233 61.966034,126.210037 65.550674,125.867340 
	C66.360748,125.789894 67.271202,126.762383 68.399551,127.507668 
M62.882523,133.508514 
	C63.194130,133.167526 63.505737,132.826523 63.817341,132.485535 
	C62.656219,132.584457 61.476261,132.600998 60.351322,132.858200 
	C60.148399,132.904587 60.171715,133.940521 60.090584,134.519623 
	C60.926323,134.424042 61.762066,134.328461 62.882523,133.508514 
z"/>
<path fill="#EEEFF4" opacity="1.000000" stroke="none" 
	d="
M151.881882,110.553986 
	C152.439636,108.831558 153.080139,107.494247 153.720642,106.156937 
	C154.697006,107.008537 156.218887,107.687408 156.552963,108.742416 
	C157.827072,112.765907 158.932999,116.872185 159.676971,121.023659 
	C160.171646,123.784073 160.320892,126.971207 155.762253,126.180603 
	C153.286102,119.585289 152.397842,119.116783 148.365250,120.885376 
	C147.234375,124.117889 146.677536,128.209885 145.599777,128.352020 
	C141.223907,128.929138 142.706848,124.635124 141.991592,122.339485 
	C140.961273,119.032707 140.324844,115.573326 139.879181,112.132584 
	C139.746445,111.107910 140.816711,109.927406 141.335770,108.818298 
	C142.413864,109.513023 143.907272,109.971710 144.468964,110.959938 
	C145.236908,112.311127 145.296249,114.065056 145.764374,116.103729 
	C148.646210,114.837753 152.941376,116.274048 151.881882,110.553986 
z"/>
<path fill="#EEF0F4" opacity="1.000000" stroke="none" 
	d="
M185.818298,119.352859 
	C184.684494,120.247269 183.660156,120.791214 182.025192,121.659409 
	C180.663223,115.393288 179.284897,109.310287 178.088318,103.191742 
	C177.951935,102.494377 178.706543,101.009239 179.265457,100.887474 
	C183.361053,99.995193 187.577896,97.480347 191.635880,100.739906 
	C195.116592,103.535774 194.721985,107.055397 192.783676,110.378990 
	C193.061035,110.949814 193.193008,111.247528 193.346725,111.533554 
	C194.353149,113.406448 198.800415,113.830627 196.024460,117.043922 
	C195.541000,117.603561 192.325897,115.933624 190.448578,115.118187 
	C188.911255,114.450432 187.487274,113.521751 184.950195,112.122574 
	C185.396957,115.266800 185.662354,117.134590 185.818298,119.352859 
M185.697998,104.875275 
	C180.733627,104.437256 183.768158,106.952080 184.071823,108.976280 
	C185.798660,108.490379 187.343292,108.362152 188.477890,107.612946 
	C189.085709,107.211601 188.987717,105.741356 189.208221,104.753464 
	C188.274460,104.758850 187.340683,104.764244 185.697998,104.875275 
z"/>
<path fill="#EEF0F4" opacity="1.000000" stroke="none" 
	d="
M106.916183,121.197617 
	C103.190147,121.900169 102.439575,124.185555 102.999542,127.181908 
	C103.486900,129.789703 104.260017,132.364731 104.481758,134.990128 
	C104.557571,135.887772 103.464157,137.532440 102.686607,137.679230 
	C101.837967,137.839432 100.064499,136.830185 99.860542,136.032486 
	C98.960938,132.513992 98.124931,128.906433 97.938438,125.296387 
	C97.692184,120.529648 100.369507,117.514168 104.984962,116.386192 
	C109.027054,115.398346 113.255905,117.622681 114.892464,121.984314 
	C116.046898,125.061050 116.703323,128.367203 117.182327,131.629623 
	C117.331581,132.646118 116.174530,133.854401 115.615479,134.974884 
	C114.523811,134.119614 112.870621,133.480789 112.442368,132.369797 
	C110.965645,128.538696 111.909157,123.644806 106.916183,121.197617 
z"/>
<path fill="#EFF1F5" opacity="1.000000" stroke="none" 
	d="
M175.106567,112.911400 
	C173.456070,113.989487 171.763214,114.538429 170.236771,115.386810 
	C169.418411,115.841637 168.886322,116.811523 168.225037,117.548981 
	C169.120758,117.963120 169.985748,118.588531 170.921921,118.724747 
	C171.673798,118.834152 172.551376,118.082359 173.302643,118.192726 
	C174.463867,118.363342 175.564926,118.943527 176.691498,119.350006 
	C176.031891,120.466675 175.633438,122.023941 174.655518,122.603539 
	C172.898468,123.644943 170.768311,124.692589 168.842010,124.610565 
	C167.314026,124.545502 164.960175,123.081024 164.535522,121.742287 
	C163.183945,117.481239 162.542313,112.992615 161.672562,108.582809 
	C161.453568,107.472343 161.407242,106.327827 161.230560,104.740860 
	C165.042145,103.882896 168.672424,103.065735 172.232193,102.264450 
	C174.336349,106.999344 174.336349,106.999344 166.228638,108.402771 
	C166.105148,108.846031 165.981659,109.289291 165.858170,109.732552 
	C167.465912,110.105858 169.204437,111.050209 170.650818,110.718956 
	C172.833023,110.219162 174.556442,109.514587 175.106567,112.911400 
z"/>
<path fill="#EEEFF4" opacity="1.000000" stroke="none" 
	d="
M135.110794,130.286072 
	C128.208801,132.963745 122.924690,131.343079 120.316467,126.060417 
	C118.027603,121.424576 119.461166,115.442787 124.242607,113.136131 
	C126.809944,111.897598 130.207916,112.202980 133.228409,112.222572 
	C133.880203,112.226791 134.520554,113.996719 135.166168,114.953323 
	C134.137634,115.608192 133.127960,116.296936 132.064423,116.888939 
	C131.855270,117.005371 131.372787,116.588280 131.127289,116.688622 
	C129.020157,117.549919 126.441284,118.018913 125.039070,119.552261 
	C124.221344,120.446449 124.724075,124.231644 125.640030,124.686157 
	C127.706856,125.711754 130.394440,125.544113 132.839508,125.729187 
	C134.434677,125.849930 136.047470,125.737610 137.652374,125.729691 
	C136.911102,127.177025 136.169815,128.624359 135.110794,130.286072 
z"/>
<path fill="#28448B" opacity="1.000000" stroke="none" 
	d="
M96.551140,100.475311 
	C89.322556,100.169289 85.047165,97.112999 83.862839,91.732018 
	C82.788582,86.851135 84.928375,81.038803 88.915268,79.128555 
	C93.234970,77.058838 97.785637,76.197662 102.045952,79.367859 
	C105.984192,82.298409 107.789238,86.314964 106.772682,91.172241 
	C105.673637,96.423737 102.315010,99.572952 96.551140,100.475311 
M101.563217,91.612671 
	C101.563217,89.443207 101.563217,87.273743 101.563217,85.104279 
	C101.873680,85.928078 102.184143,86.751877 102.494606,87.575676 
	C99.109085,90.154030 95.723564,92.732376 92.484756,95.198990 
	C95.610229,97.121475 98.662468,95.800690 101.563217,91.612671 
z"/>
<path fill="#334E90" opacity="1.000000" stroke="none" 
	d="
M84.234718,130.327087 
	C82.774849,130.580795 81.686829,130.774155 80.598816,130.967514 
	C80.308922,130.650681 80.019028,130.333847 79.729126,130.017014 
	C80.861229,128.738907 81.803108,126.753944 83.179474,126.383568 
	C84.528091,126.020660 86.319008,127.301437 87.915794,127.860794 
	C87.829445,128.334183 87.743095,128.807571 87.656746,129.280960 
	C86.640022,129.609558 85.623299,129.938156 84.234718,130.327087 
z"/>
<path fill="#25428A" opacity="1.000000" stroke="none" 
	d="
M62.740166,133.870697 
	C61.762066,134.328461 60.926323,134.424042 60.090584,134.519623 
	C60.171715,133.940521 60.148399,132.904587 60.351322,132.858200 
	C61.476261,132.600998 62.656219,132.584457 63.817345,132.485535 
	C63.505737,132.826523 63.194130,133.167526 62.740166,133.870697 
z"/>
<path fill="#3D5594" opacity="1.000000" stroke="none" 
	d="
M186.052460,104.822449 
	C187.340683,104.764244 188.274460,104.758850 189.208221,104.753464 
	C188.987717,105.741356 189.085709,107.211601 188.477890,107.612946 
	C187.343292,108.362152 185.798660,108.490379 184.071823,108.976280 
	C183.768158,106.952080 180.733627,104.437256 186.052460,104.822449 
z"/>
<path fill="#E5E7EE" opacity="1.000000" stroke="none" 
	d="
M101.374939,91.942459 
	C98.662468,95.800690 95.610229,97.121475 92.484756,95.198990 
	C95.723564,92.732376 99.109085,90.154030 102.494606,87.575676 
	C102.184143,86.751877 101.873680,85.928078 101.563217,85.104279 
	C101.563217,87.273743 101.563217,89.443207 101.374939,91.942459 
z"/>
</pattern>
</svg>