<svg version="1.1" xmlns="http://www.w3.org/2000/svg" xmlns:xlink="http://www.w3.org/1999/xlink" x="0px" y="0px" viewBox="0 0 0 0" width="0" height="0">
<pattern  id="lemonheads" patternUnits="userSpaceOnUse" width="200" height="200" patternTransform="scale(0.2),translate(-50,40)">
<path fill="#FCEF45" opacity="1.000000" stroke="none" 
	d="
M156.000000,226.000000 
	C104.000000,226.000000 52.500008,226.000000 1.000007,226.000000 
	C1.000005,151.000000 1.000005,76.000015 1.000002,1.000017 
	C75.999992,1.000011 150.999985,1.000011 225.999969,1.000006 
	C225.999985,75.999985 225.999985,150.999969 226.000000,225.999969 
	C202.833328,226.000000 179.666672,226.000000 156.000000,226.000000 
M15.750133,126.590157 
	C17.448652,135.018204 23.028709,139.794800 31.091240,140.855911 
	C38.172718,141.787933 43.995880,144.825134 49.678078,148.646255 
	C53.408020,151.154526 57.178734,153.602158 60.908848,156.110184 
	C73.896751,164.842896 86.742004,173.803833 102.077438,178.236832 
	C103.286560,178.586349 104.583870,181.023941 104.634995,182.531952 
	C104.781113,186.841583 104.024788,191.184036 104.204559,195.489304 
	C104.283142,197.371292 105.324333,200.025513 106.757507,200.805389 
	C108.134644,201.554779 111.304962,201.039536 112.446487,199.869415 
	C121.432869,190.658173 130.869537,190.980057 141.181396,197.419327 
	C142.760849,198.405624 146.481979,198.508896 147.356689,197.465210 
	C148.591156,195.992249 148.740417,192.905334 148.205597,190.800049 
	C147.076904,186.356949 145.203232,182.103119 143.874557,178.432800 
	C150.425552,173.913712 156.783630,170.205505 162.315567,165.521591 
	C167.879608,160.810501 172.670395,155.174896 177.713120,149.861923 
	C186.377075,140.733688 194.123444,130.844315 206.261765,125.413971 
	C213.948318,121.975220 216.339050,114.360870 215.122971,105.928978 
	C213.883575,97.335419 208.920166,91.635605 200.609085,90.248665 
	C193.639297,89.085564 188.788895,85.414467 184.154892,80.778740 
	C180.856705,77.479332 177.549850,74.186836 174.179428,70.961761 
	C164.613541,61.808407 154.363968,53.563889 141.852768,48.773602 
	C107.681541,35.690109 81.637627,41.663166 60.251530,70.698524 
	C55.807220,76.732445 51.454437,82.834450 46.962368,88.832352 
	C41.920307,95.564621 36.157543,101.134537 27.928652,104.323685 
	C18.193508,108.096581 14.378956,115.671089 15.750133,126.590157 
z"/>
<path fill="#F9FAF8" opacity="1.000000" stroke="none" 
	d="
M15.650524,126.191597 
	C14.378956,115.671089 18.193508,108.096581 27.928652,104.323685 
	C36.157543,101.134537 41.920307,95.564621 46.962368,88.832352 
	C51.454437,82.834450 55.807220,76.732445 60.251530,70.698524 
	C81.637627,41.663166 107.681541,35.690109 141.852768,48.773602 
	C154.363968,53.563889 164.613541,61.808407 174.179428,70.961761 
	C177.549850,74.186836 180.856705,77.479332 184.154892,80.778740 
	C188.788895,85.414467 193.639297,89.085564 200.609085,90.248665 
	C208.920166,91.635605 213.883575,97.335419 215.122971,105.928978 
	C216.339050,114.360870 213.948318,121.975220 206.261765,125.413971 
	C194.123444,130.844315 186.377075,140.733688 177.713120,149.861923 
	C172.670395,155.174896 167.879608,160.810501 162.315567,165.521591 
	C156.783630,170.205505 150.425552,173.913712 143.874557,178.432800 
	C145.203232,182.103119 147.076904,186.356949 148.205597,190.800049 
	C148.740417,192.905334 148.591156,195.992249 147.356689,197.465210 
	C146.481979,198.508896 142.760849,198.405624 141.181396,197.419327 
	C130.869537,190.980057 121.432869,190.658173 112.446487,199.869415 
	C111.304962,201.039536 108.134644,201.554779 106.757507,200.805389 
	C105.324333,200.025513 104.283142,197.371292 104.204559,195.489304 
	C104.024788,191.184036 104.781113,186.841583 104.634995,182.531952 
	C104.583870,181.023941 103.286560,178.586349 102.077438,178.236832 
	C86.742004,173.803833 73.896751,164.842896 60.908848,156.110184 
	C57.178734,153.602158 53.408020,151.154526 49.678078,148.646255 
	C43.995880,144.825134 38.172718,141.787933 31.091240,140.855911 
	C23.028709,139.794800 17.448652,135.018204 15.650524,126.191597 
M155.088074,165.649155 
	C161.948502,158.876419 168.931931,152.222870 175.638458,145.301025 
	C184.161377,136.504456 191.612137,126.652138 203.598404,121.773605 
	C209.259521,119.469482 211.661621,113.111038 210.751678,107.103012 
	C209.666977,99.941261 206.134216,95.475151 198.680695,94.440269 
	C191.876602,93.495567 187.050644,89.999893 182.483002,85.528984 
	C178.912766,82.034378 175.337708,78.544685 171.773651,75.043777 
	C160.614792,64.082611 148.249878,55.050270 133.041855,50.432510 
	C104.484772,41.761456 83.737053,48.173134 65.483986,71.533974 
	C61.493671,76.640907 57.789894,81.972130 53.967754,87.209976 
	C47.260864,96.401062 40.246731,104.948669 28.824373,109.030815 
	C21.817144,111.535072 19.187178,117.583710 20.001751,124.693810 
	C20.698015,130.771210 24.500189,135.536270 31.830755,136.274887 
	C41.362324,137.235306 48.427959,142.539505 55.976250,147.252625 
	C67.241928,154.286850 77.974838,162.394669 89.835052,168.208405 
	C111.426628,178.792358 133.423080,181.007614 155.088074,165.649155 
M120.522552,188.985413 
	C123.483932,186.039993 126.512711,185.871262 130.275467,187.875809 
	C134.489746,190.120895 139.087189,191.646790 144.691269,193.972610 
	C142.052399,187.089005 140.028503,181.809601 137.915955,176.298950 
	C134.420013,178.451675 131.451370,179.980576 128.836060,181.973221 
	C126.155739,184.015381 123.664185,184.247864 120.616669,182.924759 
	C117.073326,181.386383 113.360703,180.237946 109.257423,178.752228 
	C109.257423,185.082718 109.257423,190.596573 109.257423,196.706604 
	C113.142151,194.027756 116.522362,191.696793 120.522552,188.985413 
z"/>
<path fill="#085DB8" opacity="1.000000" stroke="none" 
	d="
M154.791840,165.856445 
	C133.423080,181.007614 111.426628,178.792358 89.835052,168.208405 
	C77.974838,162.394669 67.241928,154.286850 55.976250,147.252625 
	C48.427959,142.539505 41.362324,137.235306 31.830755,136.274887 
	C24.500189,135.536270 20.698015,130.771210 20.001751,124.693810 
	C19.187178,117.583710 21.817144,111.535072 28.824373,109.030815 
	C40.246731,104.948669 47.260864,96.401062 53.967754,87.209976 
	C57.789894,81.972130 61.493671,76.640907 65.483986,71.533974 
	C83.737053,48.173134 104.484772,41.761456 133.041855,50.432510 
	C148.249878,55.050270 160.614792,64.082611 171.773651,75.043777 
	C175.337708,78.544685 178.912766,82.034378 182.483002,85.528984 
	C187.050644,89.999893 191.876602,93.495567 198.680695,94.440269 
	C206.134216,95.475151 209.666977,99.941261 210.751678,107.103012 
	C211.661621,113.111038 209.259521,119.469482 203.598404,121.773605 
	C191.612137,126.652138 184.161377,136.504456 175.638458,145.301025 
	C168.931931,152.222870 161.948502,158.876419 154.791840,165.856445 
M111.483467,53.646782 
	C96.998711,53.182671 85.159142,58.942944 75.912857,69.713356 
	C69.533058,77.144791 64.174347,85.446480 57.903217,92.979568 
	C52.927753,98.956268 47.579342,104.717209 41.767570,109.863686 
	C38.791332,112.499237 34.369240,113.451881 30.723919,115.396309 
	C27.180851,117.286194 25.618692,120.752060 27.060455,124.239372 
	C28.021164,126.563110 30.749899,128.418533 33.085842,129.818726 
	C34.643143,130.752182 36.901939,130.515350 39.198765,130.854218 
	C38.881630,129.332520 38.648991,128.216263 38.173077,125.932709 
	C41.396290,128.903214 43.545078,131.442444 46.200123,133.229553 
	C55.573711,139.538910 65.011162,145.768982 74.637192,151.682739 
	C82.122787,156.281509 89.612671,161.093140 97.645706,164.539795 
	C121.761726,174.887024 142.139114,170.602310 160.426559,151.929413 
	C166.017334,146.220779 171.164307,140.080032 176.671036,134.285919 
	C183.304062,127.306763 189.729736,120.153114 199.218613,116.614349 
	C204.133591,114.781364 205.891998,109.148308 203.035446,105.012604 
	C201.626144,102.972221 198.717987,101.166771 196.260056,100.805351 
	C189.636520,99.831421 184.432983,96.709724 179.808990,92.176445 
	C174.813110,87.278580 169.784653,82.413651 164.742966,77.562874 
	C150.110001,63.484013 133.180969,54.423622 111.483467,53.646782 
z"/>
<path fill="#085DBA" opacity="1.000000" stroke="none" 
	d="
M120.212570,189.175629 
	C116.522362,191.696793 113.142151,194.027756 109.257423,196.706604 
	C109.257423,190.596573 109.257423,185.082718 109.257423,178.752228 
	C113.360703,180.237946 117.073326,181.386383 120.616669,182.924759 
	C123.664185,184.247864 126.155739,184.015381 128.836060,181.973221 
	C131.451370,179.980576 134.420013,178.451675 137.915955,176.298950 
	C140.028503,181.809601 142.052399,187.089005 144.691269,193.972610 
	C139.087189,191.646790 134.489746,190.120895 130.275467,187.875809 
	C126.512711,185.871262 123.483932,186.039993 120.212570,189.175629 
z"/>
<path fill="#FDF102" opacity="1.000000" stroke="none" 
	d="
M111.966156,53.677467 
	C133.180969,54.423622 150.110001,63.484013 164.742966,77.562874 
	C169.784653,82.413651 174.813110,87.278580 179.808990,92.176445 
	C184.432983,96.709724 189.636520,99.831421 196.260056,100.805351 
	C198.717987,101.166771 201.626144,102.972221 203.035446,105.012604 
	C205.891998,109.148308 204.133591,114.781364 199.218613,116.614349 
	C189.729736,120.153114 183.304062,127.306763 176.671036,134.285919 
	C171.164307,140.080032 166.017334,146.220779 160.426559,151.929413 
	C142.139114,170.602310 121.761726,174.887024 97.645706,164.539795 
	C89.612671,161.093140 82.122787,156.281509 74.637192,151.682739 
	C65.011162,145.768982 55.573711,139.538910 46.200123,133.229553 
	C43.545078,131.442444 41.396290,128.903214 38.173077,125.932709 
	C38.648991,128.216263 38.881630,129.332520 39.198765,130.854218 
	C36.901939,130.515350 34.643143,130.752182 33.085842,129.818726 
	C30.749899,128.418533 28.021164,126.563110 27.060455,124.239372 
	C25.618692,120.752060 27.180851,117.286194 30.723919,115.396309 
	C34.369240,113.451881 38.791332,112.499237 41.767570,109.863686 
	C47.579342,104.717209 52.927753,98.956268 57.903217,92.979568 
	C64.174347,85.446480 69.533058,77.144791 75.912857,69.713356 
	C85.159142,58.942944 96.998711,53.182671 111.966156,53.677467 
M106.693230,150.032516 
	C100.322212,147.171829 94.537697,143.610397 89.795830,136.920227 
	C88.800110,137.561340 86.868118,138.805298 85.434143,139.728592 
	C87.758423,140.869141 89.723343,141.611008 91.449242,142.723648 
	C95.896210,145.590485 99.955185,149.205551 104.670654,151.483673 
	C123.141174,160.407089 147.739334,153.612503 154.548523,134.193420 
	C154.993546,132.924255 156.081421,131.880524 157.244308,130.187317 
	C154.738968,130.050308 152.007584,129.900940 149.276199,129.751572 
	C149.251190,130.207916 149.226181,130.664261 149.201172,131.120590 
	C150.400009,131.218887 151.598831,131.317184 153.076187,131.438324 
	C150.783981,138.844955 146.724716,144.338715 140.459763,148.002625 
	C129.869324,154.196228 118.789673,154.698914 106.693230,150.032516 
M102.450912,71.097694 
	C110.591187,78.959854 122.795502,80.617599 125.265343,72.961746 
	C114.677055,74.846405 106.477119,69.738869 97.881424,65.133469 
	C99.243446,66.954231 100.605469,68.775002 102.450912,71.097694 
M115.889900,64.841919 
	C111.827766,64.841919 107.765633,64.841919 104.040504,64.841919 
	C110.687851,71.009911 122.692001,69.893272 124.706993,61.849594 
	C121.799248,62.890865 119.262459,63.799294 115.889900,64.841919 
M111.906746,125.624435 
	C109.929588,121.602943 107.154465,120.273834 104.905037,122.610382 
	C103.851723,123.704498 103.198257,125.931526 103.529572,127.378044 
	C103.802994,128.571762 106.182014,130.421951 106.944557,130.139053 
	C108.803413,129.449463 110.265594,127.690620 111.906746,125.624435 
M143.183838,122.989166 
	C142.423126,121.180534 142.026672,119.012489 140.747177,117.715752 
	C140.112961,117.072975 137.407715,117.539391 136.453781,118.403244 
	C135.455063,119.307663 134.860016,121.386040 135.093536,122.783325 
	C135.734497,126.618408 139.319763,126.959114 143.183838,122.989166 
M138.781174,99.513084 
	C132.906418,98.939072 131.927612,99.580818 132.185379,102.891228 
	C136.669266,104.280243 140.836655,105.571213 144.956482,106.847443 
	C144.913300,103.807838 142.871964,101.353226 138.781174,99.513084 
M94.121468,110.571449 
	C94.121468,111.691170 94.121468,112.810898 94.121468,113.069519 
	C97.791817,111.010658 101.716553,108.809105 106.413269,106.174515 
	C105.429825,105.526520 104.266022,104.162689 102.958359,104.006973 
	C98.552574,103.482330 95.913910,106.003410 94.121468,110.571449 
z"/>
<path fill="#195FB5" opacity="1.000000" stroke="none" 
	d="
M107.051346,150.185303 
	C118.789673,154.698914 129.869324,154.196228 140.459763,148.002625 
	C146.724716,144.338715 150.783981,138.844955 153.076187,131.438324 
	C151.598831,131.317184 150.400009,131.218887 149.201172,131.120590 
	C149.226181,130.664261 149.251190,130.207916 149.276199,129.751572 
	C152.007584,129.900940 154.738968,130.050308 157.244308,130.187317 
	C156.081421,131.880524 154.993546,132.924255 154.548523,134.193420 
	C147.739334,153.612503 123.141174,160.407089 104.670654,151.483673 
	C99.955185,149.205551 95.896210,145.590485 91.449242,142.723648 
	C89.723343,141.611008 87.758423,140.869141 85.434143,139.728592 
	C86.868118,138.805298 88.800110,137.561340 89.795830,136.920227 
	C94.537697,143.610397 100.322212,147.171829 107.051346,150.185303 
z"/>
<path fill="#1663B3" opacity="1.000000" stroke="none" 
	d="
M102.209198,70.846733 
	C100.605469,68.775002 99.243446,66.954231 97.881424,65.133469 
	C106.477119,69.738869 114.677055,74.846405 125.265343,72.961746 
	C122.795502,80.617599 110.591187,78.959854 102.209198,70.846733 
z"/>
<path fill="#1C65B1" opacity="1.000000" stroke="none" 
	d="
M116.307785,64.774818 
	C119.262459,63.799294 121.799248,62.890865 124.706993,61.849594 
	C122.692001,69.893272 110.687851,71.009911 104.040504,64.841919 
	C107.765633,64.841919 111.827766,64.841919 116.307785,64.774818 
z"/>
<path fill="#0D60B5" opacity="1.000000" stroke="none" 
	d="
M111.897125,125.993385 
	C110.265594,127.690620 108.803413,129.449463 106.944557,130.139053 
	C106.182014,130.421951 103.802994,128.571762 103.529572,127.378044 
	C103.198257,125.931526 103.851723,123.704498 104.905037,122.610382 
	C107.154465,120.273834 109.929588,121.602943 111.897125,125.993385 
z"/>
<path fill="#085CB8" opacity="1.000000" stroke="none" 
	d="
M143.077866,123.339691 
	C139.319763,126.959114 135.734497,126.618408 135.093536,122.783325 
	C134.860016,121.386040 135.455063,119.307663 136.453781,118.403244 
	C137.407715,117.539391 140.112961,117.072975 140.747177,117.715752 
	C142.026672,119.012489 142.423126,121.180534 143.077866,123.339691 
z"/>
<path fill="#1B65B1" opacity="1.000000" stroke="none" 
	d="
M139.139923,99.644989 
	C142.871964,101.353226 144.913300,103.807838 144.956482,106.847443 
	C140.836655,105.571213 136.669266,104.280243 132.185379,102.891228 
	C131.927612,99.580818 132.906418,98.939072 139.139923,99.644989 
z"/>
<path fill="#115FB6" opacity="1.000000" stroke="none" 
	d="
M94.240158,110.231300 
	C95.913910,106.003410 98.552574,103.482330 102.958359,104.006973 
	C104.266022,104.162689 105.429825,105.526520 106.413269,106.174515 
	C101.716553,108.809105 97.791817,111.010658 94.121468,113.069519 
	C94.121468,112.810898 94.121468,111.691170 94.240158,110.231300 
z"/>
</pattern>
</svg>