<svg version="1.1" xmlns="http://www.w3.org/2000/svg" x="0px" y="0px" viewBox="0 0 0 0" width="0" height="0">
<pattern  id="mnms" patternUnits="userSpaceOnUse" width="4000" height="3000" patternTransform="scale(0.01),rotate(35)">
<path fill="#FFCC00" opacity="1.000000" stroke="none" 
	d="
M2696.000000,3512.000000 
	C1797.439087,3512.000000 900.878113,3512.000000 4.158573,3512.000000 
	C4.158573,2342.910156 4.158573,1173.820557 4.158573,4.365366 
	C1656.894775,4.365366 3309.789795,4.365366 4963.342285,4.365366 
	C4963.342285,1173.333008 4963.342285,2342.666504 4963.342285,3512.000000 
	C4208.486328,3512.000000 3453.243164,3512.000000 2696.000000,3512.000000 
M2750.000000,2355.453369 
	C3124.627930,2355.453613 3499.256104,2355.453857 3873.884033,2355.453125 
	C3879.217041,2355.453125 3884.558594,2355.628174 3889.879883,2355.376953 
	C3893.651123,2355.198975 3897.394775,2354.439209 3901.770508,2353.856689 
	C3902.193115,2348.756836 3902.793701,2344.870117 3902.795898,2340.982666 
	C3902.844727,2252.989746 3902.852539,2164.996826 3902.743164,2077.003906 
	C3902.738525,2073.212646 3901.545898,2069.423096 3900.861084,2065.360596 
	C3892.117432,2064.530273 3884.102295,2064.307129 3876.296631,2062.911621 
	C3861.815674,2060.322021 3849.734863,2053.746338 3843.957520,2039.246582 
	C3837.902832,2024.051514 3838.083496,2008.489746 3841.418213,1991.408691 
	C3883.546631,1991.408691 3924.728516,1991.408691 3965.119873,1991.408691 
	C3967.405273,1987.065674 3968.924316,1984.178833 3970.801025,1980.612671 
	C3993.119873,1987.369263 4015.807129,1992.353149 4039.115967,1994.066650 
	C4089.100830,1997.740967 4137.700684,1991.995483 4183.710938,1971.269409 
	C4273.069336,1931.015869 4321.004395,1840.506958 4305.320801,1743.828735 
	C4299.882812,1710.303345 4288.236328,1679.602295 4268.523926,1651.916260 
	C4266.096191,1648.506470 4261.368164,1645.372070 4264.824707,1639.389282 
	C4271.558594,1638.177979 4278.587402,1636.913452 4286.819336,1635.432617 
	C4286.819336,1548.132446 4286.834473,1461.571411 4286.761230,1375.010376 
	C4286.758301,1371.819580 4285.895508,1368.629395 4285.272461,1364.328369 
	C4278.784180,1363.950684 4272.957031,1363.352661 4267.126953,1363.318359 
	C4245.796387,1363.192749 4224.463379,1363.346313 4203.133789,1363.158813 
	C4199.455566,1363.126465 4195.788574,1361.945312 4191.220703,1361.136230 
	C4191.878418,1355.347656 4192.059570,1350.735718 4192.971191,1346.272949 
	C4196.237793,1330.273560 4195.011719,1314.404297 4191.772461,1298.627319 
	C4181.438965,1248.302124 4141.644531,1212.626465 4090.480713,1208.087280 
	C4077.884521,1206.969849 4065.187744,1206.544556 4052.537598,1206.551025 
	C3992.544922,1206.581543 3932.552002,1206.853760 3872.559570,1207.100708 
	C3867.298096,1207.122314 3862.038086,1207.584595 3856.074707,1207.876587 
	C3853.370361,1213.459351 3850.620605,1218.718506 3848.231934,1224.136963 
	C3836.135986,1251.572998 3824.170654,1279.066406 3812.052246,1306.492310 
	C3810.587646,1309.806396 3810.046143,1314.200439 3804.161377,1314.809204 
	C3802.187500,1311.808960 3799.868164,1308.630127 3797.903809,1305.245117 
	C3777.050049,1269.309937 3748.425293,1241.046875 3713.337646,1219.060425 
	C3674.973633,1195.020996 3633.002441,1180.521729 3588.856201,1171.803223 
	C3542.808350,1162.709106 3496.319580,1160.850586 3449.536865,1163.413818 
	C3387.649170,1166.804932 3328.344971,1180.663818 3271.900879,1206.425537 
	C3263.432617,1210.290527 3255.005615,1214.246948 3247.069824,1217.924683 
	C3245.073486,1217.379517 3243.675049,1217.249268 3242.533447,1216.639282 
	C3239.013184,1214.757690 3235.533691,1212.785278 3232.139404,1210.684692 
	C3205.850586,1194.414551 3177.510986,1183.159546 3147.639893,1175.388062 
	C3120.435791,1168.310425 3092.819092,1164.482788 3064.799072,1162.728271 
	C2992.600098,1158.207520 2922.449219,1166.444214 2855.430908,1195.197144 
	C2851.299072,1196.969849 2846.899658,1198.119019 2841.731934,1199.858887 
	C2840.764648,1192.236694 2839.953857,1185.847534 2839.132324,1179.372681 
	C2831.443848,1176.425903 2824.056641,1177.497437 2816.838379,1177.492065 
	C2723.512451,1177.421875 2630.186768,1177.445190 2536.860840,1177.445557 
	C2492.864502,1177.445801 2448.867676,1177.379028 2404.871826,1177.530884 
	C2399.095703,1177.550903 2392.850586,1175.844971 2387.016602,1180.605347 
	C2384.512207,1187.220459 2385.693604,1194.609863 2385.677246,1201.801636 
	C2385.559570,1253.797241 2385.661133,1305.793213 2385.542480,1357.788818 
	C2385.529785,1363.369751 2387.010986,1369.532959 2382.778809,1374.228027 
	C2364.314453,1369.883545 2347.020020,1364.799927 2329.364990,1361.945068 
	C2311.661133,1359.082275 2293.606201,1357.273682 2275.690186,1357.151978 
	C2257.102539,1357.025879 2238.306152,1358.260376 2219.955078,1361.149414 
	C2202.279785,1363.932129 2184.721680,1368.587402 2167.729736,1374.267334 
	C2150.859863,1379.906494 2134.759277,1387.847900 2117.687256,1395.046997 
	C2115.590576,1387.790283 2113.756104,1381.447266 2111.925293,1375.103271 
	C2091.632324,1304.788940 2051.790527,1249.450806 1987.523438,1212.871948 
	C1958.366943,1196.276978 1927.245483,1184.551880 1894.755981,1176.537720 
	C1844.544678,1164.152222 1793.524536,1160.984497 1741.954468,1163.091797 
	C1672.411743,1165.933472 1606.198364,1181.588989 1543.649780,1212.346924 
	C1538.990356,1214.638184 1534.041626,1216.341187 1529.466675,1218.219482 
	C1524.598145,1215.429688 1520.488647,1213.243652 1516.546753,1210.788574 
	C1490.287476,1194.433716 1461.872070,1183.332397 1432.053955,1175.415527 
	C1402.918457,1167.679932 1373.251953,1163.856445 1343.231079,1162.354370 
	C1273.114990,1158.846313 1204.890137,1167.056763 1139.887695,1195.249878 
	C1135.777222,1197.032715 1131.411133,1198.226196 1125.916016,1200.125122 
	C1124.944458,1192.335083 1124.154053,1185.996826 1123.398560,1179.939453 
	C1115.793457,1175.818848 1108.324463,1177.502319 1101.170532,1177.489502 
	C1025.176880,1177.352417 949.182922,1177.404175 873.189087,1177.405029 
	C812.527344,1177.405762 751.865479,1177.364624 691.203918,1177.472168 
	C684.740601,1177.483643 677.946838,1176.000854 670.924744,1180.070312 
	C670.539734,1184.528198 669.812256,1189.046143 669.809082,1193.564697 
	C669.745728,1284.224121 669.737610,1374.883423 669.855347,1465.542725 
	C669.861023,1469.938965 671.120422,1474.333618 671.881409,1479.284424 
	C682.887817,1479.630981 692.886597,1479.434448 702.778076,1480.371094 
	C719.692078,1481.972900 733.990417,1489.056885 741.113342,1505.148926 
	C744.494690,1512.787842 745.518311,1521.844482 745.928345,1530.339966 
	C746.602173,1544.299805 745.814148,1558.325684 745.803833,1572.323853 
	C745.696716,1718.311035 745.629456,1864.298218 745.507324,2010.285400 
	C745.502869,2015.605957 745.439026,2020.979004 744.730530,2026.237183 
	C742.117554,2045.629150 731.484985,2057.829102 712.368591,2062.191650 
	C704.678345,2063.946777 696.513000,2063.584473 688.573608,2064.295166 
	C682.835022,2064.808594 676.641907,2062.775391 670.734436,2067.267578 
	C670.423523,2070.369385 669.816162,2073.612793 669.814331,2076.856689 
	C669.765381,2165.516113 669.752563,2254.175781 669.868408,2342.835205 
	C669.873413,2346.643799 671.161987,2350.450928 672.065674,2355.433838 
	C681.299072,2355.433838 689.910583,2355.433838 698.522156,2355.433838 
	C1185.149658,2355.433838 1671.777100,2355.434082 2158.404541,2355.433350 
	C2163.737549,2355.433350 2169.082764,2355.643555 2174.398926,2355.341309 
	C2178.167236,2355.127441 2181.895752,2354.214355 2186.791992,2353.428711 
	C2186.906006,2336.526123 2187.055664,2320.630371 2187.109131,2304.734131 
	C2187.162842,2288.735596 2187.121582,2272.736816 2187.120850,2256.738037 
	C2187.120361,2240.739258 2186.841797,2224.734619 2187.195312,2208.743652 
	C2187.544434,2192.942139 2185.472168,2176.991211 2188.982178,2160.334229 
	C2194.901611,2160.867188 2200.093506,2161.179443 2205.243652,2161.822266 
	C2262.139160,2168.927734 2318.307861,2167.852783 2372.853760,2147.423584 
	C2376.229492,2146.158936 2380.058105,2146.103271 2384.889648,2145.278076 
	C2385.149170,2153.310791 2385.540283,2159.889648 2385.546143,2166.468994 
	C2385.594238,2221.797852 2385.499268,2277.126953 2385.659668,2332.455322 
	C2385.680420,2339.590088 2383.835938,2347.127197 2388.069336,2353.655518 
	C2389.593994,2354.223389 2390.816162,2355.076172 2392.039307,2355.077881 
	C2510.026123,2355.244629 2628.013184,2355.346924 2750.000000,2355.453369 
z"/>
<path fill="#FDFCFA" opacity="1.000000" stroke="none" 
	d="
M2748.000000,2355.453369 
	C2628.013184,2355.346924 2510.026123,2355.244629 2392.039307,2355.077881 
	C2390.816162,2355.076172 2389.593994,2354.223389 2388.069336,2353.655518 
	C2383.835938,2347.127197 2385.680420,2339.590088 2385.659668,2332.455322 
	C2385.499268,2277.126953 2385.594238,2221.797852 2385.546143,2166.468994 
	C2385.540283,2159.889648 2385.149170,2153.310791 2384.889648,2145.278076 
	C2380.058105,2146.103271 2376.229492,2146.158936 2372.853760,2147.423584 
	C2318.307861,2167.852783 2262.139160,2168.927734 2205.243652,2161.822266 
	C2200.093506,2161.179443 2194.901611,2160.867188 2188.982178,2160.334229 
	C2185.472168,2176.991211 2187.544434,2192.942139 2187.195312,2208.743652 
	C2186.841797,2224.734619 2187.120361,2240.739258 2187.120850,2256.738037 
	C2187.121582,2272.736816 2187.162842,2288.735596 2187.109131,2304.734131 
	C2187.055664,2320.630371 2186.906006,2336.526123 2186.791992,2353.428711 
	C2181.895752,2354.214355 2178.167236,2355.127441 2174.398926,2355.341309 
	C2169.082764,2355.643555 2163.737549,2355.433350 2158.404541,2355.433350 
	C1671.777100,2355.434082 1185.149658,2355.433838 698.522156,2355.433838 
	C689.910583,2355.433838 681.299072,2355.433838 672.065674,2355.433838 
	C671.161987,2350.450928 669.873413,2346.643799 669.868408,2342.835205 
	C669.752563,2254.175781 669.765381,2165.516113 669.814331,2076.856689 
	C669.816162,2073.612793 670.423523,2070.369385 670.734436,2067.267578 
	C676.641907,2062.775391 682.835022,2064.808594 688.573608,2064.295166 
	C696.513000,2063.584473 704.678345,2063.946777 712.368591,2062.191650 
	C731.484985,2057.829102 742.117554,2045.629150 744.730530,2026.237183 
	C745.439026,2020.979004 745.502869,2015.605957 745.507324,2010.285400 
	C745.629456,1864.298218 745.696716,1718.311035 745.803833,1572.323853 
	C745.814148,1558.325684 746.602173,1544.299805 745.928345,1530.339966 
	C745.518311,1521.844482 744.494690,1512.787842 741.113342,1505.148926 
	C733.990417,1489.056885 719.692078,1481.972900 702.778076,1480.371094 
	C692.886597,1479.434448 682.887817,1479.630981 671.881409,1479.284424 
	C671.120422,1474.333618 669.861023,1469.938965 669.855347,1465.542725 
	C669.737610,1374.883423 669.745728,1284.224121 669.809082,1193.564697 
	C669.812256,1189.046143 670.539734,1184.528198 670.924744,1180.070312 
	C677.946838,1176.000854 684.740601,1177.483643 691.203918,1177.472168 
	C751.865479,1177.364624 812.527344,1177.405762 873.189087,1177.405029 
	C949.182922,1177.404175 1025.176880,1177.352417 1101.170532,1177.489502 
	C1108.324463,1177.502319 1115.793457,1175.818848 1123.398560,1179.939453 
	C1124.154053,1185.996826 1124.944458,1192.335083 1125.916016,1200.125122 
	C1131.411133,1198.226196 1135.777222,1197.032715 1139.887695,1195.249878 
	C1204.890137,1167.056763 1273.114990,1158.846313 1343.231079,1162.354370 
	C1373.251953,1163.856445 1402.918457,1167.679932 1432.053955,1175.415527 
	C1461.872070,1183.332397 1490.287476,1194.433716 1516.546753,1210.788574 
	C1520.488647,1213.243652 1524.598145,1215.429688 1529.466675,1218.219482 
	C1534.041626,1216.341187 1538.990356,1214.638184 1543.649780,1212.346924 
	C1606.198364,1181.588989 1672.411743,1165.933472 1741.954468,1163.091797 
	C1793.524536,1160.984497 1844.544678,1164.152222 1894.755981,1176.537720 
	C1927.245483,1184.551880 1958.366943,1196.276978 1987.523438,1212.871948 
	C2051.790527,1249.450806 2091.632324,1304.788940 2111.925293,1375.103271 
	C2113.756104,1381.447266 2115.590576,1387.790283 2117.687256,1395.046997 
	C2134.759277,1387.847900 2150.859863,1379.906494 2167.729736,1374.267334 
	C2184.721680,1368.587402 2202.279785,1363.932129 2219.955078,1361.149414 
	C2238.306152,1358.260376 2257.102539,1357.025879 2275.690186,1357.151978 
	C2293.606201,1357.273682 2311.661133,1359.082275 2329.364990,1361.945068 
	C2347.020020,1364.799927 2364.314453,1369.883545 2382.778809,1374.228027 
	C2387.010986,1369.532959 2385.529785,1363.369751 2385.542480,1357.788818 
	C2385.661133,1305.793213 2385.559570,1253.797241 2385.677246,1201.801636 
	C2385.693604,1194.609863 2384.512207,1187.220459 2387.016602,1180.605347 
	C2392.850586,1175.844971 2399.095703,1177.550903 2404.871826,1177.530884 
	C2448.867676,1177.379028 2492.864502,1177.445801 2536.860840,1177.445557 
	C2630.186768,1177.445190 2723.512451,1177.421875 2816.838379,1177.492065 
	C2824.056641,1177.497437 2831.443848,1176.425903 2839.132324,1179.372681 
	C2839.953857,1185.847534 2840.764648,1192.236694 2841.731934,1199.858887 
	C2846.899658,1198.119019 2851.299072,1196.969849 2855.430908,1195.197144 
	C2922.449219,1166.444214 2992.600098,1158.207520 3064.799072,1162.728271 
	C3092.819092,1164.482788 3120.435791,1168.310425 3147.639893,1175.388062 
	C3177.510986,1183.159546 3205.850586,1194.414551 3232.139404,1210.684692 
	C3235.533691,1212.785278 3239.013184,1214.757690 3242.533447,1216.639282 
	C3243.675049,1217.249268 3245.073486,1217.379517 3247.069824,1217.924683 
	C3255.005615,1214.246948 3263.432617,1210.290527 3271.900879,1206.425537 
	C3328.344971,1180.663818 3387.649170,1166.804932 3449.536865,1163.413818 
	C3496.319580,1160.850586 3542.808350,1162.709106 3588.856201,1171.803223 
	C3633.002441,1180.521729 3674.973633,1195.020996 3713.337646,1219.060425 
	C3748.425293,1241.046875 3777.050049,1269.309937 3797.903809,1305.245117 
	C3799.868164,1308.630127 3802.187500,1311.808960 3804.161377,1314.809204 
	C3810.046143,1314.200439 3810.587646,1309.806396 3812.052246,1306.492310 
	C3824.170654,1279.066406 3836.135986,1251.572998 3848.231934,1224.136963 
	C3850.620605,1218.718506 3853.370361,1213.459351 3856.074707,1207.876587 
	C3862.038086,1207.584595 3867.298096,1207.122314 3872.559570,1207.100708 
	C3932.552002,1206.853760 3992.544922,1206.581543 4052.537598,1206.551025 
	C4065.187744,1206.544556 4077.884521,1206.969849 4090.480713,1208.087280 
	C4141.644531,1212.626465 4181.438965,1248.302124 4191.772461,1298.627319 
	C4195.011719,1314.404297 4196.237793,1330.273560 4192.971191,1346.272949 
	C4192.059570,1350.735718 4191.878418,1355.347656 4191.220703,1361.136230 
	C4195.788574,1361.945312 4199.455566,1363.126465 4203.133789,1363.158813 
	C4224.463379,1363.346313 4245.796387,1363.192749 4267.126953,1363.318359 
	C4272.957031,1363.352661 4278.784180,1363.950684 4285.272461,1364.328369 
	C4285.895508,1368.629395 4286.758301,1371.819580 4286.761230,1375.010376 
	C4286.834473,1461.571411 4286.819336,1548.132446 4286.819336,1635.432617 
	C4278.587402,1636.913452 4271.558594,1638.177979 4264.824707,1639.389282 
	C4261.368164,1645.372070 4266.096191,1648.506470 4268.523926,1651.916260 
	C4288.236328,1679.602295 4299.882812,1710.303345 4305.320801,1743.828735 
	C4321.004395,1840.506958 4273.069336,1931.015869 4183.710938,1971.269409 
	C4137.700684,1991.995483 4089.100830,1997.740967 4039.115967,1994.066650 
	C4015.807129,1992.353149 3993.119873,1987.369263 3970.801025,1980.612671 
	C3968.924316,1984.178833 3967.405273,1987.065674 3965.119873,1991.408691 
	C3924.728516,1991.408691 3883.546631,1991.408691 3841.418213,1991.408691 
	C3838.083496,2008.489746 3837.902832,2024.051514 3843.957520,2039.246582 
	C3849.734863,2053.746338 3861.815674,2060.322021 3876.296631,2062.911621 
	C3884.102295,2064.307129 3892.117432,2064.530273 3900.861084,2065.360596 
	C3901.545898,2069.423096 3902.738525,2073.212646 3902.743164,2077.003906 
	C3902.852539,2164.996826 3902.844727,2252.989746 3902.795898,2340.982666 
	C3902.793701,2344.870117 3902.193115,2348.756836 3901.770508,2353.856689 
	C3897.394775,2354.439209 3893.651123,2355.198975 3889.879883,2355.376953 
	C3884.558594,2355.628174 3879.217041,2355.453125 3873.884033,2355.453125 
	C3499.256104,2355.453857 3124.627930,2355.453613 2748.000000,2355.453369 
M1635.867065,2265.519531 
	C1635.866943,2243.522949 1636.045532,2221.524414 1635.816895,2199.530273 
	C1635.583130,2177.049316 1636.864624,2154.520020 1634.957031,2131.855225 
	C1631.640869,2130.901855 1629.161621,2129.809082 1626.589600,2129.507324 
	C1596.575195,2125.986328 1580.293457,2107.825684 1574.721924,2079.479248 
	C1572.433472,2067.835693 1571.991821,2055.682373 1571.979736,2043.759766 
	C1571.812744,1879.130859 1571.866577,1714.501953 1571.869019,1549.872925 
	C1571.869141,1542.541260 1571.760864,1535.206543 1571.930664,1527.878418 
	C1572.766602,1491.805176 1590.155518,1467.724487 1624.432007,1455.814941 
	C1649.503906,1447.103516 1675.324585,1446.088257 1701.381714,1449.973145 
	C1715.279419,1452.045166 1728.693604,1455.854004 1741.024658,1462.932495 
	C1760.665039,1474.206543 1773.395508,1490.514282 1776.726685,1513.160156 
	C1778.172974,1522.992310 1778.726074,1533.038574 1778.730469,1542.988037 
	C1778.838379,1782.933228 1778.812256,2022.878296 1778.840942,2262.823486 
	C1778.841919,2270.676758 1779.163696,2278.530029 1779.312866,2285.329590 
	C1781.012573,2286.738525 1781.491455,2287.477051 1782.044556,2287.537842 
	C1785.315186,2287.896729 1788.603271,2288.322754 1791.885132,2288.320068 
	C1899.853638,2288.230225 2007.822021,2288.095459 2115.790527,2287.938721 
	C2116.386230,2287.937988 2117.038818,2287.623291 2117.561035,2287.291748 
	C2118.113037,2286.941650 2118.540283,2286.394775 2119.583984,2285.395752 
	C2119.583984,2237.465088 2119.583984,2189.039307 2119.583984,2140.066650 
	C2113.257324,2137.036133 2107.228516,2134.317383 2101.349365,2131.306885 
	C2022.745239,2091.056641 1972.577393,2029.083130 1958.975098,1940.729736 
	C1945.986206,1856.361328 1973.243286,1785.948486 2036.767456,1729.305664 
	C2039.617065,1726.764893 2042.496826,1724.257812 2044.284058,1722.684448 
	C2035.787354,1706.169556 2026.680420,1691.344727 2020.269165,1675.433594 
	C2004.909790,1637.315674 2003.990234,1597.412720 2009.872925,1557.365601 
	C2015.183228,1521.215088 2028.769653,1488.118164 2050.599609,1458.623779 
	C2054.256348,1453.683105 2056.650635,1448.833252 2056.281494,1442.221558 
	C2052.709229,1378.225830 2028.163452,1325.009888 1976.600586,1285.471558 
	C1960.646118,1273.237671 1943.213379,1263.563721 1924.708740,1255.795776 
	C1891.257324,1241.753418 1856.258911,1234.548096 1820.246460,1230.776611 
	C1730.399536,1221.367065 1645.107910,1236.653076 1564.167603,1276.470947 
	C1549.883301,1283.497803 1536.068726,1291.479370 1521.520508,1299.297729 
	C1513.705444,1292.270508 1506.177856,1284.748047 1497.889771,1278.185791 
	C1469.022461,1255.329346 1435.456909,1242.981934 1399.796021,1235.856201 
	C1338.774902,1223.662720 1277.838501,1226.271240 1217.111938,1238.070190 
	C1170.979614,1247.033691 1127.677856,1263.765381 1086.656860,1286.639404 
	C1082.479370,1288.968750 1078.651978,1294.043335 1071.228760,1290.555542 
	C1071.228760,1275.922241 1071.228760,1260.786499 1071.228760,1244.618652 
	C1066.810303,1244.213257 1063.651489,1243.671631 1060.492554,1243.670410 
	C955.849854,1243.629761 851.207153,1243.626953 746.564514,1243.711182 
	C743.488464,1243.713623 740.413147,1244.711060 737.670349,1245.186890 
	C735.590637,1268.379272 735.932617,1396.610840 738.143433,1412.810669 
	C744.327759,1413.816406 750.859192,1414.740112 757.335938,1415.955688 
	C788.331848,1421.773071 809.331543,1444.890747 812.009033,1476.337891 
	C812.573120,1482.963257 812.470825,1489.655884 812.467468,1496.317383 
	C812.375732,1680.274536 812.261597,1864.231567 812.123474,2048.188721 
	C812.118958,2054.183350 812.173279,2060.210449 811.610596,2066.166992 
	C808.275146,2101.474365 787.670227,2123.198975 752.545105,2128.815186 
	C747.398743,2129.637939 742.309692,2130.819336 737.477417,2131.778564 
	C735.427673,2156.514648 735.984985,2270.671143 738.146118,2286.192383 
	C738.587158,2286.624023 738.995789,2287.378418 739.533813,2287.485596 
	C741.482971,2287.875244 743.475708,2288.270508 745.451782,2288.269531 
	C879.415161,2288.203613 1013.378540,2288.100098 1147.341919,2287.982178 
	C1147.979736,2287.981689 1148.686523,2287.865234 1149.236450,2287.570312 
	C1149.801392,2287.267578 1150.212769,2286.677979 1151.170532,2285.749268 
	C1151.459229,2284.392090 1152.203857,2282.528320 1152.201172,2280.665527 
	C1152.131226,2232.026367 1151.985840,2183.387207 1151.826050,2134.748047 
	C1151.823975,2134.108398 1151.591553,2133.393311 1151.247681,2132.852539 
	C1150.918457,2132.334717 1150.303467,2131.998779 1149.302979,2131.148438 
	C1148.006104,2130.756836 1146.154663,2130.013672 1144.231445,2129.644287 
	C1111.706299,2123.399414 1096.746460,2109.000244 1090.921021,2076.389404 
	C1088.829590,2064.681152 1088.424561,2052.550049 1088.413452,2040.610840 
	C1088.260986,1875.315430 1088.310303,1710.020020 1088.316895,1544.724487 
	C1088.317017,1539.392700 1088.248657,1534.055542 1088.453979,1528.730103 
	C1089.879150,1491.762329 1107.765137,1467.516602 1142.761475,1455.567749 
	C1167.897827,1446.985229 1193.748169,1445.726318 1219.695801,1450.416992 
	C1230.726562,1452.410889 1241.875732,1455.502808 1252.054199,1460.117920 
	C1278.582153,1472.146729 1292.804688,1493.494263 1295.289673,1522.483032 
	C1295.857422,1529.105225 1295.618774,1535.803101 1295.619507,1542.466187 
	C1295.641235,1762.415894 1295.646851,1982.365479 1295.654663,2202.315186 
	C1295.655640,2226.976318 1295.591187,2251.637451 1295.724854,2276.297852 
	C1295.745117,2280.039307 1296.683960,2283.775635 1297.180176,2287.384766 
	C1300.310425,2287.798340 1302.243896,2288.276611 1304.177734,2288.277344 
	C1411.486328,2288.317627 1518.795044,2288.333984 1626.103516,2288.241455 
	C1629.145264,2288.238770 1632.186035,2287.031250 1635.867798,2286.249512 
	C1635.867798,2279.954590 1635.867798,2274.679932 1635.867065,2265.519531 
M2462.909424,2288.226807 
	C2590.234375,2288.220703 2717.559082,2288.214600 2844.884033,2288.207031 
	C2849.550537,2288.206787 2854.217041,2288.208984 2858.883301,2288.168701 
	C2860.211670,2288.157227 2861.540283,2288.013916 2862.866455,2287.904053 
	C2863.530029,2287.849121 2864.255615,2287.876709 2864.830566,2287.605957 
	C2865.397949,2287.338623 2865.810059,2286.741455 2866.290039,2286.289062 
	C2866.738037,2285.805664 2867.540771,2285.347656 2867.577393,2284.834717 
	C2867.862061,2280.853027 2868.165527,2276.860596 2868.156982,2272.871826 
	C2868.058594,2226.887207 2867.907959,2180.902344 2867.746094,2134.917725 
	C2867.743896,2134.273438 2867.541992,2133.558838 2867.214844,2133.006592 
	C2866.901855,2132.477783 2866.304199,2132.117920 2865.831543,2131.683594 
	C2865.285156,2131.302002 2864.788574,2130.735840 2864.183350,2130.573242 
	C2862.256348,2130.055176 2860.308105,2129.531006 2858.333740,2129.284668 
	C2829.293945,2125.666992 2813.182617,2108.124512 2807.533691,2080.582275 
	C2805.147949,2068.950439 2804.331787,2056.814453 2804.317383,2044.906006 
	C2804.119629,1879.580566 2804.184570,1714.254883 2804.188477,1548.929199 
	C2804.188477,1542.262939 2804.085693,1535.593140 2804.258789,1528.930908 
	C2805.210449,1492.300293 2823.390869,1467.541504 2858.240479,1455.587158 
	C2883.388672,1446.960693 2909.226562,1445.722168 2935.178467,1450.304443 
	C2946.215088,1452.253174 2957.320557,1455.453125 2967.552734,1459.985718 
	C2991.064697,1470.401245 3005.739502,1488.598511 3009.753906,1514.317871 
	C3011.182129,1523.469727 3011.387695,1532.882568 3011.391113,1542.176514 
	C3011.478760,1779.498779 3011.465576,2016.821045 3011.470215,2254.143311 
	C3011.470459,2261.476318 3011.312744,2268.814453 3011.543945,2276.140137 
	C3011.662109,2279.885010 3012.479980,2283.607666 3013.103271,2288.244629 
	C3027.484863,2288.244629 3040.740967,2288.240479 3053.997314,2288.245605 
	C3145.992920,2288.280518 3237.988770,2288.379639 3329.984131,2288.227295 
	C3336.946777,2288.215820 3344.550049,2290.553467 3350.771240,2285.791260 
	C3353.156006,2247.949951 3352.296631,2147.200195 3349.370605,2131.239258 
	C3346.474609,2130.552734 3343.316650,2129.537598 3340.079590,2129.078613 
	C3312.958496,2125.234619 3297.134521,2108.949951 3291.307373,2083.088379 
	C3288.703369,2071.532471 3287.813721,2059.371826 3287.798828,2047.483765 
	C3287.587646,1877.491943 3287.659180,1707.499756 3287.663330,1537.507690 
	C3287.663574,1534.174561 3287.603760,1530.839600 3287.688477,1527.508423 
	C3288.582764,1492.343750 3305.644775,1468.087402 3338.608643,1456.267578 
	C3364.244873,1447.074951 3390.739746,1445.995605 3417.497559,1449.976929 
	C3430.748291,1451.948730 3443.551270,1455.601074 3455.357178,1462.119385 
	C3476.518066,1473.802612 3489.900879,1491.140869 3492.823975,1515.516235 
	C3493.930664,1524.744995 3494.309326,1534.110962 3494.313477,1543.414795 
	C3494.398682,1734.739136 3494.382080,1926.063599 3494.385254,2117.387939 
	C3494.386230,2168.718994 3494.360596,2220.049805 3494.425537,2271.380859 
	C3494.431885,2276.488525 3494.987305,2281.595459 3495.343506,2287.642578 
	C3499.843506,2287.881836 3503.053467,2288.200195 3506.263672,2288.202148 
	C3612.258301,2288.272461 3718.253174,2288.329590 3824.247803,2288.286621 
	C3827.974121,2288.285156 3831.699707,2287.247070 3835.153320,2286.732910 
	C3837.071533,2260.528076 3836.408691,2146.455566 3834.256104,2131.476074 
	C3831.330566,2130.731934 3828.195557,2129.586914 3824.966309,2129.167480 
	C3796.665771,2125.493896 3781.178223,2108.203125 3775.670898,2081.474121 
	C3773.273926,2069.841064 3772.357910,2057.712402 3772.345947,2045.807129 
	C3772.148926,1850.483032 3772.176270,1655.158813 3772.250000,1459.834595 
	C3772.256592,1442.457275 3771.454346,1425.219482 3768.043213,1408.125122 
	C3758.278076,1359.189209 3734.716553,1318.642334 3695.247803,1287.693604 
	C3668.650635,1266.837524 3638.638672,1252.809692 3606.238037,1243.784668 
	C3542.954590,1226.157471 3478.702881,1223.758301 3414.046387,1233.523804 
	C3356.130615,1242.271240 3301.996094,1262.290649 3251.331299,1291.682007 
	C3246.821045,1294.298462 3242.234619,1296.783203 3238.123779,1299.082886 
	C3236.137939,1298.004517 3234.707520,1297.626709 3233.861328,1296.709961 
	C3205.727295,1266.239380 3170.089844,1249.411743 3130.583252,1239.340820 
	C3072.736084,1224.594604 3014.370117,1225.504883 2955.907715,1233.879272 
	C2900.602539,1241.801392 2848.741943,1260.219116 2800.163818,1287.856201 
	C2796.855469,1289.738403 2793.286133,1291.162231 2788.503418,1293.432739 
	C2785.935547,1276.318481 2789.448975,1260.342529 2785.798584,1243.654907 
	C2677.851562,1243.654907 2570.637695,1243.648071 2463.423828,1243.689087 
	C2460.257568,1243.690308 2457.091309,1244.195923 2454.214111,1244.441650 
	C2451.706787,1261.069458 2451.046631,1387.775879 2453.249512,1416.126831 
	C2454.548340,1417.222656 2456.627441,1418.889526 2458.611328,1420.662720 
	C2501.394775,1458.895142 2524.497314,1506.739990 2529.448730,1563.824341 
	C2533.412354,1609.517822 2523.380127,1651.100342 2495.585205,1688.008057 
	C2493.761230,1690.430054 2492.462891,1693.247803 2490.164062,1697.172363 
	C2497.423096,1699.535156 2503.353760,1698.767090 2509.118164,1698.772705 
	C2571.781982,1698.833984 2634.445801,1698.757568 2697.109131,1698.935181 
	C2702.777832,1698.951294 2709.131348,1696.794800 2715.191162,1702.886108 
	C2715.191162,1705.209717 2715.194824,1708.453613 2715.190918,1711.697388 
	C2715.032715,1849.676636 2714.874512,1987.655762 2714.696777,2125.635010 
	C2714.696045,2126.285400 2714.552734,2127.010986 2714.236328,2127.564453 
	C2713.921143,2128.116455 2713.303955,2128.495850 2711.244141,2130.429443 
	C2698.402832,2131.430176 2683.843262,2130.755615 2669.325439,2130.865479 
	C2655.326904,2130.971436 2641.326904,2130.895508 2627.327637,2130.896240 
	C2612.661621,2130.896729 2597.995850,2130.893066 2583.329834,2130.891846 
	C2568.663818,2130.890625 2553.997803,2130.888672 2539.331787,2130.889648 
	C2525.332520,2130.890625 2511.331543,2130.771729 2497.334229,2130.931641 
	C2482.862061,2131.097168 2468.326904,2130.163330 2453.275879,2131.678467 
	C2452.810791,2135.424561 2452.226562,2137.951904 2452.223145,2140.480225 
	C2452.161133,2185.811279 2452.161621,2231.142578 2452.182617,2276.473633 
	C2452.183838,2279.132080 2451.689209,2282.227295 2452.858643,2284.318115 
	C2453.897705,2286.177246 2456.928467,2286.922852 2462.909424,2288.226807 
M2063.917480,1790.037964 
	C2059.062744,1796.386108 2053.865479,1802.503784 2049.412354,1809.122192 
	C2030.705322,1836.923584 2020.411377,1867.620972 2020.585327,1901.179688 
	C2020.897949,1961.465820 2044.350586,2011.116089 2091.437256,2049.031738 
	C2125.033447,2076.084229 2164.139893,2090.162109 2206.497070,2096.055664 
	C2245.240234,2101.446533 2283.756592,2098.706787 2321.836914,2091.212891 
	C2367.432129,2082.240234 2409.963379,2065.498291 2447.180908,2036.844604 
	C2449.237061,2035.261719 2451.584717,2034.057495 2454.379639,2032.312988 
	C2462.750488,2040.291504 2471.414307,2047.654907 2478.972900,2056.017578 
	C2485.875488,2063.654297 2493.697510,2065.979736 2503.751709,2065.858154 
	C2548.405762,2065.317139 2593.067871,2065.458984 2637.726562,2065.223389 
	C2641.457031,2065.203613 2645.182373,2064.212891 2648.582275,2063.720703 
	C2651.668213,2036.503174 2650.848877,1978.351318 2647.085449,1964.462036 
	C2640.743652,1964.462036 2634.113037,1964.464844 2627.482178,1964.461304 
	C2618.149902,1964.456421 2608.804443,1964.733276 2599.492188,1964.299561 
	C2595.723877,1964.124146 2591.085938,1963.471802 2588.463867,1961.181396 
	C2577.541748,1951.641724 2565.947266,1942.699707 2556.083740,1930.696655 
	C2575.220459,1910.852173 2589.319092,1888.415161 2600.178467,1864.905884 
	C2617.103516,1862.425171 2633.085449,1865.773682 2648.342285,1862.668823 
	C2651.645752,1838.385376 2650.897949,1777.354492 2647.186035,1764.116577 
	C2644.073242,1763.922729 2640.782227,1763.534424 2637.491943,1763.540771 
	C2595.509277,1763.621216 2553.526611,1763.755249 2511.543945,1763.908691 
	C2510.915771,1763.910889 2510.240967,1764.248535 2509.675293,1764.578979 
	C2509.151367,1764.885132 2508.744141,1765.391846 2507.655762,1766.384644 
	C2500.570068,1795.310303 2494.048096,1825.362427 2471.277344,1848.136353 
	C2454.005859,1834.961304 2366.167969,1748.868042 2356.653076,1735.741455 
	C2362.270264,1732.243530 2367.843018,1728.775757 2373.413818,1725.304565 
	C2396.822266,1710.718384 2417.582520,1693.053589 2434.278809,1671.047363 
	C2470.754883,1622.971313 2474.639893,1570.651611 2451.297852,1516.358765 
	C2435.201172,1478.918335 2404.906006,1455.355835 2367.861816,1440.068848 
	C2330.076904,1424.475952 2290.544189,1421.025391 2250.162842,1423.432007 
	C2220.511963,1425.199097 2192.231201,1432.365112 2165.667480,1445.465088 
	C2114.392578,1470.751343 2082.370605,1511.098633 2073.720703,1568.142944 
	C2066.061768,1618.653931 2076.351318,1664.922729 2110.192627,1704.570557 
	C2115.811523,1711.153687 2121.973633,1717.270752 2127.777100,1723.700195 
	C2130.337402,1726.536743 2132.628418,1729.616455 2135.621338,1733.298706 
	C2108.822021,1748.381958 2085.367676,1765.714233 2063.917480,1790.037964 
M3851.932129,1869.972900 
	C3852.072510,1887.291992 3852.180420,1904.611450 3852.427490,1921.928955 
	C3852.443848,1923.059937 3853.526855,1924.175537 3854.118408,1925.295898 
	C3871.080322,1927.902100 3915.832764,1927.672241 3931.760742,1924.768921 
	C3932.275635,1918.478027 3932.805908,1911.995972 3933.445312,1904.181641 
	C3937.153076,1905.570312 3940.292969,1906.311279 3943.000732,1907.825439 
	C3988.116699,1933.050903 4036.394287,1941.901611 4087.602051,1936.312500 
	C4116.456543,1933.163208 4143.787109,1925.262085 4168.839844,1910.500122 
	C4197.836426,1893.414307 4219.266602,1869.576904 4232.357910,1838.272583 
	C4257.208496,1778.848511 4245.398926,1685.622803 4161.912598,1640.638062 
	C4144.804688,1631.419800 4126.511230,1625.400513 4107.898438,1620.083252 
	C4084.862061,1613.502319 4061.741943,1607.097534 4039.071533,1599.399170 
	C4027.213135,1595.372314 4015.716064,1589.600098 4004.990967,1583.078491 
	C3989.500732,1573.659180 3984.995361,1558.626953 3988.481201,1541.416748 
	C3991.686035,1525.592285 4001.804688,1515.483765 4017.402344,1511.695190 
	C4025.076904,1509.831177 4033.192871,1508.574707 4041.040771,1508.868896 
	C4061.958252,1509.652954 4081.823486,1515.095703 4100.031250,1525.657349 
	C4115.883301,1534.852783 4129.023438,1546.868042 4137.511230,1563.448364 
	C4138.990723,1566.337402 4140.701172,1569.107544 4142.130371,1571.624634 
	C4162.073730,1573.761963 4205.257324,1573.519531 4220.119141,1571.254761 
	C4222.716309,1556.921265 4222.107422,1442.926392 4219.100098,1427.207886 
	C4192.872070,1426.821655 4166.370117,1426.570068 4139.861328,1427.821411 
	C4138.819336,1427.870605 4137.845215,1429.357300 4136.883301,1430.138428 
	C4135.525879,1435.696289 4137.585449,1441.797241 4134.858398,1447.051392 
	C4132.656738,1446.693726 4131.208984,1446.819092 4130.154785,1446.234863 
	C4102.190430,1430.738403 4071.870361,1423.643311 4040.285889,1421.781738 
	C4004.449463,1419.669434 3969.825195,1425.229736 3937.332275,1441.086304 
	C3881.591309,1468.288208 3851.723145,1521.025269 3856.726562,1582.845703 
	C3860.115723,1624.720947 3878.534912,1657.963379 3914.257080,1680.610229 
	C3926.576172,1688.419922 3939.500488,1695.772705 3953.039062,1701.048706 
	C3975.319092,1709.731201 3998.268555,1716.725220 4021.043213,1724.099854 
	C4038.133301,1729.633789 4055.437744,1734.502441 4072.557861,1739.946899 
	C4082.845703,1743.218872 4092.035400,1748.537354 4099.594727,1756.418823 
	C4116.017090,1773.542114 4117.576660,1797.898315 4102.989258,1816.471191 
	C4091.751709,1830.778931 4076.945068,1839.175293 4058.635498,1840.444092 
	C4030.063232,1842.424072 4002.850342,1837.166260 3977.621582,1823.412109 
	C3955.132812,1811.151978 3938.686035,1793.498047 3930.989014,1768.516602 
	C3929.816650,1764.711548 3928.285889,1761.016968 3926.517090,1756.164062 
	C3902.278076,1756.318359 3877.909424,1754.800659 3854.132080,1757.142334 
	C3853.145996,1759.640869 3852.275391,1760.823486 3852.269775,1762.010254 
	C3852.104492,1796.666748 3852.025391,1831.323608 3851.932129,1869.972900 
M3899.872070,1408.322510 
	C3903.144043,1408.018555 3906.416260,1407.714600 3910.149902,1407.367676 
	C3936.331787,1362.313843 3962.433838,1317.441895 3988.406250,1272.494629 
	C3989.211426,1271.100830 3988.668701,1268.928101 3988.825684,1265.607300 
	C3957.726807,1266.005127 3927.337891,1264.869141 3897.137207,1265.758423 
	C3895.166748,1269.045166 3893.534912,1271.177368 3892.507324,1273.569092 
	C3874.639160,1315.156860 3856.815918,1356.764160 3839.103027,1398.418213 
	C3837.958496,1401.109497 3837.788574,1404.215088 3837.157471,1407.164673 
	C3839.699463,1407.666504 3840.998535,1408.140259 3842.300049,1408.147217 
	C3860.293457,1408.242798 3878.287354,1408.274414 3899.872070,1408.322510 
M4109.785645,1380.510254 
	C4126.362793,1370.617065 4135.190918,1355.619629 4138.402344,1336.956665 
	C4143.202637,1309.055664 4130.261230,1281.860840 4106.519531,1269.366699 
	C4087.173340,1259.185669 4050.959473,1257.333496 4028.488770,1280.184814 
	C4018.820801,1290.016602 4012.755615,1301.645996 4011.552002,1315.432861 
	C4010.976074,1322.029053 4010.815674,1328.766479 4011.449219,1335.345337 
	C4014.051758,1362.368042 4033.981689,1383.805298 4060.631104,1388.427124 
	C4076.777100,1391.227417 4092.479492,1389.986572 4109.785645,1380.510254 
z"/>
<path fill="#481B06" opacity="1.000000" stroke="none" 
	d="
M1635.867432,2267.462402 
	C1635.867798,2274.679932 1635.867798,2279.954590 1635.867798,2286.249512 
	C1632.186035,2287.031250 1629.145264,2288.238770 1626.103516,2288.241455 
	C1518.795044,2288.333984 1411.486328,2288.317627 1304.177734,2288.277344 
	C1302.243896,2288.276611 1300.310425,2287.798340 1297.180176,2287.384766 
	C1296.683960,2283.775635 1295.745117,2280.039307 1295.724854,2276.297852 
	C1295.591187,2251.637451 1295.655640,2226.976318 1295.654663,2202.315186 
	C1295.646851,1982.365479 1295.641235,1762.415894 1295.619507,1542.466187 
	C1295.618774,1535.803101 1295.857422,1529.105225 1295.289673,1522.483032 
	C1292.804688,1493.494263 1278.582153,1472.146729 1252.054199,1460.117920 
	C1241.875732,1455.502808 1230.726562,1452.410889 1219.695801,1450.416992 
	C1193.748169,1445.726318 1167.897827,1446.985229 1142.761475,1455.567749 
	C1107.765137,1467.516602 1089.879150,1491.762329 1088.453979,1528.730103 
	C1088.248657,1534.055542 1088.317017,1539.392700 1088.316895,1544.724487 
	C1088.310303,1710.020020 1088.260986,1875.315430 1088.413452,2040.610840 
	C1088.424561,2052.550049 1088.829590,2064.681152 1090.921021,2076.389404 
	C1096.746460,2109.000244 1111.706299,2123.399414 1144.231445,2129.644287 
	C1146.154663,2130.013672 1148.006104,2130.756836 1149.302979,2131.148438 
	C1150.303467,2131.998779 1150.918457,2132.334717 1151.247681,2132.852539 
	C1151.591553,2133.393311 1151.823975,2134.108398 1151.826050,2134.748047 
	C1151.985840,2183.387207 1152.131226,2232.026367 1152.201172,2280.665527 
	C1152.203857,2282.528320 1151.459229,2284.392090 1151.170532,2285.749268 
	C1150.212769,2286.677979 1149.801392,2287.267578 1149.236450,2287.570312 
	C1148.686523,2287.865234 1147.979736,2287.981689 1147.341919,2287.982178 
	C1013.378540,2288.100098 879.415161,2288.203613 745.451782,2288.269531 
	C743.475708,2288.270508 741.482971,2287.875244 739.533813,2287.485596 
	C738.995789,2287.378418 738.587158,2286.624023 738.146118,2286.192383 
	C735.984985,2270.671143 735.427673,2156.514648 737.477417,2131.778564 
	C742.309692,2130.819336 747.398743,2129.637939 752.545105,2128.815186 
	C787.670227,2123.198975 808.275146,2101.474365 811.610596,2066.166992 
	C812.173279,2060.210449 812.118958,2054.183350 812.123474,2048.188721 
	C812.261597,1864.231567 812.375732,1680.274536 812.467468,1496.317383 
	C812.470825,1489.655884 812.573120,1482.963257 812.009033,1476.337891 
	C809.331543,1444.890747 788.331848,1421.773071 757.335938,1415.955688 
	C750.859192,1414.740112 744.327759,1413.816406 738.143433,1412.810669 
	C735.932617,1396.610840 735.590637,1268.379272 737.670349,1245.186890 
	C740.413147,1244.711060 743.488464,1243.713623 746.564514,1243.711182 
	C851.207153,1243.626953 955.849854,1243.629761 1060.492554,1243.670410 
	C1063.651489,1243.671631 1066.810303,1244.213257 1071.228760,1244.618652 
	C1071.228760,1260.786499 1071.228760,1275.922241 1071.228760,1290.555542 
	C1078.651978,1294.043335 1082.479370,1288.968750 1086.656860,1286.639404 
	C1127.677856,1263.765381 1170.979614,1247.033691 1217.111938,1238.070190 
	C1277.838501,1226.271240 1338.774902,1223.662720 1399.796021,1235.856201 
	C1435.456909,1242.981934 1469.022461,1255.329346 1497.889771,1278.185791 
	C1506.177856,1284.748047 1513.705444,1292.270508 1521.520508,1299.297729 
	C1536.068726,1291.479370 1549.883301,1283.497803 1564.167603,1276.470947 
	C1645.107910,1236.653076 1730.399536,1221.367065 1820.246460,1230.776611 
	C1856.258911,1234.548096 1891.257324,1241.753418 1924.708740,1255.795776 
	C1943.213379,1263.563721 1960.646118,1273.237671 1976.600586,1285.471558 
	C2028.163452,1325.009888 2052.709229,1378.225830 2056.281494,1442.221558 
	C2056.650635,1448.833252 2054.256348,1453.683105 2050.599609,1458.623779 
	C2028.769653,1488.118164 2015.183228,1521.215088 2009.872925,1557.365601 
	C2003.990234,1597.412720 2004.909790,1637.315674 2020.269165,1675.433594 
	C2026.680420,1691.344727 2035.787354,1706.169556 2044.284058,1722.684448 
	C2042.496826,1724.257812 2039.617065,1726.764893 2036.767456,1729.305664 
	C1973.243286,1785.948486 1945.986206,1856.361328 1958.975098,1940.729736 
	C1972.577393,2029.083130 2022.745239,2091.056641 2101.349365,2131.306885 
	C2107.228516,2134.317383 2113.257324,2137.036133 2119.583984,2140.066650 
	C2119.583984,2189.039307 2119.583984,2237.465088 2119.583984,2285.395752 
	C2118.540283,2286.394775 2118.113037,2286.941650 2117.561035,2287.291748 
	C2117.038818,2287.623291 2116.386230,2287.937988 2115.790527,2287.938721 
	C2007.822021,2288.095459 1899.853638,2288.230225 1791.885132,2288.320068 
	C1788.603271,2288.322754 1785.315186,2287.896729 1782.044556,2287.537842 
	C1781.491455,2287.477051 1781.012573,2286.738525 1779.312866,2285.329590 
	C1779.163696,2278.530029 1778.841919,2270.676758 1778.840942,2262.823486 
	C1778.812256,2022.878296 1778.838379,1782.933228 1778.730469,1542.988037 
	C1778.726074,1533.038574 1778.172974,1522.992310 1776.726685,1513.160156 
	C1773.395508,1490.514282 1760.665039,1474.206543 1741.024658,1462.932495 
	C1728.693604,1455.854004 1715.279419,1452.045166 1701.381714,1449.973145 
	C1675.324585,1446.088257 1649.503906,1447.103516 1624.432007,1455.814941 
	C1590.155518,1467.724487 1572.766602,1491.805176 1571.930664,1527.878418 
	C1571.760864,1535.206543 1571.869141,1542.541260 1571.869019,1549.872925 
	C1571.866577,1714.501953 1571.812744,1879.130859 1571.979736,2043.759766 
	C1571.991821,2055.682373 1572.433472,2067.835693 1574.721924,2079.479248 
	C1580.293457,2107.825684 1596.575195,2125.986328 1626.589600,2129.507324 
	C1629.161621,2129.809082 1631.640869,2130.901855 1634.957031,2131.855225 
	C1636.864624,2154.520020 1635.583130,2177.049316 1635.816895,2199.530273 
	C1636.045532,2221.524414 1635.866943,2243.522949 1635.867432,2267.462402 
z"/>
<path fill="#481B06" opacity="1.000000" stroke="none" 
	d="
M2460.994873,2288.193359 
	C2456.928467,2286.922852 2453.897705,2286.177246 2452.858643,2284.318115 
	C2451.689209,2282.227295 2452.183838,2279.132080 2452.182617,2276.473633 
	C2452.161621,2231.142578 2452.161133,2185.811279 2452.223145,2140.480225 
	C2452.226562,2137.951904 2452.810791,2135.424561 2453.275879,2131.678467 
	C2468.326904,2130.163330 2482.862061,2131.097168 2497.334229,2130.931641 
	C2511.331543,2130.771729 2525.332520,2130.890625 2539.331787,2130.889648 
	C2553.997803,2130.888672 2568.663818,2130.890625 2583.329834,2130.891846 
	C2597.995850,2130.893066 2612.661621,2130.896729 2627.327637,2130.896240 
	C2641.326904,2130.895508 2655.326904,2130.971436 2669.325439,2130.865479 
	C2683.843262,2130.755615 2698.402832,2131.430176 2711.244141,2130.429443 
	C2713.303955,2128.495850 2713.921143,2128.116455 2714.236328,2127.564453 
	C2714.552734,2127.010986 2714.696045,2126.285400 2714.696777,2125.635010 
	C2714.874512,1987.655762 2715.032715,1849.676636 2715.190918,1711.697388 
	C2715.194824,1708.453613 2715.191162,1705.209717 2715.191162,1702.886108 
	C2709.131348,1696.794800 2702.777832,1698.951294 2697.109131,1698.935181 
	C2634.445801,1698.757568 2571.781982,1698.833984 2509.118164,1698.772705 
	C2503.353760,1698.767090 2497.423096,1699.535156 2490.164062,1697.172363 
	C2492.462891,1693.247803 2493.761230,1690.430054 2495.585205,1688.008057 
	C2523.380127,1651.100342 2533.412354,1609.517822 2529.448730,1563.824341 
	C2524.497314,1506.739990 2501.394775,1458.895142 2458.611328,1420.662720 
	C2456.627441,1418.889526 2454.548340,1417.222656 2453.249512,1416.126831 
	C2451.046631,1387.775879 2451.706787,1261.069458 2454.214111,1244.441650 
	C2457.091309,1244.195923 2460.257568,1243.690308 2463.423828,1243.689087 
	C2570.637695,1243.648071 2677.851562,1243.654907 2785.798584,1243.654907 
	C2789.448975,1260.342529 2785.935547,1276.318481 2788.503418,1293.432739 
	C2793.286133,1291.162231 2796.855469,1289.738403 2800.163818,1287.856201 
	C2848.741943,1260.219116 2900.602539,1241.801392 2955.907715,1233.879272 
	C3014.370117,1225.504883 3072.736084,1224.594604 3130.583252,1239.340820 
	C3170.089844,1249.411743 3205.727295,1266.239380 3233.861328,1296.709961 
	C3234.707520,1297.626709 3236.137939,1298.004517 3238.123779,1299.082886 
	C3242.234619,1296.783203 3246.821045,1294.298462 3251.331299,1291.682007 
	C3301.996094,1262.290649 3356.130615,1242.271240 3414.046387,1233.523804 
	C3478.702881,1223.758301 3542.954590,1226.157471 3606.238037,1243.784668 
	C3638.638672,1252.809692 3668.650635,1266.837524 3695.247803,1287.693604 
	C3734.716553,1318.642334 3758.278076,1359.189209 3768.043213,1408.125122 
	C3771.454346,1425.219482 3772.256592,1442.457275 3772.250000,1459.834595 
	C3772.176270,1655.158813 3772.148926,1850.483032 3772.345947,2045.807129 
	C3772.357910,2057.712402 3773.273926,2069.841064 3775.670898,2081.474121 
	C3781.178223,2108.203125 3796.665771,2125.493896 3824.966309,2129.167480 
	C3828.195557,2129.586914 3831.330566,2130.731934 3834.256104,2131.476074 
	C3836.408691,2146.455566 3837.071533,2260.528076 3835.153320,2286.732910 
	C3831.699707,2287.247070 3827.974121,2288.285156 3824.247803,2288.286621 
	C3718.253174,2288.329590 3612.258301,2288.272461 3506.263672,2288.202148 
	C3503.053467,2288.200195 3499.843506,2287.881836 3495.343506,2287.642578 
	C3494.987305,2281.595459 3494.431885,2276.488525 3494.425537,2271.380859 
	C3494.360596,2220.049805 3494.386230,2168.718994 3494.385254,2117.387939 
	C3494.382080,1926.063599 3494.398682,1734.739136 3494.313477,1543.414795 
	C3494.309326,1534.110962 3493.930664,1524.744995 3492.823975,1515.516235 
	C3489.900879,1491.140869 3476.518066,1473.802612 3455.357178,1462.119385 
	C3443.551270,1455.601074 3430.748291,1451.948730 3417.497559,1449.976929 
	C3390.739746,1445.995605 3364.244873,1447.074951 3338.608643,1456.267578 
	C3305.644775,1468.087402 3288.582764,1492.343750 3287.688477,1527.508423 
	C3287.603760,1530.839600 3287.663574,1534.174561 3287.663330,1537.507690 
	C3287.659180,1707.499756 3287.587646,1877.491943 3287.798828,2047.483765 
	C3287.813721,2059.371826 3288.703369,2071.532471 3291.307373,2083.088379 
	C3297.134521,2108.949951 3312.958496,2125.234619 3340.079590,2129.078613 
	C3343.316650,2129.537598 3346.474609,2130.552734 3349.370605,2131.239258 
	C3352.296631,2147.200195 3353.156006,2247.949951 3350.771240,2285.791260 
	C3344.550049,2290.553467 3336.946777,2288.215820 3329.984131,2288.227295 
	C3237.988770,2288.379639 3145.992920,2288.280518 3053.997314,2288.245605 
	C3040.740967,2288.240479 3027.484863,2288.244629 3013.103271,2288.244629 
	C3012.479980,2283.607666 3011.662109,2279.885010 3011.543945,2276.140137 
	C3011.312744,2268.814453 3011.470459,2261.476318 3011.470215,2254.143311 
	C3011.465576,2016.821045 3011.478760,1779.498779 3011.391113,1542.176514 
	C3011.387695,1532.882568 3011.182129,1523.469727 3009.753906,1514.317871 
	C3005.739502,1488.598511 2991.064697,1470.401245 2967.552734,1459.985718 
	C2957.320557,1455.453125 2946.215088,1452.253174 2935.178467,1450.304443 
	C2909.226562,1445.722168 2883.388672,1446.960693 2858.240479,1455.587158 
	C2823.390869,1467.541504 2805.210449,1492.300293 2804.258789,1528.930908 
	C2804.085693,1535.593140 2804.188477,1542.262939 2804.188477,1548.929199 
	C2804.184570,1714.254883 2804.119629,1879.580566 2804.317383,2044.906006 
	C2804.331787,2056.814453 2805.147949,2068.950439 2807.533691,2080.582275 
	C2813.182617,2108.124512 2829.293945,2125.666992 2858.333740,2129.284668 
	C2860.308105,2129.531006 2862.256348,2130.055176 2864.183350,2130.573242 
	C2864.788574,2130.735840 2865.285156,2131.302002 2865.831543,2131.683594 
	C2866.304199,2132.117920 2866.901855,2132.477783 2867.214844,2133.006592 
	C2867.541992,2133.558838 2867.743896,2134.273438 2867.746094,2134.917725 
	C2867.907959,2180.902344 2868.058594,2226.887207 2868.156982,2272.871826 
	C2868.165527,2276.860596 2867.862061,2280.853027 2867.577393,2284.834717 
	C2867.540771,2285.347656 2866.738037,2285.805664 2866.290039,2286.289062 
	C2865.810059,2286.741455 2865.397949,2287.338623 2864.830566,2287.605957 
	C2864.255615,2287.876709 2863.530029,2287.849121 2862.866455,2287.904053 
	C2861.540283,2288.013916 2860.211670,2288.157227 2858.883301,2288.168701 
	C2854.217041,2288.208984 2849.550537,2288.206787 2844.884033,2288.207031 
	C2717.559082,2288.214600 2590.234375,2288.220703 2460.994873,2288.193359 
z"/>
<path fill="#491C07" opacity="1.000000" stroke="none" 
	d="
M2064.853271,1788.968750 
	C2085.367676,1765.714233 2108.822021,1748.381958 2135.621338,1733.298706 
	C2132.628418,1729.616455 2130.337402,1726.536743 2127.777100,1723.700195 
	C2121.973633,1717.270752 2115.811523,1711.153687 2110.192627,1704.570557 
	C2076.351318,1664.922729 2066.061768,1618.653931 2073.720703,1568.142944 
	C2082.370605,1511.098633 2114.392578,1470.751343 2165.667480,1445.465088 
	C2192.231201,1432.365112 2220.511963,1425.199097 2250.162842,1423.432007 
	C2290.544189,1421.025391 2330.076904,1424.475952 2367.861816,1440.068848 
	C2404.906006,1455.355835 2435.201172,1478.918335 2451.297852,1516.358765 
	C2474.639893,1570.651611 2470.754883,1622.971313 2434.278809,1671.047363 
	C2417.582520,1693.053589 2396.822266,1710.718384 2373.413818,1725.304565 
	C2367.843018,1728.775757 2362.270264,1732.243530 2356.653076,1735.741455 
	C2366.167969,1748.868042 2454.005859,1834.961304 2471.277344,1848.136353 
	C2494.048096,1825.362427 2500.570068,1795.310303 2507.655762,1766.384644 
	C2508.744141,1765.391846 2509.151367,1764.885132 2509.675293,1764.578979 
	C2510.240967,1764.248535 2510.915771,1763.910889 2511.543945,1763.908691 
	C2553.526611,1763.755249 2595.509277,1763.621216 2637.491943,1763.540771 
	C2640.782227,1763.534424 2644.073242,1763.922729 2647.186035,1764.116577 
	C2650.897949,1777.354492 2651.645752,1838.385376 2648.342285,1862.668823 
	C2633.085449,1865.773682 2617.103516,1862.425171 2600.178467,1864.905884 
	C2589.319092,1888.415161 2575.220459,1910.852173 2556.083740,1930.696655 
	C2565.947266,1942.699707 2577.541748,1951.641724 2588.463867,1961.181396 
	C2591.085938,1963.471802 2595.723877,1964.124146 2599.492188,1964.299561 
	C2608.804443,1964.733276 2618.149902,1964.456421 2627.482178,1964.461304 
	C2634.113037,1964.464844 2640.743652,1964.462036 2647.085449,1964.462036 
	C2650.848877,1978.351318 2651.668213,2036.503174 2648.582275,2063.720703 
	C2645.182373,2064.212891 2641.457031,2065.203613 2637.726562,2065.223389 
	C2593.067871,2065.458984 2548.405762,2065.317139 2503.751709,2065.858154 
	C2493.697510,2065.979736 2485.875488,2063.654297 2478.972900,2056.017578 
	C2471.414307,2047.654907 2462.750488,2040.291504 2454.379639,2032.312988 
	C2451.584717,2034.057495 2449.237061,2035.261719 2447.180908,2036.844604 
	C2409.963379,2065.498291 2367.432129,2082.240234 2321.836914,2091.212891 
	C2283.756592,2098.706787 2245.240234,2101.446533 2206.497070,2096.055664 
	C2164.139893,2090.162109 2125.033447,2076.084229 2091.437256,2049.031738 
	C2044.350586,2011.116089 2020.897949,1961.465820 2020.585327,1901.179688 
	C2020.411377,1867.620972 2030.705322,1836.923584 2049.412354,1809.122192 
	C2053.865479,1802.503784 2059.062744,1796.386108 2064.853271,1788.968750 
M2176.042480,1855.033813 
	C2174.358398,1859.368774 2172.425049,1863.625000 2171.029297,1868.050781 
	C2159.480469,1904.667969 2171.885498,1941.490967 2203.650879,1962.784668 
	C2211.835205,1968.270874 2221.019775,1972.982178 2230.418213,1975.817627 
	C2273.832031,1988.915161 2314.622559,1980.973145 2353.138916,1958.479248 
	C2356.881348,1956.293701 2359.992920,1953.028442 2364.313232,1949.520752 
	C2315.072510,1902.917236 2266.762207,1857.194336 2218.225098,1811.256714 
	C2199.776611,1821.123901 2187.188477,1835.313477 2176.042480,1855.033813 
M2208.091797,1581.301636 
	C2208.028076,1590.316895 2211.761719,1598.090332 2216.210938,1605.569946 
	C2227.307861,1624.224609 2252.742432,1648.450439 2273.957275,1660.439209 
	C2291.104248,1652.235474 2306.863037,1641.331299 2319.328613,1626.307251 
	C2324.777344,1619.740479 2329.688721,1612.324341 2333.081543,1604.527100 
	C2346.253174,1574.258301 2334.484131,1543.212036 2304.863281,1529.023071 
	C2285.324707,1519.663696 2265.043457,1518.742554 2244.729004,1525.976562 
	C2227.357422,1532.162720 2215.533447,1544.136841 2210.918945,1562.378052 
	C2209.623291,1567.500488 2209.019775,1572.797974 2208.091797,1581.301636 
z"/>
<path fill="#491D08" opacity="1.000000" stroke="none" 
	d="
M3851.932129,1867.976685 
	C3852.025391,1831.323608 3852.104492,1796.666748 3852.269775,1762.010254 
	C3852.275391,1760.823486 3853.145996,1759.640869 3854.132080,1757.142334 
	C3877.909424,1754.800659 3902.278076,1756.318359 3926.517090,1756.164062 
	C3928.285889,1761.016968 3929.816650,1764.711548 3930.989014,1768.516602 
	C3938.686035,1793.498047 3955.132812,1811.151978 3977.621582,1823.412109 
	C4002.850342,1837.166260 4030.063232,1842.424072 4058.635498,1840.444092 
	C4076.945068,1839.175293 4091.751709,1830.778931 4102.989258,1816.471191 
	C4117.576660,1797.898315 4116.017090,1773.542114 4099.594727,1756.418823 
	C4092.035400,1748.537354 4082.845703,1743.218872 4072.557861,1739.946899 
	C4055.437744,1734.502441 4038.133301,1729.633789 4021.043213,1724.099854 
	C3998.268555,1716.725220 3975.319092,1709.731201 3953.039062,1701.048706 
	C3939.500488,1695.772705 3926.576172,1688.419922 3914.257080,1680.610229 
	C3878.534912,1657.963379 3860.115723,1624.720947 3856.726562,1582.845703 
	C3851.723145,1521.025269 3881.591309,1468.288208 3937.332275,1441.086304 
	C3969.825195,1425.229736 4004.449463,1419.669434 4040.285889,1421.781738 
	C4071.870361,1423.643311 4102.190430,1430.738403 4130.154785,1446.234863 
	C4131.208984,1446.819092 4132.656738,1446.693726 4134.858398,1447.051392 
	C4137.585449,1441.797241 4135.525879,1435.696289 4136.883301,1430.138428 
	C4137.845215,1429.357300 4138.819336,1427.870605 4139.861328,1427.821411 
	C4166.370117,1426.570068 4192.872070,1426.821655 4219.100098,1427.207886 
	C4222.107422,1442.926392 4222.716309,1556.921265 4220.119141,1571.254761 
	C4205.257324,1573.519531 4162.073730,1573.761963 4142.130371,1571.624634 
	C4140.701172,1569.107544 4138.990723,1566.337402 4137.511230,1563.448364 
	C4129.023438,1546.868042 4115.883301,1534.852783 4100.031250,1525.657349 
	C4081.823486,1515.095703 4061.958252,1509.652954 4041.040771,1508.868896 
	C4033.192871,1508.574707 4025.076904,1509.831177 4017.402344,1511.695190 
	C4001.804688,1515.483765 3991.686035,1525.592285 3988.481201,1541.416748 
	C3984.995361,1558.626953 3989.500732,1573.659180 4004.990967,1583.078491 
	C4015.716064,1589.600098 4027.213135,1595.372314 4039.071533,1599.399170 
	C4061.741943,1607.097534 4084.862061,1613.502319 4107.898438,1620.083252 
	C4126.511230,1625.400513 4144.804688,1631.419800 4161.912598,1640.638062 
	C4245.398926,1685.622803 4257.208496,1778.848511 4232.357910,1838.272583 
	C4219.266602,1869.576904 4197.836426,1893.414307 4168.839844,1910.500122 
	C4143.787109,1925.262085 4116.456543,1933.163208 4087.602051,1936.312500 
	C4036.394287,1941.901611 3988.116699,1933.050903 3943.000732,1907.825439 
	C3940.292969,1906.311279 3937.153076,1905.570312 3933.445312,1904.181641 
	C3932.805908,1911.995972 3932.275635,1918.478027 3931.760742,1924.768921 
	C3915.832764,1927.672241 3871.080322,1927.902100 3854.116211,1925.297119 
	C3853.526855,1924.175537 3852.443848,1923.059937 3852.427490,1921.928955 
	C3852.180420,1904.611450 3852.072510,1887.291992 3851.932129,1867.976685 
z"/>
<path fill="#4D210D" opacity="1.000000" stroke="none" 
	d="
M3898.076660,1408.322021 
	C3878.287354,1408.274414 3860.293457,1408.242798 3842.300049,1408.147217 
	C3840.998535,1408.140259 3839.699463,1407.666504 3837.157471,1407.164673 
	C3837.788574,1404.215088 3837.958496,1401.109497 3839.103027,1398.418213 
	C3856.815918,1356.764160 3874.639160,1315.156860 3892.507324,1273.569092 
	C3893.534912,1271.177368 3895.166748,1269.045166 3897.137207,1265.758423 
	C3927.337891,1264.869141 3957.726807,1266.005127 3988.825684,1265.607300 
	C3988.668701,1268.928101 3989.211426,1271.100830 3988.406250,1272.494629 
	C3962.433838,1317.441895 3936.331787,1362.313843 3910.149902,1407.367676 
	C3906.416260,1407.714600 3903.144043,1408.018555 3898.076660,1408.322021 
z"/>
<path fill="#532B17" opacity="1.000000" stroke="none" 
	d="
M4108.493164,1381.266357 
	C4092.479492,1389.986572 4076.777100,1391.227417 4060.631104,1388.427124 
	C4033.981689,1383.805298 4014.051758,1362.368042 4011.449219,1335.345337 
	C4010.815674,1328.766479 4010.976074,1322.029053 4011.552002,1315.432861 
	C4012.755615,1301.645996 4018.820801,1290.016602 4028.488770,1280.184814 
	C4050.959473,1257.333496 4087.173340,1259.185669 4106.519531,1269.366699 
	C4130.261230,1281.860840 4143.202637,1309.055664 4138.402344,1336.956665 
	C4135.190918,1355.619629 4126.362793,1370.617065 4108.493164,1381.266357 
M4046.971680,1364.599121 
	C4064.479736,1377.564575 4082.371582,1378.458008 4100.564941,1366.134033 
	C4102.604980,1364.751953 4104.815918,1362.807861 4105.180176,1361.049683 
	C4121.419922,1346.969238 4122.854492,1328.943237 4117.569336,1309.971680 
	C4112.940918,1293.356201 4101.693848,1282.362793 4084.516846,1278.649658 
	C4068.469482,1275.180786 4054.248779,1278.526367 4040.862305,1293.082764 
	C4024.102051,1319.287476 4025.429688,1341.068604 4046.971680,1364.599121 
z"/>
<path fill="#FBFBFA" opacity="1.000000" stroke="none" 
	d="
M2176.698486,1853.656982 
	C2187.188477,1835.313477 2199.776611,1821.123901 2218.225098,1811.256714 
	C2266.762207,1857.194336 2315.072510,1902.917236 2364.313232,1949.520752 
	C2359.992920,1953.028442 2356.881348,1956.293701 2353.138916,1958.479248 
	C2314.622559,1980.973145 2273.832031,1988.915161 2230.418213,1975.817627 
	C2221.019775,1972.982178 2211.835205,1968.270874 2203.650879,1962.784668 
	C2171.885498,1941.490967 2159.480469,1904.667969 2171.029297,1868.050781 
	C2172.425049,1863.625000 2174.358398,1859.368774 2176.698486,1853.656982 
z"/>
<path fill="#FAF9F9" opacity="1.000000" stroke="none" 
	d="
M2208.095215,1579.658447 
	C2209.019775,1572.797974 2209.623291,1567.500488 2210.918945,1562.378052 
	C2215.533447,1544.136841 2227.357422,1532.162720 2244.729004,1525.976562 
	C2265.043457,1518.742554 2285.324707,1519.663696 2304.863281,1529.023071 
	C2334.484131,1543.212036 2346.253174,1574.258301 2333.081543,1604.527100 
	C2329.688721,1612.324341 2324.777344,1619.740479 2319.328613,1626.307251 
	C2306.863037,1641.331299 2291.104248,1652.235474 2273.957275,1660.439209 
	C2252.742432,1648.450439 2227.307861,1624.224609 2216.210938,1605.569946 
	C2211.761719,1598.090332 2208.028076,1590.316895 2208.095215,1579.658447 
z"/>
<path fill="#EBE7E4" opacity="1.000000" stroke="none" 
	d="
M4043.337646,1291.740601 
	C4054.248779,1278.526367 4068.469482,1275.180786 4084.516846,1278.649658 
	C4101.693848,1282.362793 4112.940918,1293.356201 4117.569336,1309.971680 
	C4122.854492,1328.943237 4121.419922,1346.969238 4103.759766,1360.553955 
	C4102.338867,1360.058228 4102.149902,1360.181519 4102.298340,1358.666260 
	C4098.103027,1349.041626 4093.759521,1340.932007 4089.614014,1333.192139 
	C4090.927490,1331.402954 4091.461914,1329.879517 4092.482910,1329.406860 
	C4102.806152,1324.626587 4105.011719,1316.238281 4102.625488,1306.148804 
	C4100.500977,1297.166626 4093.603027,1292.380493 4081.124756,1291.915039 
	C4070.506348,1291.519043 4059.845947,1292.249878 4047.737549,1292.296509 
	C4045.293457,1291.987549 4044.315674,1291.864136 4043.337646,1291.740601 
z"/>
<path fill="#EFEBE8" opacity="1.000000" stroke="none" 
	d="
M4102.149902,1360.181519 
	C4102.149902,1360.181519 4102.338867,1360.058228 4102.210938,1360.011719 
	C4104.815918,1362.807861 4102.604980,1364.751953 4100.564941,1366.134033 
	C4082.371582,1378.458008 4064.479736,1377.564575 4047.018066,1362.681396 
	C4047.705078,1360.194580 4048.346191,1359.625488 4050.616699,1359.453369 
	C4056.088867,1360.284180 4060.048096,1361.361206 4063.122314,1358.001953 
	C4066.409424,1349.978271 4062.112305,1340.967529 4066.758545,1331.802734 
	C4079.057373,1337.805176 4078.816406,1352.585693 4089.529541,1360.181519 
	C4092.929443,1360.181519 4097.539551,1360.181519 4102.149902,1360.181519 
z"/>
<path fill="#EFEBE8" opacity="1.000000" stroke="none" 
	d="
M4042.100098,1292.411621 
	C4044.315674,1291.864136 4045.293457,1291.987549 4047.737305,1294.133789 
	C4049.131348,1317.123291 4049.059082,1338.089966 4048.987061,1359.056519 
	C4048.346191,1359.625488 4047.705078,1360.194580 4046.076172,1361.586426 
	C4025.429688,1341.068604 4024.102051,1319.287476 4042.100098,1292.411621 
z"/>
<path fill="#58311E" opacity="1.000000" stroke="none" 
	d="
M4050.616699,1359.453369 
	C4049.059082,1338.089966 4049.131348,1317.123291 4049.203857,1294.319458 
	C4059.845947,1292.249878 4070.506348,1291.519043 4081.124756,1291.915039 
	C4093.603027,1292.380493 4100.500977,1297.166626 4102.625488,1306.148804 
	C4105.011719,1316.238281 4102.806152,1324.626587 4092.482910,1329.406860 
	C4091.461914,1329.879517 4090.927490,1331.402954 4089.614014,1333.192139 
	C4093.759521,1340.932007 4098.103027,1349.041626 4102.298340,1358.666260 
	C4097.539551,1360.181519 4092.929443,1360.181519 4089.529541,1360.181519 
	C4078.816406,1352.585693 4079.057373,1337.805176 4066.758545,1331.802734 
	C4062.112305,1340.967529 4066.409424,1349.978271 4063.122314,1358.001953 
	C4060.048096,1361.361206 4056.088867,1360.284180 4050.616699,1359.453369 
M4073.457031,1303.559204 
	C4063.159180,1305.448242 4063.106689,1305.496826 4066.771484,1319.354492 
	C4071.610107,1319.125488 4076.856445,1319.497803 4081.817139,1318.479248 
	C4087.532471,1317.305786 4088.821777,1309.966797 4084.066162,1306.125977 
	C4082.188965,1304.609619 4079.213379,1304.452881 4073.457031,1303.559204 
z"/>
<path fill="#E8E1DD" opacity="1.000000" stroke="none" 
	d="
M4075.097656,1303.618164 
	C4079.213379,1304.452881 4082.188965,1304.609619 4084.066162,1306.125977 
	C4088.821777,1309.966797 4087.532471,1317.305786 4081.817139,1318.479248 
	C4076.856445,1319.497803 4071.610107,1319.125488 4066.771484,1319.354492 
	C4063.106689,1305.496826 4063.159180,1305.448242 4075.097656,1303.618164 
z"/>
</pattern>
</svg>