<svg version="1.1" xmlns="http://www.w3.org/2000/svg" x="0px" y="0px" viewBox="0 0 0 0" width="0" height="0">
	 <pattern
        id="reeses"
        patternUnits="userSpaceOnUse"
        width="300"
        height="120"
        patternTransform="scale(0.3),translate(-100,0)"
      >
<path fill="#F84D08" opacity="1.000000" stroke="none" 
	d="
M330.000000,153.000000 
	C220.392593,153.000000 110.785179,153.000000 1.088882,153.000000 
	C1.088882,102.420105 1.088882,51.839996 1.088882,1.000000 
	C110.354088,1.000000 219.708389,1.000000 329.655701,1.175758 
	C330.428070,1.577261 330.630035,1.780589 330.915466,2.429111 
	C330.994232,31.662537 331.038757,60.428364 331.021027,89.194153 
	C331.008118,110.142303 330.912994,131.090393 330.694611,152.182617 
	C330.331543,152.531372 330.153320,152.755798 330.000000,153.000000 
M24.985966,75.477493 
	C21.803982,84.007141 18.211832,92.413231 15.591517,101.112068 
	C13.980674,106.459686 15.307571,111.949059 20.350767,115.321129 
	C25.376307,118.681404 31.024792,117.917343 35.289131,114.349312 
	C40.044106,110.370789 43.953453,105.314346 47.888618,100.450195 
	C50.021221,97.814140 51.441299,94.601646 53.182793,91.649178 
	C53.800152,93.395302 53.534031,94.778275 53.284863,96.164291 
	C51.183304,107.854370 58.335461,117.180550 70.204536,116.679344 
	C76.306190,116.421684 82.284569,113.566414 88.354935,112.028107 
	C89.946854,111.624687 92.113342,111.041283 93.270409,111.752853 
	C103.353310,117.953651 113.624420,117.025253 123.950325,112.854950 
	C128.080154,111.187057 131.956894,108.892525 136.223297,106.745102 
	C142.351822,114.179260 150.467712,117.089233 159.766418,115.833870 
	C164.637802,115.176208 169.311691,113.122963 174.113495,111.845558 
	C175.745239,111.411491 177.890350,110.683022 179.131134,111.344795 
	C192.713455,118.588982 205.538986,118.219421 216.819885,108.613503 
	C221.577072,110.958572 225.656189,113.643372 230.136993,115.031654 
	C238.341202,117.573563 246.323654,115.508690 253.855621,111.963013 
	C256.645386,110.649742 258.693420,110.968620 261.629944,111.942032 
	C267.661865,113.941490 274.159790,116.023529 280.360992,115.743996 
	C298.751312,114.915009 308.200043,97.784111 300.020203,81.346581 
	C299.184784,79.667732 298.289642,78.018585 297.422211,76.355667 
	C297.656403,76.145630 297.890564,75.935593 298.124756,75.725563 
	C300.229126,77.124825 302.333527,78.524086 304.637451,80.056023 
	C306.782684,77.179993 308.785797,74.536278 310.744720,71.860168 
	C316.306152,64.262657 316.094116,62.702045 307.794861,57.988731 
	C304.974304,56.386848 301.629944,55.642452 298.456268,54.750565 
	C296.436035,54.182838 294.289520,54.064556 292.036499,53.719780 
	C292.310516,50.759132 292.549530,48.176582 292.791138,45.565960 
	C284.722748,45.565960 277.027557,45.565960 269.755737,45.565960 
	C268.239807,49.862247 266.947937,53.523560 265.561462,57.452957 
	C253.244904,52.185394 242.778122,55.587414 232.910751,61.935188 
	C219.423920,50.555550 203.021301,52.620213 191.392960,64.716393 
	C186.086487,56.018417 177.959595,53.758484 168.551834,55.235100 
	C159.417160,56.668854 152.053024,61.737812 145.175781,68.367630 
	C139.168610,54.080303 127.807846,53.549702 114.639343,56.264038 
	C118.858170,49.078747 121.208389,42.560650 119.758881,35.303753 
	C117.394821,23.468239 105.281601,16.457151 90.915283,18.245768 
	C80.129898,19.588556 70.955162,24.363634 62.545174,30.897528 
	C47.062458,42.926376 35.010292,57.877102 24.985966,75.477493 
z"/>
<path fill="#F89D88" opacity="1.000000" stroke="none" 
	d="
M330.854553,152.038513 
	C330.912994,131.090393 331.008118,110.142303 331.021027,89.194153 
	C331.038757,60.428364 330.994232,31.662537 330.968018,2.191179 
	C330.959595,1.485634 331.000000,1.000000 331.000000,0.999998 
	C331.333344,2.333329 331.956787,3.666370 331.958130,5.000038 
	C332.007843,54.333324 332.000000,103.666664 331.479797,152.757187 
	C330.959595,152.514374 330.854553,152.038513 330.854553,152.038513 
z"/>
<path fill="#F84601" opacity="1.000000" stroke="none" 
	d="
M330.750000,1.000000 
	C331.000000,1.000000 330.959595,1.485634 330.907074,1.723566 
	C330.630035,1.780589 330.428070,1.577261 330.124359,1.175758 
	C330.000000,1.000000 330.500000,1.000000 330.750000,1.000000 
z"/>
<path fill="#F84601" opacity="1.000000" stroke="none" 
	d="
M330.694611,152.182617 
	C330.854553,152.038513 330.959595,152.514374 330.979797,152.757187 
	C331.000000,153.000000 330.500000,153.000000 330.250000,153.000000 
	C330.153320,152.755798 330.331543,152.531372 330.694611,152.182617 
z"/>
<path fill="#581B02" opacity="1.000000" stroke="none" 
	d="
M25.155273,75.151512 
	C35.010292,57.877102 47.062458,42.926376 62.545174,30.897528 
	C70.955162,24.363634 80.129898,19.588556 90.915283,18.245768 
	C105.281601,16.457151 117.394821,23.468239 119.758881,35.303753 
	C121.208389,42.560650 118.858170,49.078747 114.639343,56.264038 
	C127.807846,53.549702 139.168610,54.080303 145.175781,68.367630 
	C152.053024,61.737812 159.417160,56.668854 168.551834,55.235100 
	C177.959595,53.758484 186.086487,56.018417 191.392960,64.716393 
	C203.021301,52.620213 219.423920,50.555550 232.910751,61.935188 
	C242.778122,55.587414 253.244904,52.185394 265.561462,57.452957 
	C266.947937,53.523560 268.239807,49.862247 269.755737,45.565960 
	C277.027557,45.565960 284.722748,45.565960 292.791138,45.565960 
	C292.549530,48.176582 292.310516,50.759132 292.036499,53.719780 
	C294.289520,54.064556 296.436035,54.182838 298.456268,54.750565 
	C301.629944,55.642452 304.974304,56.386848 307.794861,57.988731 
	C316.094116,62.702045 316.306152,64.262657 310.744720,71.860168 
	C308.785797,74.536278 306.782684,77.179993 304.637451,80.056023 
	C302.333527,78.524086 300.229126,77.124825 298.124756,75.725563 
	C297.890564,75.935593 297.656403,76.145630 297.422211,76.355667 
	C298.289642,78.018585 299.184784,79.667732 300.020203,81.346581 
	C308.200043,97.784111 298.751312,114.915009 280.360992,115.743996 
	C274.159790,116.023529 267.661865,113.941490 261.629944,111.942032 
	C258.693420,110.968620 256.645386,110.649742 253.855621,111.963013 
	C246.323654,115.508690 238.341202,117.573563 230.136993,115.031654 
	C225.656189,113.643372 221.577072,110.958572 216.819885,108.613503 
	C205.538986,118.219421 192.713455,118.588982 179.131134,111.344795 
	C177.890350,110.683022 175.745239,111.411491 174.113495,111.845558 
	C169.311691,113.122963 164.637802,115.176208 159.766418,115.833870 
	C150.467712,117.089233 142.351822,114.179260 136.223297,106.745102 
	C131.956894,108.892525 128.080154,111.187057 123.950325,112.854950 
	C113.624420,117.025253 103.353310,117.953651 93.270409,111.752853 
	C92.113342,111.041283 89.946854,111.624687 88.354935,112.028107 
	C82.284569,113.566414 76.306190,116.421684 70.204536,116.679344 
	C58.335461,117.180550 51.183304,107.854370 53.284863,96.164291 
	C53.534031,94.778275 53.800152,93.395302 53.182793,91.649178 
	C51.441299,94.601646 50.021221,97.814140 47.888618,100.450195 
	C43.953453,105.314346 40.044106,110.370789 35.289131,114.349312 
	C31.024792,117.917343 25.376307,118.681404 20.350767,115.321129 
	C15.307571,111.949059 13.980674,106.459686 15.591517,101.112068 
	C18.211832,92.413231 21.803982,84.007141 25.155273,75.151512 
M157.573288,86.281982 
	C165.766373,86.458603 173.959122,86.668648 182.153152,86.745399 
	C182.776840,86.751244 183.409409,85.812607 184.402878,84.597916 
	C184.750153,83.665512 185.202789,82.757744 185.427429,81.796669 
	C186.795639,75.943161 187.297699,70.051483 182.556580,65.453117 
	C177.968903,61.003571 172.270050,61.376827 166.629288,63.151134 
	C157.486084,66.027130 149.907257,71.648468 145.886093,80.055832 
	C141.129257,90.001328 132.615356,94.587776 123.703217,98.845055 
	C120.010315,100.609131 115.426735,100.881470 111.224419,101.001930 
	C109.775040,101.043480 106.982162,98.545181 107.005272,97.246284 
	C107.072426,93.473038 108.255203,89.719650 109.691956,86.413673 
	C117.637352,86.598434 125.582710,86.785118 133.528946,86.919914 
	C133.573822,86.920677 133.631042,86.193756 134.389633,85.551857 
	C135.135742,85.248337 136.173996,85.159782 136.580978,84.606712 
	C139.409073,80.763443 139.290314,71.660782 136.482010,67.379906 
	C133.733566,63.190296 128.167923,61.220970 122.266823,62.350067 
	C108.298950,65.022636 95.576759,78.109444 92.980782,92.445786 
	C92.806244,93.409653 92.689644,94.508865 92.148827,95.258530 
	C90.413879,97.663422 80.762672,99.857056 78.142738,98.389923 
	C73.259041,95.655128 74.585167,91.405968 75.877197,87.401680 
	C77.691757,81.777931 79.102112,76.251495 74.706497,70.771492 
	C79.764488,69.109535 84.300415,67.811340 88.692894,66.136841 
	C98.633759,62.347195 107.113266,56.639812 111.433403,46.450375 
	C115.671600,36.454174 110.937042,28.032764 100.300125,25.880585 
	C91.655800,24.131569 83.500946,26.028948 76.411308,30.640171 
	C69.067108,35.416969 61.895836,40.778503 55.703804,46.943745 
	C41.289371,61.295784 29.728251,77.704132 23.653894,97.435722 
	C22.237036,102.038177 21.118837,106.823318 25.223091,110.542419 
	C32.120872,109.454582 36.355133,105.124458 39.712742,99.761909 
	C42.271835,95.674706 44.456402,91.346130 47.125336,87.336433 
	C49.971054,83.061127 52.974232,78.848167 56.322372,74.964668 
	C58.554291,72.375870 62.179794,70.291191 65.047844,72.872101 
	C66.621719,74.288414 66.771988,78.345642 66.174805,80.885406 
	C65.081223,85.536316 62.889133,89.920792 61.282654,94.461487 
	C59.636292,99.114914 59.163227,103.980194 63.422600,107.320213 
	C67.764290,110.724762 72.978561,110.778275 78.004196,108.453712 
	C83.240463,106.031738 88.391029,103.424461 93.578323,100.898560 
	C96.522972,107.270004 108.021690,111.512337 111.945496,109.647095 
	C119.977448,105.828995 127.846710,101.668587 135.781250,97.645775 
	C137.047943,97.003563 138.305801,96.343887 139.920227,95.510284 
	C140.451691,97.299561 140.762787,98.556557 141.196045,99.769936 
	C143.254120,105.533844 152.970688,111.407944 158.482925,109.730873 
	C163.666458,108.153809 168.862976,106.277939 173.605453,103.706657 
	C177.052628,101.837662 179.111435,102.021782 182.308502,104.319786 
	C187.594376,108.119186 193.490555,110.454536 200.522629,108.864868 
	C211.252518,106.439262 221.477615,97.195450 211.054962,81.217880 
	C208.750610,77.685379 207.207275,73.736961 210.484695,70.214577 
	C213.636642,66.827057 217.700256,67.505379 221.563721,69.427895 
	C222.125580,69.707481 222.738770,69.883926 223.502350,70.174332 
	C224.413437,68.866188 225.230499,67.693062 226.027527,66.548683 
	C218.831406,60.097572 207.985352,60.204815 200.324936,66.609711 
	C193.556442,72.268860 192.912964,79.612053 198.410172,88.491287 
	C198.848419,89.199150 199.617584,89.864594 199.694351,90.605560 
	C200.017487,93.724724 201.440445,97.975906 199.975464,99.696198 
	C198.399857,101.546318 193.711411,102.121620 190.980316,101.288658 
	C186.897476,100.043442 183.338531,97.080421 179.245041,94.664139 
	C173.655945,98.044563 167.620255,102.285927 160.005219,101.026787 
	C157.985199,100.692787 154.680939,98.527580 154.701965,97.248123 
	C154.764923,93.415482 156.181503,89.605080 157.573288,86.281982 
M235.146667,69.615517 
	C228.686295,75.163170 223.878067,81.828041 221.520630,90.088333 
	C218.787155,99.666237 226.454437,110.760170 235.709778,109.556564 
	C241.973343,108.742035 248.094391,106.140404 254.022263,103.711128 
	C257.256989,102.385536 259.500763,102.512260 262.632965,104.133354 
	C268.664337,107.254921 274.122406,111.208298 282.307770,108.763771 
	C291.820312,105.922882 298.358246,97.007072 294.798767,87.752785 
	C293.494629,84.362190 291.377380,81.292488 289.928589,77.947533 
	C287.639893,72.663292 290.023529,69.032143 295.716705,68.882545 
	C298.477783,68.809998 301.242401,68.870018 304.908600,68.870018 
	C304.999329,68.743980 305.831909,67.587143 306.644623,66.457947 
	C301.240509,61.645275 294.330353,60.398205 287.397186,62.825329 
	C275.817017,66.879250 272.107300,76.933052 278.294525,87.409401 
	C279.475677,89.409348 280.811981,91.388474 281.567688,93.554771 
	C283.388031,98.773209 280.977020,102.039146 275.471710,102.125702 
	C269.070953,102.226341 264.644257,98.522621 260.901184,94.425514 
	C256.292267,96.556923 252.052261,98.879311 247.556320,100.484955 
	C243.814331,101.821327 238.932297,103.071030 236.476486,99.358765 
	C234.800217,96.824898 235.658691,92.512962 235.665344,88.996536 
	C235.671539,85.720932 237.777878,85.103310 240.729004,85.184082 
	C247.552200,85.370834 254.385284,85.310951 261.211243,85.183319 
	C262.522705,85.158798 264.593506,84.729729 264.996704,83.869705 
	C267.423065,78.694374 267.949066,73.292267 265.145386,68.038109 
	C262.777893,63.601330 258.762207,61.998844 253.916260,62.012714 
	C246.908066,62.032772 241.112274,65.109200 235.146667,69.615517 
M279.591431,51.026890 
	C278.377228,51.729027 276.714233,52.140354 276.034760,53.188972 
	C274.156769,56.087200 272.642761,59.228100 271.087585,62.324665 
	C270.607391,63.280773 270.457550,64.402802 270.156433,65.448868 
	C277.213501,62.568512 282.489380,58.540749 285.082764,51.026371 
	C283.045746,51.026371 281.731903,51.026371 279.591431,51.026890 
z"/>
<path fill="#FBEC01" opacity="1.000000" stroke="none" 
	d="
M109.000336,85.958473 
	C108.255203,89.719650 107.072426,93.473038 107.005272,97.246284 
	C106.982162,98.545181 109.775040,101.043480 111.224419,101.001930 
	C115.426735,100.881470 120.010315,100.609131 123.703217,98.845055 
	C132.615356,94.587776 141.129257,90.001328 145.886093,80.055832 
	C149.907257,71.648468 157.486084,66.027130 166.629288,63.151134 
	C172.270050,61.376827 177.968903,61.003571 182.556580,65.453117 
	C187.297699,70.051483 186.795639,75.943161 185.427429,81.796669 
	C185.202789,82.757744 184.750153,83.665512 183.754715,85.024643 
	C174.427597,85.562904 165.748642,85.674454 157.069687,85.785995 
	C156.181503,89.605080 154.764923,93.415482 154.701965,97.248123 
	C154.680939,98.527580 157.985199,100.692787 160.005219,101.026787 
	C167.620255,102.285927 173.655945,98.044563 179.245041,94.664139 
	C183.338531,97.080421 186.897476,100.043442 190.980316,101.288658 
	C193.711411,102.121620 198.399857,101.546318 199.975464,99.696198 
	C201.440445,97.975906 200.017487,93.724724 199.694351,90.605560 
	C199.617584,89.864594 198.848419,89.199150 198.410172,88.491287 
	C192.912964,79.612053 193.556442,72.268860 200.324936,66.609711 
	C207.985352,60.204815 218.831406,60.097572 226.027527,66.548683 
	C225.230499,67.693062 224.413437,68.866188 223.502350,70.174332 
	C222.738770,69.883926 222.125580,69.707481 221.563721,69.427895 
	C217.700256,67.505379 213.636642,66.827057 210.484695,70.214577 
	C207.207275,73.736961 208.750610,77.685379 211.054962,81.217880 
	C221.477615,97.195450 211.252518,106.439262 200.522629,108.864868 
	C193.490555,110.454536 187.594376,108.119186 182.308502,104.319786 
	C179.111435,102.021782 177.052628,101.837662 173.605453,103.706657 
	C168.862976,106.277939 163.666458,108.153809 158.482925,109.730873 
	C152.970688,111.407944 143.254120,105.533844 141.196045,99.769936 
	C140.762787,98.556557 140.451691,97.299561 139.920227,95.510284 
	C138.305801,96.343887 137.047943,97.003563 135.781250,97.645775 
	C127.846710,101.668587 119.977448,105.828995 111.945496,109.647095 
	C108.021690,111.512337 96.522972,107.270004 93.578323,100.898560 
	C88.391029,103.424461 83.240463,106.031738 78.004196,108.453712 
	C72.978561,110.778275 67.764290,110.724762 63.422600,107.320213 
	C59.163227,103.980194 59.636292,99.114914 61.282654,94.461487 
	C62.889133,89.920792 65.081223,85.536316 66.174805,80.885406 
	C66.771988,78.345642 66.621719,74.288414 65.047844,72.872101 
	C62.179794,70.291191 58.554291,72.375870 56.322372,74.964668 
	C52.974232,78.848167 49.971054,83.061127 47.125336,87.336433 
	C44.456402,91.346130 42.271835,95.674706 39.712742,99.761909 
	C36.355133,105.124458 32.120872,109.454582 25.223091,110.542419 
	C21.118837,106.823318 22.237036,102.038177 23.653894,97.435722 
	C29.728251,77.704132 41.289371,61.295784 55.703804,46.943745 
	C61.895836,40.778503 69.067108,35.416969 76.411308,30.640171 
	C83.500946,26.028948 91.655800,24.131569 100.300125,25.880585 
	C110.937042,28.032764 115.671600,36.454174 111.433403,46.450375 
	C107.113266,56.639812 98.633759,62.347195 88.692894,66.136841 
	C84.300415,67.811340 79.764488,69.109535 74.706497,70.771492 
	C79.102112,76.251495 77.691757,81.777931 75.877197,87.401680 
	C74.585167,91.405968 73.259041,95.655128 78.142738,98.389923 
	C80.762672,99.857056 90.413879,97.663422 92.148827,95.258530 
	C92.689644,94.508865 92.806244,93.409653 92.980782,92.445786 
	C95.576759,78.109444 108.298950,65.022636 122.266823,62.350067 
	C128.167923,61.220970 133.733566,63.190296 136.482010,67.379906 
	C139.290314,71.660782 139.409073,80.763443 136.580978,84.606712 
	C136.173996,85.159782 135.135742,85.248337 133.599335,85.575996 
	C124.872810,85.719582 116.936577,85.839027 109.000336,85.958473 
M78.921410,41.416298 
	C73.028198,48.879745 67.134979,56.343193 61.241764,63.806641 
	C61.741688,64.335197 62.241611,64.863747 62.741531,65.392303 
	C74.986725,61.995399 86.685608,57.518826 95.014359,46.969646 
	C96.624336,44.930450 97.930191,42.471748 98.712936,39.996758 
	C100.268532,35.078003 96.981430,31.469082 92.182838,33.332653 
	C87.632790,35.099701 83.649574,38.326302 78.921410,41.416298 
M127.651375,76.103386 
	C128.466644,68.783318 125.953514,65.539528 121.162056,67.979523 
	C116.497154,70.355080 113.724640,74.517914 111.432030,80.013466 
	C116.357834,80.013466 120.453056,80.218407 124.501091,79.871941 
	C125.536247,79.783340 126.422104,77.950325 127.651375,76.103386 
M161.103149,79.965950 
	C163.908340,80.095665 166.744431,80.529022 169.507797,80.247757 
	C171.333679,80.061913 174.475876,78.991020 174.567368,78.071457 
	C174.892960,74.799393 174.286484,71.400459 173.697052,68.109734 
	C173.612549,67.637909 171.646072,67.153343 170.612915,67.262871 
	C166.510696,67.697708 160.556519,74.995651 161.103149,79.965950 
z"/>
<path fill="#FAEB01" opacity="1.000000" stroke="none" 
	d="
M235.415100,69.380035 
	C241.112274,65.109200 246.908066,62.032772 253.916260,62.012714 
	C258.762207,61.998844 262.777893,63.601330 265.145386,68.038109 
	C267.949066,73.292267 267.423065,78.694374 264.996704,83.869705 
	C264.593506,84.729729 262.522705,85.158798 261.211243,85.183319 
	C254.385284,85.310951 247.552200,85.370834 240.729004,85.184082 
	C237.777878,85.103310 235.671539,85.720932 235.665344,88.996536 
	C235.658691,92.512962 234.800217,96.824898 236.476486,99.358765 
	C238.932297,103.071030 243.814331,101.821327 247.556320,100.484955 
	C252.052261,98.879311 256.292267,96.556923 260.901184,94.425514 
	C264.644257,98.522621 269.070953,102.226341 275.471710,102.125702 
	C280.977020,102.039146 283.388031,98.773209 281.567688,93.554771 
	C280.811981,91.388474 279.475677,89.409348 278.294525,87.409401 
	C272.107300,76.933052 275.817017,66.879250 287.397186,62.825329 
	C294.330353,60.398205 301.240509,61.645275 306.644623,66.457947 
	C305.831909,67.587143 304.999329,68.743980 304.908600,68.870018 
	C301.242401,68.870018 298.477783,68.809998 295.716705,68.882545 
	C290.023529,69.032143 287.639893,72.663292 289.928589,77.947533 
	C291.377380,81.292488 293.494629,84.362190 294.798767,87.752785 
	C298.358246,97.007072 291.820312,105.922882 282.307770,108.763771 
	C274.122406,111.208298 268.664337,107.254921 262.632965,104.133354 
	C259.500763,102.512260 257.256989,102.385536 254.022263,103.711128 
	C248.094391,106.140404 241.973343,108.742035 235.709778,109.556564 
	C226.454437,110.760170 218.787155,99.666237 221.520630,90.088333 
	C223.878067,81.828041 228.686295,75.163170 235.415100,69.380035 
M252.823883,79.911743 
	C253.908768,77.721008 255.675354,75.588646 255.869431,73.321648 
	C256.033722,71.402893 254.858398,68.284782 253.395004,67.611145 
	C251.879562,66.913551 248.751907,67.918808 247.307541,69.244728 
	C244.390579,71.922470 242.135971,75.321762 239.608185,78.423462 
	C239.873138,79.002274 240.138107,79.581085 240.403076,80.159897 
	C244.257446,80.159897 248.111816,80.159897 252.823883,79.911743 
z"/>
<path fill="#F6E601" opacity="1.000000" stroke="none" 
	d="
M280.004730,51.026630 
	C281.731903,51.026371 283.045746,51.026371 285.082764,51.026371 
	C282.489380,58.540749 277.213501,62.568512 270.156433,65.448868 
	C270.457550,64.402802 270.607391,63.280773 271.087585,62.324665 
	C272.642761,59.228100 274.156769,56.087200 276.034760,53.188972 
	C276.714233,52.140354 278.377228,51.729027 280.004730,51.026630 
z"/>
<path fill="#4D0000" opacity="1.000000" stroke="none" 
	d="
M157.321487,86.033997 
	C165.748642,85.674454 174.427597,85.562904 183.572205,85.382172 
	C183.409409,85.812607 182.776840,86.751244 182.153152,86.745399 
	C173.959122,86.668648 165.766373,86.458603 157.321487,86.033997 
z"/>
<path fill="#4E0000" opacity="1.000000" stroke="none" 
	d="
M109.346146,86.186073 
	C116.936577,85.839027 124.872810,85.719582 133.245773,85.703392 
	C133.631042,86.193756 133.573822,86.920677 133.528946,86.919914 
	C125.582710,86.785118 117.637352,86.598434 109.346146,86.186073 
z"/>
<path fill="#561A02" opacity="1.000000" stroke="none" 
	d="
M79.169250,41.163673 
	C83.649574,38.326302 87.632790,35.099701 92.182838,33.332653 
	C96.981430,31.469082 100.268532,35.078003 98.712936,39.996758 
	C97.930191,42.471748 96.624336,44.930450 95.014359,46.969646 
	C86.685608,57.518826 74.986725,61.995399 62.741531,65.392303 
	C62.241611,64.863747 61.741688,64.335197 61.241764,63.806641 
	C67.134979,56.343193 73.028198,48.879745 79.169250,41.163673 
z"/>
<path fill="#571B02" opacity="1.000000" stroke="none" 
	d="
M127.513962,76.511070 
	C126.422104,77.950325 125.536247,79.783340 124.501091,79.871941 
	C120.453056,80.218407 116.357834,80.013466 111.432030,80.013466 
	C113.724640,74.517914 116.497154,70.355080 121.162056,67.979523 
	C125.953514,65.539528 128.466644,68.783318 127.513962,76.511070 
z"/>
<path fill="#561A02" opacity="1.000000" stroke="none" 
	d="
M160.692917,79.826485 
	C160.556519,74.995651 166.510696,67.697708 170.612915,67.262871 
	C171.646072,67.153343 173.612549,67.637909 173.697052,68.109734 
	C174.286484,71.400459 174.892960,74.799393 174.567368,78.071457 
	C174.475876,78.991020 171.333679,80.061913 169.507797,80.247757 
	C166.744431,80.529022 163.908340,80.095665 160.692917,79.826485 
z"/>
<path fill="#561902" opacity="1.000000" stroke="none" 
	d="
M252.395035,80.035820 
	C248.111816,80.159897 244.257446,80.159897 240.403076,80.159897 
	C240.138107,79.581085 239.873138,79.002274 239.608185,78.423462 
	C242.135971,75.321762 244.390579,71.922470 247.307541,69.244728 
	C248.751907,67.918808 251.879562,66.913551 253.395004,67.611145 
	C254.858398,68.284782 256.033722,71.402893 255.869431,73.321648 
	C255.675354,75.588646 253.908768,77.721008 252.395035,80.035820 
z"/>
</pattern>
</svg>