<svg version="1.1" xmlns="http://www.w3.org/2000/svg" xmlns:xlink="http://www.w3.org/1999/xlink" x="0px" y="0px" viewBox="0 0 0 0" width="0" height="0">
<pattern  id="twix" patternUnits="userSpaceOnUse" width="200" height="200" patternTransform="scale(0.4),rotate(35),translate(-10,-210)">
<path fill="#E9AB20" opacity="1.000000" stroke="none" 
	d="
M108.000000,226.000000 
	C72.000000,226.000000 36.500004,226.000000 1.000005,226.000000 
	C1.000003,151.000000 1.000003,76.000015 1.000002,1.000015 
	C75.999992,1.000010 150.999985,1.000010 225.999969,1.000005 
	C225.999985,75.999985 225.999985,150.999969 226.000000,225.999969 
	C186.833328,226.000000 147.666672,226.000000 108.000000,226.000000 
M211.839890,118.470703 
	C211.603500,118.186073 211.367111,117.901443 211.035370,117.263329 
	C211.035370,117.263329 210.754288,117.028732 210.589600,116.414330 
	C206.087326,112.879562 201.585052,109.344795 196.954010,105.116341 
	C195.915192,103.855370 194.876389,102.594391 193.939957,101.457695 
	C196.215942,96.879738 198.700089,92.543022 200.569397,87.955765 
	C202.896698,82.244652 200.001068,79.239449 193.840515,79.493698 
	C188.891495,79.697945 185.279068,81.624031 182.461395,85.372612 
	C179.952179,88.710808 177.702499,87.806969 175.016525,85.536659 
	C173.379440,84.152916 171.247437,82.488098 169.331268,82.480026 
	C165.236435,82.462761 161.137405,83.440399 156.511841,83.967995 
	C156.340393,84.010590 156.168945,84.053177 155.255203,84.021286 
	C153.935135,84.262016 152.615067,84.502747 151.943787,84.625160 
	C150.739975,82.294090 149.893753,80.655472 149.013596,78.359077 
	C149.030273,77.921158 149.046967,77.483238 149.810196,76.922409 
	C150.867401,75.180397 152.935043,73.315208 152.741272,71.725685 
	C152.461563,69.431030 151.006607,66.225380 149.191818,65.465584 
	C147.339264,64.689964 144.445953,66.400215 141.322830,67.028069 
	C140.875443,66.943672 140.428070,66.859276 139.713104,66.059822 
	C131.617325,62.932068 128.959503,64.447479 128.975891,72.796074 
	C128.346786,75.983963 127.717682,79.171852 126.885567,83.083923 
	C126.743942,83.290779 126.602310,83.497643 126.372620,84.081703 
	C126.266342,85.219933 126.160072,86.358154 125.349274,87.316994 
	C124.241913,87.679420 123.134552,88.041847 121.516716,88.551376 
	C121.364510,89.034439 121.212303,89.517494 120.916794,89.999474 
	C120.916794,89.999474 120.780922,90.044975 120.219986,90.402275 
	C118.207161,92.653282 116.194336,94.904289 113.708076,96.598457 
	C111.756134,94.809486 112.632187,90.259064 107.737274,90.275787 
	C97.535278,89.240700 95.986824,90.096306 91.231239,99.261635 
	C91.049500,99.737419 90.867760,100.213196 89.910820,100.776054 
	C88.780144,99.680779 87.519447,98.689781 86.542252,97.471405 
	C83.097801,93.176811 80.895348,88.284752 80.411888,82.783165 
	C80.013008,78.244141 77.508430,77.544861 73.611610,78.219536 
	C67.120567,79.343384 60.586170,80.216827 53.203674,81.096672 
	C45.128738,82.019829 37.053806,82.942986 28.462141,83.859169 
	C28.303774,83.926933 28.145407,83.994698 27.396383,84.025223 
	C26.725660,84.364212 26.054937,84.703201 24.817215,85.785782 
	C24.626972,86.032692 24.436729,86.279610 24.184330,86.520035 
	C24.184330,86.520035 24.145954,86.634575 24.077574,86.884201 
	C24.077574,86.884201 23.884375,87.056427 23.249981,87.138718 
	C22.826996,87.596176 22.404009,88.053635 21.299931,88.539124 
	C15.887552,90.918213 15.557279,92.118240 17.379210,100.824089 
	C18.300543,105.226547 20.451376,107.635750 25.309780,106.816170 
	C27.923384,106.375282 30.636688,106.482971 33.227341,105.959091 
	C36.561886,105.284760 38.229389,106.586983 39.016258,109.714996 
	C42.496708,123.550758 46.010624,137.378189 49.551388,151.198669 
	C51.441212,158.575119 52.874836,159.342010 60.573658,157.404144 
	C63.282616,156.942810 65.984596,156.434540 68.702126,156.030930 
	C72.964302,155.397903 74.885521,152.915085 74.790192,148.740677 
	C74.790192,148.740677 74.706261,148.816147 75.186111,148.636871 
	C75.616684,148.170563 76.047256,147.704254 76.916496,146.579880 
	C77.658104,145.196594 78.399712,143.813293 79.680115,142.952316 
	C81.129707,144.963852 82.314552,147.255081 84.083374,148.929367 
	C87.902580,152.544449 92.592056,152.108383 97.219177,150.863144 
	C100.281334,150.039047 102.810692,148.557358 102.536659,143.934555 
	C103.823441,142.599686 105.110222,141.264816 107.062263,140.321533 
	C107.974724,141.276459 108.864273,142.254547 109.803360,143.182541 
	C116.068962,149.374130 125.706734,147.454010 129.435898,138.615997 
	C130.598343,136.277420 131.760788,133.938858 133.630386,131.898376 
	C134.407486,132.919724 135.455978,133.831772 135.918304,134.979889 
	C139.308548,143.399048 141.025208,144.114609 149.796997,141.904358 
	C154.683487,140.673096 159.743683,140.018066 164.765381,139.464005 
	C171.702042,138.698654 174.368073,137.027405 175.612823,131.433640 
	C175.580353,131.224731 175.547882,131.015839 175.920822,130.258270 
	C176.916809,129.037766 177.912796,127.817253 179.700027,126.516228 
	C180.754852,126.725288 181.809677,126.934349 183.002914,127.052109 
	C183.002914,127.052109 182.878403,127.162651 182.976379,127.840179 
	C188.488327,134.351273 190.700394,135.059250 196.527878,131.978851 
	C196.685181,131.912994 196.842468,131.847137 197.491852,132.287720 
	C198.665359,132.260193 199.838852,132.232666 201.204041,132.383118 
	C201.204041,132.383118 201.418793,132.241318 201.418793,132.241318 
	C201.418793,132.241318 201.327454,131.999100 202.055725,131.653656 
	C203.111252,131.410172 204.166763,131.166672 205.611359,131.322266 
	C209.394806,130.657700 210.946289,128.430496 210.385284,124.437378 
	C210.385284,124.437378 210.594833,124.324326 211.092285,124.340851 
	C211.344803,123.794388 211.597336,123.247925 211.967346,121.834259 
	C211.973206,121.542610 211.979080,121.250954 212.199066,120.656296 
	C212.100220,120.175278 212.001358,119.694267 211.972443,119.104462 
	C211.972443,119.104462 211.862793,119.035866 211.839890,118.470703 
z"/>
<path fill="#F5EDE9" opacity="1.000000" stroke="none" 
	d="
M106.397003,139.929947 
	C105.110222,141.264816 103.823441,142.599686 102.149948,144.345245 
	C100.479446,144.930969 99.195656,145.106018 97.482727,145.241440 
	C92.934235,145.163727 88.752007,145.374084 86.377289,140.898636 
	C84.624352,137.595016 82.725853,134.368622 81.020218,130.740784 
	C78.433937,125.923271 75.719650,121.472801 72.992340,116.670670 
	C72.738403,115.385605 72.497498,114.452194 72.060562,112.759262 
	C71.179672,114.728394 70.678566,115.848549 70.057983,116.597252 
	C68.942886,112.596382 67.609154,109.020042 67.029137,105.325386 
	C66.107704,99.455856 64.078033,94.890732 57.390450,94.121819 
	C57.192257,94.099037 57.045029,93.632988 56.550743,92.883186 
	C62.210121,92.238106 67.599495,91.623802 73.323639,91.082031 
	C74.104172,91.063751 74.549950,90.972939 75.325821,90.937271 
	C76.431175,90.606941 77.206421,90.221466 78.393639,89.791214 
	C78.476585,86.837952 78.147560,83.929482 77.800346,80.860229 
	C73.745972,81.639992 70.336746,82.295670 66.960106,82.964478 
	C66.992691,82.977608 66.985329,82.907730 66.585938,82.962311 
	C65.126740,82.915733 64.066917,82.814583 62.681488,82.504379 
	C59.593925,81.928780 56.831978,81.562241 54.070030,81.195702 
	C60.586170,80.216827 67.120567,79.343384 73.611610,78.219536 
	C77.508430,77.544861 80.013008,78.244141 80.411888,82.783165 
	C80.895348,88.284752 83.097801,93.176811 86.542252,97.471405 
	C87.519447,98.689781 88.780144,99.680779 90.310730,100.933052 
	C90.450211,101.382919 90.189774,101.675789 89.586678,101.856323 
	C86.361679,103.647881 86.211502,100.813332 85.109123,99.443016 
	C83.661133,97.643074 82.271263,94.937721 80.425461,94.518303 
	C77.676453,93.893661 74.539284,94.848152 71.588310,95.275780 
	C68.251907,95.759277 67.640572,97.440445 69.413010,100.319611 
	C73.016579,106.173264 76.490997,112.106422 80.003906,118.362183 
	C83.269623,123.563271 86.550072,128.408981 89.941223,133.592957 
	C90.327118,134.339706 90.733795,134.712082 90.857338,135.162170 
	C92.241356,140.204834 96.493126,139.358627 99.808197,138.885727 
	C103.162834,138.407135 105.497650,136.277710 105.086235,131.987762 
	C104.740303,128.380722 105.189056,124.660904 105.609726,121.028511 
	C105.943634,118.145332 107.339790,117.088852 109.440689,119.891357 
	C112.427780,124.699242 115.680237,129.295532 119.236282,134.160706 
	C127.491859,135.934402 129.768478,134.609726 130.622360,127.011116 
	C131.899597,115.644867 132.859879,104.240715 133.752853,92.836861 
	C133.850174,91.594246 132.616989,90.247437 131.996613,88.714523 
	C131.992310,88.480095 131.991364,88.011147 131.995697,88.005600 
	C132.000015,88.000046 132.010986,87.991760 132.362396,88.038330 
	C133.846878,88.404877 134.979950,88.724838 136.063263,89.432686 
	C137.941315,96.651680 139.869156,103.482788 142.008362,110.633812 
	C143.033951,114.437782 143.903549,117.910019 144.651169,121.408310 
	C146.318375,129.209412 148.555222,131.461487 154.508621,129.893600 
	C156.948944,129.250900 161.117340,129.571487 161.255554,125.096176 
	C162.555954,125.130272 163.604034,125.067299 164.772400,125.424911 
	C169.099167,128.239014 173.384796,127.306343 175.900879,123.204582 
	C177.940842,119.878983 179.702820,116.382843 181.800354,112.577248 
	C184.485367,114.846008 187.051010,116.471123 188.891724,118.695999 
	C191.678726,122.064682 194.946716,122.833992 198.959686,121.975891 
	C201.954407,121.335526 204.972961,120.806496 208.010101,120.439598 
	C208.367279,120.855690 208.695221,121.060066 209.023178,121.264450 
	C209.116516,120.880768 209.209869,120.497078 209.318939,119.728790 
	C209.100677,118.614899 208.866699,117.885628 208.985565,117.122025 
	C209.810364,117.068039 210.282333,117.048386 210.754288,117.028732 
	C210.754288,117.028732 211.035370,117.263329 211.125885,117.713425 
	C211.431870,118.454308 211.647324,118.745087 211.862793,119.035866 
	C211.862793,119.035866 211.972443,119.104462 211.945160,119.449974 
	C211.940247,120.183426 211.962616,120.571365 211.984970,120.959305 
	C211.979080,121.250954 211.973206,121.542610 211.714752,122.338417 
	C211.173065,123.336494 210.883957,123.830414 210.594849,124.324326 
	C210.594833,124.324326 210.385284,124.437378 210.001862,124.688690 
	C205.739410,125.919930 201.860367,126.899841 197.609589,127.996063 
	C194.113083,129.444366 191.506653,129.250488 188.881119,126.572624 
	C187.487701,125.151459 184.984177,124.818695 182.842773,123.670547 
	C179.453506,122.111931 179.561081,124.797943 178.908768,126.596741 
	C177.912796,127.817253 176.916809,129.037766 175.335800,130.598206 
	C170.995026,131.315750 167.201187,131.489288 163.503738,132.179321 
	C162.171722,132.427917 161.071381,133.917877 159.491364,134.876221 
	C156.770416,135.204880 154.423447,135.498688 151.882538,135.518219 
	C150.665344,135.450836 149.642075,135.657730 148.273270,135.856857 
	C146.619278,135.553802 145.310822,135.258514 143.820602,134.637817 
	C141.194931,125.517059 138.751038,116.721718 136.307129,107.926369 
	C135.898193,107.904854 135.489243,107.883331 135.080292,107.861816 
	C134.790268,108.938644 134.500244,110.015472 134.156097,111.524063 
	C133.992508,114.255409 133.883011,116.554993 133.560364,119.214203 
	C133.205872,123.582649 133.064560,127.591469 132.923248,131.600281 
	C131.760788,133.938858 130.598343,136.277420 128.980530,139.063919 
	C125.032394,140.026718 121.539612,140.541611 117.991776,140.714951 
	C114.462151,135.778473 110.987572,131.183533 107.177391,126.144783 
	C107.177391,127.895386 107.177391,129.043732 107.111938,130.611603 
	C106.830002,133.997406 106.613503,136.963669 106.397003,139.929947 
z"/>
<path fill="#F5EFEC" opacity="1.000000" stroke="none" 
	d="
M79.141319,142.430008 
	C78.399712,143.813293 77.658104,145.196594 76.474350,146.980164 
	C75.590233,147.859009 75.148247,148.337570 74.706261,148.816147 
	C74.706261,148.816147 74.790192,148.740677 74.343140,148.867493 
	C68.261032,149.273880 62.625988,149.553467 56.808243,149.540436 
	C55.713165,145.500443 54.800793,141.753067 54.015427,137.592926 
	C52.725994,130.960510 51.510281,124.685211 49.807198,118.545082 
	C48.973927,115.540886 47.234226,112.788101 45.893169,109.520630 
	C44.310825,106.081230 46.823425,100.866371 40.593361,99.981964 
	C38.975075,99.886566 37.818886,99.862892 36.662712,99.863525 
	C25.477571,99.869644 24.613329,99.036156 23.915590,87.551147 
	C23.905569,87.386215 23.894796,87.221336 23.884375,87.056427 
	C23.884375,87.056427 24.077574,86.884201 24.170397,86.792953 
	C24.263220,86.701706 24.246485,86.526520 24.246485,86.526520 
	C24.436729,86.279610 24.626972,86.032692 25.393036,85.408173 
	C26.641582,84.707870 27.314310,84.385170 27.987038,84.062469 
	C28.145407,83.994698 28.303774,83.926933 28.728073,84.207741 
	C28.994473,85.016388 28.994944,85.476471 28.995541,86.205765 
	C29.042879,86.647949 29.090086,86.820923 29.068039,87.409828 
	C29.302229,94.978210 30.197609,95.588425 37.031284,94.272774 
	C39.245361,93.846512 41.648064,94.483917 43.907894,94.193871 
	C48.530018,93.600609 49.966309,96.011375 49.983410,100.439499 
	C53.787422,115.582726 57.601982,130.326401 61.551601,145.592072 
	C62.844612,145.055801 63.952763,144.596222 65.466431,144.081833 
	C68.233635,143.770950 70.595329,143.514862 72.998962,143.489258 
	C74.078354,143.322372 75.115814,142.925003 76.134415,142.396820 
	C76.115540,142.266006 76.258080,142.043411 76.611198,141.786423 
	C77.136444,141.294327 77.308563,141.059204 77.750137,140.960358 
	C78.393501,141.541107 78.767410,141.985550 79.141319,142.430008 
z"/>
<path fill="#F4EAE5" opacity="1.000000" stroke="none" 
	d="
M157.040085,84.010490 
	C161.137405,83.440399 165.236435,82.462761 169.331268,82.480026 
	C171.247437,82.488098 173.379440,84.152916 175.016525,85.536659 
	C177.702499,87.806969 179.952179,88.710808 182.461395,85.372612 
	C185.279068,81.624031 188.891495,79.697945 193.840515,79.493698 
	C200.001068,79.239449 202.896698,82.244652 200.569397,87.955765 
	C198.700089,92.543022 196.215942,96.879738 193.939957,101.457695 
	C194.876389,102.594391 195.915192,103.855370 196.983932,105.807083 
	C196.988388,106.726837 196.962906,106.955841 196.615509,107.070045 
	C189.571121,100.920799 189.572144,100.921356 193.832748,93.160652 
	C194.473236,91.994019 195.229996,90.869659 195.703537,89.637558 
	C196.609818,87.279556 197.351196,84.858154 198.160995,82.463074 
	C195.600220,82.392441 193.039642,82.312271 190.478455,82.263275 
	C190.158463,82.257149 189.835297,82.415924 189.965073,82.382698 
	C187.351303,86.560837 184.918259,90.450081 182.173737,94.837242 
	C176.278610,88.157318 169.375427,84.987602 160.740753,84.990921 
	C159.275665,84.633476 158.157883,84.321983 157.040085,84.010490 
z"/>
<path fill="#F4EBE6" opacity="1.000000" stroke="none" 
	d="
M156.775970,83.989243 
	C158.157883,84.321983 159.275665,84.633476 160.430206,85.136139 
	C158.964493,86.591934 157.462021,87.856560 156.021973,89.449158 
	C159.663239,92.913834 163.242096,96.050537 166.865112,99.176857 
	C166.909302,99.166473 166.890686,99.077621 166.893082,99.379395 
	C167.239197,99.822609 167.582932,99.964050 167.908966,100.072090 
	C167.891296,100.038681 167.895432,100.114731 167.934113,100.452011 
	C169.478851,102.189339 170.984894,103.589378 172.161835,105.025497 
	C171.441650,105.460953 171.050552,105.860336 170.659470,106.259720 
	C171.702225,106.505470 172.744980,106.751213 173.823654,107.239723 
	C173.859573,107.482491 173.821320,107.971817 173.876617,107.973869 
	C173.931915,107.975922 173.924973,107.865471 173.657654,108.037048 
	C173.298065,108.810730 173.205811,109.412842 172.980011,110.329529 
	C171.946106,112.114632 171.045715,113.585159 169.841919,115.005203 
	C168.765427,114.324600 167.992355,113.694481 167.279449,112.843338 
	C167.500473,112.353828 167.716461,112.141380 168.219025,111.806213 
	C168.631271,111.082390 168.812057,110.537331 168.996429,109.996132 
	C169.000000,110.000000 168.991394,109.994972 169.184387,109.872177 
	C169.393692,109.221375 169.409988,108.693367 169.233200,107.856400 
	C165.470795,104.547897 161.901474,101.548347 158.332153,98.548805 
	C157.897079,98.876320 157.462006,99.203835 157.026932,99.531357 
	C157.729172,101.334473 158.431412,103.137596 159.027191,105.366623 
	C159.672318,109.839424 160.423904,113.886299 161.193726,118.257828 
	C161.797348,119.379242 162.382736,120.176010 163.200729,121.144958 
	C163.954468,121.877831 164.475586,122.438515 164.958313,123.337456 
	C164.830658,124.118584 164.741394,124.561455 164.652130,125.004318 
	C163.604034,125.067299 162.555954,125.130272 161.056213,124.780121 
	C160.319077,123.962860 159.880508,123.596359 159.770523,123.149063 
	C156.972519,111.771065 154.208908,100.384605 151.614258,88.740540 
	C153.192001,87.019569 154.594742,85.557671 155.997498,84.095772 
	C156.168945,84.053177 156.340393,84.010590 156.775970,83.989243 
z"/>
<path fill="#65490D" opacity="1.000000" stroke="none" 
	d="
M60.037937,157.026672 
	C52.874836,159.342010 51.441212,158.575119 49.551388,151.198669 
	C46.010624,137.378189 42.496708,123.550758 39.016258,109.714996 
	C38.229389,106.586983 36.561886,105.284760 33.227341,105.959091 
	C30.636688,106.482971 27.923384,106.375282 25.309780,106.816170 
	C20.451376,107.635750 18.300543,105.226547 17.379210,100.824089 
	C15.557279,92.118240 15.887552,90.918213 21.607452,88.834892 
	C21.872606,89.768532 21.830240,90.406410 21.440388,91.067780 
	C20.136847,92.275612 18.455492,93.396118 18.344717,94.654831 
	C17.716528,101.792816 21.477358,105.148682 28.628256,104.237793 
	C30.089762,104.051620 31.557762,103.916466 33.440388,103.785187 
	C37.983116,103.097412 39.891968,105.192261 40.845848,108.964867 
	C44.177219,122.140442 47.743546,135.257355 50.993416,148.452499 
	C52.700050,155.381790 53.077446,155.935059 60.073055,156.347443 
	C60.046898,156.572876 60.037937,157.026672 60.037937,157.026672 
z"/>
<path fill="#F4ECE8" opacity="1.000000" stroke="none" 
	d="
M91.942856,99.003105 
	C95.986824,90.096306 97.535278,89.240700 107.713638,90.778259 
	C107.461884,91.819435 107.233765,92.358139 106.637741,92.965057 
	C105.170380,93.349716 104.070930,93.666161 102.624405,94.010857 
	C101.797569,94.669434 101.317810,95.299751 100.472046,96.113358 
	C99.666443,98.128593 99.036911,99.938721 98.823448,101.796638 
	C98.224236,107.012138 97.796555,112.247353 97.301216,117.474785 
	C96.734619,117.587685 96.168015,117.700577 95.601418,117.813477 
	C93.869530,113.224365 92.137642,108.635262 90.633774,104.325150 
	C91.222145,102.737129 91.582497,100.870117 91.942856,99.003105 
z"/>
<path fill="#F3E8E1" opacity="1.000000" stroke="none" 
	d="
M131.991364,88.011139 
	C131.991364,88.011147 131.992310,88.480095 131.567444,88.721710 
	C129.426773,88.958221 127.710991,88.953110 126.002243,88.705864 
	C126.005440,88.140427 126.020271,87.817978 126.053787,87.496384 
	C126.160072,86.358154 126.266342,85.219933 126.613144,84.174683 
	C127.670074,84.249817 128.486481,84.231972 129.302887,84.214127 
	C128.564789,83.596001 127.826683,82.977875 127.088577,82.359749 
	C127.717682,79.171852 128.346786,75.983963 129.299438,72.263718 
	C131.996429,67.824135 135.558731,66.401283 139.980682,66.774879 
	C140.428070,66.859276 140.875443,66.943672 141.904480,67.230263 
	C142.931503,68.269455 143.376892,69.106445 143.436920,69.940720 
	C141.299301,69.645187 139.241135,68.635735 137.864716,69.223312 
	C135.661224,70.163956 133.095642,71.813942 132.230331,73.828613 
	C131.563202,75.381882 133.271149,77.955254 133.949509,80.420593 
	C134.962173,81.530075 135.948395,82.294006 136.962891,83.295212 
	C136.991165,83.532471 137.136139,83.987823 137.154419,84.314865 
	C137.772369,84.901337 138.372040,85.160767 139.265335,85.606964 
	C141.358978,85.163399 143.158981,84.533058 144.969467,84.285370 
	C144.986908,85.433556 144.993866,86.199097 144.627869,87.067429 
	C141.809113,87.746124 139.363327,88.322037 136.716003,88.932526 
	C136.514496,88.967102 136.113022,89.044800 136.113022,89.044800 
	C134.979950,88.724838 133.846878,88.404877 132.361023,87.712204 
	C132.017410,86.904648 132.026581,86.469795 132.347900,85.962532 
	C133.020706,85.223137 133.381348,84.556145 133.741989,83.889153 
	C133.372498,83.752441 133.002991,83.615738 132.633499,83.479034 
	C132.404785,84.303612 132.176071,85.128197 131.673416,86.029419 
	C131.106537,86.426590 130.813568,86.747116 130.520599,87.067642 
	C131.010864,87.382141 131.501114,87.696640 131.991364,88.011139 
z"/>
<path fill="#2C1F0B" opacity="1.000000" stroke="none" 
	d="
M106.729630,140.125732 
	C106.613503,136.963669 106.830002,133.997406 107.377312,130.791351 
	C109.137772,132.935303 110.238396,135.629089 112.100525,137.605286 
	C113.606918,139.203934 116.030243,139.938583 118.046829,141.056488 
	C121.539612,140.541611 125.032394,140.026718 128.806610,139.430481 
	C125.706734,147.454010 116.068962,149.374130 109.803360,143.182541 
	C108.864273,142.254547 107.974724,141.276459 106.729630,140.125732 
z"/>
<path fill="#A97D1B" opacity="1.000000" stroke="none" 
	d="
M133.276825,131.749329 
	C133.064560,127.591469 133.205872,123.582649 133.701355,119.587845 
	C135.677933,125.242752 137.617355,130.818237 138.799698,136.549911 
	C139.471466,139.806503 141.036972,140.665131 144.220871,140.659271 
	C148.554443,140.073227 152.572830,139.444778 156.537125,138.570999 
	C159.855347,137.839584 163.110382,136.821411 166.668457,135.708893 
	C169.793198,134.343811 172.642883,133.200073 175.492554,132.056320 
	C174.368073,137.027405 171.702042,138.698654 164.765381,139.464005 
	C159.743683,140.018066 154.683487,140.673096 149.796997,141.904358 
	C141.025208,144.114609 139.308548,143.399048 135.918304,134.979889 
	C135.455978,133.831772 134.407486,132.919724 133.276825,131.749329 
z"/>
<path fill="#F7EFEA" opacity="1.000000" stroke="none" 
	d="
M125.701530,87.406693 
	C126.020271,87.817978 126.005440,88.140427 125.734299,88.942505 
	C124.675301,97.569542 123.891289,105.717812 122.964890,115.345810 
	C120.485924,111.221817 118.674995,108.209152 117.023300,104.931473 
	C117.501724,104.410095 117.820908,104.153740 118.369003,104.059219 
	C118.844551,104.433578 119.080002,104.662514 119.347343,104.844643 
	C119.400177,104.880638 119.674965,104.744324 119.680374,104.674538 
	C120.058090,99.798859 120.418793,94.921860 120.780922,90.044975 
	C120.780922,90.044975 120.916794,89.999474 121.184204,89.855728 
	C121.643478,89.276077 121.835335,88.840172 122.027191,88.404274 
	C123.134552,88.041847 124.241913,87.679420 125.701530,87.406693 
z"/>
<path fill="#5C420E" opacity="1.000000" stroke="none" 
	d="
M79.410721,142.691162 
	C78.767410,141.985550 78.393501,141.541107 77.698669,140.935455 
	C77.377754,140.774261 77.189865,140.664917 77.557823,140.589569 
	C77.913277,140.020844 77.900772,139.527451 77.941833,138.703888 
	C78.004974,137.930084 78.014549,137.486465 78.295357,137.236938 
	C80.196846,139.911438 81.750870,142.446213 83.473488,144.860718 
	C86.882408,149.638809 90.459396,150.642990 96.014473,149.176361 
	C98.610344,148.490982 98.564789,147.202789 97.911865,145.281082 
	C99.195656,145.106018 100.479446,144.930969 102.135345,144.745544 
	C102.810692,148.557358 100.281334,150.039047 97.219177,150.863144 
	C92.592056,152.108383 87.902580,152.544449 84.083374,148.929367 
	C82.314552,147.255081 81.129707,144.963852 79.410721,142.691162 
z"/>
<path fill="#DFAF2D" opacity="1.000000" stroke="none" 
	d="
M143.822296,69.943436 
	C143.376892,69.106445 142.931503,68.269455 142.247192,67.227310 
	C144.445953,66.400215 147.339264,64.689964 149.191818,65.465584 
	C151.006607,66.225380 152.461563,69.431030 152.741272,71.725685 
	C152.935043,73.315208 150.867401,75.180397 149.257660,76.680984 
	C147.077530,74.274193 145.449905,72.108818 143.822296,69.943436 
M147.558777,68.511650 
	C147.558777,68.511650 147.482224,68.551125 147.558777,68.511650 
z"/>
<path fill="#896C2C" opacity="1.000000" stroke="none" 
	d="
M60.305798,157.215408 
	C60.037937,157.026672 60.046898,156.572876 60.405148,156.181976 
	C62.593498,155.219376 64.429909,154.666931 66.251762,154.070038 
	C67.784866,153.567749 69.301033,153.013733 70.824699,152.482605 
	C70.677902,152.086304 70.531097,151.689987 70.384293,151.293686 
	C67.628296,151.585251 64.849518,152.223190 62.124508,152.043915 
	C60.372421,151.928635 58.699406,150.611481 56.990944,149.833038 
	C62.625988,149.553467 68.261032,149.273880 74.295273,148.837601 
	C74.885521,152.915085 72.964302,155.397903 68.702126,156.030930 
	C65.984596,156.434540 63.282616,156.942810 60.305798,157.215408 
z"/>
<path fill="#F8E7DA" opacity="1.000000" stroke="none" 
	d="
M28.995413,85.936546 
	C28.994944,85.476471 28.994473,85.016388 28.986437,84.211227 
	C37.053806,82.942986 45.128738,82.019829 53.636852,81.146187 
	C56.831978,81.562241 59.593925,81.928780 62.221909,82.520470 
	C51.057098,83.809265 40.026257,84.872910 28.995413,85.936546 
z"/>
<path fill="#A48E5B" opacity="1.000000" stroke="none" 
	d="
M21.787872,91.044281 
	C21.830240,90.406410 21.872606,89.768532 21.947998,88.820877 
	C22.404009,88.053635 22.826996,87.596176 23.567177,87.097572 
	C23.894796,87.221336 23.905569,87.386215 23.915590,87.551147 
	C24.613329,99.036156 25.477571,99.869644 36.662712,99.863525 
	C37.818886,99.862892 38.975075,99.886566 40.353905,100.262009 
	C38.054832,101.175819 35.533108,101.726578 32.627472,102.262924 
	C24.848362,102.738411 24.832563,102.742928 22.719482,95.349907 
	C22.316795,93.941040 22.093782,92.480812 21.787872,91.044281 
z"/>
<path fill="#CE1F35" opacity="1.000000" stroke="none" 
	d="
M143.436920,69.940720 
	C145.449905,72.108818 147.077530,74.274193 148.884399,76.742447 
	C149.046967,77.483238 149.030273,77.921158 148.984772,78.738556 
	C148.955948,79.118034 148.843430,79.041443 148.535461,79.021866 
	C147.814941,78.999367 147.402420,78.996429 146.981049,78.626846 
	C146.344406,77.118591 145.716583,75.976997 144.926056,74.685127 
	C144.550827,74.325676 144.310150,74.156540 143.972000,73.724701 
	C143.242081,73.060020 142.581467,72.698112 141.515625,72.225174 
	C139.713303,72.079056 138.316254,72.043968 136.673523,72.036102 
	C136.072723,72.354744 135.717621,72.646172 135.137878,73.277924 
	C134.602219,75.751587 134.291183,77.884918 133.966095,80.032669 
	C133.952042,80.047096 133.923050,80.075058 133.923050,80.075058 
	C133.271149,77.955254 131.563202,75.381882 132.230331,73.828613 
	C133.095642,71.813942 135.661224,70.163956 137.864716,69.223312 
	C139.241135,68.635735 141.299301,69.645187 143.436920,69.940720 
z"/>
<path fill="#9C9064" opacity="1.000000" stroke="none" 
	d="
M120.500458,90.223625 
	C120.418793,94.921860 120.058090,99.798859 119.680374,104.674538 
	C119.674965,104.744324 119.400177,104.880638 119.347343,104.844643 
	C119.080002,104.662514 118.844551,104.433578 118.176056,103.767853 
	C116.563301,101.261536 115.372406,99.208420 114.181511,97.155304 
	C116.194336,94.904289 118.207161,92.653282 120.500458,90.223625 
z"/>
<path fill="#2C1F0B" opacity="1.000000" stroke="none" 
	d="
M182.981781,123.994606 
	C184.984177,124.818695 187.487701,125.151459 188.881119,126.572624 
	C191.506653,129.250488 194.113083,129.444366 197.891953,128.099884 
	C199.075195,128.362823 199.604324,128.638260 199.938812,129.178406 
	C198.829376,130.222488 197.914581,131.001892 196.999771,131.781296 
	C196.842468,131.847137 196.685181,131.912994 195.858917,131.927887 
	C190.690445,132.311325 187.031219,131.120956 184.910965,126.729637 
	C184.839401,126.581398 183.582687,127.005386 182.878403,127.162643 
	C182.878403,127.162651 183.002914,127.052109 182.992432,126.706528 
	C182.981903,125.572166 182.981842,124.783386 182.981781,123.994606 
z"/>
<path fill="#F4EAE5" opacity="1.000000" stroke="none" 
	d="
M145.000824,86.964638 
	C144.993866,86.199097 144.986908,85.433556 144.993362,84.066063 
	C145.006790,83.464111 145.017075,83.023109 145.375549,82.996689 
	C146.770477,81.660652 147.806961,80.351051 148.843430,79.041443 
	C148.843430,79.041443 148.955948,79.118034 149.001740,79.067444 
	C149.893753,80.655472 150.739975,82.294090 151.943787,84.625160 
	C152.615067,84.502747 153.935135,84.262016 155.626343,84.058533 
	C154.594742,85.557671 153.192001,87.019569 151.448242,88.404831 
	C150.402847,88.021484 149.724503,87.579903 148.988312,87.437698 
	C147.677597,87.184517 146.331909,87.112457 145.000824,86.964638 
z"/>
<path fill="#F8E7DA" opacity="1.000000" stroke="none" 
	d="
M196.937439,107.184837 
	C196.962906,106.955841 196.988388,106.726837 197.048309,106.153931 
	C201.585052,109.344795 206.087326,112.879562 210.671936,116.721527 
	C210.282333,117.048386 209.810364,117.068039 208.654999,117.018005 
	C204.293549,113.693832 200.615494,110.439339 196.937439,107.184837 
z"/>
<path fill="#E9DCD5" opacity="1.000000" stroke="none" 
	d="
M113.944794,96.876877 
	C115.372406,99.208420 116.563301,101.261536 117.947144,103.606010 
	C117.820908,104.153740 117.501724,104.410095 116.745148,104.737015 
	C113.207054,100.837326 110.106354,96.867088 107.005646,92.896843 
	C107.233765,92.358139 107.461884,91.819435 107.928589,91.102394 
	C112.632187,90.259064 111.756134,94.809486 113.944794,96.876877 
z"/>
<path fill="#AE966D" opacity="1.000000" stroke="none" 
	d="
M175.552689,131.744980 
	C172.642883,133.200073 169.793198,134.343811 166.236008,135.675003 
	C163.640762,135.522079 161.753036,135.181717 159.865311,134.841354 
	C161.071381,133.917877 162.171722,132.427917 163.503738,132.179321 
	C167.201187,131.489288 170.995026,131.315750 175.133102,130.872559 
	C175.547882,131.015839 175.580353,131.224731 175.552689,131.744980 
z"/>
<path fill="#A48E5B" opacity="1.000000" stroke="none" 
	d="
M200.133438,128.913712 
	C199.604324,128.638260 199.075195,128.362823 198.263702,127.983566 
	C201.860367,126.899841 205.739410,125.919930 209.949982,124.795837 
	C210.946289,128.430496 209.394806,130.657700 205.634186,130.896851 
	C206.374771,129.874786 207.092529,129.278152 207.810287,128.681503 
	C207.665344,128.430893 207.520401,128.180283 207.375473,127.929680 
	C204.961456,128.257690 202.547455,128.585693 200.133438,128.913712 
z"/>
<path fill="#DFAF2D" opacity="1.000000" stroke="none" 
	d="
M139.846893,66.417351 
	C135.558731,66.401283 131.996429,67.824135 129.340851,71.932999 
	C128.959503,64.447479 131.617325,62.932068 139.846893,66.417351 
z"/>
<path fill="#5F4812" opacity="1.000000" stroke="none" 
	d="
M182.927399,127.501411 
	C183.582687,127.005386 184.839401,126.581398 184.910965,126.729637 
	C187.031219,131.120956 190.690445,132.311325 195.603729,131.945496 
	C190.700394,135.059250 188.488327,134.351273 182.927399,127.501411 
z"/>
<path fill="#5F4812" opacity="1.000000" stroke="none" 
	d="
M199.938812,129.178406 
	C202.547455,128.585693 204.961456,128.257690 207.375473,127.929680 
	C207.520401,128.180283 207.665344,128.430893 207.810287,128.681503 
	C207.092529,129.278152 206.374771,129.874786 205.439667,130.697296 
	C204.166763,131.166672 203.111252,131.410172 201.636169,131.847290 
	C201.216599,132.040924 201.012360,132.205139 201.012360,132.205139 
	C199.838852,132.232666 198.665359,132.260193 197.245819,132.034515 
	C197.914581,131.001892 198.829376,130.222488 199.938812,129.178406 
z"/>
<path fill="#5F4812" opacity="1.000000" stroke="none" 
	d="
M182.842773,123.670547 
	C182.981842,124.783386 182.981903,125.572166 182.923218,126.752182 
	C181.809677,126.934349 180.754852,126.725288 179.304398,126.556480 
	C179.561081,124.797943 179.453506,122.111931 182.842773,123.670547 
z"/>
<path fill="#141106" opacity="1.000000" stroke="none" 
	d="
M91.587044,99.132370 
	C91.582497,100.870117 91.222145,102.737129 90.512802,103.988724 
	C90.085655,102.905090 90.007492,102.436867 89.929337,101.968651 
	C90.189774,101.675789 90.450211,101.382919 90.698334,100.889511 
	C90.867760,100.213196 91.049500,99.737419 91.587044,99.132370 
z"/>
<path fill="#896C2C" opacity="1.000000" stroke="none" 
	d="
M74.946182,148.726501 
	C75.148247,148.337570 75.590233,147.859009 76.255020,147.309189 
	C76.047256,147.704254 75.616684,148.170563 74.946182,148.726501 
z"/>
<path fill="#F8E7DA" opacity="1.000000" stroke="none" 
	d="
M27.691711,84.043846 
	C27.314310,84.385170 26.641582,84.707870 25.676535,85.036377 
	C26.054937,84.703201 26.725660,84.364212 27.691711,84.043846 
z"/>
<path fill="#F8E7DA" opacity="1.000000" stroke="none" 
	d="
M212.092010,120.807800 
	C211.962616,120.571365 211.940247,120.183426 211.910187,119.504364 
	C212.001358,119.694267 212.100220,120.175278 212.092010,120.807800 
z"/>
<path fill="#A48E5B" opacity="1.000000" stroke="none" 
	d="
M210.843567,124.332596 
	C210.883957,123.830414 211.173065,123.336494 211.656021,122.772018 
	C211.597336,123.247925 211.344803,123.794388 210.843567,124.332596 
z"/>
<path fill="#F3E8E1" opacity="1.000000" stroke="none" 
	d="
M121.771957,88.477829 
	C121.835335,88.840172 121.643478,89.276077 121.255852,89.856262 
	C121.212303,89.517494 121.364510,89.034439 121.771957,88.477829 
z"/>
<path fill="#A48E5B" opacity="1.000000" stroke="none" 
	d="
M201.108200,132.294128 
	C201.012360,132.205139 201.216599,132.040924 201.272034,132.020020 
	C201.327454,131.999100 201.418793,132.241318 201.418793,132.241318 
	C201.418793,132.241318 201.204041,132.383118 201.108200,132.294128 
z"/>
<path fill="#F8E7DA" opacity="1.000000" stroke="none" 
	d="
M211.851349,118.753281 
	C211.647324,118.745087 211.431870,118.454308 211.173553,117.890167 
	C211.367111,117.901443 211.603500,118.186073 211.851349,118.753281 
z"/>
<path fill="#A48E5B" opacity="1.000000" stroke="none" 
	d="
M24.215408,86.523277 
	C24.246485,86.526520 24.263220,86.701706 24.204586,86.668137 
	C24.145954,86.634575 24.184330,86.520035 24.215408,86.523277 
z"/>
<path fill="#D8213D" opacity="1.000000" stroke="none" 
	d="
M89.586670,101.856323 
	C90.007492,102.436867 90.085655,102.905090 90.284790,103.709732 
	C92.137642,108.635262 93.869530,113.224365 95.601418,117.813477 
	C96.168015,117.700577 96.734619,117.587685 97.301216,117.474785 
	C97.796555,112.247353 98.224236,107.012138 98.823448,101.796638 
	C99.036911,99.938721 99.666443,98.128593 100.799034,96.081299 
	C101.985176,95.238174 102.478333,94.610390 102.971481,93.982605 
	C104.070930,93.666161 105.170380,93.349716 106.637741,92.965057 
	C110.106354,96.867088 113.207054,100.837326 116.585907,105.002029 
	C118.674995,108.209152 120.485924,111.221817 122.964890,115.345810 
	C123.891289,105.717812 124.675301,97.569542 125.727264,89.184631 
	C127.710991,88.953110 129.426773,88.958221 131.571747,88.956146 
	C132.616989,90.247437 133.850174,91.594246 133.752853,92.836861 
	C132.859879,104.240715 131.899597,115.644867 130.622360,127.011116 
	C129.768478,134.609726 127.491859,135.934402 119.226036,133.801193 
	C115.843491,128.675110 112.774780,124.177429 109.706062,119.679756 
	C107.339790,117.088852 105.943634,118.145332 105.609726,121.028511 
	C105.189056,124.660904 104.740303,128.380722 105.086235,131.987762 
	C105.497650,136.277710 103.162834,138.407135 99.808197,138.885727 
	C96.493126,139.358627 92.241356,140.204834 90.857338,135.162170 
	C90.733795,134.712082 90.327118,134.339706 89.978821,133.214218 
	C88.175690,129.181458 86.643852,125.739174 84.638809,122.599045 
	C83.498444,120.813087 81.584320,119.521194 80.018646,118.006813 
	C76.490997,112.106422 73.016579,106.173264 69.413010,100.319611 
	C67.640572,97.440445 68.251907,95.759277 71.588310,95.275780 
	C74.539284,94.848152 77.676453,93.893661 80.425461,94.518303 
	C82.271263,94.937721 83.661133,97.643074 85.109123,99.443016 
	C86.211502,100.813332 86.361679,103.647881 89.586670,101.856323 
z"/>
<path fill="#D8203D" opacity="1.000000" stroke="none" 
	d="
M196.615509,107.070045 
	C200.615494,110.439339 204.293549,113.693832 208.302155,117.052338 
	C208.866699,117.885628 209.100677,118.614899 208.984116,119.707703 
	C208.416000,120.123451 208.198441,120.175674 207.980896,120.227890 
	C204.972961,120.806496 201.954407,121.335526 198.959686,121.975891 
	C194.946716,122.833992 191.678726,122.064682 188.891724,118.695999 
	C187.051010,116.471123 184.485367,114.846008 181.800354,112.577248 
	C179.702820,116.382843 177.940842,119.878983 175.900879,123.204582 
	C173.384796,127.306343 169.099167,128.239014 164.772400,125.424911 
	C164.741394,124.561455 164.830658,124.118584 165.205643,123.103943 
	C167.042709,120.040009 168.594025,117.547852 170.145325,115.055695 
	C171.045715,113.585159 171.946106,112.114632 173.226746,110.143814 
	C173.712982,109.050835 173.818970,108.458153 173.924973,107.865471 
	C173.924973,107.865471 173.931915,107.975922 174.206955,107.898499 
	C175.946960,104.256256 173.146957,100.980232 167.895432,100.114731 
	C167.895432,100.114731 167.891296,100.038681 167.900787,99.773727 
	C167.570404,99.365059 167.230545,99.221336 166.890686,99.077621 
	C166.890686,99.077621 166.909302,99.166473 166.967239,98.821724 
	C163.336639,95.358376 159.648087,92.239777 155.959549,89.121178 
	C157.462021,87.856560 158.964493,86.591934 160.777512,85.182098 
	C169.375427,84.987602 176.278610,88.157318 182.173737,94.837242 
	C184.918259,90.450081 187.351303,86.560837 189.965073,82.382698 
	C189.835297,82.415924 190.158463,82.257149 190.478455,82.263275 
	C193.039642,82.312271 195.600220,82.392441 198.160995,82.463074 
	C197.351196,84.858154 196.609818,87.279556 195.703537,89.637558 
	C195.229996,90.869659 194.473236,91.994019 193.832748,93.160652 
	C189.572144,100.921356 189.571121,100.920799 196.615509,107.070045 
z"/>
<path fill="#D9203C" opacity="1.000000" stroke="none" 
	d="
M49.993961,100.039932 
	C49.966309,96.011375 48.530018,93.600609 43.907894,94.193871 
	C41.648064,94.483917 39.245361,93.846512 37.031284,94.272774 
	C30.197609,95.588425 29.302229,94.978210 29.394444,87.423538 
	C31.235241,87.397095 32.991909,88.490593 34.070686,88.022346 
	C38.356606,86.162041 42.110092,86.090202 46.120243,88.912903 
	C48.791843,90.793434 51.704185,88.558334 51.572014,85.716721 
	C56.761894,84.770897 61.873611,83.839310 66.985329,82.907730 
	C66.985329,82.907730 66.992691,82.977608 67.398209,82.978004 
	C69.996643,82.978401 72.189560,82.978401 74.875801,82.978401 
	C74.098022,86.288750 73.543449,88.649117 72.988876,91.009491 
	C67.599495,91.623802 62.210121,92.238106 56.550743,92.883186 
	C57.045029,93.632988 57.192257,94.099037 57.390450,94.121819 
	C64.078033,94.890732 66.107704,99.455856 67.029137,105.325386 
	C67.609154,109.020042 68.942886,112.596382 70.061600,116.989479 
	C72.209167,125.849907 74.233627,133.946655 76.258080,142.043411 
	C76.258080,142.043411 76.115540,142.266006 75.841965,142.554840 
	C74.697929,142.982056 73.827477,143.120422 72.957024,143.258789 
	C70.595329,143.514862 68.233635,143.770950 65.218704,143.814331 
	C63.695641,142.114624 62.461891,140.729218 62.014015,139.124451 
	C58.646938,127.060143 55.467613,114.943481 52.116627,102.874550 
	C51.822414,101.814911 50.720642,100.979492 49.993961,100.039932 
z"/>
<path fill="#D8203C" opacity="1.000000" stroke="none" 
	d="
M144.627869,87.067429 
	C146.331909,87.112457 147.677597,87.184517 148.988312,87.437698 
	C149.724503,87.579903 150.402847,88.021484 151.273270,88.663902 
	C154.208908,100.384605 156.972519,111.771065 159.770523,123.149063 
	C159.880508,123.596359 160.319077,123.962860 160.803894,124.683044 
	C161.117340,129.571487 156.948944,129.250900 154.508621,129.893600 
	C148.555222,131.461487 146.318375,129.209412 144.651169,121.408310 
	C143.903549,117.910019 143.033951,114.437782 142.293228,110.376129 
	C140.550339,102.831673 138.733932,95.864815 136.917542,88.897957 
	C139.363327,88.322037 141.809113,87.746124 144.627869,87.067429 
z"/>
<path fill="#1B140C" opacity="1.000000" stroke="none" 
	d="
M97.482727,145.241440 
	C98.564789,147.202789 98.610344,148.490982 96.014473,149.176361 
	C90.459396,150.642990 86.882408,149.638809 83.473488,144.860718 
	C81.750870,142.446213 80.196846,139.911438 78.100800,136.910629 
	C76.557686,132.545319 75.480362,128.700409 74.772842,124.941406 
	C77.059166,127.054146 78.975685,129.080978 80.892204,131.107819 
	C82.725853,134.368622 84.624352,137.595016 86.377289,140.898636 
	C88.752007,145.374084 92.934235,145.163727 97.482727,145.241440 
z"/>
<path fill="#D61637" opacity="1.000000" stroke="none" 
	d="
M66.585938,82.962311 
	C61.873611,83.839310 56.761894,84.770897 51.572014,85.716721 
	C51.704185,88.558334 48.791843,90.793434 46.120243,88.912903 
	C42.110092,86.090202 38.356606,86.162041 34.070686,88.022346 
	C32.991909,88.490593 31.235241,87.397095 29.463697,87.007599 
	C29.090086,86.820923 29.042879,86.647949 28.995541,86.205765 
	C40.026257,84.872910 51.057098,83.809265 62.547523,82.729523 
	C64.066917,82.814583 65.126740,82.915733 66.585938,82.962311 
M45.854820,86.685089 
	C45.928074,86.557053 46.001328,86.429008 46.074577,86.300972 
	C45.957645,86.355629 45.840714,86.410286 45.854820,86.685089 
z"/>
<path fill="#B79B61" opacity="1.000000" stroke="none" 
	d="
M134.210220,111.092300 
	C134.500244,110.015472 134.790268,108.938644 135.080292,107.861816 
	C135.489243,107.883331 135.898193,107.904854 136.307129,107.926369 
	C138.751038,116.721718 141.194931,125.517059 143.593185,134.735901 
	C142.759827,134.777557 141.972107,134.395752 141.033539,133.666946 
	C138.658539,125.910744 136.434372,118.501518 134.210220,111.092300 
z"/>
<path fill="#0E0B06" opacity="1.000000" stroke="none" 
	d="
M134.156097,111.524063 
	C136.434372,118.501518 138.658539,125.910744 140.979446,134.024200 
	C142.333801,136.233200 143.591385,137.737946 144.702042,139.463928 
	C144.330811,139.960297 144.106537,140.235428 143.882248,140.510574 
	C141.036972,140.665131 139.471466,139.806503 138.799698,136.549911 
	C137.617355,130.818237 135.677933,125.242752 133.914536,119.228210 
	C133.883011,116.554993 133.992508,114.255409 134.156097,111.524063 
z"/>
<path fill="#E9DCD5" opacity="1.000000" stroke="none" 
	d="
M74.403030,124.855515 
	C75.480362,128.700409 76.557686,132.545319 77.829575,136.716522 
	C78.014549,137.486465 78.004974,137.930084 77.724274,138.923248 
	C77.365395,139.870178 77.277634,140.267548 77.189865,140.664917 
	C77.189865,140.664917 77.377754,140.774261 77.429222,140.799164 
	C77.308563,141.059204 77.136444,141.294327 76.611198,141.786423 
	C74.233627,133.946655 72.209167,125.849907 70.181091,117.360931 
	C70.678566,115.848549 71.179672,114.728394 72.060562,112.759262 
	C72.497498,114.452194 72.738403,115.385605 72.963669,117.059479 
	C73.433029,120.151802 73.918030,122.503662 74.403030,124.855515 
z"/>
<path fill="#533E13" opacity="1.000000" stroke="none" 
	d="
M144.220871,140.659271 
	C144.106537,140.235428 144.330811,139.960297 145.078674,139.416000 
	C147.222763,138.078217 148.843277,137.009583 150.866409,135.897827 
	C151.538177,135.833984 151.807312,135.813232 152.076462,135.792496 
	C154.423447,135.498688 156.770416,135.204880 159.491364,134.876221 
	C161.753036,135.181717 163.640762,135.522079 165.960938,135.896332 
	C163.110382,136.821411 159.855347,137.839584 156.537125,138.570999 
	C152.572830,139.444778 148.554443,140.073227 144.220871,140.659271 
z"/>
<path fill="#AE966D" opacity="1.000000" stroke="none" 
	d="
M117.991776,140.714951 
	C116.030243,139.938583 113.606918,139.203934 112.100525,137.605286 
	C110.238396,135.629089 109.137772,132.935303 107.442764,130.371826 
	C107.177391,129.043732 107.177391,127.895386 107.177391,126.144783 
	C110.987572,131.183533 114.462151,135.778473 117.991776,140.714951 
z"/>
<path fill="#AA935F" opacity="1.000000" stroke="none" 
	d="
M74.772842,124.941406 
	C73.918030,122.503662 73.433029,120.151802 72.976700,117.411133 
	C75.719650,121.472801 78.433937,125.923271 81.020218,130.740784 
	C78.975685,129.080978 77.059166,127.054146 74.772842,124.941406 
z"/>
<path fill="#D61637" opacity="1.000000" stroke="none" 
	d="
M73.323639,91.082031 
	C73.543449,88.649117 74.098022,86.288750 74.875801,82.978401 
	C72.189560,82.978401 69.996643,82.978401 67.365623,82.964874 
	C70.336746,82.295670 73.745972,81.639992 77.800346,80.860229 
	C78.147560,83.929482 78.476585,86.837952 78.266235,89.547615 
	C77.359589,88.876808 76.992325,88.404800 76.625053,87.932800 
	C76.081940,88.915909 75.538834,89.899017 74.995720,90.882126 
	C74.549950,90.972939 74.104172,91.063751 73.323639,91.082031 
M76.310730,83.856407 
	C76.383934,83.812630 76.457138,83.768860 76.310730,83.856407 
z"/>
<path fill="#891A1E" opacity="1.000000" stroke="none" 
	d="
M136.716019,88.932526 
	C138.733932,95.864815 140.550339,102.831673 142.081879,110.056213 
	C139.869156,103.482788 137.941315,96.651680 136.063263,89.432686 
	C136.113022,89.044800 136.514496,88.967102 136.716019,88.932526 
z"/>
<path fill="#891A1E" opacity="1.000000" stroke="none" 
	d="
M80.003906,118.362183 
	C81.584320,119.521194 83.498444,120.813087 84.638809,122.599045 
	C86.643852,125.739174 88.175690,129.181458 89.868111,132.875946 
	C86.550072,128.408981 83.269623,123.563271 80.003906,118.362183 
z"/>
<path fill="#891A1E" opacity="1.000000" stroke="none" 
	d="
M109.440689,119.891357 
	C112.774780,124.177429 115.843491,128.675110 118.922455,133.532288 
	C115.680237,129.295532 112.427780,124.699242 109.440689,119.891357 
z"/>
<path fill="#A48E5B" opacity="1.000000" stroke="none" 
	d="
M150.463791,135.940933 
	C148.843277,137.009583 147.222763,138.078217 145.225616,139.194778 
	C143.591385,137.737946 142.333801,136.233200 141.130295,134.371185 
	C141.972107,134.395752 142.759827,134.777557 143.774963,135.061295 
	C145.310822,135.258514 146.619278,135.553802 148.582642,135.887375 
	C149.646317,135.930740 150.055054,135.935837 150.463791,135.940933 
z"/>
<path fill="#D9203C" opacity="1.000000" stroke="none" 
	d="
M75.325821,90.937271 
	C75.538834,89.899017 76.081940,88.915909 76.625053,87.932800 
	C76.992325,88.404800 77.359589,88.876808 77.854263,89.592407 
	C77.206421,90.221466 76.431175,90.606941 75.325821,90.937271 
z"/>
<path fill="#9C9064" opacity="1.000000" stroke="none" 
	d="
M150.866409,135.897827 
	C150.055054,135.935837 149.646317,135.930740 148.928192,135.895126 
	C149.642075,135.657730 150.665344,135.450836 151.882538,135.518219 
	C151.807312,135.813232 151.538177,135.833984 150.866409,135.897827 
z"/>
<path fill="#F8E7DA" opacity="1.000000" stroke="none" 
	d="
M208.010101,120.439598 
	C208.198441,120.175674 208.416000,120.123451 208.968384,120.092308 
	C209.209869,120.497078 209.116516,120.880768 209.023178,121.264450 
	C208.695221,121.060066 208.367279,120.855690 208.010101,120.439598 
z"/>
<path fill="#0E0B06" opacity="1.000000" stroke="none" 
	d="
M33.011387,102.277344 
	C35.533108,101.726578 38.054832,101.175819 40.816010,100.345001 
	C46.823425,100.866371 44.310825,106.081230 45.821098,109.946365 
	C47.898098,119.370476 50.010521,127.974419 52.227840,136.551239 
	C52.380001,137.139832 53.316616,137.525620 53.888420,138.005707 
	C54.800793,141.753067 55.713165,145.500443 56.808243,149.540405 
	C58.699406,150.611481 60.372421,151.928635 62.124508,152.043915 
	C64.849518,152.223190 67.628296,151.585251 70.384293,151.293686 
	C70.531097,151.689987 70.677902,152.086304 70.824699,152.482605 
	C69.301033,153.013733 67.784866,153.567749 66.251762,154.070038 
	C64.429909,154.666931 62.593498,155.219376 60.431305,155.956543 
	C53.077446,155.935059 52.700050,155.381790 50.993416,148.452499 
	C47.743546,135.257355 44.177219,122.140442 40.845848,108.964867 
	C39.891968,105.192261 37.983116,103.097412 33.437229,103.540459 
	C33.014530,102.938011 33.012840,102.607681 33.011387,102.277344 
z"/>
<path fill="#830E14" opacity="1.000000" stroke="none" 
	d="
M49.983410,100.439499 
	C50.720642,100.979492 51.822414,101.814911 52.116627,102.874550 
	C55.467613,114.943481 58.646938,127.060143 62.014015,139.124451 
	C62.461891,140.729218 63.695641,142.114624 64.813187,143.869125 
	C63.952763,144.596222 62.844612,145.055801 61.551601,145.592072 
	C57.601982,130.326401 53.787422,115.582726 49.983410,100.439499 
z"/>
<path fill="#AA935F" opacity="1.000000" stroke="none" 
	d="
M54.015423,137.592926 
	C53.316616,137.525620 52.380001,137.139832 52.227840,136.551239 
	C50.010521,127.974419 47.898098,119.370476 45.832706,110.347275 
	C47.234226,112.788101 48.973927,115.540886 49.807198,118.545082 
	C51.510281,124.685211 52.725994,130.960510 54.015423,137.592926 
z"/>
<path fill="#E9DCD5" opacity="1.000000" stroke="none" 
	d="
M72.998962,143.489273 
	C73.827477,143.120422 74.697929,142.982056 75.860832,142.685669 
	C75.115814,142.925003 74.078354,143.322372 72.998962,143.489273 
z"/>
<path fill="#AF9C6F" opacity="1.000000" stroke="none" 
	d="
M162.968109,120.972771 
	C162.382736,120.176010 161.797348,119.379242 161.493408,118.096039 
	C166.829391,110.104843 166.439911,108.236649 159.133652,104.940712 
	C158.431412,103.137596 157.729172,101.334473 157.026932,99.531357 
	C157.462006,99.203835 157.897079,98.876320 158.332153,98.548805 
	C161.901474,101.548347 165.470795,104.547897 169.124603,108.151520 
	C169.136536,109.168732 169.063965,109.581848 168.991394,109.994972 
	C168.991394,109.994972 169.000000,110.000000 168.797699,110.204788 
	C168.392792,110.934708 168.190186,111.459839 167.987579,111.984970 
	C167.716461,112.141380 167.500473,112.353828 167.100067,113.139832 
	C165.563049,116.095825 164.265579,118.534302 162.968109,120.972771 
z"/>
<path fill="#C7941D" opacity="1.000000" stroke="none" 
	d="
M159.027191,105.366623 
	C166.439911,108.236649 166.829391,110.104843 161.475174,117.771393 
	C160.423904,113.886299 159.672318,109.839424 159.027191,105.366623 
z"/>
<path fill="#F5EDE9" opacity="1.000000" stroke="none" 
	d="
M163.200714,121.144958 
	C164.265579,118.534302 165.563049,116.095825 167.039902,113.360855 
	C167.992355,113.694481 168.765427,114.324600 169.841919,115.005203 
	C168.594025,117.547852 167.042709,120.040009 165.244049,122.765678 
	C164.475586,122.438515 163.954468,121.877831 163.200714,121.144958 
z"/>
<path fill="#891A1E" opacity="1.000000" stroke="none" 
	d="
M156.021973,89.449158 
	C159.648087,92.239777 163.336639,95.358376 166.923065,98.832108 
	C163.242096,96.050537 159.663239,92.913834 156.021973,89.449158 
z"/>
<path fill="#891A1E" opacity="1.000000" stroke="none" 
	d="
M167.934113,100.452011 
	C173.146957,100.980232 175.946960,104.256256 174.151657,107.896454 
	C173.821320,107.971817 173.859573,107.482491 173.910980,106.984764 
	C173.471909,105.987831 172.981430,105.488625 172.490952,104.989418 
	C170.984894,103.589378 169.478851,102.189339 167.934113,100.452011 
z"/>
<path fill="#F5EDE9" opacity="1.000000" stroke="none" 
	d="
M172.161835,105.025497 
	C172.981430,105.488625 173.471909,105.987831 173.875061,106.741997 
	C172.744980,106.751213 171.702225,106.505470 170.659470,106.259720 
	C171.050552,105.860336 171.441650,105.460953 172.161835,105.025497 
z"/>
<path fill="#F5EDE9" opacity="1.000000" stroke="none" 
	d="
M168.219025,111.806213 
	C168.190186,111.459839 168.392792,110.934708 168.794128,110.200912 
	C168.812057,110.537331 168.631271,111.082390 168.219025,111.806213 
z"/>
<path fill="#891A1E" opacity="1.000000" stroke="none" 
	d="
M173.657654,108.037048 
	C173.818970,108.458153 173.712982,109.050835 173.360260,109.829239 
	C173.205811,109.412842 173.298065,108.810730 173.657654,108.037048 
z"/>
<path fill="#F5EDE9" opacity="1.000000" stroke="none" 
	d="
M169.184387,109.872177 
	C169.063965,109.581848 169.136536,109.168732 169.317688,108.460480 
	C169.409988,108.693367 169.393692,109.221375 169.184387,109.872177 
z"/>
<path fill="#891A1E" opacity="1.000000" stroke="none" 
	d="
M166.893082,99.379395 
	C167.230545,99.221336 167.570404,99.365059 167.918457,99.807137 
	C167.582932,99.964050 167.239197,99.822609 166.893082,99.379395 
z"/>
<path fill="#141106" opacity="1.000000" stroke="none" 
	d="
M32.627472,102.262924 
	C33.012840,102.607681 33.014530,102.938011 33.019611,103.513062 
	C31.557762,103.916466 30.089762,104.051620 28.628256,104.237793 
	C21.477358,105.148682 17.716528,101.792816 18.344717,94.654831 
	C18.455492,93.396118 20.136847,92.275612 21.440388,91.067780 
	C22.093782,92.480812 22.316795,93.941040 22.719482,95.349907 
	C24.832563,102.742928 24.848362,102.738411 32.627472,102.262924 
z"/>
<path fill="#D9203C" opacity="1.000000" stroke="none" 
	d="
M102.624405,94.010857 
	C102.478333,94.610390 101.985176,95.238174 101.165039,95.898010 
	C101.317810,95.299751 101.797569,94.669434 102.624405,94.010857 
z"/>
<path fill="#CE1F35" opacity="1.000000" stroke="none" 
	d="
M145.017075,83.023109 
	C145.017075,83.023109 145.006790,83.464111 144.982895,83.683411 
	C143.158981,84.533058 141.358978,85.163399 139.355133,85.364883 
	C138.479568,84.619957 137.807861,84.303894 137.136139,83.987823 
	C137.136139,83.987823 136.991165,83.532471 136.975220,83.283997 
	C136.959274,83.035522 136.985931,83.015518 137.413971,82.924423 
	C139.871658,82.877563 141.901291,82.921806 144.202377,82.981857 
	C144.654907,83.006149 144.835999,83.014633 145.017075,83.023109 
z"/>
<path fill="#CE1F35" opacity="1.000000" stroke="none" 
	d="
M136.946930,83.046738 
	C135.948395,82.294006 134.962173,81.530075 133.949509,80.420593 
	C133.923050,80.075058 133.952042,80.047096 134.312912,79.967957 
	C135.444504,80.931046 136.215210,81.973282 136.985931,83.015518 
	C136.985931,83.015518 136.959274,83.035522 136.946930,83.046738 
z"/>
<path fill="#F7EFEA" opacity="1.000000" stroke="none" 
	d="
M131.947342,85.952782 
	C132.176071,85.128197 132.404785,84.303612 132.633499,83.479034 
	C133.002991,83.615738 133.372498,83.752441 133.741989,83.889153 
	C133.381348,84.556145 133.020706,85.223137 132.326080,85.941711 
	C131.992081,85.993286 131.947342,85.952782 131.947342,85.952782 
z"/>
<path fill="#F7EFEA" opacity="1.000000" stroke="none" 
	d="
M132.013916,86.014114 
	C132.026581,86.469795 132.017410,86.904648 132.009613,87.665634 
	C132.010986,87.991760 132.000015,88.000046 131.995697,88.005592 
	C131.501114,87.696640 131.010864,87.382141 130.520599,87.067642 
	C130.813568,86.747116 131.106537,86.426590 131.673416,86.029419 
	C131.947342,85.952782 131.992081,85.993286 132.013916,86.014114 
z"/>
<path fill="#141106" opacity="1.000000" stroke="none" 
	d="
M126.987076,82.721832 
	C127.826683,82.977875 128.564789,83.596001 129.302887,84.214127 
	C128.486481,84.231972 127.670074,84.249817 126.657181,83.986084 
	C126.602310,83.497643 126.743942,83.290779 126.987076,82.721832 
z"/>
<path fill="#830E14" opacity="1.000000" stroke="none" 
	d="
M137.154419,84.314865 
	C137.807861,84.303894 138.479568,84.619957 139.061493,85.178116 
	C138.372040,85.160767 137.772369,84.901337 137.154419,84.314865 
z"/>
<path fill="#F5EFEC" opacity="1.000000" stroke="none" 
	d="
M77.557823,140.589569 
	C77.277634,140.267548 77.365395,139.870178 77.670715,139.253448 
	C77.900772,139.527451 77.913277,140.020844 77.557823,140.589569 
z"/>
<path fill="#E9AB20" opacity="1.000000" stroke="none" 
	d="
M147.520508,68.531387 
	C147.482224,68.551125 147.558777,68.511650 147.520508,68.531387 
z"/>
<path fill="#B79B61" opacity="1.000000" stroke="none" 
	d="
M137.413971,82.924423 
	C136.215210,81.973282 135.444504,80.931046 134.326965,79.953529 
	C134.291183,77.884918 134.602219,75.751587 135.327118,73.505905 
	C136.141769,74.276955 136.542526,75.160355 137.032806,76.409241 
	C138.128067,78.224915 139.133804,79.675087 140.457520,81.115913 
	C141.188950,81.015724 141.602371,80.924896 142.391953,80.923019 
	C142.613892,78.675720 142.459686,76.339470 142.739609,73.997040 
	C143.462936,74.003052 143.752121,74.015259 144.041321,74.027466 
	C144.310150,74.156540 144.550827,74.325676 145.084656,75.055428 
	C145.575302,77.372192 145.744614,79.168396 145.682617,81.128220 
	C144.944504,81.849907 144.437714,82.407974 143.930923,82.966042 
	C141.901291,82.921806 139.871658,82.877563 137.413971,82.924423 
z"/>
<path fill="#D8213D" opacity="1.000000" stroke="none" 
	d="
M144.202377,82.981857 
	C144.437714,82.407974 144.944504,81.849907 145.929276,80.966530 
	C146.601471,80.091980 146.795685,79.542740 146.989883,78.993500 
	C147.402420,78.996429 147.814941,78.999367 148.535461,79.021866 
	C147.806961,80.351051 146.770477,81.660652 145.375549,82.996689 
	C144.835999,83.014633 144.654907,83.006149 144.202377,82.981857 
z"/>
<path fill="#B79B61" opacity="1.000000" stroke="none" 
	d="
M136.919189,72.008888 
	C138.316254,72.043968 139.713303,72.079056 141.506042,72.417038 
	C141.901718,72.719925 141.966782,73.101234 141.603455,73.071350 
	C140.847733,74.029633 140.455322,75.017807 139.765137,75.929718 
	C139.272522,75.278191 139.077667,74.702934 138.780624,73.846275 
	C138.092026,73.046211 137.505600,72.527550 136.919189,72.008888 
z"/>
<path fill="#896C2C" opacity="1.000000" stroke="none" 
	d="
M136.673523,72.036102 
	C137.505600,72.527550 138.092026,73.046211 138.447845,73.821243 
	C137.792587,74.732986 137.367935,75.388367 136.943283,76.043747 
	C136.542526,75.160355 136.141769,74.276955 135.551758,73.165581 
	C135.717621,72.646172 136.072723,72.354744 136.673523,72.036102 
z"/>
<path fill="#891A1E" opacity="1.000000" stroke="none" 
	d="
M146.981049,78.626846 
	C146.795685,79.542740 146.601471,80.091980 146.160599,80.802902 
	C145.744614,79.168396 145.575302,77.372192 145.247375,75.205696 
	C145.716583,75.976997 146.344406,77.118591 146.981049,78.626846 
z"/>
<path fill="#896C2C" opacity="1.000000" stroke="none" 
	d="
M141.966782,73.101234 
	C141.966782,73.101234 141.901718,72.719925 141.911285,72.528061 
	C142.581467,72.698112 143.242081,73.060020 143.972000,73.724701 
	C143.752121,74.015259 143.462936,74.003052 142.621277,73.876556 
	C141.962250,73.553116 141.928238,73.332779 141.966782,73.101234 
z"/>
<path fill="#D9203C" opacity="1.000000" stroke="none" 
	d="
M45.789299,86.575012 
	C45.840714,86.410286 45.957645,86.355629 46.074577,86.300972 
	C46.001328,86.429008 45.928074,86.557053 45.789299,86.575012 
z"/>
<path fill="#D9203C" opacity="1.000000" stroke="none" 
	d="
M76.420532,83.790749 
	C76.457138,83.768860 76.383934,83.812630 76.420532,83.790749 
z"/>
<path fill="#1B140C" opacity="1.000000" stroke="none" 
	d="
M141.603455,73.071350 
	C141.928238,73.332779 141.962250,73.553116 142.187134,73.882736 
	C142.459686,76.339470 142.613892,78.675720 142.362061,80.657120 
	C141.669968,79.867462 141.383942,79.432648 141.074051,78.656952 
	C140.691010,77.531700 140.331818,76.747322 140.002167,75.959061 
	C140.031723,75.955170 140.062912,76.005989 140.062912,76.005989 
	C140.455322,75.017807 140.847733,74.029633 141.603455,73.071350 
z"/>
<path fill="#0E0B06" opacity="1.000000" stroke="none" 
	d="
M137.032806,76.409241 
	C137.367935,75.388367 137.792587,74.732986 138.550034,74.102646 
	C139.077667,74.702934 139.272522,75.278191 139.765137,75.929718 
	C140.062912,76.005989 140.031723,75.955170 139.976730,76.338486 
	C139.972076,77.480873 140.022430,78.239937 140.070862,79.353973 
	C140.092468,80.181046 140.115997,80.653152 140.139526,81.125267 
	C139.133804,79.675087 138.128067,78.224915 137.032806,76.409241 
z"/>
<path fill="#5F4812" opacity="1.000000" stroke="none" 
	d="
M140.457520,81.115913 
	C140.115997,80.653152 140.092468,80.181046 140.327057,79.367737 
	C140.756058,79.016968 140.926971,79.007401 141.097900,78.997833 
	C141.383942,79.432648 141.669968,79.867462 141.985901,80.568169 
	C141.602371,80.924896 141.188950,81.015724 140.457520,81.115913 
z"/>
<path fill="#896C2C" opacity="1.000000" stroke="none" 
	d="
M141.074051,78.656952 
	C140.926971,79.007401 140.756058,79.016968 140.328964,79.012772 
	C140.022430,78.239937 139.972076,77.480873 139.947174,76.342377 
	C140.331818,76.747322 140.691010,77.531700 141.074051,78.656952 
z"/>
</pattern>
</svg>