<svg version="1.1" xmlns="http://www.w3.org/2000/svg" xmlns:xlink="http://www.w3.org/1999/xlink" x="0px" y="0px" viewBox="0 0 0 0" width="0" height="0">
<pattern  id="tootsie-pop" patternUnits="userSpaceOnUse" width="600" height="560" patternTransform="scale(0.07),translate(-200,-180)">
<path fill="#000000" opacity="1.000000" stroke="none" 
	d="
M452.000000,664.000000 
	C301.683563,664.000000 151.367157,664.000000 1.025363,664.000000 
	C1.025363,443.041779 1.025363,222.083527 1.025363,1.062648 
	C400.913239,1.062648 800.826477,1.062648 1200.869873,1.062648 
	C1200.869873,221.888321 1200.869873,442.776733 1200.869873,664.000000 
	C960.305420,664.000000 719.610657,664.000000 478.512085,663.614380 
	C479.112274,662.816650 480.082397,662.258606 481.125854,662.016418 
	C487.726196,660.484802 494.585144,659.696350 500.910950,657.418884 
	C525.108337,648.707458 545.528198,634.495178 562.613281,615.097900 
	C575.679016,600.263916 586.736023,584.151733 595.069702,566.400635 
	C602.692139,550.164673 608.788391,533.212219 615.187683,517.483765 
	C619.988892,540.125061 625.951965,563.877563 635.962952,586.429749 
	C644.648926,605.997070 656.028687,623.592529 673.285583,636.637207 
	C686.270264,646.452454 700.781677,652.521912 717.536377,652.039551 
	C729.299194,651.700867 740.625427,649.319702 751.338013,644.681274 
	C766.524719,638.105652 779.813110,628.936401 788.740173,614.483459 
	C797.642517,600.070435 803.656189,584.452515 806.933350,567.923218 
	C810.049683,552.205078 813.555664,536.377014 814.390015,520.466187 
	C814.862732,511.451630 819.398621,509.681244 825.590698,507.208435 
	C845.562317,499.232758 863.196960,487.448303 878.666382,472.673340 
	C896.360718,455.773407 908.811157,435.311646 917.045898,412.287933 
	C919.121460,406.484802 921.123657,400.655426 923.392151,394.173462 
	C939.128967,421.304565 961.574280,440.856476 985.311523,459.186798 
	C988.386841,461.561554 991.138245,464.355804 994.026306,466.970673 
	C994.012939,466.985626 993.989624,467.016388 993.584473,466.999939 
	C986.206970,465.609161 979.260010,464.086853 972.257874,462.886841 
	C946.028748,458.391876 924.887146,468.247620 908.884216,488.109955 
	C891.051758,510.243134 887.715942,536.061340 895.983765,562.935547 
	C904.351624,590.134888 922.832825,610.165955 945.517395,626.094421 
	C979.269592,649.794189 1017.145813,656.362305 1057.516235,650.076355 
	C1094.076050,644.383789 1124.661377,627.568787 1149.968140,600.639893 
	C1163.481445,586.260559 1173.731201,569.940308 1181.060791,551.743347 
	C1190.629150,527.988220 1195.403687,503.429565 1191.882568,477.783020 
	C1188.369141,452.193848 1178.823975,428.803741 1164.765503,407.259186 
	C1152.489136,388.445557 1138.431274,371.034058 1122.611572,355.050629 
	C1119.758545,352.168030 1117.333374,348.862091 1114.654541,345.685028 
	C1115.290649,345.341339 1115.557251,345.077545 1115.832275,345.068298 
	C1117.497070,345.012115 1119.170044,345.103455 1120.828613,344.982513 
	C1133.649658,344.047913 1145.278564,339.892426 1154.552246,330.844025 
	C1175.517700,310.387573 1180.445679,285.059326 1174.142212,257.597839 
	C1168.079102,231.183319 1153.077637,209.883453 1132.208130,192.678070 
	C1107.572632,172.368103 1078.829224,162.651978 1047.396240,161.261810 
	C1034.757568,160.702866 1021.810913,162.002838 1009.321838,164.233566 
	C983.854004,168.782455 961.672119,180.715195 943.122009,198.638580 
	C933.096436,208.325409 924.896912,219.734604 918.822021,232.450897 
	C915.783752,238.810715 912.914734,245.251404 909.766724,252.095642 
	C908.863770,250.871979 908.160278,250.013901 907.559204,249.089279 
	C902.503540,241.312546 897.847961,233.242035 892.349243,225.793533 
	C878.433105,206.942993 860.723022,192.187881 840.387634,180.819489 
	C812.517456,165.238876 782.130737,157.872894 750.464600,156.140320 
	C729.399963,154.987778 708.707642,157.866974 689.061707,166.126495 
	C677.791504,170.864670 666.883301,176.822159 658.920654,185.997498 
	C638.846191,209.129196 627.057373,236.708084 618.864075,265.940979 
	C616.438965,274.593750 614.155884,283.286346 612.163147,290.647797 
	C604.272644,274.098541 596.496399,256.675293 587.743774,239.757187 
	C579.636047,224.085709 569.326965,209.659760 556.604736,197.437775 
	C547.576965,188.764999 537.580261,180.866043 527.138367,173.946213 
	C500.902435,156.559875 472.006592,152.116516 441.372406,158.770599 
	C407.476013,166.133240 382.610260,187.023819 361.116333,212.820847 
	C347.935791,228.640167 338.219940,246.592407 329.471680,265.106018 
	C327.677551,268.902893 326.165314,272.832977 324.094055,277.712555 
	C323.119354,275.406433 322.624542,274.241302 322.134033,273.074341 
	C318.793427,265.126648 316.058136,256.853607 311.994263,249.294861 
	C301.951630,230.615677 289.163452,214.095215 272.887390,200.178009 
	C258.822174,188.151245 243.418716,178.309097 226.458344,171.453674 
	C197.446518,159.727005 167.302765,153.517990 135.664566,155.852264 
	C123.147324,156.775803 110.997826,158.690567 99.180519,162.830643 
	C85.517349,167.617355 72.478317,174.092606 63.004997,184.980896 
	C54.588017,194.655090 47.407341,205.691986 41.252460,216.983978 
	C30.400427,236.893585 23.695333,258.492065 18.270370,280.494995 
	C11.104590,309.558441 7.114446,339.108307 6.243973,368.928650 
	C5.653897,389.143250 6.792240,409.459167 8.136477,429.664642 
	C9.409488,448.799500 11.632302,467.890472 14.022087,486.927338 
	C17.706245,516.275085 24.072620,545.058228 34.473076,572.812256 
	C43.058105,595.721741 54.209625,617.021362 73.515747,633.087891 
	C83.555840,641.443298 94.817894,647.219666 107.507256,649.924622 
	C120.646294,652.725342 133.633041,650.895996 146.283844,646.918091 
	C170.632889,639.261902 189.132263,624.618652 199.501099,600.843933 
	C210.618301,575.353210 215.944031,548.463440 217.973892,520.857727 
	C218.468338,514.133362 220.174332,509.688843 227.701797,506.790100 
	C252.682068,497.170502 274.179016,482.071686 291.769379,461.703979 
	C295.094055,457.854370 298.215912,453.829620 302.055878,449.119690 
	C302.487610,453.684387 302.448792,457.371338 303.231934,460.874573 
	C307.602448,480.425995 311.232117,500.208740 316.863434,519.399353 
	C329.687225,563.100708 350.129425,602.527588 385.355438,632.818604 
	C402.431274,647.502136 421.862671,657.398193 444.264526,661.134399 
	C446.928253,661.578674 449.425537,663.020569 452.000000,664.000000 
M757.500000,139.996277 
	C827.651428,139.995926 897.802979,139.948441 967.954041,140.098526 
	C972.761780,140.108810 974.124512,138.822235 974.101990,133.981873 
	C973.914001,93.658112 973.914551,53.332722 974.100281,13.008934 
	C974.122559,8.180073 972.747253,6.911426 967.961548,6.904949 
	C812.534424,6.694617 657.107544,6.311381 501.680450,6.024357 
	C447.025696,5.923427 392.370605,6.005698 337.715668,6.006085 
	C336.382812,6.006094 334.901825,5.668744 333.759735,6.141104 
	C332.666840,6.593120 331.323730,7.792023 331.140503,8.845307 
	C330.519104,12.416845 330.079834,16.068714 330.072388,19.690928 
	C329.993713,57.848602 330.054352,96.006615 329.936371,134.164093 
	C329.925049,137.810013 330.914459,139.050949 334.710449,139.075714 
	C362.665283,139.258057 390.618439,139.918442 418.572571,139.946075 
	C531.214966,140.057465 643.857483,139.994705 757.500000,139.996277 
M1162.993286,611.490051 
	C1167.450317,615.832214 1172.561523,617.197693 1178.412720,614.712952 
	C1183.846436,612.405579 1186.527466,607.979431 1186.927124,602.321533 
	C1187.337524,596.513428 1184.555298,592.217285 1179.560547,589.318665 
	C1174.720581,586.509766 1166.507812,587.783936 1162.555298,591.960449 
	C1157.716431,597.073792 1157.683105,604.041626 1162.993286,611.490051 
z"/>
<path fill="#4D2216" opacity="1.000000" stroke="none" 
	d="
M994.039673,466.955719 
	C991.138245,464.355804 988.386841,461.561554 985.311523,459.186798 
	C961.574280,440.856476 939.128967,421.304565 923.392151,394.173462 
	C921.123657,400.655426 919.121460,406.484802 917.045898,412.287933 
	C908.811157,435.311646 896.360718,455.773407 878.666382,472.673340 
	C863.196960,487.448303 845.562317,499.232758 825.590698,507.208435 
	C819.398621,509.681244 814.862732,511.451630 814.390015,520.466187 
	C813.555664,536.377014 810.049683,552.205078 806.933350,567.923218 
	C803.656189,584.452515 797.642517,600.070435 788.740173,614.483459 
	C779.813110,628.936401 766.524719,638.105652 751.338013,644.681274 
	C740.625427,649.319702 729.299194,651.700867 717.536377,652.039551 
	C700.781677,652.521912 686.270264,646.452454 673.285583,636.637207 
	C656.028687,623.592529 644.648926,605.997070 635.962952,586.429749 
	C625.951965,563.877563 619.988892,540.125061 615.187683,517.483765 
	C608.788391,533.212219 602.692139,550.164673 595.069702,566.400635 
	C586.736023,584.151733 575.679016,600.263916 562.613281,615.097900 
	C545.528198,634.495178 525.108337,648.707458 500.910950,657.418884 
	C494.585144,659.696350 487.726196,660.484802 481.125854,662.016418 
	C480.082397,662.258606 479.112274,662.816650 478.054138,663.614380 
	C469.645782,664.000000 461.291534,664.000000 452.468658,664.000000 
	C449.425537,663.020569 446.928253,661.578674 444.264526,661.134399 
	C421.862671,657.398193 402.431274,647.502136 385.355438,632.818604 
	C350.129425,602.527588 329.687225,563.100708 316.863434,519.399353 
	C311.232117,500.208740 307.602448,480.425995 303.231934,460.874573 
	C302.448792,457.371338 302.487610,453.684387 302.055878,449.119690 
	C298.215912,453.829620 295.094055,457.854370 291.769379,461.703979 
	C274.179016,482.071686 252.682068,497.170502 227.701797,506.790100 
	C220.174332,509.688843 218.468338,514.133362 217.973892,520.857727 
	C215.944031,548.463440 210.618301,575.353210 199.501099,600.843933 
	C189.132263,624.618652 170.632889,639.261902 146.283844,646.918091 
	C133.633041,650.895996 120.646294,652.725342 107.507256,649.924622 
	C94.817894,647.219666 83.555840,641.443298 73.515747,633.087891 
	C54.209625,617.021362 43.058105,595.721741 34.473076,572.812256 
	C24.072620,545.058228 17.706245,516.275085 14.022087,486.927338 
	C11.632302,467.890472 9.409488,448.799500 8.136477,429.664642 
	C6.792240,409.459167 5.653897,389.143250 6.243973,368.928650 
	C7.114446,339.108307 11.104590,309.558441 18.270370,280.494995 
	C23.695333,258.492065 30.400427,236.893585 41.252460,216.983978 
	C47.407341,205.691986 54.588017,194.655090 63.004997,184.980896 
	C72.478317,174.092606 85.517349,167.617355 99.180519,162.830643 
	C110.997826,158.690567 123.147324,156.775803 135.664566,155.852264 
	C167.302765,153.517990 197.446518,159.727005 226.458344,171.453674 
	C243.418716,178.309097 258.822174,188.151245 272.887390,200.178009 
	C289.163452,214.095215 301.951630,230.615677 311.994263,249.294861 
	C316.058136,256.853607 318.793427,265.126648 322.134033,273.074341 
	C322.624542,274.241302 323.119354,275.406433 324.094055,277.712555 
	C326.165314,272.832977 327.677551,268.902893 329.471680,265.106018 
	C338.219940,246.592407 347.935791,228.640167 361.116333,212.820847 
	C382.610260,187.023819 407.476013,166.133240 441.372406,158.770599 
	C472.006592,152.116516 500.902435,156.559875 527.138367,173.946213 
	C537.580261,180.866043 547.576965,188.764999 556.604736,197.437775 
	C569.326965,209.659760 579.636047,224.085709 587.743774,239.757187 
	C596.496399,256.675293 604.272644,274.098541 612.163147,290.647797 
	C614.155884,283.286346 616.438965,274.593750 618.864075,265.940979 
	C627.057373,236.708084 638.846191,209.129196 658.920654,185.997498 
	C666.883301,176.822159 677.791504,170.864670 689.061707,166.126495 
	C708.707642,157.866974 729.399963,154.987778 750.464600,156.140320 
	C782.130737,157.872894 812.517456,165.238876 840.387634,180.819489 
	C860.723022,192.187881 878.433105,206.942993 892.349243,225.793533 
	C897.847961,233.242035 902.503540,241.312546 907.559204,249.089279 
	C908.160278,250.013901 908.863770,250.871979 909.766724,252.095642 
	C912.914734,245.251404 915.783752,238.810715 918.822021,232.450897 
	C924.896912,219.734604 933.096436,208.325409 943.122009,198.638580 
	C961.672119,180.715195 983.854004,168.782455 1009.321838,164.233566 
	C1021.810913,162.002838 1034.757568,160.702866 1047.396240,161.261810 
	C1078.829224,162.651978 1107.572632,172.368103 1132.208130,192.678070 
	C1153.077637,209.883453 1168.079102,231.183319 1174.142212,257.597839 
	C1180.445679,285.059326 1175.517700,310.387573 1154.552246,330.844025 
	C1145.278564,339.892426 1133.649658,344.047913 1120.828613,344.982513 
	C1119.170044,345.103455 1117.497070,345.012115 1115.832275,345.068298 
	C1115.557251,345.077545 1115.290649,345.341339 1114.654541,345.685028 
	C1117.333374,348.862091 1119.758545,352.168030 1122.611572,355.050629 
	C1138.431274,371.034058 1152.489136,388.445557 1164.765503,407.259186 
	C1178.823975,428.803741 1188.369141,452.193848 1191.882568,477.783020 
	C1195.403687,503.429565 1190.629150,527.988220 1181.060791,551.743347 
	C1173.731201,569.940308 1163.481445,586.260559 1149.968140,600.639893 
	C1124.661377,627.568787 1094.076050,644.383789 1057.516235,650.076355 
	C1017.145813,656.362305 979.269592,649.794189 945.517395,626.094421 
	C922.832825,610.165955 904.351624,590.134888 895.983765,562.935547 
	C887.715942,536.061340 891.051758,510.243134 908.884216,488.109955 
	C924.887146,468.247620 946.028748,458.391876 972.257874,462.886841 
	C979.260010,464.086853 986.206970,465.609161 993.708679,467.190491 
	C994.569092,467.369415 994.900146,467.341370 995.231140,467.313324 
	C994.833984,467.194122 994.436829,467.074921 994.039673,466.955719 
M334.476135,354.998627 
	C330.286255,380.248016 329.263214,405.628754 330.850037,431.172241 
	C333.488525,473.644775 343.132812,514.315674 362.016235,552.554321 
	C373.238800,575.279907 387.239868,596.099365 407.485077,611.914307 
	C428.592499,628.402771 452.305023,636.570435 479.270691,631.897705 
	C502.521118,627.868896 521.059937,615.237244 536.895508,598.351074 
	C560.757080,572.906433 575.594421,542.497803 584.992615,509.240326 
	C594.245911,476.495209 597.010864,442.883240 598.493896,409.040161 
	C600.477356,363.775818 591.315796,320.678894 573.875000,279.257202 
	C562.402527,252.010437 546.943970,227.251740 523.682434,208.188156 
	C495.443390,185.045273 464.416595,179.198730 430.526611,194.036575 
	C410.469971,202.817886 395.334473,217.904297 382.236725,234.940628 
	C355.174683,270.140381 342.119629,311.056549 334.476135,354.998627 
M249.064041,460.588837 
	C264.437775,449.166199 276.487549,434.926575 285.078308,417.811890 
	C303.170929,381.767517 307.008514,343.846954 299.398438,304.592590 
	C292.980682,271.488525 277.868378,243.117523 251.475952,221.626373 
	C216.822998,193.408798 176.509354,182.905563 132.530151,186.300751 
	C104.273796,188.482147 82.077415,201.112762 69.518211,227.771378 
	C68.668854,229.574249 67.634338,231.289032 66.754585,233.078552 
	C47.629612,271.980408 39.953548,313.718689 37.160572,356.457733 
	C34.842373,391.931519 36.650681,427.369293 40.865505,462.679504 
	C44.598469,493.952850 49.934479,524.891113 59.977558,554.835815 
	C66.479126,574.221069 74.784470,592.684509 89.857353,607.166138 
	C97.301285,614.317993 105.857384,620.009521 116.401360,620.900085 
	C139.463181,622.848022 162.453873,609.179504 172.174698,588.101318 
	C180.849136,569.292114 184.484085,549.157349 186.897949,528.807068 
	C188.521683,515.117981 189.366760,501.336548 190.579895,487.369598 
	C211.722748,482.880585 231.045776,474.000946 249.064041,460.588837 
M649.120850,531.329651 
	C652.753662,542.892029 655.919373,554.627747 660.131836,565.974915 
	C666.019653,581.834839 673.956665,596.659729 686.594116,608.339478 
	C695.751770,616.803101 706.160706,623.284485 719.235352,621.817627 
	C741.791138,619.286926 759.779175,609.723022 769.187195,587.593994 
	C777.885132,567.134949 781.580750,545.557861 783.940430,523.688904 
	C785.204651,511.971985 785.812805,500.184235 786.714478,488.461578 
	C787.087158,488.299255 787.379395,488.120758 787.696472,488.042633 
	C789.149658,487.684479 790.624146,487.406189 792.065369,487.006744 
	C832.430237,475.818939 864.478455,453.920807 883.093689,415.282349 
	C899.392334,381.452423 902.765686,345.786224 896.420288,309.092316 
	C890.905273,277.200043 877.593201,249.092804 853.241821,227.238190 
	C817.333252,195.011444 774.470398,183.261108 727.136658,187.337799 
	C699.645996,189.705475 678.206665,202.515289 665.991943,228.369293 
	C665.070068,230.320618 663.912415,232.159714 662.967773,234.101288 
	C643.023254,275.095947 635.028320,318.999176 633.291077,363.992371 
	C632.297546,389.724915 633.617615,415.612396 635.120544,441.358582 
	C636.877686,471.458832 641.776855,501.196472 649.120850,531.329651 
M1043.387451,302.385468 
	C1048.268311,289.022064 1059.179565,284.792480 1071.518188,291.849823 
	C1076.256348,294.559875 1080.466797,298.183075 1084.971191,301.313385 
	C1090.286865,305.007629 1095.328003,309.290222 1101.073486,312.135803 
	C1116.408325,319.730804 1132.346924,314.493134 1140.902222,299.767426 
	C1146.830811,289.562775 1147.692749,278.558289 1145.433105,267.359985 
	C1141.019287,245.486115 1128.730225,228.256287 1111.531250,214.777863 
	C1086.424438,195.102325 1057.347900,188.382660 1026.005371,192.000153 
	C990.832214,196.059814 963.173096,212.696640 946.579834,244.520844 
	C926.572754,282.892151 925.728394,322.737213 941.336914,362.824646 
	C951.816650,389.739990 971.465637,409.606567 993.455322,427.369293 
	C1003.685486,435.632935 1014.425781,443.275909 1024.498291,451.720947 
	C1035.541138,460.979462 1044.309814,472.177948 1047.324951,486.613770 
	C1050.634521,502.458862 1042.093628,518.040039 1021.929932,512.901123 
	C1017.659485,511.812744 1013.839111,509.061951 1009.688416,507.380615 
	C998.012756,502.651031 986.521484,497.252563 974.499634,493.642426 
	C957.034302,488.397705 941.946960,493.523926 931.331604,508.430634 
	C918.106995,527.001587 919.372681,546.664429 929.973999,565.856873 
	C940.917725,585.669006 957.155334,600.267639 977.511169,610.043945 
	C1031.845337,636.139038 1099.200439,619.938904 1135.630127,571.096924 
	C1162.046143,535.680420 1170.755859,496.575378 1154.909180,453.901947 
	C1146.567993,431.440033 1133.517700,411.636719 1117.404297,394.220306 
	C1096.031738,371.119507 1073.665771,348.928833 1051.451538,326.621216 
	C1044.776855,319.918488 1041.875610,312.448517 1043.387451,302.385468 
z"/>
<path fill="#4D2216" opacity="1.000000" stroke="none" 
	d="
M757.000000,139.996277 
	C643.857483,139.994705 531.214966,140.057465 418.572571,139.946075 
	C390.618439,139.918442 362.665283,139.258057 334.710449,139.075714 
	C330.914459,139.050949 329.925049,137.810013 329.936371,134.164093 
	C330.054352,96.006615 329.993713,57.848602 330.072388,19.690928 
	C330.079834,16.068714 330.519104,12.416845 331.140503,8.845307 
	C331.323730,7.792023 332.666840,6.593120 333.759735,6.141104 
	C334.901825,5.668744 336.382812,6.006094 337.715668,6.006085 
	C392.370605,6.005698 447.025696,5.923427 501.680450,6.024357 
	C657.107544,6.311381 812.534424,6.694617 967.961548,6.904949 
	C972.747253,6.911426 974.122559,8.180073 974.100281,13.008934 
	C973.914551,53.332722 973.914001,93.658112 974.101990,133.981873 
	C974.124512,138.822235 972.761780,140.108810 967.954041,140.098526 
	C897.802979,139.948441 827.651428,139.995926 757.000000,139.996277 
M760.240723,91.171974 
	C758.944519,90.044762 756.739990,89.079430 756.505432,87.763008 
	C755.332947,81.184776 754.007751,74.925514 746.082703,73.053658 
	C746.965454,71.752434 747.144226,71.209557 747.515747,70.983360 
	C752.835632,67.744415 754.336792,62.826469 752.877563,57.185287 
	C751.341248,51.246147 746.349731,48.555264 740.870972,48.222626 
	C731.251404,47.638584 721.575073,47.953045 711.922913,47.990704 
	C710.822998,47.994999 709.026123,48.365868 708.766479,49.036720 
	C708.145508,50.640938 707.708923,52.685459 708.175964,54.262600 
	C709.057007,57.238152 711.480957,59.936028 711.735291,62.881306 
	C712.291992,69.327454 712.240906,75.883934 711.724976,82.338364 
	C711.496826,85.192406 710.033875,88.299446 708.234802,90.586205 
	C706.043335,93.371681 706.488647,96.095909 709.151917,96.402664 
	C716.111877,97.204308 723.216125,97.210541 730.228149,96.853012 
	C732.665283,96.728752 733.773682,93.558784 731.613831,91.924767 
	C727.687988,88.954636 728.113098,85.015434 728.178040,81.116127 
	C728.201416,79.718979 729.273010,78.339310 729.866150,76.951668 
	C731.485352,77.870735 733.804443,78.404877 734.568604,79.794212 
	C735.893188,82.202316 736.266296,85.136826 737.018860,87.855980 
	C739.702393,97.552864 746.249084,101.076637 756.065430,98.304367 
	C760.093994,97.166656 762.155518,95.104500 761.501221,90.992149 
	C769.235901,99.700127 781.455811,101.015167 791.641846,94.235733 
	C798.416077,89.727081 801.245850,83.005905 799.385925,75.842575 
	C797.314270,67.863579 791.119019,62.499668 783.207214,61.834801 
	C765.166626,60.318783 755.131775,73.442963 760.240723,91.171974 
M501.748566,66.613205 
	C495.323456,73.025002 493.428711,80.613251 496.445587,87.851158 
	C499.147125,94.332558 505.810211,98.386803 514.299622,98.078857 
	C525.035583,97.689423 532.938232,92.914330 536.528625,82.070496 
	C541.027405,96.370178 551.766907,101.729889 565.049316,96.526054 
	C577.506470,91.645561 581.231201,81.512657 575.895203,68.884842 
	C577.674133,69.008575 579.453003,69.132309 581.765930,69.293182 
	C581.765930,75.346291 581.587402,81.153755 581.815308,86.945229 
	C582.051025,92.935226 585.437012,96.827896 590.836426,97.954361 
	C597.253906,99.293213 606.145569,96.172081 608.075745,91.653206 
	C608.568237,90.500122 608.417114,88.698227 607.816528,87.602982 
	C607.494934,87.016441 605.573059,87.379707 604.398499,87.171890 
	C602.532288,86.841682 599.144714,86.569916 599.075012,85.965378 
	C598.472778,80.736839 598.149719,75.407425 598.670105,70.200676 
	C598.739319,69.508324 603.998230,69.343346 606.849670,68.907837 
	C607.156311,68.861008 607.435913,68.637558 608.282349,68.227531 
	C608.282349,66.554520 608.873962,63.210819 608.179993,62.918430 
	C605.165161,61.648190 601.775635,61.267338 598.209351,60.495529 
	C598.085571,58.067215 597.955444,55.513248 597.768555,51.845982 
	C594.439514,53.052528 591.755310,53.683037 589.418396,54.952618 
	C585.920288,56.853073 582.798889,59.458332 579.270935,61.289165 
	C575.782532,63.099453 574.471802,65.593704 574.726135,68.811981 
	C570.315491,63.393982 564.572632,60.848389 557.652588,61.355034 
	C547.144226,62.124382 540.034546,67.591957 536.507324,78.291840 
	C532.801147,63.137039 520.373291,57.394585 506.488281,62.839306 
	C505.462463,58.627159 505.039948,54.112301 503.145233,50.336102 
	C502.255676,48.563156 498.549255,47.419502 496.087036,47.361496 
	C487.471436,47.158524 478.822937,47.978119 470.222870,47.597397 
	C461.995270,47.233173 458.948486,48.840572 456.648529,56.820053 
	C455.734680,59.990604 455.127838,63.317600 458.684357,65.149872 
	C462.156769,66.938812 464.129639,64.191277 466.097412,61.883358 
	C467.493927,60.245426 468.983582,58.686874 471.001770,56.465374 
	C471.795105,58.512814 472.448273,59.396233 472.424377,60.260929 
	C472.190460,68.721756 471.984711,77.189407 471.389252,85.628189 
	C471.290527,87.027100 469.378265,88.321465 468.249878,89.616913 
	C467.340454,90.661003 465.424408,91.847549 465.596344,92.591599 
	C465.906982,93.935898 467.224182,95.629921 468.503723,96.073128 
	C476.578094,98.869911 484.820709,98.808403 492.950439,96.332123 
	C494.194244,95.953262 495.513062,94.121811 495.760742,92.771988 
	C495.924469,91.880043 494.154327,90.701996 493.394348,89.556297 
	C492.123016,87.639618 490.046295,85.700264 489.927917,83.675751 
	C489.501465,76.383636 489.676361,69.050522 489.816284,61.736572 
	C489.841278,60.429863 490.779846,59.140633 491.296600,57.843323 
	C492.566864,58.647282 493.912476,59.354771 495.091492,60.275562 
	C497.451935,62.118942 499.721252,64.079056 501.748566,66.613205 
M933.756836,133.112915 
	C944.536621,133.112915 955.316345,133.112915 966.470337,133.112915 
	C966.470337,93.323120 966.470337,53.856133 966.470337,14.200952 
	C955.150635,14.200952 944.044617,14.200952 932.016846,14.075995 
	C920.993652,14.104410 909.970459,14.132825 898.025208,14.026389 
	C887.285278,14.026389 876.545349,14.026389 865.547485,14.026389 
	C865.547485,54.054733 865.547485,93.440071 865.547485,132.915680 
	C876.860291,132.915680 887.837708,132.915680 899.769287,133.045883 
	C910.780212,133.009888 921.791199,132.973892 933.756836,133.112915 
M405.110901,13.272094 
	C394.072845,13.306264 383.034790,13.340435 371.078247,13.180116 
	C360.011566,13.180116 348.944885,13.180116 337.535095,13.180116 
	C337.535095,53.181293 337.535095,92.532013 337.535095,132.183731 
	C349.108215,132.183731 360.529663,132.183731 372.698334,132.514648 
	C383.789581,132.452515 394.880798,132.390381 406.913818,132.526260 
	C417.517151,132.526260 428.120483,132.526260 438.974670,132.526260 
	C438.974670,92.697327 438.974670,53.296024 438.974670,13.454802 
	C427.900696,13.454802 416.967560,13.454802 405.110901,13.272094 
M836.745300,98.450073 
	C840.050110,98.185867 843.455688,98.323967 846.627686,97.529594 
	C849.144592,96.899292 851.055847,95.260483 848.664185,92.023247 
	C847.257874,90.119606 845.905579,87.590675 845.898254,85.338547 
	C845.863586,74.699341 846.424133,64.058823 846.444641,53.418152 
	C846.447876,51.735538 844.504883,48.503124 843.917847,48.605377 
	C838.257935,49.591278 832.541809,50.718933 827.167664,52.693249 
	C824.285645,53.752041 823.823303,56.580170 826.654602,59.051826 
	C827.857971,60.102303 829.575256,61.511749 829.611328,62.798561 
	C829.852600,71.422867 829.824402,80.062141 829.534546,88.684853 
	C829.496765,89.808968 827.462219,90.865974 826.352539,91.954033 
	C825.287720,90.655693 823.930725,89.491287 823.253906,88.015053 
	C822.745728,86.906898 823.058777,85.396454 823.096802,84.067688 
	C823.391724,73.761940 823.839783,63.457375 823.882202,53.150990 
	C823.888794,51.540138 821.829895,48.428829 821.150635,48.542728 
	C815.638428,49.467083 810.056030,50.542053 804.850708,52.511253 
	C801.782593,53.671947 801.285889,56.378403 804.293945,59.199383 
	C805.940674,60.743706 807.458984,63.317749 807.535706,65.480621 
	C807.794434,72.774132 807.466919,80.095215 807.146667,87.396233 
	C807.088867,88.712845 806.264526,90.220909 805.345154,91.232651 
	C802.530518,94.329872 802.752991,96.231873 806.717163,97.429596 
	C809.055176,98.135986 811.623108,98.237648 814.096497,98.310143 
	C821.354370,98.522873 828.627380,96.180801 836.745300,98.450073 
M672.973450,65.365402 
	C667.164978,69.986221 664.574341,75.914268 665.771606,83.326866 
	C666.942139,90.573906 671.074768,95.538536 678.064941,97.526863 
	C685.343811,99.597298 692.358826,98.410034 698.000916,93.116661 
	C699.259705,91.935692 698.955322,89.088646 699.370667,87.008675 
	C697.632874,87.079315 695.865051,86.976311 694.166077,87.270805 
	C692.556641,87.549767 691.052063,88.511772 689.444580,88.707947 
	C684.685547,89.288719 681.110962,85.973099 681.465942,81.252922 
	C686.413086,81.252922 691.383667,81.326729 696.351074,81.230957 
	C700.798767,81.145195 702.904785,79.096725 701.437561,74.975784 
	C700.067627,71.127884 697.808289,66.821655 694.629944,64.553421 
	C687.949219,59.785614 680.539124,60.683857 672.973450,65.365402 
M611.564514,75.707603 
	C612.844238,81.464111 617.787415,83.498482 622.069946,86.311317 
	C623.156799,87.025139 623.537720,88.813568 624.243042,90.108223 
	C622.630127,90.163033 620.703430,90.798431 619.478149,90.136124 
	C617.655273,89.150734 616.531860,86.885048 614.716614,85.866966 
	C613.553223,85.214462 610.858582,85.208374 610.275330,85.984016 
	C608.284241,88.631721 612.094727,97.304726 615.444397,97.601463 
	C620.708679,98.067810 626.094727,98.393326 631.313293,97.784645 
	C636.197510,97.214951 639.923767,94.120819 640.904602,88.938690 
	C641.858887,83.896828 639.390442,80.287148 635.225952,77.722885 
	C632.968140,76.332626 630.454895,75.297997 628.390686,73.677666 
	C627.361511,72.869789 627.083069,71.105560 626.465027,69.773972 
	C628.065308,69.853745 629.841064,69.526039 631.220154,70.119644 
	C632.830322,70.812721 633.953796,72.913673 635.548889,73.285072 
	C637.074951,73.640388 639.718262,73.111725 640.497192,72.005013 
	C642.585022,69.038635 637.742737,61.635818 634.032227,61.607883 
	C631.073120,61.585609 628.110229,61.584011 625.156311,61.432110 
	C616.322876,60.977859 611.069580,66.087486 611.564514,75.707603 
M655.433838,98.135689 
	C657.898560,97.864326 660.461853,97.931221 662.806763,97.248444 
	C667.164124,95.979675 667.467529,94.146004 664.840454,90.545876 
	C663.752991,89.055679 663.006470,86.998772 662.915588,85.159546 
	C662.653015,79.846771 662.842834,74.513107 662.772095,69.188744 
	C662.740540,66.810738 662.510864,64.435356 662.297058,60.799374 
	C655.924011,62.562271 650.494019,63.838497 645.237061,65.624054 
	C642.975769,66.392136 641.121216,68.242599 643.507507,70.964096 
	C648.076233,76.174606 648.421875,86.050499 644.068298,91.152023 
	C641.601379,94.042664 642.238464,96.139565 645.653687,97.038795 
	C648.502014,97.788750 651.545349,97.798042 655.433838,98.135689 
M657.972351,111.645035 
	C656.586853,120.192986 660.391479,126.835609 667.777893,128.764725 
	C674.413696,130.497818 681.461548,126.864334 684.016418,120.393036 
	C686.735291,113.506142 683.662781,105.930824 676.898132,102.842834 
	C669.538818,99.483368 662.255249,102.607010 657.972351,111.645035 
M652.253540,59.109222 
	C654.611450,58.405304 657.286621,58.166576 659.223633,56.845490 
	C660.687622,55.846977 662.035706,53.389019 661.881714,51.724354 
	C661.763000,50.442039 659.130981,48.303658 657.787354,48.425770 
	C653.622131,48.804314 649.442017,49.802902 645.483276,51.180367 
	C644.328674,51.582130 642.977356,54.364864 643.359436,55.506069 
	C643.859375,56.999290 645.852844,58.220692 647.468628,59.031265 
	C648.531860,59.564651 650.062073,59.167236 652.253540,59.109222 
z"/>
<path fill="#551900" opacity="1.000000" stroke="none" 
	d="
M1162.729004,611.222290 
	C1157.683105,604.041626 1157.716431,597.073792 1162.555298,591.960449 
	C1166.507812,587.783936 1174.720581,586.509766 1179.560547,589.318665 
	C1184.555298,592.217285 1187.337524,596.513428 1186.927124,602.321533 
	C1186.527466,607.979431 1183.846436,612.405579 1178.412720,614.712952 
	C1172.561523,617.197693 1167.450317,615.832214 1162.729004,611.222290 
M1167.000000,598.150696 
	C1166.927124,597.138977 1166.854248,596.127258 1166.743530,594.590515 
	C1162.720337,599.674011 1162.741577,603.711060 1167.000000,608.769287 
	C1167.000000,605.001343 1167.000000,601.987183 1167.000000,598.150696 
M1175.080566,608.165955 
	C1174.078247,606.627625 1173.076050,605.089233 1171.565552,602.770874 
	C1171.008545,606.214661 1170.637939,608.506653 1170.264526,610.807251 
	C1174.640869,612.057617 1175.674316,611.643372 1175.080566,608.165955 
M1181.669678,605.567810 
	C1181.771118,603.436523 1181.872437,601.305298 1182.016846,598.269470 
	C1180.343018,600.395569 1179.018799,601.509705 1178.501953,602.919739 
	C1178.112549,603.981567 1178.758057,605.422729 1178.942871,606.695007 
	C1179.735352,606.534119 1180.527954,606.373169 1181.669678,605.567810 
z"/>
<path fill="#FFFEFE" opacity="1.000000" stroke="none" 
	d="
M334.584717,354.577026 
	C342.119629,311.056549 355.174683,270.140381 382.236725,234.940628 
	C395.334473,217.904297 410.469971,202.817886 430.526611,194.036575 
	C464.416595,179.198730 495.443390,185.045273 523.682434,208.188156 
	C546.943970,227.251740 562.402527,252.010437 573.875000,279.257202 
	C591.315796,320.678894 600.477356,363.775818 598.493896,409.040161 
	C597.010864,442.883240 594.245911,476.495209 584.992615,509.240326 
	C575.594421,542.497803 560.757080,572.906433 536.895508,598.351074 
	C521.059937,615.237244 502.521118,627.868896 479.270691,631.897705 
	C452.305023,636.570435 428.592499,628.402771 407.485077,611.914307 
	C387.239868,596.099365 373.238800,575.279907 362.016235,552.554321 
	C343.132812,514.315674 333.488525,473.644775 330.850037,431.172241 
	C329.263214,405.628754 330.286255,380.248016 334.584717,354.577026 
M424.728455,426.810059 
	C425.781281,448.003693 428.528687,468.855103 436.996582,488.582428 
	C441.068542,498.068634 447.210297,505.600647 456.574585,510.347534 
	C462.976898,513.592896 469.034058,513.601929 475.589874,510.325897 
	C487.679382,504.284668 493.066559,493.571686 496.957062,481.598938 
	C510.092316,441.175842 509.829010,400.490356 499.331390,359.608368 
	C496.760620,349.596741 493.807770,339.734680 487.326508,331.392548 
	C476.725983,317.748474 460.930420,316.096954 448.269562,327.829803 
	C444.479736,331.341827 441.268951,335.936371 439.071198,340.633118 
	C426.419952,367.669464 424.030670,396.539917 424.728455,426.810059 
z"/>
<path fill="#FFFFFE" opacity="1.000000" stroke="none" 
	d="
M248.775055,460.800781 
	C231.045776,474.000946 211.722748,482.880585 190.579895,487.369598 
	C189.366760,501.336548 188.521683,515.117981 186.897949,528.807068 
	C184.484085,549.157349 180.849136,569.292114 172.174698,588.101318 
	C162.453873,609.179504 139.463181,622.848022 116.401360,620.900085 
	C105.857384,620.009521 97.301285,614.317993 89.857353,607.166138 
	C74.784470,592.684509 66.479126,574.221069 59.977558,554.835815 
	C49.934479,524.891113 44.598469,493.952850 40.865505,462.679504 
	C36.650681,427.369293 34.842373,391.931519 37.160572,356.457733 
	C39.953548,313.718689 47.629612,271.980408 66.754585,233.078552 
	C67.634338,231.289032 68.668854,229.574249 69.518211,227.771378 
	C82.077415,201.112762 104.273796,188.482147 132.530151,186.300751 
	C176.509354,182.905563 216.822998,193.408798 251.475952,221.626373 
	C277.868378,243.117523 292.980682,271.488525 299.398438,304.592590 
	C307.008514,343.846954 303.170929,381.767517 285.078308,417.811890 
	C276.487549,434.926575 264.437775,449.166199 248.775055,460.800781 
M221.417587,345.836670 
	C221.284576,339.710754 221.849014,333.471802 220.878372,327.481598 
	C218.618347,313.534241 214.124405,300.340759 203.664734,290.140503 
	C195.031647,281.721527 184.678787,280.030426 173.104858,283.042786 
	C184.654724,317.995667 185.329224,353.983643 186.120529,389.975494 
	C202.244415,387.365967 218.739594,366.805450 221.417587,345.836670 
z"/>
<path fill="#FFFFFF" opacity="1.000000" stroke="none" 
	d="
M649.050171,530.921875 
	C641.776855,501.196472 636.877686,471.458832 635.120544,441.358582 
	C633.617615,415.612396 632.297546,389.724915 633.291077,363.992371 
	C635.028320,318.999176 643.023254,275.095947 662.967773,234.101288 
	C663.912415,232.159714 665.070068,230.320618 665.991943,228.369293 
	C678.206665,202.515289 699.645996,189.705475 727.136658,187.337799 
	C774.470398,183.261108 817.333252,195.011444 853.241821,227.238190 
	C877.593201,249.092804 890.905273,277.200043 896.420288,309.092316 
	C902.765686,345.786224 899.392334,381.452423 883.093689,415.282349 
	C864.478455,453.920807 832.430237,475.818939 792.065369,487.006744 
	C790.624146,487.406189 789.149658,487.684479 787.696472,488.042633 
	C787.379395,488.120758 787.087158,488.299255 786.714478,488.461578 
	C785.812805,500.184235 785.204651,511.971985 783.940430,523.688904 
	C781.580750,545.557861 777.885132,567.134949 769.187195,587.593994 
	C759.779175,609.723022 741.791138,619.286926 719.235352,621.817627 
	C706.160706,623.284485 695.751770,616.803101 686.594116,608.339478 
	C673.956665,596.659729 666.019653,581.834839 660.131836,565.974915 
	C655.919373,554.627747 652.753662,542.892029 649.050171,530.921875 
M781.189087,354.362732 
	C781.189087,366.482300 781.189087,378.601868 781.189087,392.400238 
	C786.655823,389.887512 790.997131,388.797333 794.205933,386.269562 
	C814.251282,370.478912 823.482422,346.719025 815.254578,319.002991 
	C811.760071,307.231323 807.167908,296.030518 796.917664,288.350311 
	C788.666687,282.168121 779.518433,280.976379 769.416260,283.975861 
	C777.136475,306.790009 779.828796,329.989288 781.189087,354.362732 
z"/>
<path fill="#FFFEFE" opacity="1.000000" stroke="none" 
	d="
M1043.276245,302.797058 
	C1041.875610,312.448517 1044.776855,319.918488 1051.451538,326.621216 
	C1073.665771,348.928833 1096.031738,371.119507 1117.404297,394.220306 
	C1133.517700,411.636719 1146.567993,431.440033 1154.909180,453.901947 
	C1170.755859,496.575378 1162.046143,535.680420 1135.630127,571.096924 
	C1099.200439,619.938904 1031.845337,636.139038 977.511169,610.043945 
	C957.155334,600.267639 940.917725,585.669006 929.973999,565.856873 
	C919.372681,546.664429 918.106995,527.001587 931.331604,508.430634 
	C941.946960,493.523926 957.034302,488.397705 974.499634,493.642426 
	C986.521484,497.252563 998.012756,502.651031 1009.688416,507.380615 
	C1013.839111,509.061951 1017.659485,511.812744 1021.929932,512.901123 
	C1042.093628,518.040039 1050.634521,502.458862 1047.324951,486.613770 
	C1044.309814,472.177948 1035.541138,460.979462 1024.498291,451.720947 
	C1014.425781,443.275909 1003.685486,435.632935 993.455322,427.369293 
	C971.465637,409.606567 951.816650,389.739990 941.336914,362.824646 
	C925.728394,322.737213 926.572754,282.892151 946.579834,244.520844 
	C963.173096,212.696640 990.832214,196.059814 1026.005371,192.000153 
	C1057.347900,188.382660 1086.424438,195.102325 1111.531250,214.777863 
	C1128.730225,228.256287 1141.019287,245.486115 1145.433105,267.359985 
	C1147.692749,278.558289 1146.830811,289.562775 1140.902222,299.767426 
	C1132.346924,314.493134 1116.408325,319.730804 1101.073486,312.135803 
	C1095.328003,309.290222 1090.286865,305.007629 1084.971191,301.313385 
	C1080.466797,298.183075 1076.256348,294.559875 1071.518188,291.849823 
	C1059.179565,284.792480 1048.268311,289.022064 1043.276245,302.797058 
z"/>
<path fill="#000000" opacity="1.000000" stroke="none" 
	d="
M994.026306,466.970673 
	C994.436829,467.074921 994.833984,467.194122 995.231140,467.313324 
	C994.900146,467.341370 994.569092,467.369415 994.113892,467.206909 
	C993.989624,467.016388 994.012939,466.985626 994.026306,466.970673 
z"/>
<path fill="#FDFCFC" opacity="1.000000" stroke="none" 
	d="
M371.951111,132.183731 
	C360.529663,132.183731 349.108215,132.183731 337.535095,132.183731 
	C337.535095,92.532013 337.535095,53.181293 337.535095,13.180116 
	C348.944885,13.180116 360.011566,13.180116 371.530731,13.716967 
	C371.972504,53.563789 371.961792,92.873756 371.951111,132.183731 
z"/>
<path fill="#EC3326" opacity="1.000000" stroke="none" 
	d="
M372.324707,132.349182 
	C371.961792,92.873756 371.972504,53.563789 371.989990,13.814212 
	C383.034790,13.340435 394.072845,13.306264 405.574188,13.795965 
	C406.015656,53.655968 405.993835,92.992104 405.972046,132.328232 
	C394.880798,132.390381 383.789581,132.452515 372.324707,132.349182 
z"/>
<path fill="#FDFBFB" opacity="1.000000" stroke="none" 
	d="
M898.815063,132.915680 
	C887.837708,132.915680 876.860291,132.915680 865.547485,132.915680 
	C865.547485,93.440071 865.547485,54.054733 865.547485,14.026389 
	C876.545349,14.026389 887.285278,14.026389 898.490295,14.550905 
	C898.908630,54.355507 898.861877,93.635597 898.815063,132.915680 
z"/>
<path fill="#EE3225" opacity="1.000000" stroke="none" 
	d="
M899.292175,132.980774 
	C898.861877,93.635597 898.908630,54.355507 898.951294,14.618331 
	C909.970459,14.132825 920.993652,14.104410 932.476074,14.591602 
	C932.890930,54.384102 932.846558,93.660988 932.802124,132.937881 
	C921.791199,132.973892 910.780212,133.009888 899.292175,132.980774 
z"/>
<path fill="#FDFDFC" opacity="1.000000" stroke="none" 
	d="
M933.279480,133.025391 
	C932.846558,93.660988 932.890930,54.384102 932.936951,14.654080 
	C944.044617,14.200952 955.150635,14.200952 966.470337,14.200952 
	C966.470337,53.856133 966.470337,93.323120 966.470337,133.112915 
	C955.316345,133.112915 944.536621,133.112915 933.279480,133.025391 
z"/>
<path fill="#FEFEFE" opacity="1.000000" stroke="none" 
	d="
M406.442932,132.427246 
	C405.993835,92.992104 406.015656,53.655968 406.035950,13.887320 
	C416.967560,13.454802 427.900696,13.454802 438.974670,13.454802 
	C438.974670,53.296024 438.974670,92.697327 438.974670,132.526260 
	C428.120483,132.526260 417.517151,132.526260 406.442932,132.427246 
z"/>
<path fill="#FBFBFA" opacity="1.000000" stroke="none" 
	d="
M506.720306,63.777348 
	C520.373291,57.394585 532.801147,63.137039 536.507324,78.291840 
	C540.034546,67.591957 547.144226,62.124382 557.652588,61.355034 
	C564.572632,60.848389 570.315491,63.393982 574.947754,69.030975 
	C575.169312,69.249969 575.102234,69.177582 575.102234,69.177582 
	C581.231201,81.512657 577.506470,91.645561 565.049316,96.526054 
	C551.766907,101.729889 541.027405,96.370178 536.528625,82.070496 
	C532.938232,92.914330 525.035583,97.689423 514.299622,98.078857 
	C505.810211,98.386803 499.147125,94.332558 496.445587,87.851158 
	C493.428711,80.613251 495.323456,73.025002 502.190430,66.267532 
	C503.994934,65.207024 505.357635,64.492180 506.720306,63.777348 
M512.148010,82.166191 
	C512.931519,83.984062 513.475159,85.971336 514.592529,87.553352 
	C515.216492,88.436661 516.898987,89.193321 517.909790,88.998260 
	C518.823120,88.822006 520.227173,87.168846 520.112915,86.348114 
	C519.436340,81.485672 518.544373,76.633499 517.312134,71.884964 
	C517.070068,70.952072 514.704529,69.677879 513.879517,69.999702 
	C512.671021,70.471146 511.274872,72.197372 511.195862,73.465950 
	C511.033722,76.068512 511.693146,78.722260 512.148010,82.166191 
M554.607544,83.682098 
	C555.058533,84.746994 555.253296,86.081764 556.022217,86.811920 
	C557.106873,87.841820 558.744141,89.167274 559.904785,88.967834 
	C560.870300,88.801918 562.224426,86.560081 562.126099,85.341042 
	C561.809387,81.415710 561.255066,77.423790 560.052551,73.696182 
	C559.542603,72.115517 557.193054,71.128296 555.679626,69.871361 
	C554.798584,71.605309 553.294556,73.300781 553.184509,75.082329 
	C553.024902,77.666382 553.872437,80.312622 554.607544,83.682098 
z"/>
<path fill="#FDFCFC" opacity="1.000000" stroke="none" 
	d="
M760.800293,90.744469 
	C762.155518,95.104500 760.093994,97.166656 756.065430,98.304367 
	C746.249084,101.076637 739.702393,97.552864 737.018860,87.855980 
	C736.266296,85.136826 735.893188,82.202316 734.568604,79.794212 
	C733.804443,78.404877 731.485352,77.870735 729.866150,76.951668 
	C729.273010,78.339310 728.201416,79.718979 728.178040,81.116127 
	C728.113098,85.015434 727.687988,88.954636 731.613831,91.924767 
	C733.773682,93.558784 732.665283,96.728752 730.228149,96.853012 
	C723.216125,97.210541 716.111877,97.204308 709.151917,96.402664 
	C706.488647,96.095909 706.043335,93.371681 708.234802,90.586205 
	C710.033875,88.299446 711.496826,85.192406 711.724976,82.338364 
	C712.240906,75.883934 712.291992,69.327454 711.735291,62.881306 
	C711.480957,59.936028 709.057007,57.238152 708.175964,54.262600 
	C707.708923,52.685459 708.145508,50.640938 708.766479,49.036720 
	C709.026123,48.365868 710.822998,47.994999 711.922913,47.990704 
	C721.575073,47.953045 731.251404,47.638584 740.870972,48.222626 
	C746.349731,48.555264 751.341248,51.246147 752.877563,57.185287 
	C754.336792,62.826469 752.835632,67.744415 747.515747,70.983360 
	C747.144226,71.209557 746.965454,71.752434 746.082703,73.053658 
	C754.007751,74.925514 755.332947,81.184776 756.505432,87.763008 
	C756.739990,89.079430 758.944519,90.044762 760.562622,91.001755 
	C760.884521,90.831543 760.800293,90.744469 760.800293,90.744469 
M728.251648,57.495480 
	C728.251648,61.278465 728.251648,65.061447 728.251648,69.003410 
	C729.539307,69.003410 730.741638,69.243843 731.802673,68.958656 
	C735.086182,68.076134 736.687134,63.098118 735.052612,58.755634 
	C733.805115,55.441181 731.665833,54.422462 728.251648,57.495480 
z"/>
<path fill="#FCFBFA" opacity="1.000000" stroke="none" 
	d="
M836.311829,98.445297 
	C828.627380,96.180801 821.354370,98.522873 814.096497,98.310143 
	C811.623108,98.237648 809.055176,98.135986 806.717163,97.429596 
	C802.752991,96.231873 802.530518,94.329872 805.345154,91.232651 
	C806.264526,90.220909 807.088867,88.712845 807.146667,87.396233 
	C807.466919,80.095215 807.794434,72.774132 807.535706,65.480621 
	C807.458984,63.317749 805.940674,60.743706 804.293945,59.199383 
	C801.285889,56.378403 801.782593,53.671947 804.850708,52.511253 
	C810.056030,50.542053 815.638428,49.467083 821.150635,48.542728 
	C821.829895,48.428829 823.888794,51.540138 823.882202,53.150990 
	C823.839783,63.457375 823.391724,73.761940 823.096802,84.067688 
	C823.058777,85.396454 822.745728,86.906898 823.253906,88.015053 
	C823.930725,89.491287 825.287720,90.655693 826.352539,91.954048 
	C827.462219,90.865974 829.496765,89.808968 829.534546,88.684853 
	C829.824402,80.062141 829.852600,71.422867 829.611328,62.798561 
	C829.575256,61.511749 827.857971,60.102303 826.654602,59.051826 
	C823.823303,56.580170 824.285645,53.752041 827.167664,52.693249 
	C832.541809,50.718933 838.257935,49.591278 843.917847,48.605377 
	C844.504883,48.503124 846.447876,51.735538 846.444641,53.418152 
	C846.424133,64.058823 845.863586,74.699341 845.898254,85.338547 
	C845.905579,87.590675 847.257874,90.119606 848.664185,92.023247 
	C851.055847,95.260483 849.144592,96.899292 846.627686,97.529594 
	C843.455688,98.323967 840.050110,98.185867 836.311829,98.445297 
z"/>
<path fill="#FBFAFA" opacity="1.000000" stroke="none" 
	d="
M506.604309,63.308327 
	C505.357635,64.492180 503.994934,65.207024 502.330200,65.956421 
	C499.721252,64.079056 497.451935,62.118942 495.091492,60.275562 
	C493.912476,59.354771 492.566864,58.647282 491.296600,57.843330 
	C490.779846,59.140633 489.841278,60.429863 489.816284,61.736572 
	C489.676361,69.050522 489.501465,76.383636 489.927917,83.675751 
	C490.046295,85.700264 492.123016,87.639618 493.394348,89.556297 
	C494.154327,90.701996 495.924469,91.880043 495.760742,92.771988 
	C495.513062,94.121811 494.194244,95.953262 492.950439,96.332123 
	C484.820709,98.808403 476.578094,98.869911 468.503723,96.073128 
	C467.224182,95.629921 465.906982,93.935898 465.596344,92.591599 
	C465.424408,91.847549 467.340454,90.661003 468.249878,89.616913 
	C469.378265,88.321465 471.290527,87.027100 471.389252,85.628189 
	C471.984711,77.189407 472.190460,68.721756 472.424377,60.260929 
	C472.448273,59.396233 471.795105,58.512814 471.001770,56.465374 
	C468.983582,58.686874 467.493927,60.245426 466.097412,61.883358 
	C464.129639,64.191277 462.156769,66.938812 458.684357,65.149872 
	C455.127838,63.317600 455.734680,59.990604 456.648529,56.820053 
	C458.948486,48.840572 461.995270,47.233173 470.222870,47.597397 
	C478.822937,47.978119 487.471436,47.158524 496.087036,47.361496 
	C498.549255,47.419502 502.255676,48.563156 503.145233,50.336102 
	C505.039948,54.112301 505.462463,58.627159 506.604309,63.308327 
z"/>
<path fill="#FCFBFB" opacity="1.000000" stroke="none" 
	d="
M760.928101,90.873627 
	C755.131775,73.442963 765.166626,60.318783 783.207214,61.834801 
	C791.119019,62.499668 797.314270,67.863579 799.385925,75.842575 
	C801.245850,83.005905 798.416077,89.727081 791.641846,94.235733 
	C781.455811,101.015167 769.235901,99.700127 761.150757,90.868309 
	C760.800293,90.744469 760.884521,90.831543 760.928101,90.873627 
M775.013916,78.201355 
	C776.057373,81.463982 776.885742,84.823067 778.278564,87.928993 
	C778.683350,88.831497 780.785156,89.528152 781.954102,89.342720 
	C782.768494,89.213524 783.914917,87.397530 783.877991,86.372375 
	C783.754150,82.937897 783.731995,79.310699 782.568787,76.164810 
	C781.697388,73.808060 779.127441,72.079323 777.313782,70.070992 
	C776.530762,72.489960 775.747681,74.908928 775.013916,78.201355 
z"/>
<path fill="#FCFBFB" opacity="1.000000" stroke="none" 
	d="
M673.284058,65.160492 
	C680.539124,60.683857 687.949219,59.785614 694.629944,64.553421 
	C697.808289,66.821655 700.067627,71.127884 701.437561,74.975784 
	C702.904785,79.096725 700.798767,81.145195 696.351074,81.230957 
	C691.383667,81.326729 686.413086,81.252922 681.465942,81.252922 
	C681.110962,85.973099 684.685547,89.288719 689.444580,88.707947 
	C691.052063,88.511772 692.556641,87.549767 694.166077,87.270805 
	C695.865051,86.976311 697.632874,87.079315 699.370667,87.008675 
	C698.955322,89.088646 699.259705,91.935692 698.000916,93.116661 
	C692.358826,98.410034 685.343811,99.597298 678.064941,97.526863 
	C671.074768,95.538536 666.942139,90.573906 665.771606,83.326866 
	C664.574341,75.914268 667.164978,69.986221 673.284058,65.160492 
M687.179932,69.022346 
	C685.183960,69.283134 683.062805,69.239952 681.264404,69.980545 
	C680.686890,70.218414 680.961243,72.525063 680.845825,73.885231 
	C682.925049,74.031357 685.073608,74.509621 687.036804,74.099876 
	C687.554810,73.991753 687.500549,71.142235 687.179932,69.022346 
z"/>
<path fill="#FCFBFB" opacity="1.000000" stroke="none" 
	d="
M575.195312,69.291901 
	C574.471802,65.593704 575.782532,63.099453 579.270935,61.289165 
	C582.798889,59.458332 585.920288,56.853073 589.418396,54.952618 
	C591.755310,53.683037 594.439514,53.052528 597.768555,51.845982 
	C597.955444,55.513248 598.085571,58.067215 598.209351,60.495529 
	C601.775635,61.267338 605.165161,61.648190 608.179993,62.918430 
	C608.873962,63.210819 608.282349,66.554520 608.282349,68.227531 
	C607.435913,68.637558 607.156311,68.861008 606.849670,68.907837 
	C603.998230,69.343346 598.739319,69.508324 598.670105,70.200676 
	C598.149719,75.407425 598.472778,80.736839 599.075012,85.965378 
	C599.144714,86.569916 602.532288,86.841682 604.398499,87.171890 
	C605.573059,87.379707 607.494934,87.016441 607.816528,87.602982 
	C608.417114,88.698227 608.568237,90.500122 608.075745,91.653206 
	C606.145569,96.172081 597.253906,99.293213 590.836426,97.954361 
	C585.437012,96.827896 582.051025,92.935226 581.815308,86.945229 
	C581.587402,81.153755 581.765930,75.346291 581.765930,69.293182 
	C579.453003,69.132309 577.674133,69.008575 575.498718,69.031212 
	C575.102234,69.177582 575.169312,69.249969 575.195312,69.291901 
z"/>
<path fill="#FAF9F9" opacity="1.000000" stroke="none" 
	d="
M611.452087,75.330200 
	C611.069580,66.087486 616.322876,60.977859 625.156311,61.432110 
	C628.110229,61.584011 631.073120,61.585609 634.032227,61.607883 
	C637.742737,61.635818 642.585022,69.038635 640.497192,72.005013 
	C639.718262,73.111725 637.074951,73.640388 635.548889,73.285072 
	C633.953796,72.913673 632.830322,70.812721 631.220154,70.119644 
	C629.841064,69.526039 628.065308,69.853745 626.465088,69.773956 
	C627.083069,71.105560 627.361511,72.869789 628.390686,73.677666 
	C630.454895,75.297997 632.968140,76.332626 635.225952,77.722885 
	C639.390442,80.287148 641.858887,83.896828 640.904602,88.938690 
	C639.923767,94.120819 636.197510,97.214951 631.313293,97.784645 
	C626.094727,98.393326 620.708679,98.067810 615.444397,97.601463 
	C612.094727,97.304726 608.284241,88.631721 610.275330,85.984016 
	C610.858582,85.208374 613.553223,85.214462 614.716614,85.866966 
	C616.531860,86.885048 617.655273,89.150734 619.478149,90.136124 
	C620.703430,90.798431 622.630127,90.163033 624.243042,90.108231 
	C623.537720,88.813568 623.156799,87.025139 622.069946,86.311317 
	C617.787415,83.498482 612.844238,81.464111 611.452087,75.330200 
z"/>
<path fill="#FBFAF9" opacity="1.000000" stroke="none" 
	d="
M654.968079,98.135529 
	C651.545349,97.798042 648.502014,97.788750 645.653687,97.038795 
	C642.238464,96.139565 641.601379,94.042664 644.068298,91.152023 
	C648.421875,86.050499 648.076233,76.174606 643.507507,70.964096 
	C641.121216,68.242599 642.975769,66.392136 645.237061,65.624054 
	C650.494019,63.838497 655.924011,62.562271 662.297058,60.799374 
	C662.510864,64.435356 662.740540,66.810738 662.772095,69.188744 
	C662.842834,74.513107 662.653015,79.846771 662.915588,85.159546 
	C663.006470,86.998772 663.752991,89.055679 664.840454,90.545876 
	C667.467529,94.146004 667.164124,95.979675 662.806763,97.248444 
	C660.461853,97.931221 657.898560,97.864326 654.968079,98.135529 
z"/>
<path fill="#F3F0EF" opacity="1.000000" stroke="none" 
	d="
M658.053223,111.267586 
	C662.255249,102.607010 669.538818,99.483368 676.898132,102.842834 
	C683.662781,105.930824 686.735291,113.506142 684.016418,120.393036 
	C681.461548,126.864334 674.413696,130.497818 667.777893,128.764725 
	C660.391479,126.835609 656.586853,120.192986 658.053223,111.267586 
M678.277466,122.847420 
	C682.158386,117.976768 682.325867,113.758194 678.424988,107.834099 
	C673.143494,103.903404 667.444397,103.964119 663.763550,107.990318 
	C659.935181,112.177887 660.210266,118.324486 664.906982,123.737320 
	C670.691895,126.874130 673.598572,126.692467 678.277466,122.847420 
z"/>
<path fill="#F9F7F7" opacity="1.000000" stroke="none" 
	d="
M651.818359,59.147926 
	C650.062073,59.167236 648.531860,59.564651 647.468628,59.031265 
	C645.852844,58.220692 643.859375,56.999290 643.359436,55.506069 
	C642.977356,54.364864 644.328674,51.582130 645.483276,51.180367 
	C649.442017,49.802902 653.622131,48.804314 657.787354,48.425770 
	C659.130981,48.303658 661.763000,50.442039 661.881714,51.724354 
	C662.035706,53.389019 660.687622,55.846977 659.223633,56.845490 
	C657.286621,58.166576 654.611450,58.405304 651.818359,59.147926 
z"/>
<path fill="#000000" opacity="1.000000" stroke="none" 
	d="
M1167.000000,598.561890 
	C1167.000000,601.987183 1167.000000,605.001343 1167.000000,608.769287 
	C1162.741577,603.711060 1162.720337,599.674011 1166.743530,594.590515 
	C1166.854248,596.127258 1166.927124,597.138977 1167.000000,598.561890 
z"/>
<path fill="#000000" opacity="1.000000" stroke="none" 
	d="
M1175.240356,608.457397 
	C1175.674316,611.643372 1174.640869,612.057617 1170.265869,610.802979 
	C1170.637939,608.506653 1171.008545,606.214661 1171.565552,602.770874 
	C1173.076050,605.089233 1174.078247,606.627625 1175.240356,608.457397 
z"/>
<path fill="#000000" opacity="1.000000" stroke="none" 
	d="
M1181.495117,605.890015 
	C1180.527954,606.373169 1179.735352,606.534119 1178.942871,606.695068 
	C1178.758057,605.422729 1178.112549,603.981567 1178.501953,602.919739 
	C1179.018799,601.509705 1180.343018,600.395569 1182.016846,598.269470 
	C1181.872437,601.305298 1181.771118,603.436523 1181.495117,605.890015 
z"/>
<path fill="#4D2216" opacity="1.000000" stroke="none" 
	d="
M424.694214,426.343475 
	C424.030670,396.539917 426.419952,367.669464 439.071198,340.633118 
	C441.268951,335.936371 444.479736,331.341827 448.269562,327.829803 
	C460.930420,316.096954 476.725983,317.748474 487.326508,331.392548 
	C493.807770,339.734680 496.760620,349.596741 499.331390,359.608368 
	C509.829010,400.490356 510.092316,441.175842 496.957062,481.598938 
	C493.066559,493.571686 487.679382,504.284668 475.589874,510.325897 
	C469.034058,513.601929 462.976898,513.592896 456.574585,510.347534 
	C447.210297,505.600647 441.068542,498.068634 436.996582,488.582428 
	C428.528687,468.855103 425.781281,448.003693 424.694214,426.343475 
M458.187683,456.119812 
	C460.341736,463.262390 462.495758,470.404968 464.649780,477.547546 
	C465.316925,477.413055 465.984070,477.278564 466.651215,477.144073 
	C481.200378,436.601532 479.811615,396.072906 466.464172,354.599121 
	C465.399139,355.870483 464.979462,356.189484 464.800873,356.610687 
	C456.226593,376.838898 454.581940,398.354248 454.311066,419.850281 
	C454.162476,431.642212 456.717682,443.468170 458.187683,456.119812 
z"/>
<path fill="#4E2317" opacity="1.000000" stroke="none" 
	d="
M221.342102,346.273254 
	C218.739594,366.805450 202.244415,387.365967 186.120529,389.975494 
	C185.329224,353.983643 184.654724,317.995667 173.104858,283.042786 
	C184.678787,280.030426 195.031647,281.721527 203.664734,290.140503 
	C214.124405,300.340759 218.618347,313.534241 220.878372,327.481598 
	C221.849014,333.471802 221.284576,339.710754 221.342102,346.273254 
z"/>
<path fill="#4E2317" opacity="1.000000" stroke="none" 
	d="
M781.167480,353.888855 
	C779.828796,329.989288 777.136475,306.790009 769.416260,283.975861 
	C779.518433,280.976379 788.666687,282.168121 796.917664,288.350311 
	C807.167908,296.030518 811.760071,307.231323 815.254578,319.002991 
	C823.482422,346.719025 814.251282,370.478912 794.205933,386.269562 
	C790.997131,388.797333 786.655823,389.887512 781.189087,392.400238 
	C781.189087,378.601868 781.189087,366.482300 781.167480,353.888855 
z"/>
<path fill="#52291D" opacity="1.000000" stroke="none" 
	d="
M512.081177,81.760559 
	C511.693146,78.722260 511.033722,76.068512 511.195862,73.465950 
	C511.274872,72.197372 512.671021,70.471146 513.879517,69.999702 
	C514.704529,69.677879 517.070068,70.952072 517.312134,71.884964 
	C518.544373,76.633499 519.436340,81.485672 520.112915,86.348114 
	C520.227173,87.168846 518.823120,88.822006 517.909790,88.998260 
	C516.898987,89.193321 515.216492,88.436661 514.592529,87.553352 
	C513.475159,85.971336 512.931519,83.984062 512.081177,81.760559 
z"/>
<path fill="#51281C" opacity="1.000000" stroke="none" 
	d="
M554.448975,83.307220 
	C553.872437,80.312622 553.024902,77.666382 553.184509,75.082329 
	C553.294556,73.300781 554.798584,71.605309 555.679626,69.871353 
	C557.193054,71.128296 559.542603,72.115517 560.052551,73.696182 
	C561.255066,77.423790 561.809387,81.415710 562.126099,85.341042 
	C562.224426,86.560081 560.870300,88.801918 559.904785,88.967834 
	C558.744141,89.167274 557.106873,87.841820 556.022217,86.811920 
	C555.253296,86.081764 555.058533,84.746994 554.448975,83.307220 
z"/>
<path fill="#532A1F" opacity="1.000000" stroke="none" 
	d="
M728.417175,57.126213 
	C731.665833,54.422462 733.805115,55.441181 735.052612,58.755634 
	C736.687134,63.098118 735.086182,68.076134 731.802673,68.958656 
	C730.741638,69.243843 729.539307,69.003410 728.251648,69.003410 
	C728.251648,65.061447 728.251648,61.278465 728.417175,57.126213 
z"/>
<path fill="#532A1F" opacity="1.000000" stroke="none" 
	d="
M774.989258,77.764633 
	C775.747681,74.908928 776.530762,72.489960 777.313782,70.070984 
	C779.127441,72.079323 781.697388,73.808060 782.568787,76.164810 
	C783.731995,79.310699 783.754150,82.937897 783.877991,86.372375 
	C783.914917,87.397530 782.768494,89.213524 781.954102,89.342720 
	C780.785156,89.528152 778.683350,88.831497 778.278564,87.928993 
	C776.885742,84.823067 776.057373,81.463982 774.989258,77.764633 
z"/>
<path fill="#613B30" opacity="1.000000" stroke="none" 
	d="
M687.444519,69.286949 
	C687.500549,71.142235 687.554810,73.991753 687.036804,74.099876 
	C685.073608,74.509621 682.925049,74.031357 680.845825,73.885231 
	C680.961243,72.525063 680.686890,70.218414 681.264404,69.980545 
	C683.062805,69.239952 685.183960,69.283134 687.444519,69.286949 
z"/>
<path fill="#603A2F" opacity="1.000000" stroke="none" 
	d="
M664.440430,123.114403 
	C660.210266,118.324486 659.935181,112.177887 663.763550,107.990318 
	C667.444397,103.964119 673.143494,103.903404 678.350952,108.340454 
	C678.092346,108.989571 677.907776,109.132332 677.343811,109.128250 
	C673.293335,108.562698 669.622192,108.143997 665.397705,107.662186 
	C665.655762,113.418488 665.869751,118.191223 665.674072,123.013901 
	C664.989746,123.080704 664.715088,123.097549 664.440430,123.114403 
z"/>
<path fill="#572F23" opacity="1.000000" stroke="none" 
	d="
M664.673706,123.425858 
	C664.715088,123.097549 664.989746,123.080704 666.073242,122.997223 
	C667.850586,120.998978 668.818909,119.067383 670.110413,116.491257 
	C671.037842,117.670677 671.870361,119.101974 673.052002,120.133186 
	C674.383972,121.295616 676.030273,122.097847 677.553772,123.015930 
	C677.567688,122.975105 677.484802,122.951218 677.484802,122.951218 
	C673.598572,126.692467 670.691895,126.874130 664.673706,123.425858 
z"/>
<path fill="#603A2F" opacity="1.000000" stroke="none" 
	d="
M677.881104,122.899323 
	C677.484802,122.951218 677.567688,122.975105 677.562988,122.621414 
	C676.694397,120.558052 675.830566,118.848381 674.865540,116.938324 
	C678.842163,115.352104 678.894043,112.512482 677.723145,109.275085 
	C677.907776,109.132332 678.092346,108.989571 678.563110,108.645203 
	C682.325867,113.758194 682.158386,117.976768 677.881104,122.899323 
z"/>
<path fill="#000000" opacity="1.000000" stroke="none" 
	d="
M458.120728,455.699310 
	C456.717682,443.468170 454.162476,431.642212 454.311066,419.850281 
	C454.581940,398.354248 456.226593,376.838898 464.800873,356.610687 
	C464.979462,356.189484 465.399139,355.870483 466.464172,354.599121 
	C479.811615,396.072906 481.200378,436.601532 466.651215,477.144073 
	C465.984070,477.278564 465.316925,477.413055 464.649780,477.547546 
	C462.495758,470.404968 460.341736,463.262390 458.120728,455.699310 
z"/>
<path fill="#F0ECEB" opacity="1.000000" stroke="none" 
	d="
M677.343811,109.128250 
	C678.894043,112.512482 678.842163,115.352104 674.865540,116.938324 
	C675.830566,118.848381 676.694397,120.558052 677.549072,122.662231 
	C676.030273,122.097847 674.383972,121.295616 673.052002,120.133186 
	C671.870361,119.101974 671.037842,117.670677 670.110413,116.491257 
	C668.818909,119.067383 667.850586,120.998978 666.482971,122.947266 
	C665.869751,118.191223 665.655762,113.418488 665.397705,107.662186 
	C669.622192,108.143997 673.293335,108.562698 677.343811,109.128250 
M674.557617,113.952240 
	C674.554749,112.855110 674.806946,110.895393 674.506042,110.806412 
	C673.002380,110.361786 671.246155,110.035248 669.804932,110.451111 
	C669.159912,110.637222 669.044617,112.658714 668.597168,114.154144 
	C670.862549,114.154144 672.313965,114.154144 674.557617,113.952240 
z"/>
<path fill="#603A2F" opacity="1.000000" stroke="none" 
	d="
M674.161499,114.053192 
	C672.313965,114.154144 670.862549,114.154144 668.597168,114.154144 
	C669.044617,112.658714 669.159912,110.637222 669.804932,110.451111 
	C671.246155,110.035248 673.002380,110.361786 674.506042,110.806412 
	C674.806946,110.895393 674.554749,112.855110 674.161499,114.053192 
z"/>
</pattern>
</svg>